<?xml version="1.0" encoding="utf-8" standalone="no"?>
<!DOCTYPE svg PUBLIC "-//W3C//DTD SVG 1.1//EN"
  "http://www.w3.org/Graphics/SVG/1.1/DTD/svg11.dtd">
<!-- Created with matplotlib (https://matplotlib.org/) -->
<svg height="641.641562pt" version="1.1" viewBox="0 0 352.5375 641.641562" width="352.5375pt" xmlns="http://www.w3.org/2000/svg" xmlns:xlink="http://www.w3.org/1999/xlink">
 <metadata>
  <rdf:RDF xmlns:cc="http://creativecommons.org/ns#" xmlns:dc="http://purl.org/dc/elements/1.1/" xmlns:rdf="http://www.w3.org/1999/02/22-rdf-syntax-ns#">
   <cc:Work>
    <dc:type rdf:resource="http://purl.org/dc/dcmitype/StillImage"/>
    <dc:date>2020-11-16T16:15:18.548553</dc:date>
    <dc:format>image/svg+xml</dc:format>
    <dc:creator>
     <cc:Agent>
      <dc:title>Matplotlib v3.3.2, https://matplotlib.org/</dc:title>
     </cc:Agent>
    </dc:creator>
   </cc:Work>
  </rdf:RDF>
 </metadata>
 <defs>
  <style type="text/css">*{stroke-linecap:butt;stroke-linejoin:round;}</style>
 </defs>
 <g id="figure_1">
  <g id="patch_1">
   <path d="M 0 641.641562 
L 352.5375 641.641562 
L 352.5375 0 
L 0 0 
z
" style="fill:none;"/>
  </g>
  <g id="axes_1">
   <g id="patch_2">
    <path d="M 45.0625 71.812991 
L 189.8 71.812991 
L 189.8 38.088437 
L 45.0625 38.088437 
z
" style="fill:#ffffff;"/>
   </g>
   <g id="patch_3">
    <path clip-path="url(#p68327d53ac)" d="M 63.154687 47.915548 
L 99.339062 47.915548 
L 99.339062 68.439881 
L 63.154687 68.439881 
z
" style="fill:#ff4500;"/>
   </g>
   <g id="patch_4">
    <path clip-path="url(#p68327d53ac)" d="M 135.523437 47.915548 
L 171.707812 47.915548 
L 171.707812 41.461547 
L 135.523437 41.461547 
z
" style="fill:#ff4500;"/>
   </g>
   <g id="matplotlib.axis_1">
    <g id="xtick_1">
     <g id="text_1">
      <!-- N -->
      <g transform="translate(77.635937 29.100937)scale(0.1 -0.1)">
       <defs>
        <path d="M 7.625 0 
L 7.625 71.578125 
L 17.328125 71.578125 
L 54.9375 15.375 
L 54.9375 71.578125 
L 64.015625 71.578125 
L 64.015625 0 
L 54.296875 0 
L 16.703125 56.25 
L 16.703125 0 
z
" id="ArialMT-78"/>
       </defs>
       <use xlink:href="#ArialMT-78"/>
      </g>
     </g>
    </g>
    <g id="xtick_2">
     <g id="text_2">
      <!-- Y -->
      <g transform="translate(150.280469 29.100937)scale(0.1 -0.1)">
       <defs>
        <path d="M 27.875 0 
L 27.875 30.328125 
L 0.296875 71.578125 
L 11.8125 71.578125 
L 25.921875 50 
Q 29.828125 43.953125 33.203125 37.890625 
Q 36.421875 43.5 41.015625 50.53125 
L 54.890625 71.578125 
L 65.921875 71.578125 
L 37.359375 30.328125 
L 37.359375 0 
z
" id="ArialMT-89"/>
       </defs>
       <use xlink:href="#ArialMT-89"/>
      </g>
     </g>
    </g>
   </g>
   <g id="matplotlib.axis_2">
    <g id="ytick_1">
     <g id="line2d_1">
      <defs>
       <path d="M 0 0 
L -3.5 0 
" id="mf14b32d06f" style="stroke:#000000;stroke-width:0.8;"/>
      </defs>
      <g>
       <use style="stroke:#000000;stroke-width:0.8;" x="45.0625" xlink:href="#mf14b32d06f" y="64.364236"/>
      </g>
     </g>
     <g id="text_3">
      <!-- −0.025 -->
      <g transform="translate(7.2 67.943143)scale(0.1 -0.1)">
       <defs>
        <path d="M 52.828125 31.203125 
L 5.5625 31.203125 
L 5.5625 39.40625 
L 52.828125 39.40625 
z
" id="ArialMT-8722"/>
        <path d="M 4.15625 35.296875 
Q 4.15625 48 6.765625 55.734375 
Q 9.375 63.484375 14.515625 67.671875 
Q 19.671875 71.875 27.484375 71.875 
Q 33.25 71.875 37.59375 69.546875 
Q 41.9375 67.234375 44.765625 62.859375 
Q 47.609375 58.5 49.21875 52.21875 
Q 50.828125 45.953125 50.828125 35.296875 
Q 50.828125 22.703125 48.234375 14.96875 
Q 45.65625 7.234375 40.5 3 
Q 35.359375 -1.21875 27.484375 -1.21875 
Q 17.140625 -1.21875 11.234375 6.203125 
Q 4.15625 15.140625 4.15625 35.296875 
z
M 13.1875 35.296875 
Q 13.1875 17.671875 17.3125 11.828125 
Q 21.4375 6 27.484375 6 
Q 33.546875 6 37.671875 11.859375 
Q 41.796875 17.71875 41.796875 35.296875 
Q 41.796875 52.984375 37.671875 58.78125 
Q 33.546875 64.59375 27.390625 64.59375 
Q 21.34375 64.59375 17.71875 59.46875 
Q 13.1875 52.9375 13.1875 35.296875 
z
" id="ArialMT-48"/>
        <path d="M 9.078125 0 
L 9.078125 10.015625 
L 19.09375 10.015625 
L 19.09375 0 
z
" id="ArialMT-46"/>
        <path d="M 50.34375 8.453125 
L 50.34375 0 
L 3.03125 0 
Q 2.9375 3.171875 4.046875 6.109375 
Q 5.859375 10.9375 9.828125 15.625 
Q 13.8125 20.3125 21.34375 26.46875 
Q 33.015625 36.03125 37.109375 41.625 
Q 41.21875 47.21875 41.21875 52.203125 
Q 41.21875 57.421875 37.46875 61 
Q 33.734375 64.59375 27.734375 64.59375 
Q 21.390625 64.59375 17.578125 60.78125 
Q 13.765625 56.984375 13.71875 50.25 
L 4.6875 51.171875 
Q 5.609375 61.28125 11.65625 66.578125 
Q 17.71875 71.875 27.9375 71.875 
Q 38.234375 71.875 44.234375 66.15625 
Q 50.25 60.453125 50.25 52 
Q 50.25 47.703125 48.484375 43.546875 
Q 46.734375 39.40625 42.65625 34.8125 
Q 38.578125 30.21875 29.109375 22.21875 
Q 21.1875 15.578125 18.9375 13.203125 
Q 16.703125 10.84375 15.234375 8.453125 
z
" id="ArialMT-50"/>
        <path d="M 4.15625 18.75 
L 13.375 19.53125 
Q 14.40625 12.796875 18.140625 9.390625 
Q 21.875 6 27.15625 6 
Q 33.5 6 37.890625 10.78125 
Q 42.28125 15.578125 42.28125 23.484375 
Q 42.28125 31 38.0625 35.34375 
Q 33.84375 39.703125 27 39.703125 
Q 22.75 39.703125 19.328125 37.765625 
Q 15.921875 35.84375 13.96875 32.765625 
L 5.71875 33.84375 
L 12.640625 70.609375 
L 48.25 70.609375 
L 48.25 62.203125 
L 19.671875 62.203125 
L 15.828125 42.96875 
Q 22.265625 47.46875 29.34375 47.46875 
Q 38.71875 47.46875 45.15625 40.96875 
Q 51.609375 34.46875 51.609375 24.265625 
Q 51.609375 14.546875 45.953125 7.46875 
Q 39.0625 -1.21875 27.15625 -1.21875 
Q 17.390625 -1.21875 11.203125 4.25 
Q 5.03125 9.71875 4.15625 18.75 
z
" id="ArialMT-53"/>
       </defs>
       <use xlink:href="#ArialMT-8722"/>
       <use x="58.398438" xlink:href="#ArialMT-48"/>
       <use x="114.013672" xlink:href="#ArialMT-46"/>
       <use x="141.796875" xlink:href="#ArialMT-48"/>
       <use x="197.412109" xlink:href="#ArialMT-50"/>
       <use x="253.027344" xlink:href="#ArialMT-53"/>
      </g>
     </g>
    </g>
    <g id="ytick_2">
     <g id="line2d_2">
      <g>
       <use style="stroke:#000000;stroke-width:0.8;" x="45.0625" xlink:href="#mf14b32d06f" y="47.915548"/>
      </g>
     </g>
     <g id="text_4">
      <!-- 0.000 -->
      <g transform="translate(13.040625 51.494454)scale(0.1 -0.1)">
       <use xlink:href="#ArialMT-48"/>
       <use x="55.615234" xlink:href="#ArialMT-46"/>
       <use x="83.398438" xlink:href="#ArialMT-48"/>
       <use x="139.013672" xlink:href="#ArialMT-48"/>
       <use x="194.628906" xlink:href="#ArialMT-48"/>
      </g>
     </g>
    </g>
   </g>
   <g id="line2d_3">
    <path clip-path="url(#p68327d53ac)" d="M 45.0625 47.915548 
L 189.8 47.915548 
" style="fill:none;stroke:#000000;stroke-linecap:square;stroke-width:0.8;"/>
   </g>
   <g id="text_5">
    <!-- Other joint disorders -->
    <g transform="translate(63.411562 15.943125)scale(0.12 -0.12)">
     <defs>
      <path d="M 4.828125 34.859375 
Q 4.828125 52.6875 14.390625 62.765625 
Q 23.96875 72.859375 39.109375 72.859375 
Q 49.03125 72.859375 56.984375 68.109375 
Q 64.9375 63.375 69.109375 54.90625 
Q 73.296875 46.4375 73.296875 35.6875 
Q 73.296875 24.8125 68.890625 16.21875 
Q 64.5 7.625 56.4375 3.203125 
Q 48.390625 -1.21875 39.0625 -1.21875 
Q 28.953125 -1.21875 20.984375 3.65625 
Q 13.03125 8.546875 8.921875 16.984375 
Q 4.828125 25.4375 4.828125 34.859375 
z
M 14.59375 34.71875 
Q 14.59375 21.78125 21.546875 14.328125 
Q 28.515625 6.890625 39.015625 6.890625 
Q 49.703125 6.890625 56.609375 14.40625 
Q 63.53125 21.921875 63.53125 35.75 
Q 63.53125 44.484375 60.578125 51 
Q 57.625 57.515625 51.921875 61.109375 
Q 46.234375 64.703125 39.15625 64.703125 
Q 29.109375 64.703125 21.84375 57.78125 
Q 14.59375 50.875 14.59375 34.71875 
z
" id="ArialMT-79"/>
      <path d="M 25.78125 7.859375 
L 27.046875 0.09375 
Q 23.34375 -0.6875 20.40625 -0.6875 
Q 15.625 -0.6875 12.984375 0.828125 
Q 10.359375 2.34375 9.28125 4.8125 
Q 8.203125 7.28125 8.203125 15.1875 
L 8.203125 45.015625 
L 1.765625 45.015625 
L 1.765625 51.859375 
L 8.203125 51.859375 
L 8.203125 64.703125 
L 16.9375 69.96875 
L 16.9375 51.859375 
L 25.78125 51.859375 
L 25.78125 45.015625 
L 16.9375 45.015625 
L 16.9375 14.703125 
Q 16.9375 10.9375 17.40625 9.859375 
Q 17.875 8.796875 18.921875 8.15625 
Q 19.96875 7.515625 21.921875 7.515625 
Q 23.390625 7.515625 25.78125 7.859375 
z
" id="ArialMT-116"/>
      <path d="M 6.59375 0 
L 6.59375 71.578125 
L 15.375 71.578125 
L 15.375 45.90625 
Q 21.53125 53.03125 30.90625 53.03125 
Q 36.671875 53.03125 40.921875 50.75 
Q 45.171875 48.484375 47 44.484375 
Q 48.828125 40.484375 48.828125 32.859375 
L 48.828125 0 
L 40.046875 0 
L 40.046875 32.859375 
Q 40.046875 39.453125 37.1875 42.453125 
Q 34.328125 45.453125 29.109375 45.453125 
Q 25.203125 45.453125 21.75 43.421875 
Q 18.3125 41.40625 16.84375 37.9375 
Q 15.375 34.46875 15.375 28.375 
L 15.375 0 
z
" id="ArialMT-104"/>
      <path d="M 42.09375 16.703125 
L 51.171875 15.578125 
Q 49.03125 7.625 43.21875 3.21875 
Q 37.40625 -1.171875 28.375 -1.171875 
Q 17 -1.171875 10.328125 5.828125 
Q 3.65625 12.84375 3.65625 25.484375 
Q 3.65625 38.578125 10.390625 45.796875 
Q 17.140625 53.03125 27.875 53.03125 
Q 38.28125 53.03125 44.875 45.953125 
Q 51.46875 38.875 51.46875 26.03125 
Q 51.46875 25.25 51.421875 23.6875 
L 12.75 23.6875 
Q 13.234375 15.140625 17.578125 10.59375 
Q 21.921875 6.0625 28.421875 6.0625 
Q 33.25 6.0625 36.671875 8.59375 
Q 40.09375 11.140625 42.09375 16.703125 
z
M 13.234375 30.90625 
L 42.1875 30.90625 
Q 41.609375 37.453125 38.875 40.71875 
Q 34.671875 45.796875 27.984375 45.796875 
Q 21.921875 45.796875 17.796875 41.75 
Q 13.671875 37.703125 13.234375 30.90625 
z
" id="ArialMT-101"/>
      <path d="M 6.5 0 
L 6.5 51.859375 
L 14.40625 51.859375 
L 14.40625 44 
Q 17.4375 49.515625 20 51.265625 
Q 22.5625 53.03125 25.640625 53.03125 
Q 30.078125 53.03125 34.671875 50.203125 
L 31.640625 42.046875 
Q 28.421875 43.953125 25.203125 43.953125 
Q 22.3125 43.953125 20.015625 42.21875 
Q 17.71875 40.484375 16.75 37.40625 
Q 15.28125 32.71875 15.28125 27.15625 
L 15.28125 0 
z
" id="ArialMT-114"/>
      <path id="ArialMT-32"/>
      <path d="M 6.546875 61.375 
L 6.546875 71.578125 
L 15.328125 71.578125 
L 15.328125 61.375 
z
M -4.59375 -20.125 
L -2.9375 -12.640625 
Q -0.296875 -13.328125 1.21875 -13.328125 
Q 3.90625 -13.328125 5.21875 -11.546875 
Q 6.546875 -9.765625 6.546875 -2.640625 
L 6.546875 51.859375 
L 15.328125 51.859375 
L 15.328125 -2.828125 
Q 15.328125 -12.40625 12.84375 -16.15625 
Q 9.671875 -21.046875 2.296875 -21.046875 
Q -1.265625 -21.046875 -4.59375 -20.125 
z
" id="ArialMT-106"/>
      <path d="M 3.328125 25.921875 
Q 3.328125 40.328125 11.328125 47.265625 
Q 18.015625 53.03125 27.640625 53.03125 
Q 38.328125 53.03125 45.109375 46.015625 
Q 51.90625 39.015625 51.90625 26.65625 
Q 51.90625 16.65625 48.90625 10.90625 
Q 45.90625 5.171875 40.15625 2 
Q 34.421875 -1.171875 27.640625 -1.171875 
Q 16.75 -1.171875 10.03125 5.8125 
Q 3.328125 12.796875 3.328125 25.921875 
z
M 12.359375 25.921875 
Q 12.359375 15.96875 16.703125 11.015625 
Q 21.046875 6.0625 27.640625 6.0625 
Q 34.1875 6.0625 38.53125 11.03125 
Q 42.875 16.015625 42.875 26.21875 
Q 42.875 35.84375 38.5 40.796875 
Q 34.125 45.75 27.640625 45.75 
Q 21.046875 45.75 16.703125 40.8125 
Q 12.359375 35.890625 12.359375 25.921875 
z
" id="ArialMT-111"/>
      <path d="M 6.640625 61.46875 
L 6.640625 71.578125 
L 15.4375 71.578125 
L 15.4375 61.46875 
z
M 6.640625 0 
L 6.640625 51.859375 
L 15.4375 51.859375 
L 15.4375 0 
z
" id="ArialMT-105"/>
      <path d="M 6.59375 0 
L 6.59375 51.859375 
L 14.5 51.859375 
L 14.5 44.484375 
Q 20.21875 53.03125 31 53.03125 
Q 35.6875 53.03125 39.625 51.34375 
Q 43.5625 49.65625 45.515625 46.921875 
Q 47.46875 44.1875 48.25 40.4375 
Q 48.734375 37.984375 48.734375 31.890625 
L 48.734375 0 
L 39.9375 0 
L 39.9375 31.546875 
Q 39.9375 36.921875 38.90625 39.578125 
Q 37.890625 42.234375 35.28125 43.8125 
Q 32.671875 45.40625 29.15625 45.40625 
Q 23.53125 45.40625 19.453125 41.84375 
Q 15.375 38.28125 15.375 28.328125 
L 15.375 0 
z
" id="ArialMT-110"/>
      <path d="M 40.234375 0 
L 40.234375 6.546875 
Q 35.296875 -1.171875 25.734375 -1.171875 
Q 19.53125 -1.171875 14.328125 2.25 
Q 9.125 5.671875 6.265625 11.796875 
Q 3.421875 17.921875 3.421875 25.875 
Q 3.421875 33.640625 6 39.96875 
Q 8.59375 46.296875 13.765625 49.65625 
Q 18.953125 53.03125 25.34375 53.03125 
Q 30.03125 53.03125 33.6875 51.046875 
Q 37.359375 49.078125 39.65625 45.90625 
L 39.65625 71.578125 
L 48.390625 71.578125 
L 48.390625 0 
z
M 12.453125 25.875 
Q 12.453125 15.921875 16.640625 10.984375 
Q 20.84375 6.0625 26.5625 6.0625 
Q 32.328125 6.0625 36.34375 10.765625 
Q 40.375 15.484375 40.375 25.140625 
Q 40.375 35.796875 36.265625 40.765625 
Q 32.171875 45.75 26.171875 45.75 
Q 20.3125 45.75 16.375 40.96875 
Q 12.453125 36.1875 12.453125 25.875 
z
" id="ArialMT-100"/>
      <path d="M 3.078125 15.484375 
L 11.765625 16.84375 
Q 12.5 11.625 15.84375 8.84375 
Q 19.1875 6.0625 25.203125 6.0625 
Q 31.25 6.0625 34.171875 8.515625 
Q 37.109375 10.984375 37.109375 14.3125 
Q 37.109375 17.28125 34.515625 19 
Q 32.71875 20.171875 25.53125 21.96875 
Q 15.875 24.421875 12.140625 26.203125 
Q 8.40625 27.984375 6.46875 31.125 
Q 4.546875 34.28125 4.546875 38.09375 
Q 4.546875 41.546875 6.125 44.5 
Q 7.71875 47.46875 10.453125 49.421875 
Q 12.5 50.921875 16.03125 51.96875 
Q 19.578125 53.03125 23.640625 53.03125 
Q 29.734375 53.03125 34.34375 51.265625 
Q 38.96875 49.515625 41.15625 46.5 
Q 43.359375 43.5 44.1875 38.484375 
L 35.59375 37.3125 
Q 35.015625 41.3125 32.203125 43.546875 
Q 29.390625 45.796875 24.265625 45.796875 
Q 18.21875 45.796875 15.625 43.796875 
Q 13.03125 41.796875 13.03125 39.109375 
Q 13.03125 37.40625 14.109375 36.03125 
Q 15.1875 34.625 17.484375 33.6875 
Q 18.796875 33.203125 25.25 31.453125 
Q 34.578125 28.953125 38.25 27.359375 
Q 41.9375 25.78125 44.03125 22.75 
Q 46.140625 19.734375 46.140625 15.234375 
Q 46.140625 10.84375 43.578125 6.953125 
Q 41.015625 3.078125 36.171875 0.953125 
Q 31.34375 -1.171875 25.25 -1.171875 
Q 15.140625 -1.171875 9.84375 3.03125 
Q 4.546875 7.234375 3.078125 15.484375 
z
" id="ArialMT-115"/>
     </defs>
     <use xlink:href="#ArialMT-79"/>
     <use x="77.783203" xlink:href="#ArialMT-116"/>
     <use x="105.566406" xlink:href="#ArialMT-104"/>
     <use x="161.181641" xlink:href="#ArialMT-101"/>
     <use x="216.796875" xlink:href="#ArialMT-114"/>
     <use x="250.097656" xlink:href="#ArialMT-32"/>
     <use x="277.880859" xlink:href="#ArialMT-106"/>
     <use x="300.097656" xlink:href="#ArialMT-111"/>
     <use x="355.712891" xlink:href="#ArialMT-105"/>
     <use x="377.929688" xlink:href="#ArialMT-110"/>
     <use x="433.544922" xlink:href="#ArialMT-116"/>
     <use x="461.328125" xlink:href="#ArialMT-32"/>
     <use x="489.111328" xlink:href="#ArialMT-100"/>
     <use x="544.726562" xlink:href="#ArialMT-105"/>
     <use x="566.943359" xlink:href="#ArialMT-115"/>
     <use x="616.943359" xlink:href="#ArialMT-111"/>
     <use x="672.558594" xlink:href="#ArialMT-114"/>
     <use x="705.859375" xlink:href="#ArialMT-100"/>
     <use x="761.474609" xlink:href="#ArialMT-101"/>
     <use x="817.089844" xlink:href="#ArialMT-114"/>
     <use x="850.390625" xlink:href="#ArialMT-115"/>
    </g>
   </g>
  </g>
  <g id="axes_2">
   <g id="patch_5">
    <path d="M 200.6 71.812991 
L 345.3375 71.812991 
L 345.3375 38.088437 
L 200.6 38.088437 
z
" style="fill:#ffffff;"/>
   </g>
   <g id="patch_6">
    <path clip-path="url(#p1ffca763b2)" d="M 218.692187 47.915548 
L 254.876562 47.915548 
L 254.876562 70.280057 
L 218.692187 70.280057 
z
" style="fill:#ff4500;"/>
   </g>
   <g id="patch_7">
    <path clip-path="url(#p1ffca763b2)" d="M 291.060937 47.915548 
L 327.245312 47.915548 
L 327.245312 39.621372 
L 291.060937 39.621372 
z
" style="fill:#ff4500;"/>
   </g>
   <g id="matplotlib.axis_3">
    <g id="xtick_3">
     <g id="text_6">
      <!-- N -->
      <g transform="translate(233.173437 29.100937)scale(0.1 -0.1)">
       <use xlink:href="#ArialMT-78"/>
      </g>
     </g>
    </g>
    <g id="xtick_4">
     <g id="text_7">
      <!-- Y -->
      <g transform="translate(305.817969 29.100937)scale(0.1 -0.1)">
       <use xlink:href="#ArialMT-89"/>
      </g>
     </g>
    </g>
   </g>
   <g id="matplotlib.axis_4">
    <g id="ytick_3"/>
    <g id="ytick_4"/>
   </g>
   <g id="line2d_4">
    <path clip-path="url(#p1ffca763b2)" d="M 200.6 47.915548 
L 345.3375 47.915548 
" style="fill:none;stroke:#000000;stroke-linecap:square;stroke-width:0.8;"/>
   </g>
   <g id="text_8">
    <!-- Spondylosis -->
    <g transform="translate(240.6175 15.943125)scale(0.12 -0.12)">
     <defs>
      <path d="M 4.5 23 
L 13.421875 23.78125 
Q 14.0625 18.40625 16.375 14.96875 
Q 18.703125 11.53125 23.578125 9.40625 
Q 28.46875 7.28125 34.578125 7.28125 
Q 39.984375 7.28125 44.140625 8.890625 
Q 48.296875 10.5 50.3125 13.296875 
Q 52.34375 16.109375 52.34375 19.4375 
Q 52.34375 22.796875 50.390625 25.3125 
Q 48.4375 27.828125 43.953125 29.546875 
Q 41.0625 30.671875 31.203125 33.03125 
Q 21.34375 35.40625 17.390625 37.5 
Q 12.25 40.1875 9.734375 44.15625 
Q 7.234375 48.140625 7.234375 53.078125 
Q 7.234375 58.5 10.296875 63.203125 
Q 13.375 67.921875 19.28125 70.359375 
Q 25.203125 72.796875 32.421875 72.796875 
Q 40.375 72.796875 46.453125 70.234375 
Q 52.546875 67.671875 55.8125 62.6875 
Q 59.078125 57.71875 59.328125 51.421875 
L 50.25 50.734375 
Q 49.515625 57.515625 45.28125 60.984375 
Q 41.0625 64.453125 32.8125 64.453125 
Q 24.21875 64.453125 20.28125 61.296875 
Q 16.359375 58.15625 16.359375 53.71875 
Q 16.359375 49.859375 19.140625 47.359375 
Q 21.875 44.875 33.421875 42.265625 
Q 44.96875 39.65625 49.265625 37.703125 
Q 55.515625 34.8125 58.484375 30.390625 
Q 61.46875 25.984375 61.46875 20.21875 
Q 61.46875 14.5 58.203125 9.4375 
Q 54.9375 4.390625 48.796875 1.578125 
Q 42.671875 -1.21875 35.015625 -1.21875 
Q 25.296875 -1.21875 18.71875 1.609375 
Q 12.15625 4.4375 8.421875 10.125 
Q 4.6875 15.828125 4.5 23 
z
" id="ArialMT-83"/>
      <path d="M 6.59375 -19.875 
L 6.59375 51.859375 
L 14.59375 51.859375 
L 14.59375 45.125 
Q 17.4375 49.078125 21 51.046875 
Q 24.5625 53.03125 29.640625 53.03125 
Q 36.28125 53.03125 41.359375 49.609375 
Q 46.4375 46.1875 49.015625 39.953125 
Q 51.609375 33.734375 51.609375 26.3125 
Q 51.609375 18.359375 48.75 11.984375 
Q 45.90625 5.609375 40.453125 2.21875 
Q 35.015625 -1.171875 29 -1.171875 
Q 24.609375 -1.171875 21.109375 0.6875 
Q 17.625 2.546875 15.375 5.375 
L 15.375 -19.875 
z
M 14.546875 25.640625 
Q 14.546875 15.625 18.59375 10.84375 
Q 22.65625 6.0625 28.421875 6.0625 
Q 34.28125 6.0625 38.453125 11.015625 
Q 42.625 15.96875 42.625 26.375 
Q 42.625 36.28125 38.546875 41.203125 
Q 34.46875 46.140625 28.8125 46.140625 
Q 23.1875 46.140625 18.859375 40.890625 
Q 14.546875 35.640625 14.546875 25.640625 
z
" id="ArialMT-112"/>
      <path d="M 6.203125 -19.96875 
L 5.21875 -11.71875 
Q 8.109375 -12.5 10.25 -12.5 
Q 13.1875 -12.5 14.9375 -11.515625 
Q 16.703125 -10.546875 17.828125 -8.796875 
Q 18.65625 -7.46875 20.515625 -2.25 
Q 20.75 -1.515625 21.296875 -0.09375 
L 1.609375 51.859375 
L 11.078125 51.859375 
L 21.875 21.828125 
Q 23.96875 16.109375 25.640625 9.8125 
Q 27.15625 15.875 29.25 21.625 
L 40.328125 51.859375 
L 49.125 51.859375 
L 29.390625 -0.875 
Q 26.21875 -9.421875 24.46875 -12.640625 
Q 22.125 -17 19.09375 -19.015625 
Q 16.0625 -21.046875 11.859375 -21.046875 
Q 9.328125 -21.046875 6.203125 -19.96875 
z
" id="ArialMT-121"/>
      <path d="M 6.390625 0 
L 6.390625 71.578125 
L 15.1875 71.578125 
L 15.1875 0 
z
" id="ArialMT-108"/>
     </defs>
     <use xlink:href="#ArialMT-83"/>
     <use x="66.699219" xlink:href="#ArialMT-112"/>
     <use x="122.314453" xlink:href="#ArialMT-111"/>
     <use x="177.929688" xlink:href="#ArialMT-110"/>
     <use x="233.544922" xlink:href="#ArialMT-100"/>
     <use x="289.160156" xlink:href="#ArialMT-121"/>
     <use x="339.160156" xlink:href="#ArialMT-108"/>
     <use x="361.376953" xlink:href="#ArialMT-111"/>
     <use x="416.992188" xlink:href="#ArialMT-115"/>
     <use x="466.992188" xlink:href="#ArialMT-105"/>
     <use x="489.208984" xlink:href="#ArialMT-115"/>
    </g>
   </g>
  </g>
  <g id="axes_3">
   <g id="patch_8">
    <path d="M 45.0625 165.58442 
L 189.8 165.58442 
L 189.8 131.859866 
L 45.0625 131.859866 
z
" style="fill:#ffffff;"/>
   </g>
   <g id="patch_9">
    <path clip-path="url(#p0dc7267e6e)" d="M 63.154687 141.686976 
L 99.339062 141.686976 
L 99.339062 157.313169 
L 63.154687 157.313169 
z
" style="fill:#ff4500;"/>
   </g>
   <g id="patch_10">
    <path clip-path="url(#p0dc7267e6e)" d="M 135.523437 141.686976 
L 171.707812 141.686976 
L 171.707812 140.131117 
L 135.523437 140.131117 
z
" style="fill:#ff4500;"/>
   </g>
   <g id="matplotlib.axis_5">
    <g id="xtick_5">
     <g id="text_9">
      <!-- 0-1 -->
      <g transform="translate(74.021094 122.872366)scale(0.1 -0.1)">
       <defs>
        <path d="M 3.171875 21.484375 
L 3.171875 30.328125 
L 30.171875 30.328125 
L 30.171875 21.484375 
z
" id="ArialMT-45"/>
        <path d="M 37.25 0 
L 28.46875 0 
L 28.46875 56 
Q 25.296875 52.984375 20.140625 49.953125 
Q 14.984375 46.921875 10.890625 45.40625 
L 10.890625 53.90625 
Q 18.265625 57.375 23.78125 62.296875 
Q 29.296875 67.234375 31.59375 71.875 
L 37.25 71.875 
z
" id="ArialMT-49"/>
       </defs>
       <use xlink:href="#ArialMT-48"/>
       <use x="55.615234" xlink:href="#ArialMT-45"/>
       <use x="88.916016" xlink:href="#ArialMT-49"/>
      </g>
     </g>
    </g>
    <g id="xtick_6">
     <g id="text_10">
      <!-- 2-19 -->
      <g transform="translate(143.609375 122.872366)scale(0.1 -0.1)">
       <defs>
        <path d="M 5.46875 16.546875 
L 13.921875 17.328125 
Q 14.984375 11.375 18.015625 8.6875 
Q 21.046875 6 25.78125 6 
Q 29.828125 6 32.875 7.859375 
Q 35.9375 9.71875 37.890625 12.8125 
Q 39.84375 15.921875 41.15625 21.1875 
Q 42.484375 26.46875 42.484375 31.9375 
Q 42.484375 32.515625 42.4375 33.6875 
Q 39.796875 29.5 35.234375 26.875 
Q 30.671875 24.265625 25.34375 24.265625 
Q 16.453125 24.265625 10.296875 30.703125 
Q 4.15625 37.15625 4.15625 47.703125 
Q 4.15625 58.59375 10.578125 65.234375 
Q 17 71.875 26.65625 71.875 
Q 33.640625 71.875 39.421875 68.109375 
Q 45.21875 64.359375 48.21875 57.390625 
Q 51.21875 50.4375 51.21875 37.25 
Q 51.21875 23.53125 48.234375 15.40625 
Q 45.265625 7.28125 39.375 3.03125 
Q 33.5 -1.21875 25.59375 -1.21875 
Q 17.1875 -1.21875 11.859375 3.4375 
Q 6.546875 8.109375 5.46875 16.546875 
z
M 41.453125 48.140625 
Q 41.453125 55.71875 37.421875 60.15625 
Q 33.40625 64.59375 27.734375 64.59375 
Q 21.875 64.59375 17.53125 59.8125 
Q 13.1875 55.03125 13.1875 47.40625 
Q 13.1875 40.578125 17.3125 36.296875 
Q 21.4375 32.03125 27.484375 32.03125 
Q 33.59375 32.03125 37.515625 36.296875 
Q 41.453125 40.578125 41.453125 48.140625 
z
" id="ArialMT-57"/>
       </defs>
       <use xlink:href="#ArialMT-50"/>
       <use x="55.615234" xlink:href="#ArialMT-45"/>
       <use x="88.916016" xlink:href="#ArialMT-49"/>
       <use x="144.53125" xlink:href="#ArialMT-57"/>
      </g>
     </g>
    </g>
   </g>
   <g id="matplotlib.axis_6">
    <g id="ytick_5">
     <g id="line2d_5">
      <g>
       <use style="stroke:#000000;stroke-width:0.8;" x="45.0625" xlink:href="#mf14b32d06f" y="158.135665"/>
      </g>
     </g>
     <g id="text_11">
      <!-- −0.025 -->
      <g transform="translate(7.2 161.714571)scale(0.1 -0.1)">
       <use xlink:href="#ArialMT-8722"/>
       <use x="58.398438" xlink:href="#ArialMT-48"/>
       <use x="114.013672" xlink:href="#ArialMT-46"/>
       <use x="141.796875" xlink:href="#ArialMT-48"/>
       <use x="197.412109" xlink:href="#ArialMT-50"/>
       <use x="253.027344" xlink:href="#ArialMT-53"/>
      </g>
     </g>
    </g>
    <g id="ytick_6">
     <g id="line2d_6">
      <g>
       <use style="stroke:#000000;stroke-width:0.8;" x="45.0625" xlink:href="#mf14b32d06f" y="141.686976"/>
      </g>
     </g>
     <g id="text_12">
      <!-- 0.000 -->
      <g transform="translate(13.040625 145.265883)scale(0.1 -0.1)">
       <use xlink:href="#ArialMT-48"/>
       <use x="55.615234" xlink:href="#ArialMT-46"/>
       <use x="83.398438" xlink:href="#ArialMT-48"/>
       <use x="139.013672" xlink:href="#ArialMT-48"/>
       <use x="194.628906" xlink:href="#ArialMT-48"/>
      </g>
     </g>
    </g>
   </g>
   <g id="line2d_7">
    <path clip-path="url(#p0dc7267e6e)" d="M 45.0625 141.686976 
L 189.8 141.686976 
" style="fill:none;stroke:#000000;stroke-linecap:square;stroke-width:0.8;"/>
   </g>
   <g id="text_13">
    <!-- Charlson Cormorbidity Index -->
    <g transform="translate(41.404687 109.714554)scale(0.12 -0.12)">
     <defs>
      <path d="M 58.796875 25.09375 
L 68.265625 22.703125 
Q 65.28125 11.03125 57.546875 4.90625 
Q 49.8125 -1.21875 38.625 -1.21875 
Q 27.046875 -1.21875 19.796875 3.484375 
Q 12.546875 8.203125 8.765625 17.140625 
Q 4.984375 26.078125 4.984375 36.328125 
Q 4.984375 47.515625 9.25 55.828125 
Q 13.53125 64.15625 21.40625 68.46875 
Q 29.296875 72.796875 38.765625 72.796875 
Q 49.515625 72.796875 56.828125 67.328125 
Q 64.15625 61.859375 67.046875 51.953125 
L 57.71875 49.75 
Q 55.21875 57.5625 50.484375 61.125 
Q 45.75 64.703125 38.578125 64.703125 
Q 30.328125 64.703125 24.78125 60.734375 
Q 19.234375 56.78125 16.984375 50.109375 
Q 14.75 43.453125 14.75 36.375 
Q 14.75 27.25 17.40625 20.4375 
Q 20.0625 13.625 25.671875 10.25 
Q 31.296875 6.890625 37.84375 6.890625 
Q 45.796875 6.890625 51.3125 11.46875 
Q 56.84375 16.0625 58.796875 25.09375 
z
" id="ArialMT-67"/>
      <path d="M 40.4375 6.390625 
Q 35.546875 2.25 31.03125 0.53125 
Q 26.515625 -1.171875 21.34375 -1.171875 
Q 12.796875 -1.171875 8.203125 3 
Q 3.609375 7.171875 3.609375 13.671875 
Q 3.609375 17.484375 5.34375 20.625 
Q 7.078125 23.78125 9.890625 25.6875 
Q 12.703125 27.59375 16.21875 28.5625 
Q 18.796875 29.25 24.03125 29.890625 
Q 34.671875 31.15625 39.703125 32.90625 
Q 39.75 34.71875 39.75 35.203125 
Q 39.75 40.578125 37.25 42.78125 
Q 33.890625 45.75 27.25 45.75 
Q 21.046875 45.75 18.09375 43.578125 
Q 15.140625 41.40625 13.71875 35.890625 
L 5.125 37.0625 
Q 6.296875 42.578125 8.984375 45.96875 
Q 11.671875 49.359375 16.75 51.1875 
Q 21.828125 53.03125 28.515625 53.03125 
Q 35.15625 53.03125 39.296875 51.46875 
Q 43.453125 49.90625 45.40625 47.53125 
Q 47.359375 45.171875 48.140625 41.546875 
Q 48.578125 39.3125 48.578125 33.453125 
L 48.578125 21.734375 
Q 48.578125 9.46875 49.140625 6.21875 
Q 49.703125 2.984375 51.375 0 
L 42.1875 0 
Q 40.828125 2.734375 40.4375 6.390625 
z
M 39.703125 26.03125 
Q 34.90625 24.078125 25.34375 22.703125 
Q 19.921875 21.921875 17.671875 20.9375 
Q 15.4375 19.96875 14.203125 18.09375 
Q 12.984375 16.21875 12.984375 13.921875 
Q 12.984375 10.40625 15.640625 8.0625 
Q 18.3125 5.71875 23.4375 5.71875 
Q 28.515625 5.71875 32.46875 7.9375 
Q 36.421875 10.15625 38.28125 14.015625 
Q 39.703125 17 39.703125 22.796875 
z
" id="ArialMT-97"/>
      <path d="M 6.59375 0 
L 6.59375 51.859375 
L 14.453125 51.859375 
L 14.453125 44.578125 
Q 16.890625 48.390625 20.9375 50.703125 
Q 25 53.03125 30.171875 53.03125 
Q 35.9375 53.03125 39.625 50.640625 
Q 43.3125 48.25 44.828125 43.953125 
Q 50.984375 53.03125 60.84375 53.03125 
Q 68.5625 53.03125 72.703125 48.75 
Q 76.859375 44.484375 76.859375 35.59375 
L 76.859375 0 
L 68.109375 0 
L 68.109375 32.671875 
Q 68.109375 37.9375 67.25 40.25 
Q 66.40625 42.578125 64.15625 43.984375 
Q 61.921875 45.40625 58.890625 45.40625 
Q 53.421875 45.40625 49.796875 41.765625 
Q 46.1875 38.140625 46.1875 30.125 
L 46.1875 0 
L 37.40625 0 
L 37.40625 33.6875 
Q 37.40625 39.546875 35.25 42.46875 
Q 33.109375 45.40625 28.21875 45.40625 
Q 24.515625 45.40625 21.359375 43.453125 
Q 18.21875 41.5 16.796875 37.734375 
Q 15.375 33.984375 15.375 26.90625 
L 15.375 0 
z
" id="ArialMT-109"/>
      <path d="M 14.703125 0 
L 6.546875 0 
L 6.546875 71.578125 
L 15.328125 71.578125 
L 15.328125 46.046875 
Q 20.90625 53.03125 29.546875 53.03125 
Q 34.328125 53.03125 38.59375 51.09375 
Q 42.875 49.171875 45.625 45.671875 
Q 48.390625 42.1875 49.953125 37.25 
Q 51.515625 32.328125 51.515625 26.703125 
Q 51.515625 13.375 44.921875 6.09375 
Q 38.328125 -1.171875 29.109375 -1.171875 
Q 19.921875 -1.171875 14.703125 6.5 
z
M 14.59375 26.3125 
Q 14.59375 17 17.140625 12.84375 
Q 21.296875 6.0625 28.375 6.0625 
Q 34.125 6.0625 38.328125 11.0625 
Q 42.53125 16.0625 42.53125 25.984375 
Q 42.53125 36.140625 38.5 40.96875 
Q 34.46875 45.796875 28.765625 45.796875 
Q 23 45.796875 18.796875 40.796875 
Q 14.59375 35.796875 14.59375 26.3125 
z
" id="ArialMT-98"/>
      <path d="M 9.328125 0 
L 9.328125 71.578125 
L 18.796875 71.578125 
L 18.796875 0 
z
" id="ArialMT-73"/>
      <path d="M 0.734375 0 
L 19.671875 26.953125 
L 2.15625 51.859375 
L 13.140625 51.859375 
L 21.09375 39.703125 
Q 23.34375 36.234375 24.703125 33.890625 
Q 26.859375 37.109375 28.65625 39.59375 
L 37.40625 51.859375 
L 47.90625 51.859375 
L 29.984375 27.4375 
L 49.265625 0 
L 38.484375 0 
L 27.828125 16.109375 
L 25 20.453125 
L 11.375 0 
z
" id="ArialMT-120"/>
     </defs>
     <use xlink:href="#ArialMT-67"/>
     <use x="72.216797" xlink:href="#ArialMT-104"/>
     <use x="127.832031" xlink:href="#ArialMT-97"/>
     <use x="183.447266" xlink:href="#ArialMT-114"/>
     <use x="216.748047" xlink:href="#ArialMT-108"/>
     <use x="238.964844" xlink:href="#ArialMT-115"/>
     <use x="288.964844" xlink:href="#ArialMT-111"/>
     <use x="344.580078" xlink:href="#ArialMT-110"/>
     <use x="400.195312" xlink:href="#ArialMT-32"/>
     <use x="427.978516" xlink:href="#ArialMT-67"/>
     <use x="500.195312" xlink:href="#ArialMT-111"/>
     <use x="555.810547" xlink:href="#ArialMT-114"/>
     <use x="589.111328" xlink:href="#ArialMT-109"/>
     <use x="672.412109" xlink:href="#ArialMT-111"/>
     <use x="728.027344" xlink:href="#ArialMT-114"/>
     <use x="761.328125" xlink:href="#ArialMT-98"/>
     <use x="816.943359" xlink:href="#ArialMT-105"/>
     <use x="839.160156" xlink:href="#ArialMT-100"/>
     <use x="894.775391" xlink:href="#ArialMT-105"/>
     <use x="916.992188" xlink:href="#ArialMT-116"/>
     <use x="944.775391" xlink:href="#ArialMT-121"/>
     <use x="994.775391" xlink:href="#ArialMT-32"/>
     <use x="1022.558594" xlink:href="#ArialMT-73"/>
     <use x="1050.341797" xlink:href="#ArialMT-110"/>
     <use x="1105.957031" xlink:href="#ArialMT-100"/>
     <use x="1161.572266" xlink:href="#ArialMT-101"/>
     <use x="1217.1875" xlink:href="#ArialMT-120"/>
    </g>
   </g>
  </g>
  <g id="axes_4">
   <g id="patch_11">
    <path d="M 200.6 165.58442 
L 345.3375 165.58442 
L 345.3375 131.859866 
L 200.6 131.859866 
z
" style="fill:#ffffff;"/>
   </g>
   <g id="patch_12">
    <path clip-path="url(#p115678e2fa)" d="M 218.692187 141.686976 
L 254.876562 141.686976 
L 254.876562 154.682917 
L 218.692187 154.682917 
z
" style="fill:#ff4500;"/>
   </g>
   <g id="patch_13">
    <path clip-path="url(#p115678e2fa)" d="M 291.060937 141.686976 
L 327.245312 141.686976 
L 327.245312 142.761368 
L 291.060937 142.761368 
z
" style="fill:#ff4500;"/>
   </g>
   <g id="matplotlib.axis_7">
    <g id="xtick_7">
     <g id="text_14">
      <!-- N -->
      <g transform="translate(233.173437 122.872366)scale(0.1 -0.1)">
       <use xlink:href="#ArialMT-78"/>
      </g>
     </g>
    </g>
    <g id="xtick_8">
     <g id="text_15">
      <!-- Y -->
      <g transform="translate(305.817969 122.872366)scale(0.1 -0.1)">
       <use xlink:href="#ArialMT-89"/>
      </g>
     </g>
    </g>
   </g>
   <g id="matplotlib.axis_8">
    <g id="ytick_7"/>
    <g id="ytick_8"/>
   </g>
   <g id="line2d_8">
    <path clip-path="url(#p115678e2fa)" d="M 200.6 141.686976 
L 345.3375 141.686976 
" style="fill:none;stroke:#000000;stroke-linecap:square;stroke-width:0.8;"/>
   </g>
   <g id="text_16">
    <!-- Arthritis -->
    <g transform="translate(252.634375 109.714554)scale(0.12 -0.12)">
     <defs>
      <path d="M -0.140625 0 
L 27.34375 71.578125 
L 37.546875 71.578125 
L 66.84375 0 
L 56.0625 0 
L 47.703125 21.6875 
L 17.78125 21.6875 
L 9.90625 0 
z
M 20.515625 29.390625 
L 44.78125 29.390625 
L 37.3125 49.21875 
Q 33.890625 58.25 32.234375 64.0625 
Q 30.859375 57.171875 28.375 50.390625 
z
" id="ArialMT-65"/>
     </defs>
     <use xlink:href="#ArialMT-65"/>
     <use x="66.699219" xlink:href="#ArialMT-114"/>
     <use x="100" xlink:href="#ArialMT-116"/>
     <use x="127.783203" xlink:href="#ArialMT-104"/>
     <use x="183.398438" xlink:href="#ArialMT-114"/>
     <use x="216.699219" xlink:href="#ArialMT-105"/>
     <use x="238.916016" xlink:href="#ArialMT-116"/>
     <use x="266.699219" xlink:href="#ArialMT-105"/>
     <use x="288.916016" xlink:href="#ArialMT-115"/>
    </g>
   </g>
  </g>
  <g id="axes_5">
   <g id="patch_14">
    <path d="M 45.0625 259.355848 
L 189.8 259.355848 
L 189.8 225.631295 
L 45.0625 225.631295 
z
" style="fill:#ffffff;"/>
   </g>
   <g id="patch_15">
    <path clip-path="url(#p68c11c7f04)" d="M 63.154687 235.458405 
L 99.339062 235.458405 
L 99.339062 249.333646 
L 63.154687 249.333646 
z
" style="fill:#ff4500;"/>
   </g>
   <g id="patch_16">
    <path clip-path="url(#p68c11c7f04)" d="M 135.523437 235.458405 
L 171.707812 235.458405 
L 171.707812 235.653496 
L 135.523437 235.653496 
z
" style="fill:#ff4500;"/>
   </g>
   <g id="matplotlib.axis_9">
    <g id="xtick_9">
     <g id="text_17">
      <!-- N -->
      <g transform="translate(77.635937 216.643795)scale(0.1 -0.1)">
       <use xlink:href="#ArialMT-78"/>
      </g>
     </g>
    </g>
    <g id="xtick_10">
     <g id="text_18">
      <!-- Y -->
      <g transform="translate(150.280469 216.643795)scale(0.1 -0.1)">
       <use xlink:href="#ArialMT-89"/>
      </g>
     </g>
    </g>
   </g>
   <g id="matplotlib.axis_10">
    <g id="ytick_9">
     <g id="line2d_9">
      <g>
       <use style="stroke:#000000;stroke-width:0.8;" x="45.0625" xlink:href="#mf14b32d06f" y="251.907093"/>
      </g>
     </g>
     <g id="text_19">
      <!-- −0.025 -->
      <g transform="translate(7.2 255.486)scale(0.1 -0.1)">
       <use xlink:href="#ArialMT-8722"/>
       <use x="58.398438" xlink:href="#ArialMT-48"/>
       <use x="114.013672" xlink:href="#ArialMT-46"/>
       <use x="141.796875" xlink:href="#ArialMT-48"/>
       <use x="197.412109" xlink:href="#ArialMT-50"/>
       <use x="253.027344" xlink:href="#ArialMT-53"/>
      </g>
     </g>
    </g>
    <g id="ytick_10">
     <g id="line2d_10">
      <g>
       <use style="stroke:#000000;stroke-width:0.8;" x="45.0625" xlink:href="#mf14b32d06f" y="235.458405"/>
      </g>
     </g>
     <g id="text_20">
      <!-- 0.000 -->
      <g transform="translate(13.040625 239.037311)scale(0.1 -0.1)">
       <use xlink:href="#ArialMT-48"/>
       <use x="55.615234" xlink:href="#ArialMT-46"/>
       <use x="83.398438" xlink:href="#ArialMT-48"/>
       <use x="139.013672" xlink:href="#ArialMT-48"/>
       <use x="194.628906" xlink:href="#ArialMT-48"/>
      </g>
     </g>
    </g>
   </g>
   <g id="line2d_11">
    <path clip-path="url(#p68c11c7f04)" d="M 45.0625 235.458405 
L 189.8 235.458405 
" style="fill:none;stroke:#000000;stroke-linecap:square;stroke-width:0.8;"/>
   </g>
   <g id="text_21">
    <!-- Back pain -->
    <g transform="translate(91.082812 203.485982)scale(0.12 -0.12)">
     <defs>
      <path d="M 7.328125 0 
L 7.328125 71.578125 
L 34.1875 71.578125 
Q 42.390625 71.578125 47.34375 69.40625 
Q 52.296875 67.234375 55.09375 62.71875 
Q 57.90625 58.203125 57.90625 53.265625 
Q 57.90625 48.6875 55.421875 44.625 
Q 52.9375 40.578125 47.90625 38.09375 
Q 54.390625 36.1875 57.875 31.59375 
Q 61.375 27 61.375 20.75 
Q 61.375 15.71875 59.25 11.390625 
Q 57.125 7.078125 54 4.734375 
Q 50.875 2.390625 46.15625 1.1875 
Q 41.453125 0 34.625 0 
z
M 16.796875 41.5 
L 32.28125 41.5 
Q 38.578125 41.5 41.3125 42.328125 
Q 44.921875 43.40625 46.75 45.890625 
Q 48.578125 48.390625 48.578125 52.15625 
Q 48.578125 55.71875 46.875 58.421875 
Q 45.171875 61.140625 41.984375 62.140625 
Q 38.8125 63.140625 31.109375 63.140625 
L 16.796875 63.140625 
z
M 16.796875 8.453125 
L 34.625 8.453125 
Q 39.203125 8.453125 41.0625 8.796875 
Q 44.34375 9.375 46.53125 10.734375 
Q 48.734375 12.109375 50.140625 14.71875 
Q 51.5625 17.328125 51.5625 20.75 
Q 51.5625 24.75 49.515625 27.703125 
Q 47.46875 30.671875 43.828125 31.859375 
Q 40.1875 33.0625 33.34375 33.0625 
L 16.796875 33.0625 
z
" id="ArialMT-66"/>
      <path d="M 40.4375 19 
L 49.078125 17.875 
Q 47.65625 8.9375 41.8125 3.875 
Q 35.984375 -1.171875 27.484375 -1.171875 
Q 16.84375 -1.171875 10.375 5.78125 
Q 3.90625 12.75 3.90625 25.734375 
Q 3.90625 34.125 6.6875 40.421875 
Q 9.46875 46.734375 15.15625 49.875 
Q 20.84375 53.03125 27.546875 53.03125 
Q 35.984375 53.03125 41.359375 48.75 
Q 46.734375 44.484375 48.25 36.625 
L 39.703125 35.296875 
Q 38.484375 40.53125 35.375 43.15625 
Q 32.28125 45.796875 27.875 45.796875 
Q 21.234375 45.796875 17.078125 41.03125 
Q 12.9375 36.28125 12.9375 25.984375 
Q 12.9375 15.53125 16.9375 10.796875 
Q 20.953125 6.0625 27.390625 6.0625 
Q 32.5625 6.0625 36.03125 9.234375 
Q 39.5 12.40625 40.4375 19 
z
" id="ArialMT-99"/>
      <path d="M 6.640625 0 
L 6.640625 71.578125 
L 15.4375 71.578125 
L 15.4375 30.765625 
L 36.234375 51.859375 
L 47.609375 51.859375 
L 27.78125 32.625 
L 49.609375 0 
L 38.765625 0 
L 21.625 26.515625 
L 15.4375 20.5625 
L 15.4375 0 
z
" id="ArialMT-107"/>
     </defs>
     <use xlink:href="#ArialMT-66"/>
     <use x="66.699219" xlink:href="#ArialMT-97"/>
     <use x="122.314453" xlink:href="#ArialMT-99"/>
     <use x="172.314453" xlink:href="#ArialMT-107"/>
     <use x="222.314453" xlink:href="#ArialMT-32"/>
     <use x="250.097656" xlink:href="#ArialMT-112"/>
     <use x="305.712891" xlink:href="#ArialMT-97"/>
     <use x="361.328125" xlink:href="#ArialMT-105"/>
     <use x="383.544922" xlink:href="#ArialMT-110"/>
    </g>
   </g>
  </g>
  <g id="axes_6">
   <g id="patch_17">
    <path d="M 200.6 259.355848 
L 345.3375 259.355848 
L 345.3375 225.631295 
L 200.6 225.631295 
z
" style="fill:#ffffff;"/>
   </g>
   <g id="patch_18">
    <path clip-path="url(#p0680248b5f)" d="M 218.692187 235.458405 
L 254.876562 235.458405 
L 254.876562 254.412286 
L 218.692187 254.412286 
z
" style="fill:#ff4500;"/>
   </g>
   <g id="patch_19">
    <path clip-path="url(#p0680248b5f)" d="M 291.060937 235.458405 
L 327.245312 235.458405 
L 327.245312 230.574857 
L 291.060937 230.574857 
z
" style="fill:#ff4500;"/>
   </g>
   <g id="matplotlib.axis_11">
    <g id="xtick_11">
     <g id="text_22">
      <!-- N -->
      <g transform="translate(233.173437 216.643795)scale(0.1 -0.1)">
       <use xlink:href="#ArialMT-78"/>
      </g>
     </g>
    </g>
    <g id="xtick_12">
     <g id="text_23">
      <!-- Y -->
      <g transform="translate(305.817969 216.643795)scale(0.1 -0.1)">
       <use xlink:href="#ArialMT-89"/>
      </g>
     </g>
    </g>
   </g>
   <g id="matplotlib.axis_12">
    <g id="ytick_11"/>
    <g id="ytick_12"/>
   </g>
   <g id="line2d_12">
    <path clip-path="url(#p0680248b5f)" d="M 200.6 235.458405 
L 345.3375 235.458405 
" style="fill:none;stroke:#000000;stroke-linecap:square;stroke-width:0.8;"/>
   </g>
   <g id="text_24">
    <!-- Headache -->
    <g transform="translate(245.61625 203.485982)scale(0.12 -0.12)">
     <defs>
      <path d="M 8.015625 0 
L 8.015625 71.578125 
L 17.484375 71.578125 
L 17.484375 42.1875 
L 54.6875 42.1875 
L 54.6875 71.578125 
L 64.15625 71.578125 
L 64.15625 0 
L 54.6875 0 
L 54.6875 33.734375 
L 17.484375 33.734375 
L 17.484375 0 
z
" id="ArialMT-72"/>
     </defs>
     <use xlink:href="#ArialMT-72"/>
     <use x="72.216797" xlink:href="#ArialMT-101"/>
     <use x="127.832031" xlink:href="#ArialMT-97"/>
     <use x="183.447266" xlink:href="#ArialMT-100"/>
     <use x="239.0625" xlink:href="#ArialMT-97"/>
     <use x="294.677734" xlink:href="#ArialMT-99"/>
     <use x="344.677734" xlink:href="#ArialMT-104"/>
     <use x="400.292969" xlink:href="#ArialMT-101"/>
    </g>
   </g>
  </g>
  <g id="axes_7">
   <g id="patch_20">
    <path d="M 45.0625 353.127277 
L 189.8 353.127277 
L 189.8 319.402723 
L 45.0625 319.402723 
z
" style="fill:#ffffff;"/>
   </g>
   <g id="patch_21">
    <path clip-path="url(#p3b597482f0)" d="M 63.154687 329.229833 
L 99.339062 329.229833 
L 99.339062 345.374544 
L 63.154687 345.374544 
z
" style="fill:#ff4500;"/>
   </g>
   <g id="patch_22">
    <path clip-path="url(#p3b597482f0)" d="M 135.523437 329.229833 
L 171.707812 329.229833 
L 171.707812 327.155456 
L 135.523437 327.155456 
z
" style="fill:#ff4500;"/>
   </g>
   <g id="matplotlib.axis_13">
    <g id="xtick_13">
     <g id="text_25">
      <!-- N -->
      <g transform="translate(77.635937 310.415223)scale(0.1 -0.1)">
       <use xlink:href="#ArialMT-78"/>
      </g>
     </g>
    </g>
    <g id="xtick_14">
     <g id="text_26">
      <!-- Y -->
      <g transform="translate(150.280469 310.415223)scale(0.1 -0.1)">
       <use xlink:href="#ArialMT-89"/>
      </g>
     </g>
    </g>
   </g>
   <g id="matplotlib.axis_14">
    <g id="ytick_13">
     <g id="line2d_13">
      <g>
       <use style="stroke:#000000;stroke-width:0.8;" x="45.0625" xlink:href="#mf14b32d06f" y="345.678522"/>
      </g>
     </g>
     <g id="text_27">
      <!-- −0.025 -->
      <g transform="translate(7.2 349.257428)scale(0.1 -0.1)">
       <use xlink:href="#ArialMT-8722"/>
       <use x="58.398438" xlink:href="#ArialMT-48"/>
       <use x="114.013672" xlink:href="#ArialMT-46"/>
       <use x="141.796875" xlink:href="#ArialMT-48"/>
       <use x="197.412109" xlink:href="#ArialMT-50"/>
       <use x="253.027344" xlink:href="#ArialMT-53"/>
      </g>
     </g>
    </g>
    <g id="ytick_14">
     <g id="line2d_14">
      <g>
       <use style="stroke:#000000;stroke-width:0.8;" x="45.0625" xlink:href="#mf14b32d06f" y="329.229833"/>
      </g>
     </g>
     <g id="text_28">
      <!-- 0.000 -->
      <g transform="translate(13.040625 332.80874)scale(0.1 -0.1)">
       <use xlink:href="#ArialMT-48"/>
       <use x="55.615234" xlink:href="#ArialMT-46"/>
       <use x="83.398438" xlink:href="#ArialMT-48"/>
       <use x="139.013672" xlink:href="#ArialMT-48"/>
       <use x="194.628906" xlink:href="#ArialMT-48"/>
      </g>
     </g>
    </g>
   </g>
   <g id="line2d_15">
    <path clip-path="url(#p3b597482f0)" d="M 45.0625 329.229833 
L 189.8 329.229833 
" style="fill:none;stroke:#000000;stroke-linecap:square;stroke-width:0.8;"/>
   </g>
   <g id="text_29">
    <!-- Preop benzodiazepine use -->
    <g transform="translate(46.382812 297.257411)scale(0.12 -0.12)">
     <defs>
      <path d="M 7.71875 0 
L 7.71875 71.578125 
L 34.71875 71.578125 
Q 41.84375 71.578125 45.609375 70.90625 
Q 50.875 70.015625 54.4375 67.546875 
Q 58.015625 65.09375 60.1875 60.640625 
Q 62.359375 56.203125 62.359375 50.875 
Q 62.359375 41.75 56.546875 35.421875 
Q 50.734375 29.109375 35.546875 29.109375 
L 17.1875 29.109375 
L 17.1875 0 
z
M 17.1875 37.546875 
L 35.6875 37.546875 
Q 44.875 37.546875 48.734375 40.96875 
Q 52.59375 44.390625 52.59375 50.59375 
Q 52.59375 55.078125 50.3125 58.265625 
Q 48.046875 61.46875 44.34375 62.5 
Q 41.9375 63.140625 35.5 63.140625 
L 17.1875 63.140625 
z
" id="ArialMT-80"/>
      <path d="M 1.953125 0 
L 1.953125 7.125 
L 34.96875 45.015625 
Q 29.34375 44.734375 25.046875 44.734375 
L 3.90625 44.734375 
L 3.90625 51.859375 
L 46.296875 51.859375 
L 46.296875 46.046875 
L 18.21875 13.140625 
L 12.796875 7.125 
Q 18.703125 7.5625 23.875 7.5625 
L 47.859375 7.5625 
L 47.859375 0 
z
" id="ArialMT-122"/>
      <path d="M 40.578125 0 
L 40.578125 7.625 
Q 34.515625 -1.171875 24.125 -1.171875 
Q 19.53125 -1.171875 15.546875 0.578125 
Q 11.578125 2.34375 9.640625 5 
Q 7.71875 7.671875 6.9375 11.53125 
Q 6.390625 14.109375 6.390625 19.734375 
L 6.390625 51.859375 
L 15.1875 51.859375 
L 15.1875 23.09375 
Q 15.1875 16.21875 15.71875 13.8125 
Q 16.546875 10.359375 19.234375 8.375 
Q 21.921875 6.390625 25.875 6.390625 
Q 29.828125 6.390625 33.296875 8.421875 
Q 36.765625 10.453125 38.203125 13.9375 
Q 39.65625 17.4375 39.65625 24.078125 
L 39.65625 51.859375 
L 48.4375 51.859375 
L 48.4375 0 
z
" id="ArialMT-117"/>
     </defs>
     <use xlink:href="#ArialMT-80"/>
     <use x="66.699219" xlink:href="#ArialMT-114"/>
     <use x="100" xlink:href="#ArialMT-101"/>
     <use x="155.615234" xlink:href="#ArialMT-111"/>
     <use x="211.230469" xlink:href="#ArialMT-112"/>
     <use x="266.845703" xlink:href="#ArialMT-32"/>
     <use x="294.628906" xlink:href="#ArialMT-98"/>
     <use x="350.244141" xlink:href="#ArialMT-101"/>
     <use x="405.859375" xlink:href="#ArialMT-110"/>
     <use x="461.474609" xlink:href="#ArialMT-122"/>
     <use x="511.474609" xlink:href="#ArialMT-111"/>
     <use x="567.089844" xlink:href="#ArialMT-100"/>
     <use x="622.705078" xlink:href="#ArialMT-105"/>
     <use x="644.921875" xlink:href="#ArialMT-97"/>
     <use x="700.537109" xlink:href="#ArialMT-122"/>
     <use x="750.537109" xlink:href="#ArialMT-101"/>
     <use x="806.152344" xlink:href="#ArialMT-112"/>
     <use x="861.767578" xlink:href="#ArialMT-105"/>
     <use x="883.984375" xlink:href="#ArialMT-110"/>
     <use x="939.599609" xlink:href="#ArialMT-101"/>
     <use x="995.214844" xlink:href="#ArialMT-32"/>
     <use x="1022.998047" xlink:href="#ArialMT-117"/>
     <use x="1078.613281" xlink:href="#ArialMT-115"/>
     <use x="1128.613281" xlink:href="#ArialMT-101"/>
    </g>
   </g>
  </g>
  <g id="axes_8">
   <g id="patch_23">
    <path d="M 200.6 353.127277 
L 345.3375 353.127277 
L 345.3375 319.402723 
L 200.6 319.402723 
z
" style="fill:#ffffff;"/>
   </g>
   <g id="patch_24">
    <path clip-path="url(#p70bb70f214)" d="M 218.692187 329.229833 
L 254.876562 329.229833 
L 254.876562 345.16985 
L 218.692187 345.16985 
z
" style="fill:#ff4500;"/>
   </g>
   <g id="patch_25">
    <path clip-path="url(#p70bb70f214)" d="M 291.060937 329.229833 
L 327.245312 329.229833 
L 327.245312 327.36015 
L 291.060937 327.36015 
z
" style="fill:#ff4500;"/>
   </g>
   <g id="matplotlib.axis_15">
    <g id="xtick_15">
     <g id="text_30">
      <!-- N -->
      <g transform="translate(233.173437 310.415223)scale(0.1 -0.1)">
       <use xlink:href="#ArialMT-78"/>
      </g>
     </g>
    </g>
    <g id="xtick_16">
     <g id="text_31">
      <!-- Y -->
      <g transform="translate(305.817969 310.415223)scale(0.1 -0.1)">
       <use xlink:href="#ArialMT-89"/>
      </g>
     </g>
    </g>
   </g>
   <g id="matplotlib.axis_16">
    <g id="ytick_15"/>
    <g id="ytick_16"/>
   </g>
   <g id="line2d_16">
    <path clip-path="url(#p70bb70f214)" d="M 200.6 329.229833 
L 345.3375 329.229833 
" style="fill:none;stroke:#000000;stroke-linecap:square;stroke-width:0.8;"/>
   </g>
   <g id="text_32">
    <!-- Tobacco use -->
    <g transform="translate(239.285312 297.257411)scale(0.12 -0.12)">
     <defs>
      <path d="M 25.921875 0 
L 25.921875 63.140625 
L 2.34375 63.140625 
L 2.34375 71.578125 
L 59.078125 71.578125 
L 59.078125 63.140625 
L 35.40625 63.140625 
L 35.40625 0 
z
" id="ArialMT-84"/>
     </defs>
     <use xlink:href="#ArialMT-84"/>
     <use x="49.958984" xlink:href="#ArialMT-111"/>
     <use x="105.574219" xlink:href="#ArialMT-98"/>
     <use x="161.189453" xlink:href="#ArialMT-97"/>
     <use x="216.804688" xlink:href="#ArialMT-99"/>
     <use x="266.804688" xlink:href="#ArialMT-99"/>
     <use x="316.804688" xlink:href="#ArialMT-111"/>
     <use x="372.419922" xlink:href="#ArialMT-32"/>
     <use x="400.203125" xlink:href="#ArialMT-117"/>
     <use x="455.818359" xlink:href="#ArialMT-115"/>
     <use x="505.818359" xlink:href="#ArialMT-101"/>
    </g>
   </g>
  </g>
  <g id="axes_9">
   <g id="patch_26">
    <path d="M 45.0625 446.898705 
L 189.8 446.898705 
L 189.8 413.174152 
L 45.0625 413.174152 
z
" style="fill:#ffffff;"/>
   </g>
   <g id="patch_27">
    <path clip-path="url(#p61d5da2be6)" d="M 63.154687 423.001262 
L 99.339062 423.001262 
L 99.339062 436.960372 
L 63.154687 436.960372 
z
" style="fill:#ff4500;"/>
   </g>
   <g id="patch_28">
    <path clip-path="url(#p61d5da2be6)" d="M 135.523437 423.001262 
L 171.707812 423.001262 
L 171.707812 423.112485 
L 135.523437 423.112485 
z
" style="fill:#ff4500;"/>
   </g>
   <g id="matplotlib.axis_17">
    <g id="xtick_17">
     <g id="text_33">
      <!-- N -->
      <g transform="translate(77.635937 404.186652)scale(0.1 -0.1)">
       <use xlink:href="#ArialMT-78"/>
      </g>
     </g>
    </g>
    <g id="xtick_18">
     <g id="text_34">
      <!-- Y -->
      <g transform="translate(150.280469 404.186652)scale(0.1 -0.1)">
       <use xlink:href="#ArialMT-89"/>
      </g>
     </g>
    </g>
   </g>
   <g id="matplotlib.axis_18">
    <g id="ytick_17">
     <g id="line2d_17">
      <g>
       <use style="stroke:#000000;stroke-width:0.8;" x="45.0625" xlink:href="#mf14b32d06f" y="439.449951"/>
      </g>
     </g>
     <g id="text_35">
      <!-- −0.025 -->
      <g transform="translate(7.2 443.028857)scale(0.1 -0.1)">
       <use xlink:href="#ArialMT-8722"/>
       <use x="58.398438" xlink:href="#ArialMT-48"/>
       <use x="114.013672" xlink:href="#ArialMT-46"/>
       <use x="141.796875" xlink:href="#ArialMT-48"/>
       <use x="197.412109" xlink:href="#ArialMT-50"/>
       <use x="253.027344" xlink:href="#ArialMT-53"/>
      </g>
     </g>
    </g>
    <g id="ytick_18">
     <g id="line2d_18">
      <g>
       <use style="stroke:#000000;stroke-width:0.8;" x="45.0625" xlink:href="#mf14b32d06f" y="423.001262"/>
      </g>
     </g>
     <g id="text_36">
      <!-- 0.000 -->
      <g transform="translate(13.040625 426.580168)scale(0.1 -0.1)">
       <use xlink:href="#ArialMT-48"/>
       <use x="55.615234" xlink:href="#ArialMT-46"/>
       <use x="83.398438" xlink:href="#ArialMT-48"/>
       <use x="139.013672" xlink:href="#ArialMT-48"/>
       <use x="194.628906" xlink:href="#ArialMT-48"/>
      </g>
     </g>
    </g>
   </g>
   <g id="line2d_19">
    <path clip-path="url(#p61d5da2be6)" d="M 45.0625 423.001262 
L 189.8 423.001262 
" style="fill:none;stroke:#000000;stroke-linecap:square;stroke-width:0.8;"/>
   </g>
   <g id="text_37">
    <!-- Osteoarthritis -->
    <g transform="translate(81.755625 391.028839)scale(0.12 -0.12)">
     <use xlink:href="#ArialMT-79"/>
     <use x="77.783203" xlink:href="#ArialMT-115"/>
     <use x="127.783203" xlink:href="#ArialMT-116"/>
     <use x="155.566406" xlink:href="#ArialMT-101"/>
     <use x="211.181641" xlink:href="#ArialMT-111"/>
     <use x="266.796875" xlink:href="#ArialMT-97"/>
     <use x="322.412109" xlink:href="#ArialMT-114"/>
     <use x="355.712891" xlink:href="#ArialMT-116"/>
     <use x="383.496094" xlink:href="#ArialMT-104"/>
     <use x="439.111328" xlink:href="#ArialMT-114"/>
     <use x="472.412109" xlink:href="#ArialMT-105"/>
     <use x="494.628906" xlink:href="#ArialMT-116"/>
     <use x="522.412109" xlink:href="#ArialMT-105"/>
     <use x="544.628906" xlink:href="#ArialMT-115"/>
    </g>
   </g>
  </g>
  <g id="axes_10">
   <g id="patch_29">
    <path d="M 200.6 446.898705 
L 345.3375 446.898705 
L 345.3375 413.174152 
L 200.6 413.174152 
z
" style="fill:#ffffff;"/>
   </g>
   <g id="patch_30">
    <path clip-path="url(#p865479c480)" d="M 218.692187 423.001262 
L 254.876562 423.001262 
L 254.876562 434.095017 
L 218.692187 434.095017 
z
" style="fill:#ff4500;"/>
   </g>
   <g id="patch_31">
    <path clip-path="url(#p865479c480)" d="M 291.060937 423.001262 
L 327.245312 423.001262 
L 327.245312 425.97784 
L 291.060937 425.97784 
z
" style="fill:#ff4500;"/>
   </g>
   <g id="matplotlib.axis_19">
    <g id="xtick_19">
     <g id="text_38">
      <!-- N -->
      <g transform="translate(233.173437 404.186652)scale(0.1 -0.1)">
       <use xlink:href="#ArialMT-78"/>
      </g>
     </g>
    </g>
    <g id="xtick_20">
     <g id="text_39">
      <!-- Y -->
      <g transform="translate(305.817969 404.186652)scale(0.1 -0.1)">
       <use xlink:href="#ArialMT-89"/>
      </g>
     </g>
    </g>
   </g>
   <g id="matplotlib.axis_20">
    <g id="ytick_19"/>
    <g id="ytick_20"/>
   </g>
   <g id="line2d_20">
    <path clip-path="url(#p865479c480)" d="M 200.6 423.001262 
L 345.3375 423.001262 
" style="fill:none;stroke:#000000;stroke-linecap:square;stroke-width:0.8;"/>
   </g>
   <g id="text_40">
    <!-- Chest pain -->
    <g transform="translate(244.285937 391.028839)scale(0.12 -0.12)">
     <use xlink:href="#ArialMT-67"/>
     <use x="72.216797" xlink:href="#ArialMT-104"/>
     <use x="127.832031" xlink:href="#ArialMT-101"/>
     <use x="183.447266" xlink:href="#ArialMT-115"/>
     <use x="233.447266" xlink:href="#ArialMT-116"/>
     <use x="261.230469" xlink:href="#ArialMT-32"/>
     <use x="289.013672" xlink:href="#ArialMT-112"/>
     <use x="344.628906" xlink:href="#ArialMT-97"/>
     <use x="400.244141" xlink:href="#ArialMT-105"/>
     <use x="422.460938" xlink:href="#ArialMT-110"/>
    </g>
   </g>
  </g>
  <g id="axes_11">
   <g id="patch_32">
    <path d="M 45.0625 540.670134 
L 189.8 540.670134 
L 189.8 506.94558 
L 45.0625 506.94558 
z
" style="fill:#ffffff;"/>
   </g>
   <g id="patch_33">
    <path clip-path="url(#pd42ce07682)" d="M 57.123958 516.772691 
L 81.246875 516.772691 
L 81.246875 522.919419 
L 57.123958 522.919419 
z
" style="fill:#ff4500;"/>
   </g>
   <g id="patch_34">
    <path clip-path="url(#pd42ce07682)" d="M 105.369792 516.772691 
L 129.492708 516.772691 
L 129.492708 514.817814 
L 105.369792 514.817814 
z
" style="fill:#ff4500;"/>
   </g>
   <g id="patch_35">
    <path clip-path="url(#pd42ce07682)" d="M 153.615625 516.772691 
L 177.738542 516.772691 
L 177.738542 526.651172 
L 153.615625 526.651172 
z
" style="fill:#ff4500;"/>
   </g>
   <g id="matplotlib.axis_21">
    <g id="xtick_21">
     <g id="text_41">
      <!-- A -->
      <g transform="translate(65.85026 497.95808)scale(0.1 -0.1)">
       <use xlink:href="#ArialMT-65"/>
      </g>
     </g>
    </g>
    <g id="xtick_22">
     <g id="text_42">
      <!-- B -->
      <g transform="translate(114.096094 497.95808)scale(0.1 -0.1)">
       <use xlink:href="#ArialMT-66"/>
      </g>
     </g>
    </g>
    <g id="xtick_23">
     <g id="text_43">
      <!-- U -->
      <g transform="translate(162.066146 497.95808)scale(0.1 -0.1)">
       <defs>
        <path d="M 54.6875 71.578125 
L 64.15625 71.578125 
L 64.15625 30.21875 
Q 64.15625 19.4375 61.71875 13.078125 
Q 59.28125 6.734375 52.90625 2.75 
Q 46.53125 -1.21875 36.1875 -1.21875 
Q 26.125 -1.21875 19.71875 2.25 
Q 13.328125 5.71875 10.59375 12.28125 
Q 7.859375 18.84375 7.859375 30.21875 
L 7.859375 71.578125 
L 17.328125 71.578125 
L 17.328125 30.28125 
Q 17.328125 20.953125 19.0625 16.53125 
Q 20.796875 12.109375 25.015625 9.71875 
Q 29.25 7.328125 35.359375 7.328125 
Q 45.796875 7.328125 50.234375 12.0625 
Q 54.6875 16.796875 54.6875 30.28125 
z
" id="ArialMT-85"/>
       </defs>
       <use xlink:href="#ArialMT-85"/>
      </g>
     </g>
    </g>
   </g>
   <g id="matplotlib.axis_22">
    <g id="ytick_21">
     <g id="line2d_21">
      <g>
       <use style="stroke:#000000;stroke-width:0.8;" x="45.0625" xlink:href="#mf14b32d06f" y="533.221379"/>
      </g>
     </g>
     <g id="text_44">
      <!-- −0.025 -->
      <g transform="translate(7.2 536.800285)scale(0.1 -0.1)">
       <use xlink:href="#ArialMT-8722"/>
       <use x="58.398438" xlink:href="#ArialMT-48"/>
       <use x="114.013672" xlink:href="#ArialMT-46"/>
       <use x="141.796875" xlink:href="#ArialMT-48"/>
       <use x="197.412109" xlink:href="#ArialMT-50"/>
       <use x="253.027344" xlink:href="#ArialMT-53"/>
      </g>
     </g>
    </g>
    <g id="ytick_22">
     <g id="line2d_22">
      <g>
       <use style="stroke:#000000;stroke-width:0.8;" x="45.0625" xlink:href="#mf14b32d06f" y="516.772691"/>
      </g>
     </g>
     <g id="text_45">
      <!-- 0.000 -->
      <g transform="translate(13.040625 520.351597)scale(0.1 -0.1)">
       <use xlink:href="#ArialMT-48"/>
       <use x="55.615234" xlink:href="#ArialMT-46"/>
       <use x="83.398438" xlink:href="#ArialMT-48"/>
       <use x="139.013672" xlink:href="#ArialMT-48"/>
       <use x="194.628906" xlink:href="#ArialMT-48"/>
      </g>
     </g>
    </g>
   </g>
   <g id="line2d_23">
    <path clip-path="url(#pd42ce07682)" d="M 45.0625 516.772691 
L 189.8 516.772691 
" style="fill:none;stroke:#000000;stroke-linecap:square;stroke-width:0.8;"/>
   </g>
   <g id="text_46">
    <!-- Poverty -->
    <g transform="translate(97.09125 484.800268)scale(0.12 -0.12)">
     <defs>
      <path d="M 21 0 
L 1.265625 51.859375 
L 10.546875 51.859375 
L 21.6875 20.796875 
Q 23.484375 15.765625 25 10.359375 
Q 26.171875 14.453125 28.265625 20.21875 
L 39.796875 51.859375 
L 48.828125 51.859375 
L 29.203125 0 
z
" id="ArialMT-118"/>
     </defs>
     <use xlink:href="#ArialMT-80"/>
     <use x="66.699219" xlink:href="#ArialMT-111"/>
     <use x="122.314453" xlink:href="#ArialMT-118"/>
     <use x="172.314453" xlink:href="#ArialMT-101"/>
     <use x="227.929688" xlink:href="#ArialMT-114"/>
     <use x="261.230469" xlink:href="#ArialMT-116"/>
     <use x="289.013672" xlink:href="#ArialMT-121"/>
    </g>
   </g>
  </g>
  <g id="axes_12">
   <g id="patch_36">
    <path d="M 200.6 540.670134 
L 345.3375 540.670134 
L 345.3375 506.94558 
L 200.6 506.94558 
z
" style="fill:#ffffff;"/>
   </g>
   <g id="patch_37">
    <path clip-path="url(#p692c3714ba)" d="M 218.692187 516.772691 
L 254.876562 516.772691 
L 254.876562 525.602148 
L 218.692187 525.602148 
z
" style="fill:#ff4500;"/>
   </g>
   <g id="patch_38">
    <path clip-path="url(#p692c3714ba)" d="M 291.060937 516.772691 
L 327.245312 516.772691 
L 327.245312 522.013566 
L 291.060937 522.013566 
z
" style="fill:#ff4500;"/>
   </g>
   <g id="matplotlib.axis_23">
    <g id="xtick_24">
     <g id="text_47">
      <!-- N -->
      <g transform="translate(233.173437 497.95808)scale(0.1 -0.1)">
       <use xlink:href="#ArialMT-78"/>
      </g>
     </g>
    </g>
    <g id="xtick_25">
     <g id="text_48">
      <!-- Y -->
      <g transform="translate(305.817969 497.95808)scale(0.1 -0.1)">
       <use xlink:href="#ArialMT-89"/>
      </g>
     </g>
    </g>
   </g>
   <g id="matplotlib.axis_24">
    <g id="ytick_23"/>
    <g id="ytick_24"/>
   </g>
   <g id="line2d_24">
    <path clip-path="url(#p692c3714ba)" d="M 200.6 516.772691 
L 345.3375 516.772691 
" style="fill:none;stroke:#000000;stroke-linecap:square;stroke-width:0.8;"/>
   </g>
   <g id="text_49">
    <!-- Inpatient admission -->
    <g transform="translate(221.275 484.800268)scale(0.12 -0.12)">
     <use xlink:href="#ArialMT-73"/>
     <use x="27.783203" xlink:href="#ArialMT-110"/>
     <use x="83.398438" xlink:href="#ArialMT-112"/>
     <use x="139.013672" xlink:href="#ArialMT-97"/>
     <use x="194.628906" xlink:href="#ArialMT-116"/>
     <use x="222.412109" xlink:href="#ArialMT-105"/>
     <use x="244.628906" xlink:href="#ArialMT-101"/>
     <use x="300.244141" xlink:href="#ArialMT-110"/>
     <use x="355.859375" xlink:href="#ArialMT-116"/>
     <use x="383.642578" xlink:href="#ArialMT-32"/>
     <use x="411.425781" xlink:href="#ArialMT-97"/>
     <use x="467.041016" xlink:href="#ArialMT-100"/>
     <use x="522.65625" xlink:href="#ArialMT-109"/>
     <use x="605.957031" xlink:href="#ArialMT-105"/>
     <use x="628.173828" xlink:href="#ArialMT-115"/>
     <use x="678.173828" xlink:href="#ArialMT-115"/>
     <use x="728.173828" xlink:href="#ArialMT-105"/>
     <use x="750.390625" xlink:href="#ArialMT-111"/>
     <use x="806.005859" xlink:href="#ArialMT-110"/>
    </g>
   </g>
  </g>
  <g id="axes_13">
   <g id="patch_39">
    <path d="M 45.0625 634.441562 
L 189.8 634.441562 
L 189.8 600.717009 
L 45.0625 600.717009 
z
" style="fill:#ffffff;"/>
   </g>
   <g id="patch_40">
    <path clip-path="url(#p12d804a68d)" d="M 63.154687 610.544119 
L 99.339062 610.544119 
L 99.339062 622.654026 
L 63.154687 622.654026 
z
" style="fill:#ff4500;"/>
   </g>
   <g id="patch_41">
    <path clip-path="url(#p12d804a68d)" d="M 135.523437 610.544119 
L 171.707812 610.544119 
L 171.707812 612.504546 
L 135.523437 612.504546 
z
" style="fill:#ff4500;"/>
   </g>
   <g id="matplotlib.axis_25">
    <g id="xtick_26">
     <g id="text_50">
      <!-- N -->
      <g transform="translate(77.635937 591.729509)scale(0.1 -0.1)">
       <use xlink:href="#ArialMT-78"/>
      </g>
     </g>
    </g>
    <g id="xtick_27">
     <g id="text_51">
      <!-- Y -->
      <g transform="translate(150.280469 591.729509)scale(0.1 -0.1)">
       <use xlink:href="#ArialMT-89"/>
      </g>
     </g>
    </g>
   </g>
   <g id="matplotlib.axis_26">
    <g id="ytick_25">
     <g id="line2d_25">
      <g>
       <use style="stroke:#000000;stroke-width:0.8;" x="45.0625" xlink:href="#mf14b32d06f" y="626.992808"/>
      </g>
     </g>
     <g id="text_52">
      <!-- −0.025 -->
      <g transform="translate(7.2 630.571714)scale(0.1 -0.1)">
       <use xlink:href="#ArialMT-8722"/>
       <use x="58.398438" xlink:href="#ArialMT-48"/>
       <use x="114.013672" xlink:href="#ArialMT-46"/>
       <use x="141.796875" xlink:href="#ArialMT-48"/>
       <use x="197.412109" xlink:href="#ArialMT-50"/>
       <use x="253.027344" xlink:href="#ArialMT-53"/>
      </g>
     </g>
    </g>
    <g id="ytick_26">
     <g id="line2d_26">
      <g>
       <use style="stroke:#000000;stroke-width:0.8;" x="45.0625" xlink:href="#mf14b32d06f" y="610.544119"/>
      </g>
     </g>
     <g id="text_53">
      <!-- 0.000 -->
      <g transform="translate(13.040625 614.123025)scale(0.1 -0.1)">
       <use xlink:href="#ArialMT-48"/>
       <use x="55.615234" xlink:href="#ArialMT-46"/>
       <use x="83.398438" xlink:href="#ArialMT-48"/>
       <use x="139.013672" xlink:href="#ArialMT-48"/>
       <use x="194.628906" xlink:href="#ArialMT-48"/>
      </g>
     </g>
    </g>
   </g>
   <g id="line2d_27">
    <path clip-path="url(#p12d804a68d)" d="M 45.0625 610.544119 
L 189.8 610.544119 
" style="fill:none;stroke:#000000;stroke-linecap:square;stroke-width:0.8;"/>
   </g>
   <g id="text_54">
    <!-- Abdominal pain -->
    <g transform="translate(76.0725 578.571696)scale(0.12 -0.12)">
     <use xlink:href="#ArialMT-65"/>
     <use x="66.699219" xlink:href="#ArialMT-98"/>
     <use x="122.314453" xlink:href="#ArialMT-100"/>
     <use x="177.929688" xlink:href="#ArialMT-111"/>
     <use x="233.544922" xlink:href="#ArialMT-109"/>
     <use x="316.845703" xlink:href="#ArialMT-105"/>
     <use x="339.0625" xlink:href="#ArialMT-110"/>
     <use x="394.677734" xlink:href="#ArialMT-97"/>
     <use x="450.292969" xlink:href="#ArialMT-108"/>
     <use x="472.509766" xlink:href="#ArialMT-32"/>
     <use x="500.292969" xlink:href="#ArialMT-112"/>
     <use x="555.908203" xlink:href="#ArialMT-97"/>
     <use x="611.523438" xlink:href="#ArialMT-105"/>
     <use x="633.740234" xlink:href="#ArialMT-110"/>
    </g>
   </g>
  </g>
  <g id="axes_14"/>
 </g>
 <defs>
  <clipPath id="p68327d53ac">
   <rect height="33.724554" width="144.7375" x="45.0625" y="38.088437"/>
  </clipPath>
  <clipPath id="p1ffca763b2">
   <rect height="33.724554" width="144.7375" x="200.6" y="38.088437"/>
  </clipPath>
  <clipPath id="p0dc7267e6e">
   <rect height="33.724554" width="144.7375" x="45.0625" y="131.859866"/>
  </clipPath>
  <clipPath id="p115678e2fa">
   <rect height="33.724554" width="144.7375" x="200.6" y="131.859866"/>
  </clipPath>
  <clipPath id="p68c11c7f04">
   <rect height="33.724554" width="144.7375" x="45.0625" y="225.631295"/>
  </clipPath>
  <clipPath id="p0680248b5f">
   <rect height="33.724554" width="144.7375" x="200.6" y="225.631295"/>
  </clipPath>
  <clipPath id="p3b597482f0">
   <rect height="33.724554" width="144.7375" x="45.0625" y="319.402723"/>
  </clipPath>
  <clipPath id="p70bb70f214">
   <rect height="33.724554" width="144.7375" x="200.6" y="319.402723"/>
  </clipPath>
  <clipPath id="p61d5da2be6">
   <rect height="33.724554" width="144.7375" x="45.0625" y="413.174152"/>
  </clipPath>
  <clipPath id="p865479c480">
   <rect height="33.724554" width="144.7375" x="200.6" y="413.174152"/>
  </clipPath>
  <clipPath id="pd42ce07682">
   <rect height="33.724554" width="144.7375" x="45.0625" y="506.94558"/>
  </clipPath>
  <clipPath id="p692c3714ba">
   <rect height="33.724554" width="144.7375" x="200.6" y="506.94558"/>
  </clipPath>
  <clipPath id="p12d804a68d">
   <rect height="33.724554" width="144.7375" x="45.0625" y="600.717009"/>
  </clipPath>
 </defs>
</svg>
