<?xml version="1.0" encoding="utf-8" standalone="no"?>
<!DOCTYPE svg PUBLIC "-//W3C//DTD SVG 1.1//EN"
  "http://www.w3.org/Graphics/SVG/1.1/DTD/svg11.dtd">
<!-- Created with matplotlib (https://matplotlib.org/) -->
<svg height="216pt" version="1.1" viewBox="0 0 216 216" width="216pt" xmlns="http://www.w3.org/2000/svg" xmlns:xlink="http://www.w3.org/1999/xlink">
 <metadata>
  <rdf:RDF xmlns:cc="http://creativecommons.org/ns#" xmlns:dc="http://purl.org/dc/elements/1.1/" xmlns:rdf="http://www.w3.org/1999/02/22-rdf-syntax-ns#">
   <cc:Work>
    <dc:type rdf:resource="http://purl.org/dc/dcmitype/StillImage"/>
    <dc:date>2020-11-12T11:39:26.043260</dc:date>
    <dc:format>image/svg+xml</dc:format>
    <dc:creator>
     <cc:Agent>
      <dc:title>Matplotlib v3.3.2, https://matplotlib.org/</dc:title>
     </cc:Agent>
    </dc:creator>
   </cc:Work>
  </rdf:RDF>
 </metadata>
 <defs>
  <style type="text/css">*{stroke-linecap:butt;stroke-linejoin:round;}</style>
 </defs>
 <g id="figure_1">
  <g id="patch_1">
   <path d="M 0 216 
L 216 216 
L 216 0 
L 0 0 
z
" style="fill:none;"/>
  </g>
  <g id="axes_1">
   <g id="patch_2">
    <path d="M 42.64 174.11 
L 200.36 174.11 
L 200.36 16.39 
L 42.64 16.39 
z
" style="fill:#ffffff;"/>
   </g>
   <g id="matplotlib.axis_1">
    <g id="xtick_1">
     <g id="line2d_1">
      <defs>
       <path d="M 0 0 
L 0 3.5 
" id="ma4ce815f53" style="stroke:#000000;stroke-width:0.8;"/>
      </defs>
      <g>
       <use style="stroke:#000000;stroke-width:0.8;" x="42.64" xlink:href="#ma4ce815f53" y="174.11"/>
      </g>
     </g>
     <g id="text_1">
      <!-- 0.0 -->
      <g transform="translate(35.69 188.267812)scale(0.1 -0.1)">
       <defs>
        <path d="M 4.15625 35.296875 
Q 4.15625 48 6.765625 55.734375 
Q 9.375 63.484375 14.515625 67.671875 
Q 19.671875 71.875 27.484375 71.875 
Q 33.25 71.875 37.59375 69.546875 
Q 41.9375 67.234375 44.765625 62.859375 
Q 47.609375 58.5 49.21875 52.21875 
Q 50.828125 45.953125 50.828125 35.296875 
Q 50.828125 22.703125 48.234375 14.96875 
Q 45.65625 7.234375 40.5 3 
Q 35.359375 -1.21875 27.484375 -1.21875 
Q 17.140625 -1.21875 11.234375 6.203125 
Q 4.15625 15.140625 4.15625 35.296875 
z
M 13.1875 35.296875 
Q 13.1875 17.671875 17.3125 11.828125 
Q 21.4375 6 27.484375 6 
Q 33.546875 6 37.671875 11.859375 
Q 41.796875 17.71875 41.796875 35.296875 
Q 41.796875 52.984375 37.671875 58.78125 
Q 33.546875 64.59375 27.390625 64.59375 
Q 21.34375 64.59375 17.71875 59.46875 
Q 13.1875 52.9375 13.1875 35.296875 
z
" id="ArialMT-48"/>
        <path d="M 9.078125 0 
L 9.078125 10.015625 
L 19.09375 10.015625 
L 19.09375 0 
z
" id="ArialMT-46"/>
       </defs>
       <use xlink:href="#ArialMT-48"/>
       <use x="55.615234" xlink:href="#ArialMT-46"/>
       <use x="83.398438" xlink:href="#ArialMT-48"/>
      </g>
     </g>
    </g>
    <g id="xtick_2">
     <g id="line2d_2">
      <g>
       <use style="stroke:#000000;stroke-width:0.8;" x="74.184" xlink:href="#ma4ce815f53" y="174.11"/>
      </g>
     </g>
     <g id="text_2">
      <!-- 0.2 -->
      <g transform="translate(67.234 188.267812)scale(0.1 -0.1)">
       <defs>
        <path d="M 50.34375 8.453125 
L 50.34375 0 
L 3.03125 0 
Q 2.9375 3.171875 4.046875 6.109375 
Q 5.859375 10.9375 9.828125 15.625 
Q 13.8125 20.3125 21.34375 26.46875 
Q 33.015625 36.03125 37.109375 41.625 
Q 41.21875 47.21875 41.21875 52.203125 
Q 41.21875 57.421875 37.46875 61 
Q 33.734375 64.59375 27.734375 64.59375 
Q 21.390625 64.59375 17.578125 60.78125 
Q 13.765625 56.984375 13.71875 50.25 
L 4.6875 51.171875 
Q 5.609375 61.28125 11.65625 66.578125 
Q 17.71875 71.875 27.9375 71.875 
Q 38.234375 71.875 44.234375 66.15625 
Q 50.25 60.453125 50.25 52 
Q 50.25 47.703125 48.484375 43.546875 
Q 46.734375 39.40625 42.65625 34.8125 
Q 38.578125 30.21875 29.109375 22.21875 
Q 21.1875 15.578125 18.9375 13.203125 
Q 16.703125 10.84375 15.234375 8.453125 
z
" id="ArialMT-50"/>
       </defs>
       <use xlink:href="#ArialMT-48"/>
       <use x="55.615234" xlink:href="#ArialMT-46"/>
       <use x="83.398438" xlink:href="#ArialMT-50"/>
      </g>
     </g>
    </g>
    <g id="xtick_3">
     <g id="line2d_3">
      <g>
       <use style="stroke:#000000;stroke-width:0.8;" x="105.728" xlink:href="#ma4ce815f53" y="174.11"/>
      </g>
     </g>
     <g id="text_3">
      <!-- 0.4 -->
      <g transform="translate(98.778 188.267812)scale(0.1 -0.1)">
       <defs>
        <path d="M 32.328125 0 
L 32.328125 17.140625 
L 1.265625 17.140625 
L 1.265625 25.203125 
L 33.9375 71.578125 
L 41.109375 71.578125 
L 41.109375 25.203125 
L 50.78125 25.203125 
L 50.78125 17.140625 
L 41.109375 17.140625 
L 41.109375 0 
z
M 32.328125 25.203125 
L 32.328125 57.46875 
L 9.90625 25.203125 
z
" id="ArialMT-52"/>
       </defs>
       <use xlink:href="#ArialMT-48"/>
       <use x="55.615234" xlink:href="#ArialMT-46"/>
       <use x="83.398438" xlink:href="#ArialMT-52"/>
      </g>
     </g>
    </g>
    <g id="xtick_4">
     <g id="line2d_4">
      <g>
       <use style="stroke:#000000;stroke-width:0.8;" x="137.272" xlink:href="#ma4ce815f53" y="174.11"/>
      </g>
     </g>
     <g id="text_4">
      <!-- 0.6 -->
      <g transform="translate(130.322 188.267812)scale(0.1 -0.1)">
       <defs>
        <path d="M 49.75 54.046875 
L 41.015625 53.375 
Q 39.84375 58.546875 37.703125 60.890625 
Q 34.125 64.65625 28.90625 64.65625 
Q 24.703125 64.65625 21.53125 62.3125 
Q 17.390625 59.28125 14.984375 53.46875 
Q 12.59375 47.65625 12.5 36.921875 
Q 15.671875 41.75 20.265625 44.09375 
Q 24.859375 46.4375 29.890625 46.4375 
Q 38.671875 46.4375 44.84375 39.96875 
Q 51.03125 33.5 51.03125 23.25 
Q 51.03125 16.5 48.125 10.71875 
Q 45.21875 4.9375 40.140625 1.859375 
Q 35.0625 -1.21875 28.609375 -1.21875 
Q 17.625 -1.21875 10.6875 6.859375 
Q 3.765625 14.9375 3.765625 33.5 
Q 3.765625 54.25 11.421875 63.671875 
Q 18.109375 71.875 29.4375 71.875 
Q 37.890625 71.875 43.28125 67.140625 
Q 48.6875 62.40625 49.75 54.046875 
z
M 13.875 23.1875 
Q 13.875 18.65625 15.796875 14.5 
Q 17.71875 10.359375 21.1875 8.171875 
Q 24.65625 6 28.46875 6 
Q 34.03125 6 38.03125 10.484375 
Q 42.046875 14.984375 42.046875 22.703125 
Q 42.046875 30.125 38.078125 34.390625 
Q 34.125 38.671875 28.125 38.671875 
Q 22.171875 38.671875 18.015625 34.390625 
Q 13.875 30.125 13.875 23.1875 
z
" id="ArialMT-54"/>
       </defs>
       <use xlink:href="#ArialMT-48"/>
       <use x="55.615234" xlink:href="#ArialMT-46"/>
       <use x="83.398438" xlink:href="#ArialMT-54"/>
      </g>
     </g>
    </g>
    <g id="xtick_5">
     <g id="line2d_5">
      <g>
       <use style="stroke:#000000;stroke-width:0.8;" x="168.816" xlink:href="#ma4ce815f53" y="174.11"/>
      </g>
     </g>
     <g id="text_5">
      <!-- 0.8 -->
      <g transform="translate(161.866 188.267812)scale(0.1 -0.1)">
       <defs>
        <path d="M 17.671875 38.8125 
Q 12.203125 40.828125 9.5625 44.53125 
Q 6.9375 48.25 6.9375 53.421875 
Q 6.9375 61.234375 12.546875 66.546875 
Q 18.171875 71.875 27.484375 71.875 
Q 36.859375 71.875 42.578125 66.421875 
Q 48.296875 60.984375 48.296875 53.171875 
Q 48.296875 48.1875 45.671875 44.5 
Q 43.0625 40.828125 37.75 38.8125 
Q 44.34375 36.671875 47.78125 31.875 
Q 51.21875 27.09375 51.21875 20.453125 
Q 51.21875 11.28125 44.71875 5.03125 
Q 38.234375 -1.21875 27.640625 -1.21875 
Q 17.046875 -1.21875 10.546875 5.046875 
Q 4.046875 11.328125 4.046875 20.703125 
Q 4.046875 27.6875 7.59375 32.390625 
Q 11.140625 37.109375 17.671875 38.8125 
z
M 15.921875 53.71875 
Q 15.921875 48.640625 19.1875 45.40625 
Q 22.46875 42.1875 27.6875 42.1875 
Q 32.765625 42.1875 36.015625 45.375 
Q 39.265625 48.578125 39.265625 53.21875 
Q 39.265625 58.0625 35.90625 61.359375 
Q 32.5625 64.65625 27.59375 64.65625 
Q 22.5625 64.65625 19.234375 61.421875 
Q 15.921875 58.203125 15.921875 53.71875 
z
M 13.09375 20.65625 
Q 13.09375 16.890625 14.875 13.375 
Q 16.65625 9.859375 20.171875 7.921875 
Q 23.6875 6 27.734375 6 
Q 34.03125 6 38.125 10.046875 
Q 42.234375 14.109375 42.234375 20.359375 
Q 42.234375 26.703125 38.015625 30.859375 
Q 33.796875 35.015625 27.4375 35.015625 
Q 21.234375 35.015625 17.15625 30.90625 
Q 13.09375 26.8125 13.09375 20.65625 
z
" id="ArialMT-56"/>
       </defs>
       <use xlink:href="#ArialMT-48"/>
       <use x="55.615234" xlink:href="#ArialMT-46"/>
       <use x="83.398438" xlink:href="#ArialMT-56"/>
      </g>
     </g>
    </g>
    <g id="xtick_6">
     <g id="line2d_6">
      <g>
       <use style="stroke:#000000;stroke-width:0.8;" x="200.36" xlink:href="#ma4ce815f53" y="174.11"/>
      </g>
     </g>
     <g id="text_6">
      <!-- 1.0 -->
      <g transform="translate(193.41 188.267812)scale(0.1 -0.1)">
       <defs>
        <path d="M 37.25 0 
L 28.46875 0 
L 28.46875 56 
Q 25.296875 52.984375 20.140625 49.953125 
Q 14.984375 46.921875 10.890625 45.40625 
L 10.890625 53.90625 
Q 18.265625 57.375 23.78125 62.296875 
Q 29.296875 67.234375 31.59375 71.875 
L 37.25 71.875 
z
" id="ArialMT-49"/>
       </defs>
       <use xlink:href="#ArialMT-49"/>
       <use x="55.615234" xlink:href="#ArialMT-46"/>
       <use x="83.398438" xlink:href="#ArialMT-48"/>
      </g>
     </g>
    </g>
    <g id="text_7">
     <!-- Recall -->
     <g transform="translate(107.60625 201.413125)scale(0.1 -0.1)">
      <defs>
       <path d="M 7.859375 0 
L 7.859375 71.578125 
L 39.59375 71.578125 
Q 49.171875 71.578125 54.140625 69.640625 
Q 59.125 67.71875 62.109375 62.828125 
Q 65.09375 57.953125 65.09375 52.046875 
Q 65.09375 44.4375 60.15625 39.203125 
Q 55.21875 33.984375 44.921875 32.5625 
Q 48.6875 30.765625 50.640625 29 
Q 54.78125 25.203125 58.5 19.484375 
L 70.953125 0 
L 59.03125 0 
L 49.5625 14.890625 
Q 45.40625 21.34375 42.71875 24.75 
Q 40.046875 28.171875 37.921875 29.53125 
Q 35.796875 30.90625 33.59375 31.453125 
Q 31.984375 31.78125 28.328125 31.78125 
L 17.328125 31.78125 
L 17.328125 0 
z
M 17.328125 39.984375 
L 37.703125 39.984375 
Q 44.1875 39.984375 47.84375 41.328125 
Q 51.515625 42.671875 53.421875 45.625 
Q 55.328125 48.578125 55.328125 52.046875 
Q 55.328125 57.125 51.640625 60.390625 
Q 47.953125 63.671875 39.984375 63.671875 
L 17.328125 63.671875 
z
" id="ArialMT-82"/>
       <path d="M 42.09375 16.703125 
L 51.171875 15.578125 
Q 49.03125 7.625 43.21875 3.21875 
Q 37.40625 -1.171875 28.375 -1.171875 
Q 17 -1.171875 10.328125 5.828125 
Q 3.65625 12.84375 3.65625 25.484375 
Q 3.65625 38.578125 10.390625 45.796875 
Q 17.140625 53.03125 27.875 53.03125 
Q 38.28125 53.03125 44.875 45.953125 
Q 51.46875 38.875 51.46875 26.03125 
Q 51.46875 25.25 51.421875 23.6875 
L 12.75 23.6875 
Q 13.234375 15.140625 17.578125 10.59375 
Q 21.921875 6.0625 28.421875 6.0625 
Q 33.25 6.0625 36.671875 8.59375 
Q 40.09375 11.140625 42.09375 16.703125 
z
M 13.234375 30.90625 
L 42.1875 30.90625 
Q 41.609375 37.453125 38.875 40.71875 
Q 34.671875 45.796875 27.984375 45.796875 
Q 21.921875 45.796875 17.796875 41.75 
Q 13.671875 37.703125 13.234375 30.90625 
z
" id="ArialMT-101"/>
       <path d="M 40.4375 19 
L 49.078125 17.875 
Q 47.65625 8.9375 41.8125 3.875 
Q 35.984375 -1.171875 27.484375 -1.171875 
Q 16.84375 -1.171875 10.375 5.78125 
Q 3.90625 12.75 3.90625 25.734375 
Q 3.90625 34.125 6.6875 40.421875 
Q 9.46875 46.734375 15.15625 49.875 
Q 20.84375 53.03125 27.546875 53.03125 
Q 35.984375 53.03125 41.359375 48.75 
Q 46.734375 44.484375 48.25 36.625 
L 39.703125 35.296875 
Q 38.484375 40.53125 35.375 43.15625 
Q 32.28125 45.796875 27.875 45.796875 
Q 21.234375 45.796875 17.078125 41.03125 
Q 12.9375 36.28125 12.9375 25.984375 
Q 12.9375 15.53125 16.9375 10.796875 
Q 20.953125 6.0625 27.390625 6.0625 
Q 32.5625 6.0625 36.03125 9.234375 
Q 39.5 12.40625 40.4375 19 
z
" id="ArialMT-99"/>
       <path d="M 40.4375 6.390625 
Q 35.546875 2.25 31.03125 0.53125 
Q 26.515625 -1.171875 21.34375 -1.171875 
Q 12.796875 -1.171875 8.203125 3 
Q 3.609375 7.171875 3.609375 13.671875 
Q 3.609375 17.484375 5.34375 20.625 
Q 7.078125 23.78125 9.890625 25.6875 
Q 12.703125 27.59375 16.21875 28.5625 
Q 18.796875 29.25 24.03125 29.890625 
Q 34.671875 31.15625 39.703125 32.90625 
Q 39.75 34.71875 39.75 35.203125 
Q 39.75 40.578125 37.25 42.78125 
Q 33.890625 45.75 27.25 45.75 
Q 21.046875 45.75 18.09375 43.578125 
Q 15.140625 41.40625 13.71875 35.890625 
L 5.125 37.0625 
Q 6.296875 42.578125 8.984375 45.96875 
Q 11.671875 49.359375 16.75 51.1875 
Q 21.828125 53.03125 28.515625 53.03125 
Q 35.15625 53.03125 39.296875 51.46875 
Q 43.453125 49.90625 45.40625 47.53125 
Q 47.359375 45.171875 48.140625 41.546875 
Q 48.578125 39.3125 48.578125 33.453125 
L 48.578125 21.734375 
Q 48.578125 9.46875 49.140625 6.21875 
Q 49.703125 2.984375 51.375 0 
L 42.1875 0 
Q 40.828125 2.734375 40.4375 6.390625 
z
M 39.703125 26.03125 
Q 34.90625 24.078125 25.34375 22.703125 
Q 19.921875 21.921875 17.671875 20.9375 
Q 15.4375 19.96875 14.203125 18.09375 
Q 12.984375 16.21875 12.984375 13.921875 
Q 12.984375 10.40625 15.640625 8.0625 
Q 18.3125 5.71875 23.4375 5.71875 
Q 28.515625 5.71875 32.46875 7.9375 
Q 36.421875 10.15625 38.28125 14.015625 
Q 39.703125 17 39.703125 22.796875 
z
" id="ArialMT-97"/>
       <path d="M 6.390625 0 
L 6.390625 71.578125 
L 15.1875 71.578125 
L 15.1875 0 
z
" id="ArialMT-108"/>
      </defs>
      <use xlink:href="#ArialMT-82"/>
      <use x="72.216797" xlink:href="#ArialMT-101"/>
      <use x="127.832031" xlink:href="#ArialMT-99"/>
      <use x="177.832031" xlink:href="#ArialMT-97"/>
      <use x="233.447266" xlink:href="#ArialMT-108"/>
      <use x="255.664062" xlink:href="#ArialMT-108"/>
     </g>
    </g>
   </g>
   <g id="matplotlib.axis_2">
    <g id="ytick_1">
     <g id="line2d_7">
      <defs>
       <path d="M 0 0 
L -3.5 0 
" id="mde9db46b2c" style="stroke:#000000;stroke-width:0.8;"/>
      </defs>
      <g>
       <use style="stroke:#000000;stroke-width:0.8;" x="42.64" xlink:href="#mde9db46b2c" y="174.11"/>
      </g>
     </g>
     <g id="text_8">
      <!-- 0.0 -->
      <g transform="translate(21.74 177.688906)scale(0.1 -0.1)">
       <use xlink:href="#ArialMT-48"/>
       <use x="55.615234" xlink:href="#ArialMT-46"/>
       <use x="83.398438" xlink:href="#ArialMT-48"/>
      </g>
     </g>
    </g>
    <g id="ytick_2">
     <g id="line2d_8">
      <g>
       <use style="stroke:#000000;stroke-width:0.8;" x="42.64" xlink:href="#mde9db46b2c" y="142.566"/>
      </g>
     </g>
     <g id="text_9">
      <!-- 0.2 -->
      <g transform="translate(21.74 146.144906)scale(0.1 -0.1)">
       <use xlink:href="#ArialMT-48"/>
       <use x="55.615234" xlink:href="#ArialMT-46"/>
       <use x="83.398438" xlink:href="#ArialMT-50"/>
      </g>
     </g>
    </g>
    <g id="ytick_3">
     <g id="line2d_9">
      <g>
       <use style="stroke:#000000;stroke-width:0.8;" x="42.64" xlink:href="#mde9db46b2c" y="111.022"/>
      </g>
     </g>
     <g id="text_10">
      <!-- 0.4 -->
      <g transform="translate(21.74 114.600906)scale(0.1 -0.1)">
       <use xlink:href="#ArialMT-48"/>
       <use x="55.615234" xlink:href="#ArialMT-46"/>
       <use x="83.398438" xlink:href="#ArialMT-52"/>
      </g>
     </g>
    </g>
    <g id="ytick_4">
     <g id="line2d_10">
      <g>
       <use style="stroke:#000000;stroke-width:0.8;" x="42.64" xlink:href="#mde9db46b2c" y="79.478"/>
      </g>
     </g>
     <g id="text_11">
      <!-- 0.6 -->
      <g transform="translate(21.74 83.056906)scale(0.1 -0.1)">
       <use xlink:href="#ArialMT-48"/>
       <use x="55.615234" xlink:href="#ArialMT-46"/>
       <use x="83.398438" xlink:href="#ArialMT-54"/>
      </g>
     </g>
    </g>
    <g id="ytick_5">
     <g id="line2d_11">
      <g>
       <use style="stroke:#000000;stroke-width:0.8;" x="42.64" xlink:href="#mde9db46b2c" y="47.934"/>
      </g>
     </g>
     <g id="text_12">
      <!-- 0.8 -->
      <g transform="translate(21.74 51.512906)scale(0.1 -0.1)">
       <use xlink:href="#ArialMT-48"/>
       <use x="55.615234" xlink:href="#ArialMT-46"/>
       <use x="83.398438" xlink:href="#ArialMT-56"/>
      </g>
     </g>
    </g>
    <g id="ytick_6">
     <g id="line2d_12">
      <g>
       <use style="stroke:#000000;stroke-width:0.8;" x="42.64" xlink:href="#mde9db46b2c" y="16.39"/>
      </g>
     </g>
     <g id="text_13">
      <!-- 1.0 -->
      <g transform="translate(21.74 19.968906)scale(0.1 -0.1)">
       <use xlink:href="#ArialMT-49"/>
       <use x="55.615234" xlink:href="#ArialMT-46"/>
       <use x="83.398438" xlink:href="#ArialMT-48"/>
      </g>
     </g>
    </g>
    <g id="text_14">
     <!-- Precision -->
     <g transform="translate(15.7525 115.813281)rotate(-90)scale(0.1 -0.1)">
      <defs>
       <path d="M 7.71875 0 
L 7.71875 71.578125 
L 34.71875 71.578125 
Q 41.84375 71.578125 45.609375 70.90625 
Q 50.875 70.015625 54.4375 67.546875 
Q 58.015625 65.09375 60.1875 60.640625 
Q 62.359375 56.203125 62.359375 50.875 
Q 62.359375 41.75 56.546875 35.421875 
Q 50.734375 29.109375 35.546875 29.109375 
L 17.1875 29.109375 
L 17.1875 0 
z
M 17.1875 37.546875 
L 35.6875 37.546875 
Q 44.875 37.546875 48.734375 40.96875 
Q 52.59375 44.390625 52.59375 50.59375 
Q 52.59375 55.078125 50.3125 58.265625 
Q 48.046875 61.46875 44.34375 62.5 
Q 41.9375 63.140625 35.5 63.140625 
L 17.1875 63.140625 
z
" id="ArialMT-80"/>
       <path d="M 6.5 0 
L 6.5 51.859375 
L 14.40625 51.859375 
L 14.40625 44 
Q 17.4375 49.515625 20 51.265625 
Q 22.5625 53.03125 25.640625 53.03125 
Q 30.078125 53.03125 34.671875 50.203125 
L 31.640625 42.046875 
Q 28.421875 43.953125 25.203125 43.953125 
Q 22.3125 43.953125 20.015625 42.21875 
Q 17.71875 40.484375 16.75 37.40625 
Q 15.28125 32.71875 15.28125 27.15625 
L 15.28125 0 
z
" id="ArialMT-114"/>
       <path d="M 6.640625 61.46875 
L 6.640625 71.578125 
L 15.4375 71.578125 
L 15.4375 61.46875 
z
M 6.640625 0 
L 6.640625 51.859375 
L 15.4375 51.859375 
L 15.4375 0 
z
" id="ArialMT-105"/>
       <path d="M 3.078125 15.484375 
L 11.765625 16.84375 
Q 12.5 11.625 15.84375 8.84375 
Q 19.1875 6.0625 25.203125 6.0625 
Q 31.25 6.0625 34.171875 8.515625 
Q 37.109375 10.984375 37.109375 14.3125 
Q 37.109375 17.28125 34.515625 19 
Q 32.71875 20.171875 25.53125 21.96875 
Q 15.875 24.421875 12.140625 26.203125 
Q 8.40625 27.984375 6.46875 31.125 
Q 4.546875 34.28125 4.546875 38.09375 
Q 4.546875 41.546875 6.125 44.5 
Q 7.71875 47.46875 10.453125 49.421875 
Q 12.5 50.921875 16.03125 51.96875 
Q 19.578125 53.03125 23.640625 53.03125 
Q 29.734375 53.03125 34.34375 51.265625 
Q 38.96875 49.515625 41.15625 46.5 
Q 43.359375 43.5 44.1875 38.484375 
L 35.59375 37.3125 
Q 35.015625 41.3125 32.203125 43.546875 
Q 29.390625 45.796875 24.265625 45.796875 
Q 18.21875 45.796875 15.625 43.796875 
Q 13.03125 41.796875 13.03125 39.109375 
Q 13.03125 37.40625 14.109375 36.03125 
Q 15.1875 34.625 17.484375 33.6875 
Q 18.796875 33.203125 25.25 31.453125 
Q 34.578125 28.953125 38.25 27.359375 
Q 41.9375 25.78125 44.03125 22.75 
Q 46.140625 19.734375 46.140625 15.234375 
Q 46.140625 10.84375 43.578125 6.953125 
Q 41.015625 3.078125 36.171875 0.953125 
Q 31.34375 -1.171875 25.25 -1.171875 
Q 15.140625 -1.171875 9.84375 3.03125 
Q 4.546875 7.234375 3.078125 15.484375 
z
" id="ArialMT-115"/>
       <path d="M 3.328125 25.921875 
Q 3.328125 40.328125 11.328125 47.265625 
Q 18.015625 53.03125 27.640625 53.03125 
Q 38.328125 53.03125 45.109375 46.015625 
Q 51.90625 39.015625 51.90625 26.65625 
Q 51.90625 16.65625 48.90625 10.90625 
Q 45.90625 5.171875 40.15625 2 
Q 34.421875 -1.171875 27.640625 -1.171875 
Q 16.75 -1.171875 10.03125 5.8125 
Q 3.328125 12.796875 3.328125 25.921875 
z
M 12.359375 25.921875 
Q 12.359375 15.96875 16.703125 11.015625 
Q 21.046875 6.0625 27.640625 6.0625 
Q 34.1875 6.0625 38.53125 11.03125 
Q 42.875 16.015625 42.875 26.21875 
Q 42.875 35.84375 38.5 40.796875 
Q 34.125 45.75 27.640625 45.75 
Q 21.046875 45.75 16.703125 40.8125 
Q 12.359375 35.890625 12.359375 25.921875 
z
" id="ArialMT-111"/>
       <path d="M 6.59375 0 
L 6.59375 51.859375 
L 14.5 51.859375 
L 14.5 44.484375 
Q 20.21875 53.03125 31 53.03125 
Q 35.6875 53.03125 39.625 51.34375 
Q 43.5625 49.65625 45.515625 46.921875 
Q 47.46875 44.1875 48.25 40.4375 
Q 48.734375 37.984375 48.734375 31.890625 
L 48.734375 0 
L 39.9375 0 
L 39.9375 31.546875 
Q 39.9375 36.921875 38.90625 39.578125 
Q 37.890625 42.234375 35.28125 43.8125 
Q 32.671875 45.40625 29.15625 45.40625 
Q 23.53125 45.40625 19.453125 41.84375 
Q 15.375 38.28125 15.375 28.328125 
L 15.375 0 
z
" id="ArialMT-110"/>
      </defs>
      <use xlink:href="#ArialMT-80"/>
      <use x="66.699219" xlink:href="#ArialMT-114"/>
      <use x="100" xlink:href="#ArialMT-101"/>
      <use x="155.615234" xlink:href="#ArialMT-99"/>
      <use x="205.615234" xlink:href="#ArialMT-105"/>
      <use x="227.832031" xlink:href="#ArialMT-115"/>
      <use x="277.832031" xlink:href="#ArialMT-105"/>
      <use x="300.048828" xlink:href="#ArialMT-111"/>
      <use x="355.664062" xlink:href="#ArialMT-110"/>
     </g>
    </g>
   </g>
   <g id="line2d_13">
    <path clip-path="url(#pf5696d9e21)" d="M 200.36 166.013893 
L 199.404948 165.966 
L 199.404948 165.949497 
L 199.404948 165.916661 
L 198.177024 165.868684 
L 198.177024 165.866416 
L 198.177024 165.826921 
L 196.9491 165.782207 
L 196.9491 165.777928 
L 196.9491 165.768187 
L 195.311869 165.753528 
L 195.311869 165.740848 
L 195.311869 165.734096 
L 194.629689 165.669374 
L 194.629689 165.658411 
L 194.629689 165.654751 
L 193.538201 165.60745 
L 193.538201 165.601229 
L 193.538201 165.577505 
L 192.856021 165.525803 
L 192.856021 165.498985 
L 192.856021 165.477582 
L 191.628097 165.440838 
L 191.628097 165.433414 
L 191.628097 165.389923 
L 189.990865 165.379216 
L 189.990865 165.36936 
L 189.990865 165.363525 
L 189.035813 165.340967 
L 189.035813 165.30584 
L 189.035813 165.304924 
L 188.353633 165.252867 
L 188.353633 165.232795 
L 188.353633 165.212163 
L 187.671453 165.153519 
L 187.671453 165.133378 
L 187.671453 165.121829 
L 186.989273 165.08329 
L 186.989273 165.050455 
L 186.989273 165.006964 
L 186.034221 164.982544 
L 186.034221 164.952795 
L 186.034221 164.938102 
L 184.533426 164.965792 
L 184.533426 164.917622 
L 184.533426 164.881938 
L 183.441938 164.840278 
L 183.441938 164.837638 
L 183.441938 164.83711 
L 182.623322 164.823302 
L 182.623322 164.776702 
L 182.623322 164.762145 
L 181.531834 164.75069 
L 181.531834 164.719489 
L 181.531834 164.708492 
L 180.849654 164.642127 
L 180.849654 164.641005 
L 180.849654 164.630892 
L 179.62173 164.60115 
L 179.62173 164.598865 
L 179.62173 164.590861 
L 178.120934 164.582902 
L 178.120934 164.577684 
L 178.120934 164.531042 
L 177.165882 164.489714 
L 177.165882 164.483163 
L 177.165882 164.467046 
L 176.483702 164.406437 
L 176.483702 164.402175 
L 176.483702 164.391809 
L 175.119343 164.376549 
L 175.119343 164.373455 
L 175.119343 164.36788 
L 173.754983 164.357785 
L 173.754983 164.350878 
L 173.754983 164.345849 
L 173.345675 164.29795 
L 173.345675 164.263421 
L 173.345675 164.259569 
L 172.527059 164.220687 
L 172.527059 164.206337 
L 172.527059 164.203069 
L 171.844879 164.189647 
L 171.844879 164.140647 
L 171.844879 164.135987 
L 170.753391 164.151081 
L 170.753391 164.103981 
L 170.753391 164.051654 
L 170.071211 164.010557 
L 170.071211 163.990437 
L 170.071211 163.979999 
L 168.297543 164.013377 
L 168.297543 164.000729 
L 168.297543 163.914876 
L 167.888235 163.884932 
L 167.888235 163.834863 
L 167.888235 163.813672 
L 167.342491 163.777712 
L 167.342491 163.744279 
L 167.342491 163.737567 
L 166.660311 163.680999 
L 166.660311 163.679481 
L 166.660311 163.669607 
L 165.978131 163.618545 
L 165.978131 163.612365 
L 165.978131 163.584466 
L 165.432388 163.539742 
L 165.432388 163.516866 
L 165.432388 163.506579 
L 164.477336 163.509868 
L 164.477336 163.472239 
L 164.477336 163.469024 
L 163.522284 163.442016 
L 163.522284 163.435497 
L 163.522284 163.424886 
L 162.840104 163.400842 
L 162.840104 163.370216 
L 162.840104 163.366895 
L 162.021488 163.34266 
L 162.021488 163.324146 
L 162.021488 163.296256 
L 161.202872 163.291571 
L 161.202872 163.253867 
L 161.202872 163.210701 
L 160.24782 163.18117 
L 160.24782 163.163572 
L 159.019896 163.161501 
L 159.019896 163.158827 
L 159.019896 163.151691 
L 158.337716 163.148066 
L 158.337716 163.10024 
L 158.337716 163.013463 
L 157.655536 163.005184 
L 157.655536 162.96329 
L 157.655536 162.91731 
L 156.973356 162.870153 
L 156.973356 162.868241 
L 156.973356 162.854839 
L 156.018304 162.845254 
L 156.018304 162.830713 
L 156.018304 162.78099 
L 155.199689 162.780527 
L 155.199689 162.745895 
L 155.199689 162.659894 
L 154.517509 162.61805 
L 154.517509 162.612942 
L 154.517509 162.592465 
L 153.835329 162.604289 
L 153.835329 162.546326 
L 153.835329 162.491978 
L 153.426021 162.465279 
L 153.426021 162.420639 
L 153.426021 162.415302 
L 152.743841 162.397472 
L 152.743841 162.370465 
L 152.743841 162.337891 
L 152.061661 162.297202 
L 152.061661 162.293892 
L 152.061661 162.24735 
L 150.833737 162.261576 
L 150.833737 162.259331 
L 150.833737 162.244716 
L 150.151557 162.220269 
L 150.151557 162.203183 
L 150.151557 162.198618 
L 149.060069 162.200842 
L 149.060069 162.199689 
L 149.060069 162.159194 
L 148.377889 162.145141 
L 148.377889 162.119319 
L 148.377889 162.109902 
L 147.695709 162.072692 
L 147.695709 162.070305 
L 147.695709 162.065529 
L 147.286401 162.059872 
L 147.286401 161.998342 
L 147.286401 161.937406 
L 146.467785 161.954347 
L 146.467785 161.913585 
L 146.467785 161.89248 
L 145.922042 161.910752 
L 145.922042 161.840548 
L 145.922042 161.831715 
L 145.376298 161.820766 
L 145.376298 161.779938 
L 145.376298 161.759422 
L 144.421246 161.799985 
L 144.421246 161.754742 
L 144.421246 161.718308 
L 143.466194 161.715798 
L 143.466194 161.714479 
L 143.466194 161.693351 
L 142.647578 161.674939 
L 142.647578 161.645444 
L 141.692526 161.677349 
L 141.692526 161.643509 
L 141.692526 161.564287 
L 141.010346 161.534956 
L 141.010346 161.532175 
L 141.010346 161.518247 
L 140.464602 161.490288 
L 140.464602 161.471954 
L 140.464602 161.453566 
L 139.918858 161.409033 
L 139.918858 161.407599 
L 139.918858 161.391796 
L 138.690934 161.443461 
L 138.690934 161.427547 
L 138.690934 161.385398 
L 137.599446 161.410657 
L 137.599446 161.407718 
L 137.599446 161.390056 
L 136.235087 161.479143 
L 136.235087 161.44662 
L 136.235087 161.39752 
L 135.689343 161.366837 
L 135.689343 161.354748 
L 135.689343 161.318343 
L 135.143599 161.292769 
L 135.143599 161.275847 
L 135.143599 161.234123 
L 134.461419 161.220436 
L 134.461419 161.20947 
L 134.461419 160.982921 
L 133.915675 160.943706 
L 133.915675 160.909114 
L 133.097059 160.926899 
L 133.097059 160.906924 
L 133.097059 160.871823 
L 132.687751 160.832551 
L 132.687751 160.815594 
L 132.687751 160.728434 
L 132.278443 160.678757 
L 132.278443 160.673532 
L 132.278443 160.635092 
L 132.142007 160.653852 
L 132.142007 160.542688 
L 132.142007 160.515949 
L 131.732699 160.501232 
L 131.732699 160.461556 
L 131.732699 160.443445 
L 131.323391 160.397052 
L 131.323391 160.389711 
L 131.323391 160.386037 
L 130.231903 160.430422 
L 130.231903 160.428573 
L 130.231903 160.426724 
L 129.276851 160.452261 
L 129.276851 160.416782 
L 128.048927 160.486056 
L 128.048927 160.482295 
L 128.048927 160.472884 
L 127.366747 160.485835 
L 127.366747 160.461154 
L 127.366747 160.434474 
L 126.957439 160.416412 
L 126.957439 160.383629 
L 126.957439 160.358454 
L 126.548131 160.32603 
L 126.548131 160.308378 
L 126.548131 160.187537 
L 126.002388 160.17206 
L 126.002388 160.157934 
L 126.002388 160.131625 
L 125.456644 160.142092 
L 125.456644 160.103264 
L 125.456644 160.076573 
L 124.774464 160.076976 
L 124.774464 160.070751 
L 124.774464 160.037458 
L 124.365156 160.078472 
L 124.365156 159.990395 
L 124.365156 159.967144 
L 123.682976 159.96663 
L 123.682976 159.962359 
L 123.682976 159.932385 
L 123.137232 159.931301 
L 123.137232 159.907497 
L 123.137232 159.900991 
L 122.86436 159.879624 
L 122.86436 159.833621 
L 122.86436 159.771818 
L 122.045744 159.854209 
L 122.045744 159.79418 
L 122.045744 159.769578 
L 121.636436 159.753786 
L 121.636436 159.724386 
L 121.636436 159.717584 
L 121.227128 159.758227 
L 121.227128 159.673846 
L 121.227128 159.62089 
L 120.81782 159.599152 
L 120.81782 159.578152 
L 120.81782 159.50063 
L 120.13564 159.566987 
L 120.13564 159.505344 
L 120.13564 159.500581 
L 119.862768 159.509163 
L 119.862768 159.434754 
L 119.862768 159.432341 
L 119.317024 159.471083 
L 119.317024 159.415265 
L 119.317024 159.334431 
L 118.634844 159.350249 
L 118.634844 159.342806 
L 118.634844 159.32292 
L 118.0891 159.324586 
L 118.0891 159.30702 
L 118.0891 159.289412 
L 117.952664 159.313698 
L 117.952664 159.202219 
L 117.952664 159.189445 
L 117.679792 159.20775 
L 117.679792 159.127962 
L 117.679792 159.096847 
L 116.997612 159.181657 
L 116.997612 159.108709 
L 116.997612 159.082483 
L 116.861176 159.107433 
L 116.861176 158.99644 
L 116.861176 158.988449 
L 116.042561 159.049056 
L 116.042561 159.02764 
L 116.042561 159.00885 
L 115.496817 159.021774 
L 115.496817 158.997407 
L 115.496817 158.986552 
L 115.087509 159.011871 
L 115.087509 158.951752 
L 115.087509 158.949008 
L 114.405329 159.034456 
L 114.405329 158.965655 
L 114.405329 158.904589 
L 113.723149 158.93229 
L 113.723149 158.923875 
L 113.723149 158.802228 
L 113.586713 158.828763 
L 113.586713 158.716907 
L 113.586713 158.714017 
L 113.313841 158.732819 
L 113.313841 158.654275 
L 113.313841 158.595575 
L 112.904533 158.588158 
L 112.904533 158.564392 
L 112.904533 158.489654 
L 112.495225 158.484489 
L 112.495225 158.460264 
L 112.495225 158.316407 
L 112.222353 158.288363 
L 112.222353 158.260305 
L 112.222353 158.216461 
L 111.676609 158.231305 
L 111.676609 158.215493 
L 111.676609 158.097496 
L 111.403737 158.106199 
L 111.403737 158.041498 
L 111.403737 157.989359 
L 111.130865 158.007612 
L 111.130865 157.935242 
L 111.130865 157.7818 
L 110.721557 157.845838 
L 110.721557 157.757978 
L 110.721557 157.717107 
L 110.448685 157.731638 
L 110.448685 157.662908 
L 110.448685 157.649093 
L 109.766505 157.721776 
L 109.766505 157.687092 
L 109.766505 157.64877 
L 109.493633 157.659851 
L 109.493633 157.596581 
L 109.493633 157.543483 
L 108.811453 157.592142 
L 108.811453 157.581435 
L 108.811453 157.545643 
L 108.402145 157.5585 
L 108.402145 157.526003 
L 108.402145 157.51152 
L 107.992837 157.50607 
L 107.992837 157.491461 
L 107.992837 157.469498 
L 107.310657 157.515265 
L 107.310657 157.511581 
L 107.310657 157.470944 
L 106.628478 157.561749 
L 106.628478 157.517205 
L 106.628478 157.47242 
L 106.082734 157.490965 
L 106.082734 157.487199 
L 106.082734 157.346617 
L 105.400554 157.431563 
L 105.400554 157.396985 
L 105.400554 157.362262 
L 104.581938 157.446076 
L 104.581938 157.39941 
L 104.036194 157.425938 
L 104.036194 157.41809 
L 104.036194 157.335242 
L 103.899758 157.368563 
L 103.899758 157.257006 
L 103.899758 157.236929 
L 103.354014 157.270893 
L 103.354014 157.258764 
L 103.354014 157.161099 
L 102.944706 157.197763 
L 102.944706 157.15251 
L 102.944706 157.102867 
L 102.262526 157.167119 
L 102.262526 157.162953 
L 102.262526 157.133734 
L 101.853218 157.225323 
L 101.853218 157.124769 
L 101.853218 157.090985 
L 101.307474 157.197382 
L 101.307474 157.116865 
L 101.307474 157.082734 
L 100.898166 157.09043 
L 100.898166 157.077516 
L 100.898166 157.00397 
L 100.352422 157.042832 
L 100.352422 157.034095 
L 100.352422 157.020973 
L 100.215986 157.057005 
L 100.215986 156.942644 
L 100.215986 156.916035 
L 99.806678 156.998483 
L 99.806678 156.913882 
L 99.806678 156.909407 
L 99.124498 156.989895 
L 99.124498 156.980913 
L 99.124498 156.94489 
L 98.305882 157.077242 
L 98.305882 157.05467 
L 98.305882 156.986594 
L 97.077958 157.211429 
L 97.077958 157.202348 
L 96.395779 157.278559 
L 96.395779 157.269436 
L 95.986471 157.292842 
L 95.986471 157.26988 
L 95.986471 157.214515 
L 95.440727 157.262735 
L 95.440727 157.25343 
L 95.440727 157.244114 
L 95.167855 157.256767 
L 95.167855 157.209861 
L 95.167855 157.091446 
L 94.894983 157.165607 
L 94.894983 157.055579 
L 94.894983 157.007293 
L 94.622111 157.019181 
L 94.622111 156.975321 
L 94.622111 156.837416 
L 93.939931 156.93574 
L 93.939931 156.925787 
L 93.939931 156.890859 
L 93.667059 156.922564 
L 93.667059 156.857213 
L 93.667059 156.719882 
L 93.530623 156.761265 
L 93.530623 156.647976 
L 93.530623 156.522688 
L 93.121315 156.559203 
L 93.121315 156.532771 
L 93.121315 156.506259 
L 92.575571 156.569581 
L 92.575571 156.564249 
L 92.575571 156.451536 
L 92.439135 156.494394 
L 92.439135 156.380465 
L 92.439135 156.209565 
L 92.029827 156.284636 
L 92.029827 156.22881 
L 92.029827 156.150063 
L 91.756955 156.164614 
L 91.756955 156.124824 
L 91.756955 156.113423 
L 91.620519 156.157724 
L 91.620519 156.043159 
L 91.620519 155.985327 
L 90.801903 156.156063 
L 90.801903 156.138677 
L 90.801903 156.051239 
L 90.392595 156.15229 
L 90.392595 156.070131 
L 90.392595 156.058332 
L 89.983287 156.101168 
L 89.983287 156.083373 
L 89.983287 156.047677 
L 89.164671 156.218277 
L 89.164671 156.212323 
L 89.164671 156.176516 
L 88.482491 156.320836 
L 88.482491 156.296918 
L 88.482491 156.284934 
L 88.073183 156.408362 
L 88.073183 156.312386 
L 88.073183 156.264006 
L 87.800311 156.268127 
L 87.800311 156.243703 
L 87.800311 156.231466 
L 87.527439 156.327313 
L 87.527439 156.210766 
L 87.527439 156.173643 
L 87.254567 156.171064 
L 87.254567 156.158576 
L 87.254567 156.095875 
L 86.981696 156.187273 
L 86.981696 156.080102 
L 86.981696 156.01646 
L 86.84526 156.065763 
L 86.84526 155.950341 
L 86.84526 155.918017 
L 86.572388 155.946252 
L 86.572388 155.900663 
L 86.572388 155.87451 
L 86.435952 155.924612 
L 86.435952 155.806269 
L 86.435952 155.699775 
L 86.026644 155.811948 
L 86.026644 155.73822 
L 86.026644 155.64352 
L 85.890208 155.69481 
L 85.890208 155.578777 
L 85.890208 155.475173 
L 85.4809 155.5686 
L 85.4809 155.512899 
L 85.4809 155.421668 
L 85.208028 155.456232 
L 85.208028 155.413708 
L 85.208028 155.263336 
L 84.662284 155.38303 
L 84.662284 155.361347 
L 84.662284 155.310557 
L 84.252976 155.421344 
L 84.252976 155.35577 
L 84.252976 155.043571 
L 83.980104 155.108346 
L 83.980104 155.040104 
L 83.980104 154.948348 
L 83.843668 155.003927 
L 83.843668 154.888273 
L 83.843668 154.794736 
L 83.43436 154.95554 
L 83.43436 154.845997 
L 83.43436 154.663287 
L 83.297924 154.72033 
L 83.297924 154.607693 
L 83.297924 154.583386 
L 83.025052 154.584647 
L 83.025052 154.576477 
L 82.75218 154.692211 
L 82.75218 154.5777 
L 82.75218 154.50337 
L 82.479308 154.612015 
L 82.479308 154.504108 
L 82.479308 154.437108 
L 82.07 154.547305 
L 82.07 154.496799 
L 82.07 154.446031 
L 81.524256 154.651039 
L 81.524256 154.566435 
L 81.524256 154.472516 
L 81.251384 154.593271 
L 81.251384 154.473062 
L 81.251384 154.174868 
L 80.842076 154.271006 
L 80.842076 154.244233 
L 80.842076 154.145443 
L 80.569204 154.207068 
L 80.569204 154.152713 
L 80.569204 154.088922 
L 80.296332 154.196587 
L 80.296332 154.095876 
L 80.296332 154.077455 
L 79.887024 154.240337 
L 79.887024 154.14822 
L 79.887024 153.664815 
L 79.477716 153.744433 
L 79.477716 153.724935 
L 79.34128 153.790709 
L 79.34128 153.673256 
L 79.34128 153.643681 
L 78.931972 153.724422 
L 78.931972 153.544549 
L 78.795536 153.611815 
L 78.795536 153.490464 
L 78.795536 153.347059 
L 78.6591 153.415129 
L 78.6591 153.29096 
L 78.6591 153.259685 
L 78.522664 153.328257 
L 78.522664 153.213093 
L 78.522664 153.096646 
L 78.249792 153.192866 
L 78.249792 153.1182 
L 78.249792 153.042999 
L 77.840484 153.199538 
L 77.840484 153.134866 
L 77.840484 152.971423 
L 77.704048 153.042412 
L 77.704048 152.92127 
L 77.704048 152.720005 
L 77.431176 152.852812 
L 77.431176 152.739862 
L 77.431176 152.487097 
L 77.29474 152.560307 
L 77.29474 152.443759 
L 77.29474 152.420298 
L 77.158304 152.493987 
L 77.158304 152.376253 
L 77.158304 152.328799 
L 77.021869 152.403042 
L 77.021869 152.283839 
L 77.021869 152.151193 
L 76.885433 152.226241 
L 76.885433 152.104597 
L 76.885433 151.956827 
L 76.748997 152.032732 
L 76.748997 151.908423 
L 76.748997 151.833164 
L 76.339689 151.95025 
L 76.339689 151.937638 
L 76.339689 151.785163 
L 76.203253 151.862798 
L 76.203253 151.747395 
L 76.203253 151.630788 
L 75.793945 151.788532 
L 75.793945 151.749463 
L 75.793945 151.697158 
L 75.521073 151.81644 
L 75.521073 151.73771 
L 75.521073 151.698137 
L 75.384637 151.777965 
L 75.384637 151.658754 
L 75.384637 151.484298 
L 75.111765 151.565039 
L 75.111765 151.524344 
L 75.111765 151.510747 
L 74.975329 151.592145 
L 74.975329 151.469394 
L 74.975329 151.40062 
L 74.566021 151.523415 
L 74.566021 151.48187 
L 74.156713 151.63417 
L 74.156713 151.606405 
L 74.156713 151.522697 
L 73.610969 151.775352 
L 73.610969 151.733475 
L 73.610969 151.578571 
L 73.201661 151.763839 
L 73.201661 151.707159 
L 73.201661 151.66446 
L 73.065225 151.750458 
L 73.065225 151.62179 
L 73.065225 151.549666 
L 72.655917 151.738369 
L 72.655917 151.680524 
L 72.655917 151.460914 
L 72.383045 151.578571 
L 72.383045 151.519356 
L 72.383045 151.399987 
L 71.973737 151.653179 
L 71.973737 151.548589 
L 71.973737 151.518528 
L 71.837301 151.608613 
L 71.837301 151.487962 
L 71.837301 151.289121 
L 71.291557 151.547875 
L 71.291557 151.532495 
L 71.291557 151.45528 
L 71.155121 151.547728 
L 71.155121 151.423503 
L 71.155121 151.407879 
L 70.745813 151.594186 
L 70.745813 151.562935 
L 70.745813 151.515897 
L 70.609377 151.60993 
L 70.609377 151.483968 
L 70.609377 151.452256 
L 70.063633 151.737579 
L 70.063633 151.705958 
L 70.063633 151.368451 
L 69.654325 151.529696 
L 69.654325 151.431307 
L 69.517889 151.529448 
L 69.517889 151.397398 
L 69.517889 151.263794 
L 69.108581 151.428251 
L 69.108581 151.224675 
L 68.835709 151.324266 
L 68.835709 151.289925 
L 68.835709 151.255479 
L 68.562837 151.425064 
L 68.562837 151.321559 
L 68.562837 151.005297 
L 68.289965 151.160031 
L 68.289965 151.088758 
L 68.289965 151.052955 
L 68.017093 151.191312 
L 68.017093 151.137471 
L 68.017093 151.01085 
L 67.880657 151.116935 
L 67.880657 150.989398 
L 67.880657 150.464781 
L 67.607785 150.548563 
L 67.607785 150.49072 
L 67.471349 150.600549 
L 67.471349 150.464992 
L 67.471349 150.327862 
L 67.334913 150.438922 
L 67.334913 150.300726 
L 67.334913 150.120655 
L 67.198478 150.233129 
L 67.198478 150.091726 
L 67.198478 149.928058 
L 67.062042 150.041901 
L 67.062042 149.89741 
L 67.062042 149.855808 
L 66.516298 150.233702 
L 66.516298 150.171578 
L 66.516298 150.025358 
L 66.243426 150.258986 
L 66.243426 150.133234 
L 66.243426 149.791319 
L 65.697682 150.139964 
L 65.697682 150.075122 
L 65.561246 150.195776 
L 65.561246 150.065572 
L 65.561246 149.598474 
L 65.42481 149.721815 
L 65.42481 149.585568 
L 65.42481 149.493888 
L 65.151938 149.720309 
L 65.151938 149.60548 
L 65.151938 149.512836 
L 64.879066 149.672395 
L 64.879066 149.625848 
L 64.879066 149.414169 
L 64.469758 149.680958 
L 64.469758 149.657287 
L 64.469758 149.247734 
L 64.196886 149.485731 
L 64.196886 149.363466 
L 64.196886 149.314219 
L 64.06045 149.446614 
L 64.06045 149.298337 
L 64.06045 148.894073 
L 63.924014 149.029144 
L 63.924014 148.8748 
L 63.924014 148.796914 
L 63.514706 149.051682 
L 63.514706 148.999532 
L 63.105398 149.25916 
L 63.105398 149.233028 
L 62.832526 149.434989 
L 62.832526 149.35649 
L 62.832526 149.330212 
L 62.559654 149.586976 
L 62.559654 149.455696 
L 62.559654 149.40279 
L 62.423218 149.545661 
L 62.423218 149.386324 
L 62.423218 149.359567 
L 62.286782 149.503629 
L 62.286782 149.342628 
L 62.286782 149.31559 
L 62.01391 149.498747 
L 62.01391 149.444537 
L 62.01391 149.086268 
L 61.741038 149.272205 
L 61.741038 149.244234 
L 61.741038 149.075079 
L 61.604602 149.225687 
L 61.604602 149.083653 
L 61.604602 148.794665 
L 61.468166 148.947734 
L 61.468166 148.801442 
L 61.468166 148.653439 
L 61.195294 148.934038 
L 61.195294 148.815283 
L 61.195294 148.665255 
L 61.058858 148.822352 
L 61.058858 148.67129 
L 61.058858 148.518413 
L 60.785986 148.714407 
L 60.785986 148.683624 
L 60.785986 148.590827 
L 60.64955 148.751851 
L 60.64955 148.596471 
L 60.64955 148.407481 
L 60.103806 148.906305 
L 60.103806 148.09433 
L 59.96737 148.264271 
L 59.96737 148.096442 
L 59.96737 147.151131 
L 59.558062 147.501456 
L 59.558062 147.465204 
L 59.148754 147.859491 
L 59.148754 147.823333 
L 59.148754 147.750718 
L 59.012318 147.932407 
L 59.012318 147.750111 
L 59.012318 147.490591 
L 58.739446 147.860409 
L 58.739446 147.673977 
L 58.739446 147.598661 
L 58.466574 147.861047 
L 58.466574 147.785511 
L 58.466574 147.594754 
L 58.057266 148.091956 
L 58.057266 147.977507 
L 58.057266 146.858685 
L 57.92083 147.058484 
L 57.92083 146.891757 
L 57.92083 146.247792 
L 57.647958 146.61523 
L 57.647958 146.483885 
L 57.647958 146.082213 
L 57.511522 146.292071 
L 57.511522 146.110847 
L 57.511522 146.019346 
L 57.375087 146.231506 
L 57.375087 146.047792 
L 57.375087 145.861642 
L 57.102215 146.152943 
L 57.102215 146.106114 
L 57.102215 146.059128 
L 56.420035 146.972487 
L 56.420035 146.926177 
L 56.147163 147.28134 
L 56.147163 147.188828 
L 56.147163 146.177478 
L 55.737855 146.779458 
L 55.737855 146.680435 
L 55.737855 145.966654 
L 55.464983 146.294465 
L 55.464983 146.24218 
L 55.464983 145.924297 
L 55.328547 146.171029 
L 55.328547 145.956526 
L 55.328547 145.902385 
L 55.055675 146.402432 
L 55.055675 146.186809 
L 55.055675 146.132378 
L 54.919239 146.385781 
L 54.919239 146.16748 
L 54.919239 145.7204 
L 54.100623 147.072286 
L 54.100623 146.566383 
L 53.691315 147.271092 
L 53.691315 147.157848 
L 53.691315 146.753854 
L 53.554879 147.033605 
L 53.554879 146.799177 
L 53.554879 146.680435 
L 53.418443 146.964292 
L 53.418443 146.725648 
L 53.418443 146.35971 
L 53.282007 146.649821 
L 53.282007 146.402432 
L 53.282007 146.150545 
L 53.009135 146.554322 
L 53.009135 146.490829 
L 53.009135 146.103645 
L 52.736263 146.518322 
L 52.736263 146.452938 
L 52.736263 145.712725 
L 52.463391 146.277059 
L 52.463391 146.070889 
L 52.463391 145.791197 
L 52.190519 146.15962 
L 52.190519 145.581835 
L 51.781211 146.301474 
L 51.781211 146.2281 
L 51.644775 146.571587 
L 51.644775 146.277059 
L 51.644775 146.127419 
L 51.508339 146.477116 
L 51.508339 146.17594 
L 51.508339 146.099617 
L 51.371903 146.454986 
L 51.371903 146.14856 
L 51.371903 145.835266 
L 51.235467 146.198876 
L 51.235467 145.961671 
L 51.235467 145.474957 
L 51.099031 145.848035 
L 51.099031 145.600845 
L 51.099031 144.38769 
L 50.689723 145.389383 
L 50.689723 145.300464 
L 50.689723 144.847484 
L 50.553287 145.252713 
L 50.553287 144.977006 
L 50.553287 144.790256 
L 50.416851 145.203119 
L 50.416851 144.921558 
L 50.416851 144.5375 
L 49.871107 145.96468 
L 49.871107 145.869595 
L 49.871107 143.490366 
L 49.598235 144.096119 
L 49.598235 143.408779 
L 49.461799 143.895441 
L 49.461799 143.544109 
L 49.461799 143.18451 
L 49.188927 143.82776 
L 49.188927 143.335366 
L 49.052491 143.85351 
L 49.052491 143.47843 
L 49.052491 142.963613 
L 48.916055 143.497679 
L 48.916055 143.105214 
L 48.916055 142.702554 
L 48.370311 144.928326 
L 48.370311 144.5375 
L 48.370311 141.953495 
L 48.233875 142.566 
L 48.233875 142.097525 
L 48.233875 141.938259 
L 47.824567 143.840505 
L 47.824567 143.374821 
L 47.824567 143.216392 
L 47.688131 143.873523 
L 47.688131 143.396105 
L 47.688131 140.763486 
L 47.278824 142.566 
L 47.278824 142.379349 
L 47.278824 142.190476 
L 47.142388 142.943772 
L 47.142388 142.373659 
L 47.142388 140.958662 
L 47.005952 141.757179 
L 47.005952 141.12281 
L 47.005952 140.237248 
L 46.73308 141.478276 
L 46.73308 141.251667 
L 46.73308 141.021888 
L 46.187336 144.177737 
L 46.187336 143.957647 
L 46.187336 143.734296 
L 45.914464 145.214733 
L 45.914464 144.992462 
L 45.914464 144.5375 
L 45.778028 145.546535 
L 45.778028 144.855484 
L 45.778028 144.375902 
L 45.505156 145.801282 
L 45.505156 145.308957 
L 45.232284 146.867455 
L 45.232284 145.295769 
L 44.822976 148.619899 
L 44.822976 148.09433 
L 44.822976 146.975376 
L 44.68654 148.394783 
L 44.68654 147.527978 
L 44.68654 141.701781 
L 44.550104 143.442222 
L 44.550104 142.108841 
L 44.550104 141.638235 
L 44.413668 143.507612 
L 44.413668 142.073125 
L 44.413668 139.937333 
L 44.140796 143.672807 
L 44.140796 142.566 
L 44.140796 133.763023 
L 43.867924 137.713077 
L 43.867924 133.553429 
L 43.731488 136.999412 
L 43.731488 134.68 
L 43.731488 129.047143 
L 43.595052 133.21963 
L 43.595052 129.9484 
L 43.595052 123.926364 
L 43.458616 129.047143 
L 43.458616 126.794 
L 43.458616 124.303684 
L 43.32218 130.298889 
L 43.32218 127.721765 
L 43.32218 124.8225 
L 42.776436 158.338 
L 42.776436 151.578571 
L 42.776436 95.25 
L 42.64 174.11 
L 42.64 16.39 
L 42.64 16.39 
" style="fill:none;stroke:#800080;stroke-linecap:square;stroke-opacity:0.7;stroke-width:1.5;"/>
   </g>
   <g id="line2d_14">
    <path clip-path="url(#pf5696d9e21)" d="M 42.64 174.11 
L 44.2172 166.248474 
L 45.7944 153.249943 
L 47.3716 152.046257 
L 48.9488 152.893909 
L 50.526 153.241844 
L 52.1032 152.894272 
L 53.6804 152.150055 
L 55.2576 151.550632 
L 56.8348 152.022477 
L 58.412 152.965756 
L 59.9892 153.502635 
L 61.5664 153.629866 
L 63.1436 153.486031 
L 64.7208 153.837007 
L 66.298 154.475751 
L 67.8752 154.968952 
L 69.4524 154.954093 
L 71.0296 154.652433 
L 72.6068 154.524206 
L 74.184 154.825815 
L 75.7612 155.648952 
L 77.3384 156.614594 
L 78.9156 157.252432 
L 80.4928 157.499426 
L 82.07 157.696709 
L 83.6472 158.066677 
L 85.2244 158.394145 
L 86.8016 158.440557 
L 88.3788 158.290448 
L 89.956 158.280141 
L 91.5332 158.581885 
L 93.1104 158.961584 
L 94.6876 159.050135 
L 96.2648 158.884158 
L 97.842 158.660377 
L 99.4192 158.66595 
L 100.9964 158.800518 
L 102.5736 158.939702 
L 104.1508 159.051503 
L 105.728 159.11269 
L 107.3052 159.253142 
L 108.8824 159.567051 
L 110.4596 160.033427 
L 112.0368 160.427962 
L 113.614 160.633695 
L 115.1912 160.681315 
L 116.7684 160.737828 
L 118.3456 160.879805 
L 119.9228 161.062795 
L 121.5 161.210093 
L 123.0772 161.360714 
L 124.6544 161.483153 
L 126.2316 161.572883 
L 127.8088 161.604475 
L 129.386 161.689069 
L 130.9632 161.919388 
L 132.5404 162.214415 
L 134.1176 162.427079 
L 135.6948 162.492922 
L 137.272 162.458908 
L 138.8492 162.463425 
L 140.4264 162.546918 
L 142.0036 162.66028 
L 143.5808 162.772359 
L 145.158 162.900142 
L 146.7352 163.012971 
L 148.3124 163.099523 
L 149.8896 163.182924 
L 151.4668 163.327923 
L 153.044 163.521419 
L 154.6212 163.708441 
L 156.1984 163.859284 
L 157.7756 163.967887 
L 159.3528 164.042977 
L 160.93 164.123701 
L 162.5072 164.21123 
L 164.0844 164.326698 
L 165.6616 164.490261 
L 167.2388 164.661915 
L 168.816 164.780602 
L 170.3932 164.856323 
L 171.9704 164.922376 
L 173.5476 164.989495 
L 175.1248 165.036841 
L 176.702 165.108261 
L 178.2792 165.177006 
L 179.8564 165.243925 
L 181.4336 165.33942 
L 183.0108 165.432061 
L 184.588 165.503579 
L 186.1652 165.620526 
L 187.7424 165.78714 
L 189.3196 165.877428 
L 190.8968 165.911171 
L 192.474 166.012648 
L 194.0512 166.138556 
L 195.6284 166.211549 
L 197.2056 166.257247 
L 198.7828 166.343266 
L 200.36 166.434984 
" style="fill:none;stroke:#ff00ff;stroke-dasharray:5.55,2.4;stroke-dashoffset:0;stroke-opacity:0.7;stroke-width:1.5;"/>
   </g>
   <g id="line2d_15">
    <path clip-path="url(#pf5696d9e21)" d="M 42.64 16.39 
L 44.2172 113.041707 
L 45.7944 135.663246 
L 47.3716 132.949207 
L 48.9488 134.373803 
L 50.526 136.869666 
L 52.1032 139.048304 
L 53.6804 140.747363 
L 55.2576 141.398446 
L 56.8348 141.427727 
L 58.412 141.885554 
L 59.9892 142.925819 
L 61.5664 144.168357 
L 63.1436 145.22683 
L 64.7208 145.600531 
L 66.298 145.872881 
L 67.8752 146.601547 
L 69.4524 147.595966 
L 71.0296 148.401408 
L 72.6068 148.731616 
L 74.184 148.709963 
L 75.7612 148.5395 
L 77.3384 148.753049 
L 78.9156 149.635638 
L 80.4928 150.680815 
L 82.07 151.479473 
L 83.6472 152.029662 
L 85.2244 152.607999 
L 86.8016 153.26322 
L 88.3788 153.915534 
L 89.956 154.201913 
L 91.5332 154.219429 
L 93.1104 154.350023 
L 94.6876 154.776105 
L 96.2648 155.240935 
L 97.842 155.54462 
L 99.4192 155.532859 
L 100.9964 155.473829 
L 102.5736 155.500671 
L 104.1508 155.614981 
L 105.728 155.750294 
L 107.3052 155.850244 
L 108.8824 155.863897 
L 110.4596 155.89877 
L 112.0368 156.147504 
L 113.614 156.63748 
L 115.1912 157.169894 
L 116.7684 157.522091 
L 118.3456 157.745106 
L 119.9228 157.954004 
L 121.5 158.186652 
L 123.0772 158.423875 
L 124.6544 158.667942 
L 126.2316 158.891483 
L 127.8088 159.119751 
L 129.386 159.249029 
L 130.9632 159.269986 
L 132.5404 159.319295 
L 134.1176 159.562537 
L 135.6948 159.91533 
L 137.272 160.230938 
L 138.8492 160.398511 
L 140.4264 160.464994 
L 142.0036 160.529258 
L 143.5808 160.634902 
L 145.158 160.738179 
L 146.7352 160.874518 
L 148.3124 161.030702 
L 149.8896 161.177704 
L 151.4668 161.262553 
L 153.044 161.358392 
L 154.6212 161.525151 
L 156.1984 161.733762 
L 157.7756 161.961502 
L 159.3528 162.169946 
L 160.93 162.334115 
L 162.5072 162.469272 
L 164.0844 162.587465 
L 165.6616 162.690692 
L 167.2388 162.835463 
L 168.816 163.044772 
L 170.3932 163.244872 
L 171.9704 163.410321 
L 173.5476 163.553277 
L 175.1248 163.673457 
L 176.702 163.766291 
L 178.2792 163.870992 
L 179.8564 163.967572 
L 181.4336 164.057568 
L 183.0108 164.18387 
L 184.588 164.310347 
L 186.1652 164.386684 
L 187.7424 164.511329 
L 189.3196 164.71988 
L 190.8968 164.859794 
L 192.474 164.937599 
L 194.0512 165.08034 
L 195.6284 165.235414 
L 197.2056 165.310347 
L 198.7828 165.414587 
L 200.36 165.541075 
" style="fill:none;stroke:#ff00ff;stroke-dasharray:5.55,2.4;stroke-dashoffset:0;stroke-opacity:0.7;stroke-width:1.5;"/>
   </g>
   <g id="line2d_16">
    <path clip-path="url(#pf5696d9e21)" d="M 200.36 166.022871 
L 199.541384 165.957813 
L 199.541384 165.95158 
L 199.541384 165.947908 
L 198.31346 165.912555 
L 198.31346 165.897591 
L 198.31346 165.886708 
L 197.221972 165.836619 
L 197.221972 165.830486 
L 197.221972 165.820884 
L 196.26692 165.764477 
L 196.26692 165.758198 
L 196.26692 165.753482 
L 195.448304 165.686634 
L 195.448304 165.684626 
L 195.448304 165.645058 
L 194.083945 165.609845 
L 194.083945 165.605716 
L 194.083945 165.584179 
L 192.992457 165.541726 
L 192.992457 165.531153 
L 192.992457 165.529459 
L 192.310277 165.464245 
L 192.310277 165.455163 
L 192.310277 165.428238 
L 191.491661 165.393495 
L 191.491661 165.362033 
L 191.491661 165.333476 
L 189.990865 165.316113 
L 189.990865 165.306113 
L 189.990865 165.305203 
L 189.445121 165.238302 
L 189.445121 165.224831 
L 189.445121 165.201043 
L 188.762941 165.132157 
L 188.762941 165.128815 
L 188.762941 165.125472 
L 187.671453 165.098155 
L 187.671453 165.077764 
L 187.671453 165.06119 
L 186.170657 165.046721 
L 186.170657 165.038297 
L 186.170657 165.02787 
L 184.533426 165.017494 
L 184.533426 165.014469 
L 184.533426 165.000831 
L 183.578374 164.969248 
L 183.578374 164.947658 
L 183.578374 164.90885 
L 182.896194 164.854596 
L 182.896194 164.839779 
L 182.896194 164.838719 
L 181.804706 164.797444 
L 181.804706 164.795827 
L 181.804706 164.754117 
L 180.440346 164.742332 
L 180.440346 164.729092 
L 180.440346 164.720245 
L 179.62173 164.69164 
L 179.62173 164.661857 
L 179.62173 164.606857 
L 178.666678 164.566586 
L 178.666678 164.55789 
L 178.666678 164.535206 
L 177.57519 164.52095 
L 177.57519 164.496128 
L 177.57519 164.461637 
L 176.074394 164.473581 
L 176.074394 164.451255 
L 176.074394 164.438537 
L 175.255779 164.394928 
L 175.255779 164.383216 
L 175.255779 164.337955 
L 174.710035 164.298744 
L 174.710035 164.264578 
L 174.710035 164.259496 
L 174.164291 164.210783 
L 174.164291 164.186878 
L 174.164291 164.147214 
L 173.345675 164.115572 
L 173.345675 164.094372 
L 173.345675 164.071082 
L 172.254187 164.080279 
L 172.254187 164.03848 
L 172.254187 164.023564 
L 171.299135 163.98405 
L 171.299135 163.981981 
L 171.299135 163.941125 
L 170.753391 163.92997 
L 170.753391 163.870141 
L 170.753391 163.863765 
L 169.798339 163.848566 
L 169.798339 163.824153 
L 169.798339 163.819112 
L 168.979723 163.787077 
L 168.979723 163.770268 
L 168.979723 163.767339 
L 168.024671 163.748668 
L 168.024671 163.729374 
L 168.024671 163.707769 
L 167.206055 163.666255 
L 167.206055 163.660192 
L 167.206055 163.654881 
L 166.251003 163.625422 
L 166.251003 163.618493 
L 166.251003 163.610013 
L 165.70526 163.556332 
L 165.70526 163.542221 
L 165.70526 163.527285 
L 164.477336 163.529775 
L 164.477336 163.514652 
L 164.477336 163.502683 
L 162.97654 163.55224 
L 162.97654 163.513638 
L 162.97654 163.504752 
L 161.748616 163.515235 
L 161.748616 163.494815 
L 161.748616 163.455387 
L 161.066436 163.428798 
L 161.066436 163.401227 
L 161.066436 163.37772 
L 159.702076 163.413315 
L 159.702076 163.381939 
L 159.702076 163.375982 
L 159.156332 163.338017 
L 159.156332 163.311244 
L 159.156332 163.293032 
L 158.474152 163.310397 
L 158.474152 163.241146 
L 158.474152 163.228781 
L 157.791972 163.180962 
L 157.791972 163.177372 
L 157.791972 163.171083 
L 157.109792 163.132144 
L 157.109792 163.120292 
L 157.109792 163.009666 
L 156.700484 162.936886 
L 156.700484 162.935939 
L 156.700484 162.928358 
L 156.291176 162.932464 
L 156.291176 162.854902 
L 156.291176 162.848148 
L 155.472561 162.815019 
L 155.472561 162.812084 
L 155.472561 162.80523 
L 154.790381 162.816808 
L 154.790381 162.757475 
L 154.790381 162.75648 
L 154.108201 162.738906 
L 154.108201 162.709731 
L 154.108201 162.653986 
L 153.698893 162.647136 
L 153.698893 162.582292 
L 153.698893 162.579186 
L 152.743841 162.570558 
L 152.743841 162.560087 
L 152.743841 162.554844 
L 151.925225 162.562128 
L 151.925225 162.52294 
L 151.925225 162.472775 
L 150.833737 162.477563 
L 150.833737 162.468902 
L 150.833737 162.458057 
L 149.878685 162.445725 
L 149.878685 162.442431 
L 149.878685 162.419325 
L 148.514325 162.471476 
L 148.514325 162.445965 
L 148.514325 162.381134 
L 147.968581 162.378635 
L 147.968581 162.32641 
L 147.968581 162.317279 
L 147.286401 162.381162 
L 147.286401 162.276757 
L 147.286401 162.236105 
L 146.467785 162.255687 
L 146.467785 162.211029 
L 146.467785 162.189758 
L 145.922042 162.159841 
L 145.922042 162.137072 
L 145.922042 162.135871 
L 145.239862 162.10297 
L 145.239862 162.098106 
L 145.239862 162.073726 
L 143.875502 162.119402 
L 143.875502 162.110796 
L 143.875502 162.071296 
L 143.329758 162.051846 
L 143.329758 162.020536 
L 143.329758 162.010482 
L 142.647578 161.992951 
L 142.647578 161.975145 
L 142.647578 161.914983 
L 141.692526 161.911777 
L 141.692526 161.864816 
L 140.87391 161.874422 
L 140.87391 161.846674 
L 140.87391 161.826777 
L 140.328166 161.797798 
L 140.328166 161.778976 
L 140.328166 161.75334 
L 139.782422 161.754775 
L 139.782422 161.705643 
L 139.782422 161.691926 
L 139.236678 161.651475 
L 139.236678 161.644521 
L 139.236678 161.638952 
L 138.418062 161.635976 
L 138.418062 161.624723 
L 138.418062 161.499585 
L 137.599446 161.508333 
L 137.599446 161.488048 
L 137.599446 161.486596 
L 137.326574 161.477838 
L 137.326574 161.408946 
L 137.326574 161.403049 
L 136.78083 161.433611 
L 136.78083 161.35935 
L 136.78083 161.351876 
L 136.098651 161.325927 
L 136.098651 161.318359 
L 135.825779 161.32695 
L 135.825779 161.241435 
L 135.825779 161.235283 
L 135.280035 161.202699 
L 135.280035 161.193358 
L 135.280035 161.149589 
L 135.007163 161.184635 
L 135.007163 161.074175 
L 135.007163 161.066213 
L 134.324983 161.079776 
L 134.324983 161.042827 
L 134.324983 161.039604 
L 133.779239 161.030303 
L 133.779239 160.999378 
L 133.779239 160.951893 
L 132.960623 160.961701 
L 132.960623 160.948442 
L 132.960623 160.810976 
L 132.414879 160.816832 
L 132.414879 160.774127 
L 132.414879 160.69136 
L 132.005571 160.646348 
L 132.005571 160.635812 
L 132.005571 160.602338 
L 131.323391 160.624338 
L 131.323391 160.585198 
L 131.323391 160.509841 
L 130.914083 160.523948 
L 130.914083 160.45669 
L 130.914083 160.4329 
L 130.641211 160.392443 
L 130.641211 160.360926 
L 130.641211 160.33113 
L 129.822595 160.338057 
L 129.822595 160.336175 
L 129.822595 160.239496 
L 128.867543 160.302126 
L 128.867543 160.267611 
L 128.867543 160.265689 
L 128.321799 160.239651 
L 128.321799 160.233822 
L 128.321799 160.183093 
L 127.639619 160.245239 
L 127.639619 160.172474 
L 127.639619 160.13481 
L 127.093875 160.123083 
L 127.093875 160.105025 
L 127.093875 160.054618 
L 126.548131 160.092977 
L 126.548131 160.025812 
L 126.548131 160.013531 
L 125.729516 160.036523 
L 125.729516 160.02827 
L 125.729516 159.928473 
L 124.22872 160.074798 
L 124.22872 160.04969 
L 124.22872 159.971706 
L 123.410104 159.99934 
L 123.410104 159.988669 
L 123.410104 159.975843 
L 122.045744 160.082946 
L 122.045744 160.080802 
L 122.045744 160.065777 
L 121.363564 160.076933 
L 121.363564 160.063937 
L 121.363564 160.044399 
L 120.954256 160.041425 
L 120.954256 159.999763 
L 120.954256 159.966697 
L 120.408512 159.98804 
L 120.408512 159.945765 
L 120.408512 159.698265 
L 119.999204 159.697874 
L 119.999204 159.655945 
L 119.999204 159.61612 
L 119.726332 159.646147 
L 119.726332 159.551627 
L 119.726332 159.511081 
L 119.589896 159.534532 
L 119.589896 159.423839 
L 119.589896 159.372744 
L 119.317024 159.329503 
L 119.317024 159.30976 
L 119.317024 159.297393 
L 118.225536 159.385214 
L 118.225536 159.377766 
L 118.225536 159.342909 
L 117.270484 159.440243 
L 117.270484 159.400223 
L 117.270484 159.372583 
L 116.997612 159.396306 
L 116.997612 159.310172 
L 116.997612 159.302524 
L 116.72474 159.34669 
L 116.72474 159.239022 
L 116.72474 159.192397 
L 116.588304 159.217275 
L 116.588304 159.104867 
L 116.588304 159.052005 
L 116.451869 159.077139 
L 116.451869 158.965073 
L 116.451869 158.954313 
L 115.906125 158.974968 
L 115.906125 158.945158 
L 115.906125 158.926128 
L 115.360381 158.982276 
L 115.360381 158.916658 
L 115.360381 158.844926 
L 114.951073 158.825378 
L 114.951073 158.811391 
L 114.951073 158.777718 
L 114.541765 158.757499 
L 114.541765 158.743307 
L 114.541765 158.692 
L 113.723149 158.767931 
L 113.723149 158.739233 
L 113.723149 158.643762 
L 112.904533 158.700059 
L 112.904533 158.691283 
L 112.904533 158.664896 
L 112.358789 158.699881 
L 112.358789 158.661482 
L 112.358789 158.646662 
L 111.540173 158.701101 
L 111.540173 158.698119 
L 111.540173 158.66824 
L 111.267301 158.654485 
L 111.267301 158.612215 
L 111.267301 158.606158 
L 111.130865 158.633956 
L 111.130865 158.521215 
L 111.130865 158.493542 
L 110.585121 158.528853 
L 110.585121 158.494779 
L 110.585121 158.491674 
L 110.312249 158.445378 
L 110.312249 158.435963 
L 110.312249 158.410799 
L 109.630069 158.440125 
L 109.630069 158.411537 
L 109.220761 158.392753 
L 109.220761 158.386331 
L 109.220761 158.315344 
L 108.811453 158.357488 
L 108.811453 158.292341 
L 108.811453 158.272692 
L 108.538581 158.239425 
L 108.538581 158.219562 
L 108.538581 157.977268 
L 108.265709 158.037263 
L 108.265709 157.924099 
L 108.265709 157.899889 
L 108.129273 157.930133 
L 108.129273 157.818715 
L 108.129273 157.719959 
L 107.447093 157.777539 
L 107.447093 157.759716 
L 107.447093 157.713195 
L 106.764913 157.756945 
L 106.764913 157.749726 
L 106.355606 157.74944 
L 106.355606 157.73125 
L 106.355606 157.709368 
L 106.21917 157.740842 
L 106.21917 157.62704 
L 106.21917 157.623342 
L 106.082734 157.65503 
L 106.082734 157.543522 
L 106.082734 157.506015 
L 105.53699 157.570209 
L 105.53699 157.521152 
L 105.53699 157.445109 
L 105.127682 157.450461 
L 105.127682 157.431228 
L 105.127682 157.384888 
L 104.445502 157.463411 
L 104.445502 157.436217 
L 104.445502 157.397214 
L 104.036194 157.461161 
L 104.036194 157.382684 
L 104.036194 157.327309 
L 103.49045 157.349666 
L 103.49045 157.285527 
L 103.217578 157.328864 
L 103.217578 157.239925 
L 103.217578 157.038406 
L 102.80827 157.12062 
L 102.80827 157.028831 
L 102.80827 156.944521 
L 102.535398 156.963125 
L 102.535398 156.903469 
L 102.535398 156.899192 
L 101.853218 156.984536 
L 101.853218 156.963086 
L 101.853218 156.928655 
L 101.580346 156.925879 
L 101.580346 156.886785 
L 101.580346 156.851884 
L 100.898166 156.934167 
L 100.898166 156.916628 
L 100.898166 156.894652 
L 100.76173 156.930578 
L 100.76173 156.820057 
L 100.76173 156.721615 
L 100.488858 156.749335 
L 100.488858 156.681467 
L 100.488858 156.649614 
L 99.806678 156.728443 
L 99.806678 156.719295 
L 99.806678 156.682605 
L 99.533806 156.706126 
L 99.533806 156.646049 
L 99.533806 156.599553 
L 98.988062 156.707286 
L 98.988062 156.637264 
L 98.988062 156.576121 
L 98.305882 156.656851 
L 98.305882 156.652116 
L 98.305882 156.628403 
L 98.03301 156.609503 
L 98.03301 156.59035 
L 98.03301 156.498801 
L 97.623702 156.537105 
L 97.623702 156.50303 
L 97.623702 156.4148 
L 97.214394 156.43334 
L 97.214394 156.418469 
L 97.214394 156.313667 
L 96.941522 156.317324 
L 96.941522 156.281951 
L 96.941522 156.205676 
L 96.805087 156.245566 
L 96.805087 156.132728 
L 96.805087 156.11723 
L 96.395779 156.186239 
L 96.395779 156.123986 
L 96.395779 156.108355 
L 95.577163 156.242742 
L 95.577163 156.237523 
L 95.577163 156.148345 
L 95.031419 156.281186 
L 95.031419 156.196815 
L 95.031419 156.164969 
L 94.758547 156.23725 
L 94.758547 156.135943 
L 94.758547 156.130579 
L 94.622111 156.172293 
L 94.622111 156.059138 
L 94.622111 156.026545 
L 94.349239 156.045364 
L 94.349239 155.996097 
L 94.349239 155.9023 
L 94.076367 155.898533 
L 94.076367 155.876194 
L 94.076367 155.723964 
L 93.530623 155.83995 
L 93.530623 155.783034 
L 93.530623 155.731506 
L 93.257751 155.778509 
L 93.257751 155.703545 
L 93.257751 155.691958 
L 92.848443 155.760028 
L 92.848443 155.707666 
L 92.848443 155.368973 
L 92.712007 155.413863 
L 92.712007 155.298417 
L 92.712007 155.162949 
L 92.302699 155.200224 
L 92.302699 155.187759 
L 92.302699 155.156524 
L 92.166263 155.202351 
L 92.166263 155.089282 
L 92.166263 155.063972 
L 91.893391 155.105688 
L 91.893391 155.042043 
L 91.893391 155.003651 
L 91.211211 155.140973 
L 91.211211 155.121728 
L 91.211211 154.979397 
L 90.801903 155.075757 
L 90.801903 155.003905 
L 90.801903 154.778347 
L 90.665467 154.826415 
L 90.665467 154.711873 
L 90.665467 154.677924 
L 90.529031 154.726345 
L 90.529031 154.610275 
L 90.529031 154.541347 
L 90.256159 154.597671 
L 90.256159 154.521288 
L 90.256159 154.130225 
L 89.846851 154.171703 
L 89.846851 154.164415 
L 89.846851 154.142521 
L 89.437543 154.184416 
L 89.437543 154.177074 
L 89.437543 154.021638 
L 89.028235 154.100746 
L 89.028235 154.063346 
L 89.028235 154.040838 
L 88.346055 154.194357 
L 88.346055 154.186848 
L 88.346055 154.171811 
L 88.073183 154.230833 
L 88.073183 154.162883 
L 88.073183 153.979391 
L 87.391003 154.136193 
L 87.391003 154.128478 
L 87.391003 154.058775 
L 87.118131 154.157839 
L 87.118131 154.048853 
L 87.118131 154.017495 
L 86.435952 154.177669 
L 86.435952 154.169819 
L 86.435952 154.138355 
L 86.16308 154.239273 
L 86.16308 154.128793 
L 86.16308 154.120854 
L 85.890208 154.182842 
L 85.890208 154.111104 
L 85.890208 154.02272 
L 85.617336 154.117324 
L 85.617336 154.020311 
L 85.617336 153.914146 
L 85.208028 153.96729 
L 85.208028 153.876184 
L 84.79872 153.963047 
L 84.79872 153.929677 
L 84.79872 153.887809 
L 84.389412 153.992318 
L 84.389412 153.941876 
L 84.389412 153.908108 
L 84.252976 153.965695 
L 84.252976 153.8469 
L 84.252976 153.795557 
L 83.707232 153.934173 
L 83.707232 153.908417 
L 83.707232 153.882595 
L 83.570796 153.941202 
L 83.570796 153.828817 
L 83.570796 153.635746 
L 83.161488 153.778906 
L 83.161488 153.699176 
L 83.161488 153.645675 
L 82.888616 153.658396 
L 82.888616 153.649402 
L 82.888616 153.622373 
L 82.75218 153.682828 
L 82.75218 153.565171 
L 82.75218 153.510409 
L 82.615744 153.571351 
L 82.615744 153.451994 
L 82.615744 153.396437 
L 82.342872 153.398574 
L 82.342872 153.247945 
L 82.07 153.372475 
L 82.07 153.258637 
L 82.07 153.239542 
L 81.797128 153.269466 
L 81.797128 153.250258 
L 81.797128 153.026796 
L 81.524256 153.065899 
L 81.524256 153.036301 
L 81.524256 153.026417 
L 81.38782 153.090535 
L 81.38782 152.971501 
L 81.38782 152.96152 
L 81.114948 153.04082 
L 81.114948 152.970722 
L 81.114948 152.900157 
L 80.842076 153.020411 
L 80.842076 152.90904 
L 80.842076 152.578259 
L 80.569204 152.679814 
L 80.569204 152.595692 
L 80.569204 152.468263 
L 80.296332 152.517381 
L 80.296332 152.485201 
L 80.296332 152.431355 
L 80.159896 152.499138 
L 80.159896 152.38004 
L 80.159896 152.314523 
L 80.02346 152.382861 
L 80.02346 152.262032 
L 80.02346 152.250981 
L 79.614152 152.336123 
L 79.614152 152.247023 
L 79.34128 152.308006 
L 79.34128 152.2631 
L 79.34128 152.035765 
L 79.068408 152.154192 
L 79.068408 152.06223 
L 79.068408 152.039119 
L 78.931972 152.110252 
L 78.931972 151.99428 
L 78.931972 151.947549 
L 78.795536 152.019197 
L 78.795536 151.901817 
L 78.795536 151.878191 
L 78.6591 151.950298 
L 78.6591 151.831734 
L 78.6591 151.67569 
L 77.97692 151.957354 
L 77.97692 151.921255 
L 77.97692 151.860828 
L 77.840484 151.934654 
L 77.840484 151.813145 
L 77.840484 151.739599 
L 77.431176 151.840565 
L 77.431176 151.815876 
L 77.158304 151.953887 
L 77.158304 151.842612 
L 77.158304 151.792796 
L 76.885433 151.907128 
L 76.885433 151.819617 
L 76.885433 151.794487 
L 76.748997 151.870857 
L 76.748997 151.744714 
L 76.748997 151.655558 
L 76.066817 151.953234 
L 76.066817 151.915055 
L 76.066817 151.709188 
L 75.930381 151.78768 
L 75.930381 151.670536 
L 75.930381 151.134669 
L 75.793945 151.215161 
L 75.793945 151.091405 
L 75.793945 150.640337 
L 75.521073 150.747664 
L 75.521073 150.675647 
L 75.521073 150.588639 
L 75.384637 150.671734 
L 75.384637 150.555053 
L 75.384637 150.407558 
L 75.248201 150.491529 
L 75.248201 150.372544 
L 75.248201 150.282516 
L 74.975329 150.34672 
L 74.975329 150.331603 
L 74.975329 150.301312 
L 74.293149 150.609011 
L 74.293149 150.502877 
L 74.156713 150.589458 
L 74.156713 150.467352 
L 74.156713 150.32846 
L 74.020277 150.415944 
L 74.020277 150.291484 
L 74.020277 150.228762 
L 73.610969 150.384062 
L 73.610969 150.368329 
L 73.610969 150.321003 
L 73.338097 150.388743 
L 73.338097 150.372876 
L 73.338097 150.293221 
L 73.201661 150.38315 
L 73.201661 150.254983 
L 73.201661 150.060116 
L 73.065225 150.151172 
L 73.065225 150.01989 
L 73.065225 149.970288 
L 72.928789 150.062033 
L 72.928789 149.929171 
L 72.928789 149.710111 
L 72.519481 149.938775 
L 72.519481 149.870926 
L 72.519481 149.836859 
L 72.110173 149.999936 
L 72.110173 149.67132 
L 71.973737 149.766999 
L 71.973737 149.644055 
L 71.973737 149.46625 
L 71.837301 149.563033 
L 71.837301 149.437427 
L 71.837301 149.182319 
L 71.564429 149.268514 
L 71.564429 149.250045 
L 71.564429 149.194471 
L 71.427993 149.293505 
L 71.427993 149.163283 
L 71.427993 149.144569 
L 71.155121 149.325429 
L 71.155121 149.213112 
L 71.155121 148.792427 
L 70.882249 148.860162 
L 70.882249 148.722722 
L 70.472941 148.973375 
L 70.472941 148.894577 
L 70.472941 148.835153 
L 69.927197 149.114754 
L 69.927197 148.81409 
L 69.654325 148.966232 
L 69.654325 148.905351 
L 69.654325 148.741552 
L 69.381453 148.956932 
L 69.381453 148.833532 
L 69.381453 148.688026 
L 68.835709 149.041921 
L 68.835709 149.000348 
L 68.835709 148.8748 
L 68.562837 149.03318 
L 68.562837 148.970067 
L 68.562837 148.927815 
L 68.153529 149.220852 
L 68.153529 149.136554 
L 68.153529 149.051682 
L 68.017093 149.16449 
L 68.017093 149.036564 
L 68.017093 148.972108 
L 67.744221 149.135404 
L 67.744221 149.070759 
L 67.744221 149.027476 
L 67.471349 149.149096 
L 67.471349 149.127372 
L 67.471349 149.08381 
L 66.925606 149.483544 
L 66.925606 149.418566 
L 66.925606 149.22156 
L 66.379862 149.607071 
L 66.379862 149.563238 
L 66.379862 149.519247 
L 66.243426 149.638646 
L 66.243426 149.506249 
L 66.243426 149.19168 
L 65.970554 149.34405 
L 65.970554 149.298482 
L 65.970554 149.252747 
L 65.697682 149.452572 
L 65.697682 149.360994 
L 65.697682 148.651853 
L 65.561246 148.778298 
L 65.561246 148.632154 
L 65.561246 148.484313 
L 65.151938 148.720927 
L 65.151938 148.215672 
L 65.015502 148.346972 
L 65.015502 148.218028 
L 65.015502 147.471401 
L 64.74263 147.605187 
L 64.74263 147.271092 
L 64.333322 147.572984 
L 64.333322 147.544873 
L 64.333322 147.317821 
L 64.196886 147.45785 
L 64.196886 147.314559 
L 64.196886 147.198812 
L 63.924014 147.424187 
L 63.924014 147.337073 
L 63.924014 147.307908 
L 63.651142 147.448222 
L 63.651142 147.092336 
L 62.968962 147.675489 
L 62.968962 147.585982 
L 62.832526 147.734226 
L 62.832526 147.584364 
L 62.832526 147.463242 
L 62.559654 147.733001 
L 62.559654 147.611588 
L 62.559654 147.489052 
L 62.286782 147.63951 
L 62.286782 147.484349 
L 62.01391 147.730448 
L 62.01391 147.636903 
L 62.01391 147.542693 
L 61.741038 147.85459 
L 61.741038 147.69756 
L 61.741038 147.377797 
L 61.468166 147.566878 
L 61.468166 147.534469 
L 61.468166 147.436765 
L 61.33173 147.597558 
L 61.33173 147.433901 
L 61.33173 146.407897 
L 61.058858 146.600698 
L 61.058858 146.52943 
L 60.922422 146.698223 
L 60.922422 146.555267 
L 60.922422 146.301474 
L 60.64955 146.607966 
L 60.64955 146.498541 
L 60.64955 146.20244 
L 60.376678 146.439825 
L 60.376678 146.402432 
L 60.376678 146.364939 
L 59.96737 146.857701 
L 59.96737 146.746011 
L 59.96737 146.481807 
L 59.830934 146.661492 
L 59.830934 146.509 
L 59.830934 146.080776 
L 59.421626 146.514609 
L 59.421626 146.475299 
L 59.421626 146.356695 
L 59.28519 146.542894 
L 59.28519 146.384006 
L 59.28519 146.263632 
L 59.012318 146.480219 
L 59.012318 146.194956 
L 58.60301 146.649821 
L 58.60301 146.608897 
L 58.60301 146.567851 
L 58.330138 146.876066 
L 58.330138 146.794036 
L 58.330138 146.711511 
L 58.057266 146.941768 
L 58.057266 146.435528 
L 57.92083 146.637776 
L 57.92083 146.465806 
L 57.92083 146.379011 
L 57.784394 146.583396 
L 57.784394 146.409177 
L 57.784394 145.963826 
L 57.511522 146.381806 
L 57.511522 146.201753 
L 57.511522 146.110847 
L 57.238651 146.444361 
L 57.238651 146.353355 
L 57.238651 146.030067 
L 56.829343 146.588389 
L 56.829343 146.495724 
L 56.829343 145.632778 
L 56.147163 146.571587 
L 56.147163 145.459945 
L 56.010727 145.697206 
L 56.010727 145.486741 
L 56.010727 145.001601 
L 55.737855 145.487845 
L 55.737855 145.269771 
L 55.737855 145.159484 
L 55.464983 145.6538 
L 55.464983 145.433636 
L 55.464983 145.266265 
L 55.192111 145.546535 
L 55.192111 145.433636 
L 54.646367 146.295651 
L 54.646367 146.239799 
L 54.646367 145.668689 
L 53.964187 146.780647 
L 53.964187 146.723473 
L 53.827751 146.996709 
L 53.827751 146.767421 
L 53.827751 145.74807 
L 53.418443 146.35971 
L 53.418443 146.173049 
L 53.145571 146.757658 
L 53.145571 146.509 
L 53.145571 146.446128 
L 53.009135 146.743059 
L 53.009135 146.490829 
L 53.009135 145.7726 
L 52.872699 146.079194 
L 52.872699 145.810957 
L 52.872699 145.674904 
L 52.736263 145.986434 
L 52.736263 145.712725 
L 52.736263 144.9318 
L 52.599827 145.25396 
L 52.599827 145.035354 
L 52.599827 144.663555 
L 52.463391 144.992462 
L 52.463391 144.766744 
L 52.463391 143.665389 
L 52.326955 144.007527 
L 52.326955 143.762791 
L 52.326955 142.917465 
L 52.190519 143.270894 
L 52.190519 143.010282 
L 52.190519 142.922429 
L 51.644775 144.111383 
L 51.644775 144.024682 
L 51.099031 145.349294 
L 51.099031 145.264454 
L 51.099031 145.093264 
L 50.826159 145.691982 
L 50.826159 145.606386 
L 50.826159 144.812167 
L 50.689723 145.210994 
L 50.689723 144.939216 
L 50.689723 144.662278 
L 50.416851 145.479299 
L 50.416851 145.203119 
L 50.416851 144.439901 
L 50.143979 145.290731 
L 50.143979 145.000604 
L 50.143979 144.503857 
L 49.871107 145.28531 
L 49.871107 145.085139 
L 49.871107 143.602117 
L 49.461799 144.902593 
L 49.461799 144.684627 
L 49.461799 143.062756 
L 49.188927 143.82776 
L 49.188927 143.706145 
L 49.188927 142.031356 
L 48.916055 142.837931 
L 48.916055 142.702554 
L 48.916055 142.428253 
L 48.643183 143.266978 
L 48.643183 143.129286 
L 48.643183 142.85018 
L 48.370311 143.723578 
L 48.370311 143.583548 
L 48.370311 143.442222 
L 48.233875 144.033163 
L 48.233875 143.607547 
L 48.233875 143.317048 
L 48.097439 143.924354 
L 48.097439 143.484757 
L 48.097439 142.878317 
L 47.961003 143.507612 
L 47.961003 143.043939 
L 47.961003 141.216524 
L 47.824567 141.887634 
L 47.824567 141.359399 
L 47.824567 141.179451 
L 47.688131 141.868895 
L 47.688131 141.325506 
L 47.688131 139.98345 
L 47.551696 140.710471 
L 47.551696 140.110479 
L 47.551696 139.905663 
L 47.278824 141.008272 
L 47.278824 140.802671 
L 47.278824 139.954076 
L 47.005952 141.337013 
L 47.005952 140.905789 
L 47.005952 139.776395 
L 46.73308 141.251667 
L 46.73308 140.788873 
L 46.73308 140.069712 
L 46.596644 140.965942 
L 46.596644 140.229407 
L 46.596644 139.976567 
L 46.323772 141.352769 
L 46.323772 141.098837 
L 46.323772 140.578976 
L 45.914464 143.083115 
L 45.914464 142.826694 
L 45.914464 140.905789 
L 45.778028 142.007699 
L 45.778028 141.132182 
L 45.778028 140.521481 
L 45.232284 144.730784 
L 45.232284 144.439901 
L 45.232284 143.531633 
L 45.095848 144.842371 
L 45.095848 143.908298 
L 45.095848 141.098837 
L 44.822976 143.706145 
L 44.822976 142.955432 
L 44.822976 141.757179 
L 44.68654 143.385325 
L 44.68654 142.13973 
L 44.68654 139.318824 
L 44.140796 145.668689 
L 44.140796 145.194667 
L 44.140796 140.091961 
L 44.00436 142.566 
L 44.00436 140.552553 
L 44.00436 139.823043 
L 43.595052 147.182195 
L 43.595052 146.509 
L 43.595052 145.801282 
L 43.458616 149.206842 
L 43.458616 147.072286 
L 43.458616 134.68 
L 43.32218 139.823043 
L 43.32218 136.557619 
L 43.32218 127.721765 
L 43.185744 134.68 
L 43.185744 129.047143 
L 43.185744 121.536667 
L 43.049308 131.095455 
L 43.049308 126.794 
L 43.049308 121.536667 
L 42.776436 151.578571 
L 42.776436 142.566 
L 42.776436 16.39 
L 42.64 16.39 
L 42.64 16.39 
" style="fill:none;stroke:#ff4500;stroke-linecap:square;stroke-opacity:0.7;stroke-width:1.5;"/>
   </g>
   <g id="line2d_17">
    <path clip-path="url(#pf5696d9e21)" d="M 42.64 174.11 
L 44.2172 159.062713 
L 45.7944 152.605243 
L 47.3716 152.264218 
L 48.9488 153.118416 
L 50.526 152.242896 
L 52.1032 151.963721 
L 53.6804 152.442306 
L 55.2576 151.449941 
L 56.8348 151.549693 
L 58.412 151.43681 
L 59.9892 151.60114 
L 61.5664 152.043039 
L 63.1436 152.274007 
L 64.7208 153.117194 
L 66.298 153.177188 
L 67.8752 152.507712 
L 69.4524 152.485441 
L 71.0296 153.239035 
L 72.6068 153.915468 
L 74.184 154.497699 
L 75.7612 155.035014 
L 77.3384 155.303467 
L 78.9156 155.619831 
L 80.4928 156.13563 
L 82.07 156.510986 
L 83.6472 156.559685 
L 85.2244 156.431423 
L 86.8016 156.49623 
L 88.3788 156.867442 
L 89.956 157.483148 
L 91.5332 158.077464 
L 93.1104 158.403881 
L 94.6876 158.49057 
L 96.2648 158.530394 
L 97.842 158.604641 
L 99.4192 158.732606 
L 100.9964 158.93332 
L 102.5736 159.172847 
L 104.1508 159.41402 
L 105.728 159.652788 
L 107.3052 159.9274 
L 108.8824 160.170373 
L 110.4596 160.28232 
L 112.0368 160.310042 
L 113.614 160.455136 
L 115.1912 160.65828 
L 116.7684 160.954392 
L 118.3456 161.15413 
L 119.9228 161.307344 
L 121.5 161.321357 
L 123.0772 161.251888 
L 124.6544 161.227112 
L 126.2316 161.322159 
L 127.8088 161.488806 
L 129.386 161.708576 
L 130.9632 161.984082 
L 132.5404 162.245706 
L 134.1176 162.438752 
L 135.6948 162.585739 
L 137.272 162.710066 
L 138.8492 162.813719 
L 140.4264 162.90811 
L 142.0036 162.983102 
L 143.5808 163.064693 
L 145.158 163.149715 
L 146.7352 163.254862 
L 148.3124 163.314411 
L 149.8896 163.365128 
L 151.4668 163.450621 
L 153.044 163.610305 
L 154.6212 163.811763 
L 156.1984 164.010033 
L 157.7756 164.149676 
L 159.3528 164.222399 
L 160.93 164.228459 
L 162.5072 164.236886 
L 164.0844 164.272905 
L 165.6616 164.338108 
L 167.2388 164.434608 
L 168.816 164.541196 
L 170.3932 164.664781 
L 171.9704 164.787299 
L 173.5476 164.941268 
L 175.1248 165.065114 
L 176.702 165.133729 
L 178.2792 165.213612 
L 179.8564 165.317462 
L 181.4336 165.407729 
L 183.0108 165.497547 
L 184.588 165.548979 
L 186.1652 165.57717 
L 187.7424 165.64672 
L 189.3196 165.789035 
L 190.8968 165.883718 
L 192.474 165.991382 
L 194.0512 166.077 
L 195.6284 166.176636 
L 197.2056 166.282748 
L 198.7828 166.361462 
L 200.36 166.451398 
" style="fill:none;stroke:#ff7f50;stroke-dasharray:5.55,2.4;stroke-dashoffset:0;stroke-opacity:0.7;stroke-width:1.5;"/>
   </g>
   <g id="line2d_18">
    <path clip-path="url(#pf5696d9e21)" d="M 42.64 16.39 
L 44.2172 126.633089 
L 45.7944 131.29941 
L 47.3716 130.458839 
L 48.9488 133.124508 
L 50.526 136.481638 
L 52.1032 137.559213 
L 53.6804 139.053151 
L 55.2576 140.319767 
L 56.8348 140.685665 
L 58.412 141.365659 
L 59.9892 141.76437 
L 61.5664 142.184449 
L 63.1436 142.921847 
L 64.7208 143.328561 
L 66.298 144.463649 
L 67.8752 145.606661 
L 69.4524 145.759783 
L 71.0296 145.588567 
L 72.6068 145.940321 
L 74.184 146.579424 
L 75.7612 147.318576 
L 77.3384 148.186791 
L 78.9156 148.834492 
L 80.4928 149.331703 
L 82.07 149.970998 
L 83.6472 150.793938 
L 85.2244 151.42202 
L 86.8016 151.717761 
L 88.3788 151.768954 
L 89.956 151.790822 
L 91.5332 152.100151 
L 93.1104 152.752863 
L 94.6876 153.456379 
L 96.2648 154.021986 
L 97.842 154.4229 
L 99.4192 154.698637 
L 100.9964 154.906252 
L 102.5736 155.100561 
L 104.1508 155.357879 
L 105.728 155.628008 
L 107.3052 155.890395 
L 108.8824 156.206116 
L 110.4596 156.58149 
L 112.0368 156.94265 
L 113.614 157.129855 
L 115.1912 157.283384 
L 116.7684 157.453263 
L 118.3456 157.723876 
L 119.9228 158.014455 
L 121.5 158.389048 
L 123.0772 158.705773 
L 124.6544 158.857959 
L 126.2316 158.894861 
L 127.8088 158.926743 
L 129.386 158.986628 
L 130.9632 159.096181 
L 132.5404 159.2804 
L 134.1176 159.561216 
L 135.6948 159.847818 
L 137.272 160.125472 
L 138.8492 160.380945 
L 140.4264 160.601061 
L 142.0036 160.802654 
L 143.5808 160.964576 
L 145.158 161.10931 
L 146.7352 161.22296 
L 148.3124 161.365133 
L 149.8896 161.490216 
L 151.4668 161.573909 
L 153.044 161.618726 
L 154.6212 161.702853 
L 156.1984 161.853267 
L 157.7756 162.07512 
L 159.3528 162.332083 
L 160.93 162.557496 
L 162.5072 162.703187 
L 164.0844 162.788399 
L 165.6616 162.833786 
L 167.2388 162.89811 
L 168.816 162.987098 
L 170.3932 163.093199 
L 171.9704 163.2238 
L 173.5476 163.357444 
L 175.1248 163.534582 
L 176.702 163.727249 
L 178.2792 163.862995 
L 179.8564 163.986014 
L 181.4336 164.116575 
L 183.0108 164.24138 
L 184.588 164.384311 
L 186.1652 164.477918 
L 187.7424 164.524274 
L 189.3196 164.608642 
L 190.8968 164.771236 
L 192.474 164.906487 
L 194.0512 165.056391 
L 195.6284 165.174411 
L 197.2056 165.314643 
L 198.7828 165.444204 
L 200.36 165.562532 
" style="fill:none;stroke:#ff7f50;stroke-dasharray:5.55,2.4;stroke-dashoffset:0;stroke-opacity:0.7;stroke-width:1.5;"/>
   </g>
   <g id="patch_3">
    <path d="M 42.64 174.11 
L 42.64 16.39 
" style="fill:none;stroke:#000000;stroke-linecap:square;stroke-linejoin:miter;stroke-width:0.8;"/>
   </g>
   <g id="patch_4">
    <path d="M 200.36 174.11 
L 200.36 16.39 
" style="fill:none;stroke:#000000;stroke-linecap:square;stroke-linejoin:miter;stroke-width:0.8;"/>
   </g>
   <g id="patch_5">
    <path d="M 42.64 174.11 
L 200.36 174.11 
" style="fill:none;stroke:#000000;stroke-linecap:square;stroke-linejoin:miter;stroke-width:0.8;"/>
   </g>
   <g id="patch_6">
    <path d="M 42.64 16.39 
L 200.36 16.39 
" style="fill:none;stroke:#000000;stroke-linecap:square;stroke-linejoin:miter;stroke-width:0.8;"/>
   </g>
   <g id="legend_1">
    <g id="patch_7">
     <path d="M 125.981875 66.943125 
L 193.36 66.943125 
Q 195.36 66.943125 195.36 64.943125 
L 195.36 23.39 
Q 195.36 21.39 193.36 21.39 
L 125.981875 21.39 
Q 123.981875 21.39 123.981875 23.39 
L 123.981875 64.943125 
Q 123.981875 66.943125 125.981875 66.943125 
z
" style="fill:#ffffff;opacity:0.8;stroke:#cccccc;stroke-linejoin:miter;"/>
    </g>
    <g id="text_15">
     <!-- prolonged use -->
     <g transform="translate(127.981875 32.547813)scale(0.1 -0.1)">
      <defs>
       <path d="M 6.59375 -19.875 
L 6.59375 51.859375 
L 14.59375 51.859375 
L 14.59375 45.125 
Q 17.4375 49.078125 21 51.046875 
Q 24.5625 53.03125 29.640625 53.03125 
Q 36.28125 53.03125 41.359375 49.609375 
Q 46.4375 46.1875 49.015625 39.953125 
Q 51.609375 33.734375 51.609375 26.3125 
Q 51.609375 18.359375 48.75 11.984375 
Q 45.90625 5.609375 40.453125 2.21875 
Q 35.015625 -1.171875 29 -1.171875 
Q 24.609375 -1.171875 21.109375 0.6875 
Q 17.625 2.546875 15.375 5.375 
L 15.375 -19.875 
z
M 14.546875 25.640625 
Q 14.546875 15.625 18.59375 10.84375 
Q 22.65625 6.0625 28.421875 6.0625 
Q 34.28125 6.0625 38.453125 11.015625 
Q 42.625 15.96875 42.625 26.375 
Q 42.625 36.28125 38.546875 41.203125 
Q 34.46875 46.140625 28.8125 46.140625 
Q 23.1875 46.140625 18.859375 40.890625 
Q 14.546875 35.640625 14.546875 25.640625 
z
" id="ArialMT-112"/>
       <path d="M 4.984375 -4.296875 
L 13.53125 -5.5625 
Q 14.0625 -9.515625 16.5 -11.328125 
Q 19.78125 -13.765625 25.4375 -13.765625 
Q 31.546875 -13.765625 34.859375 -11.328125 
Q 38.1875 -8.890625 39.359375 -4.5 
Q 40.046875 -1.8125 39.984375 6.78125 
Q 34.234375 0 25.640625 0 
Q 14.9375 0 9.078125 7.71875 
Q 3.21875 15.4375 3.21875 26.21875 
Q 3.21875 33.640625 5.90625 39.90625 
Q 8.59375 46.1875 13.6875 49.609375 
Q 18.796875 53.03125 25.6875 53.03125 
Q 34.859375 53.03125 40.828125 45.609375 
L 40.828125 51.859375 
L 48.921875 51.859375 
L 48.921875 7.03125 
Q 48.921875 -5.078125 46.453125 -10.125 
Q 44 -15.1875 38.640625 -18.109375 
Q 33.296875 -21.046875 25.484375 -21.046875 
Q 16.21875 -21.046875 10.5 -16.875 
Q 4.78125 -12.703125 4.984375 -4.296875 
z
M 12.25 26.859375 
Q 12.25 16.65625 16.296875 11.96875 
Q 20.359375 7.28125 26.46875 7.28125 
Q 32.515625 7.28125 36.609375 11.9375 
Q 40.71875 16.609375 40.71875 26.5625 
Q 40.71875 36.078125 36.5 40.90625 
Q 32.28125 45.75 26.3125 45.75 
Q 20.453125 45.75 16.34375 40.984375 
Q 12.25 36.234375 12.25 26.859375 
z
" id="ArialMT-103"/>
       <path d="M 40.234375 0 
L 40.234375 6.546875 
Q 35.296875 -1.171875 25.734375 -1.171875 
Q 19.53125 -1.171875 14.328125 2.25 
Q 9.125 5.671875 6.265625 11.796875 
Q 3.421875 17.921875 3.421875 25.875 
Q 3.421875 33.640625 6 39.96875 
Q 8.59375 46.296875 13.765625 49.65625 
Q 18.953125 53.03125 25.34375 53.03125 
Q 30.03125 53.03125 33.6875 51.046875 
Q 37.359375 49.078125 39.65625 45.90625 
L 39.65625 71.578125 
L 48.390625 71.578125 
L 48.390625 0 
z
M 12.453125 25.875 
Q 12.453125 15.921875 16.640625 10.984375 
Q 20.84375 6.0625 26.5625 6.0625 
Q 32.328125 6.0625 36.34375 10.765625 
Q 40.375 15.484375 40.375 25.140625 
Q 40.375 35.796875 36.265625 40.765625 
Q 32.171875 45.75 26.171875 45.75 
Q 20.3125 45.75 16.375 40.96875 
Q 12.453125 36.1875 12.453125 25.875 
z
" id="ArialMT-100"/>
       <path id="ArialMT-32"/>
       <path d="M 40.578125 0 
L 40.578125 7.625 
Q 34.515625 -1.171875 24.125 -1.171875 
Q 19.53125 -1.171875 15.546875 0.578125 
Q 11.578125 2.34375 9.640625 5 
Q 7.71875 7.671875 6.9375 11.53125 
Q 6.390625 14.109375 6.390625 19.734375 
L 6.390625 51.859375 
L 15.1875 51.859375 
L 15.1875 23.09375 
Q 15.1875 16.21875 15.71875 13.8125 
Q 16.546875 10.359375 19.234375 8.375 
Q 21.921875 6.390625 25.875 6.390625 
Q 29.828125 6.390625 33.296875 8.421875 
Q 36.765625 10.453125 38.203125 13.9375 
Q 39.65625 17.4375 39.65625 24.078125 
L 39.65625 51.859375 
L 48.4375 51.859375 
L 48.4375 0 
z
" id="ArialMT-117"/>
      </defs>
      <use xlink:href="#ArialMT-112"/>
      <use x="55.615234" xlink:href="#ArialMT-114"/>
      <use x="88.916016" xlink:href="#ArialMT-111"/>
      <use x="144.53125" xlink:href="#ArialMT-108"/>
      <use x="166.748047" xlink:href="#ArialMT-111"/>
      <use x="222.363281" xlink:href="#ArialMT-110"/>
      <use x="277.978516" xlink:href="#ArialMT-103"/>
      <use x="333.59375" xlink:href="#ArialMT-101"/>
      <use x="389.208984" xlink:href="#ArialMT-100"/>
      <use x="444.824219" xlink:href="#ArialMT-32"/>
      <use x="472.607422" xlink:href="#ArialMT-117"/>
      <use x="528.222656" xlink:href="#ArialMT-115"/>
      <use x="578.222656" xlink:href="#ArialMT-101"/>
     </g>
    </g>
    <g id="patch_8">
     <path d="M 134.835781 46.810313 
L 154.835781 46.810313 
L 154.835781 39.810313 
L 134.835781 39.810313 
z
" style="fill:#ff4500;stroke:#ff4500;stroke-linejoin:miter;"/>
    </g>
    <g id="text_16">
     <!-- SVM -->
     <g transform="translate(162.835781 46.810313)scale(0.1 -0.1)">
      <defs>
       <path d="M 4.5 23 
L 13.421875 23.78125 
Q 14.0625 18.40625 16.375 14.96875 
Q 18.703125 11.53125 23.578125 9.40625 
Q 28.46875 7.28125 34.578125 7.28125 
Q 39.984375 7.28125 44.140625 8.890625 
Q 48.296875 10.5 50.3125 13.296875 
Q 52.34375 16.109375 52.34375 19.4375 
Q 52.34375 22.796875 50.390625 25.3125 
Q 48.4375 27.828125 43.953125 29.546875 
Q 41.0625 30.671875 31.203125 33.03125 
Q 21.34375 35.40625 17.390625 37.5 
Q 12.25 40.1875 9.734375 44.15625 
Q 7.234375 48.140625 7.234375 53.078125 
Q 7.234375 58.5 10.296875 63.203125 
Q 13.375 67.921875 19.28125 70.359375 
Q 25.203125 72.796875 32.421875 72.796875 
Q 40.375 72.796875 46.453125 70.234375 
Q 52.546875 67.671875 55.8125 62.6875 
Q 59.078125 57.71875 59.328125 51.421875 
L 50.25 50.734375 
Q 49.515625 57.515625 45.28125 60.984375 
Q 41.0625 64.453125 32.8125 64.453125 
Q 24.21875 64.453125 20.28125 61.296875 
Q 16.359375 58.15625 16.359375 53.71875 
Q 16.359375 49.859375 19.140625 47.359375 
Q 21.875 44.875 33.421875 42.265625 
Q 44.96875 39.65625 49.265625 37.703125 
Q 55.515625 34.8125 58.484375 30.390625 
Q 61.46875 25.984375 61.46875 20.21875 
Q 61.46875 14.5 58.203125 9.4375 
Q 54.9375 4.390625 48.796875 1.578125 
Q 42.671875 -1.21875 35.015625 -1.21875 
Q 25.296875 -1.21875 18.71875 1.609375 
Q 12.15625 4.4375 8.421875 10.125 
Q 4.6875 15.828125 4.5 23 
z
" id="ArialMT-83"/>
       <path d="M 28.171875 0 
L 0.4375 71.578125 
L 10.6875 71.578125 
L 29.296875 19.578125 
Q 31.546875 13.328125 33.0625 7.859375 
Q 34.71875 13.71875 36.921875 19.578125 
L 56.25 71.578125 
L 65.921875 71.578125 
L 37.890625 0 
z
" id="ArialMT-86"/>
       <path d="M 7.421875 0 
L 7.421875 71.578125 
L 21.6875 71.578125 
L 38.625 20.90625 
Q 40.96875 13.8125 42.046875 10.296875 
Q 43.265625 14.203125 45.84375 21.78125 
L 62.984375 71.578125 
L 75.734375 71.578125 
L 75.734375 0 
L 66.609375 0 
L 66.609375 59.90625 
L 45.796875 0 
L 37.25 0 
L 16.546875 60.9375 
L 16.546875 0 
z
" id="ArialMT-77"/>
      </defs>
      <use xlink:href="#ArialMT-83"/>
      <use x="66.699219" xlink:href="#ArialMT-86"/>
      <use x="133.398438" xlink:href="#ArialMT-77"/>
     </g>
    </g>
    <g id="patch_9">
     <path d="M 134.835781 60.955625 
L 154.835781 60.955625 
L 154.835781 53.955625 
L 134.835781 53.955625 
z
" style="fill:#800080;stroke:#800080;stroke-linejoin:miter;"/>
    </g>
    <g id="text_17">
     <!-- XGB -->
     <g transform="translate(162.835781 60.955625)scale(0.1 -0.1)">
      <defs>
       <path d="M 0.4375 0 
L 28.125 37.3125 
L 3.71875 71.578125 
L 14.984375 71.578125 
L 27.984375 53.21875 
Q 32.03125 47.515625 33.734375 44.4375 
Q 36.140625 48.34375 39.40625 52.59375 
L 53.8125 71.578125 
L 64.109375 71.578125 
L 38.96875 37.84375 
L 66.0625 0 
L 54.34375 0 
L 36.328125 25.53125 
Q 34.8125 27.734375 33.203125 30.328125 
Q 30.8125 26.421875 29.78125 24.953125 
L 11.8125 0 
z
" id="ArialMT-88"/>
       <path d="M 41.21875 28.078125 
L 41.21875 36.46875 
L 71.53125 36.53125 
L 71.53125 9.96875 
Q 64.546875 4.390625 57.125 1.578125 
Q 49.703125 -1.21875 41.890625 -1.21875 
Q 31.34375 -1.21875 22.71875 3.296875 
Q 14.109375 7.8125 9.71875 16.359375 
Q 5.328125 24.90625 5.328125 35.453125 
Q 5.328125 45.90625 9.6875 54.953125 
Q 14.0625 64.015625 22.265625 68.40625 
Q 30.46875 72.796875 41.15625 72.796875 
Q 48.921875 72.796875 55.1875 70.28125 
Q 61.46875 67.78125 65.03125 63.28125 
Q 68.609375 58.796875 70.453125 51.5625 
L 61.921875 49.21875 
Q 60.296875 54.6875 57.90625 57.8125 
Q 55.515625 60.9375 51.0625 62.8125 
Q 46.625 64.703125 41.21875 64.703125 
Q 34.71875 64.703125 29.984375 62.71875 
Q 25.25 60.75 22.34375 57.515625 
Q 19.4375 54.296875 17.828125 50.4375 
Q 15.09375 43.796875 15.09375 36.03125 
Q 15.09375 26.46875 18.390625 20.015625 
Q 21.6875 13.578125 27.984375 10.453125 
Q 34.28125 7.328125 41.359375 7.328125 
Q 47.515625 7.328125 53.375 9.6875 
Q 59.234375 12.0625 62.25 14.75 
L 62.25 28.078125 
z
" id="ArialMT-71"/>
       <path d="M 7.328125 0 
L 7.328125 71.578125 
L 34.1875 71.578125 
Q 42.390625 71.578125 47.34375 69.40625 
Q 52.296875 67.234375 55.09375 62.71875 
Q 57.90625 58.203125 57.90625 53.265625 
Q 57.90625 48.6875 55.421875 44.625 
Q 52.9375 40.578125 47.90625 38.09375 
Q 54.390625 36.1875 57.875 31.59375 
Q 61.375 27 61.375 20.75 
Q 61.375 15.71875 59.25 11.390625 
Q 57.125 7.078125 54 4.734375 
Q 50.875 2.390625 46.15625 1.1875 
Q 41.453125 0 34.625 0 
z
M 16.796875 41.5 
L 32.28125 41.5 
Q 38.578125 41.5 41.3125 42.328125 
Q 44.921875 43.40625 46.75 45.890625 
Q 48.578125 48.390625 48.578125 52.15625 
Q 48.578125 55.71875 46.875 58.421875 
Q 45.171875 61.140625 41.984375 62.140625 
Q 38.8125 63.140625 31.109375 63.140625 
L 16.796875 63.140625 
z
M 16.796875 8.453125 
L 34.625 8.453125 
Q 39.203125 8.453125 41.0625 8.796875 
Q 44.34375 9.375 46.53125 10.734375 
Q 48.734375 12.109375 50.140625 14.71875 
Q 51.5625 17.328125 51.5625 20.75 
Q 51.5625 24.75 49.515625 27.703125 
Q 47.46875 30.671875 43.828125 31.859375 
Q 40.1875 33.0625 33.34375 33.0625 
L 16.796875 33.0625 
z
" id="ArialMT-66"/>
      </defs>
      <use xlink:href="#ArialMT-88"/>
      <use x="66.699219" xlink:href="#ArialMT-71"/>
      <use x="144.482422" xlink:href="#ArialMT-66"/>
     </g>
    </g>
   </g>
  </g>
 </g>
 <defs>
  <clipPath id="pf5696d9e21">
   <rect height="157.72" width="157.72" x="42.64" y="16.39"/>
  </clipPath>
 </defs>
</svg>
