<?xml version="1.0" encoding="utf-8" standalone="no"?>
<!DOCTYPE svg PUBLIC "-//W3C//DTD SVG 1.1//EN"
  "http://www.w3.org/Graphics/SVG/1.1/DTD/svg11.dtd">
<!-- Created with matplotlib (https://matplotlib.org/) -->
<svg height="216pt" version="1.1" viewBox="0 0 216 216" width="216pt" xmlns="http://www.w3.org/2000/svg" xmlns:xlink="http://www.w3.org/1999/xlink">
 <metadata>
  <rdf:RDF xmlns:cc="http://creativecommons.org/ns#" xmlns:dc="http://purl.org/dc/elements/1.1/" xmlns:rdf="http://www.w3.org/1999/02/22-rdf-syntax-ns#">
   <cc:Work>
    <dc:type rdf:resource="http://purl.org/dc/dcmitype/StillImage"/>
    <dc:date>2020-11-12T11:55:06.752996</dc:date>
    <dc:format>image/svg+xml</dc:format>
    <dc:creator>
     <cc:Agent>
      <dc:title>Matplotlib v3.3.2, https://matplotlib.org/</dc:title>
     </cc:Agent>
    </dc:creator>
   </cc:Work>
  </rdf:RDF>
 </metadata>
 <defs>
  <style type="text/css">*{stroke-linecap:butt;stroke-linejoin:round;}</style>
 </defs>
 <g id="figure_1">
  <g id="patch_1">
   <path d="M 0 216 
L 216 216 
L 216 0 
L 0 0 
z
" style="fill:none;"/>
  </g>
  <g id="axes_1">
   <g id="patch_2">
    <path d="M 42.64 174.11 
L 200.36 174.11 
L 200.36 16.39 
L 42.64 16.39 
z
" style="fill:#ffffff;"/>
   </g>
   <g id="matplotlib.axis_1">
    <g id="xtick_1">
     <g id="line2d_1">
      <defs>
       <path d="M 0 0 
L 0 3.5 
" id="m9767868fcf" style="stroke:#000000;stroke-width:0.8;"/>
      </defs>
      <g>
       <use style="stroke:#000000;stroke-width:0.8;" x="42.64" xlink:href="#m9767868fcf" y="174.11"/>
      </g>
     </g>
     <g id="text_1">
      <!-- 0.0 -->
      <g transform="translate(35.69 188.267812)scale(0.1 -0.1)">
       <defs>
        <path d="M 4.15625 35.296875 
Q 4.15625 48 6.765625 55.734375 
Q 9.375 63.484375 14.515625 67.671875 
Q 19.671875 71.875 27.484375 71.875 
Q 33.25 71.875 37.59375 69.546875 
Q 41.9375 67.234375 44.765625 62.859375 
Q 47.609375 58.5 49.21875 52.21875 
Q 50.828125 45.953125 50.828125 35.296875 
Q 50.828125 22.703125 48.234375 14.96875 
Q 45.65625 7.234375 40.5 3 
Q 35.359375 -1.21875 27.484375 -1.21875 
Q 17.140625 -1.21875 11.234375 6.203125 
Q 4.15625 15.140625 4.15625 35.296875 
z
M 13.1875 35.296875 
Q 13.1875 17.671875 17.3125 11.828125 
Q 21.4375 6 27.484375 6 
Q 33.546875 6 37.671875 11.859375 
Q 41.796875 17.71875 41.796875 35.296875 
Q 41.796875 52.984375 37.671875 58.78125 
Q 33.546875 64.59375 27.390625 64.59375 
Q 21.34375 64.59375 17.71875 59.46875 
Q 13.1875 52.9375 13.1875 35.296875 
z
" id="ArialMT-48"/>
        <path d="M 9.078125 0 
L 9.078125 10.015625 
L 19.09375 10.015625 
L 19.09375 0 
z
" id="ArialMT-46"/>
       </defs>
       <use xlink:href="#ArialMT-48"/>
       <use x="55.615234" xlink:href="#ArialMT-46"/>
       <use x="83.398438" xlink:href="#ArialMT-48"/>
      </g>
     </g>
    </g>
    <g id="xtick_2">
     <g id="line2d_2">
      <g>
       <use style="stroke:#000000;stroke-width:0.8;" x="74.184" xlink:href="#m9767868fcf" y="174.11"/>
      </g>
     </g>
     <g id="text_2">
      <!-- 0.2 -->
      <g transform="translate(67.234 188.267812)scale(0.1 -0.1)">
       <defs>
        <path d="M 50.34375 8.453125 
L 50.34375 0 
L 3.03125 0 
Q 2.9375 3.171875 4.046875 6.109375 
Q 5.859375 10.9375 9.828125 15.625 
Q 13.8125 20.3125 21.34375 26.46875 
Q 33.015625 36.03125 37.109375 41.625 
Q 41.21875 47.21875 41.21875 52.203125 
Q 41.21875 57.421875 37.46875 61 
Q 33.734375 64.59375 27.734375 64.59375 
Q 21.390625 64.59375 17.578125 60.78125 
Q 13.765625 56.984375 13.71875 50.25 
L 4.6875 51.171875 
Q 5.609375 61.28125 11.65625 66.578125 
Q 17.71875 71.875 27.9375 71.875 
Q 38.234375 71.875 44.234375 66.15625 
Q 50.25 60.453125 50.25 52 
Q 50.25 47.703125 48.484375 43.546875 
Q 46.734375 39.40625 42.65625 34.8125 
Q 38.578125 30.21875 29.109375 22.21875 
Q 21.1875 15.578125 18.9375 13.203125 
Q 16.703125 10.84375 15.234375 8.453125 
z
" id="ArialMT-50"/>
       </defs>
       <use xlink:href="#ArialMT-48"/>
       <use x="55.615234" xlink:href="#ArialMT-46"/>
       <use x="83.398438" xlink:href="#ArialMT-50"/>
      </g>
     </g>
    </g>
    <g id="xtick_3">
     <g id="line2d_3">
      <g>
       <use style="stroke:#000000;stroke-width:0.8;" x="105.728" xlink:href="#m9767868fcf" y="174.11"/>
      </g>
     </g>
     <g id="text_3">
      <!-- 0.4 -->
      <g transform="translate(98.778 188.267812)scale(0.1 -0.1)">
       <defs>
        <path d="M 32.328125 0 
L 32.328125 17.140625 
L 1.265625 17.140625 
L 1.265625 25.203125 
L 33.9375 71.578125 
L 41.109375 71.578125 
L 41.109375 25.203125 
L 50.78125 25.203125 
L 50.78125 17.140625 
L 41.109375 17.140625 
L 41.109375 0 
z
M 32.328125 25.203125 
L 32.328125 57.46875 
L 9.90625 25.203125 
z
" id="ArialMT-52"/>
       </defs>
       <use xlink:href="#ArialMT-48"/>
       <use x="55.615234" xlink:href="#ArialMT-46"/>
       <use x="83.398438" xlink:href="#ArialMT-52"/>
      </g>
     </g>
    </g>
    <g id="xtick_4">
     <g id="line2d_4">
      <g>
       <use style="stroke:#000000;stroke-width:0.8;" x="137.272" xlink:href="#m9767868fcf" y="174.11"/>
      </g>
     </g>
     <g id="text_4">
      <!-- 0.6 -->
      <g transform="translate(130.322 188.267812)scale(0.1 -0.1)">
       <defs>
        <path d="M 49.75 54.046875 
L 41.015625 53.375 
Q 39.84375 58.546875 37.703125 60.890625 
Q 34.125 64.65625 28.90625 64.65625 
Q 24.703125 64.65625 21.53125 62.3125 
Q 17.390625 59.28125 14.984375 53.46875 
Q 12.59375 47.65625 12.5 36.921875 
Q 15.671875 41.75 20.265625 44.09375 
Q 24.859375 46.4375 29.890625 46.4375 
Q 38.671875 46.4375 44.84375 39.96875 
Q 51.03125 33.5 51.03125 23.25 
Q 51.03125 16.5 48.125 10.71875 
Q 45.21875 4.9375 40.140625 1.859375 
Q 35.0625 -1.21875 28.609375 -1.21875 
Q 17.625 -1.21875 10.6875 6.859375 
Q 3.765625 14.9375 3.765625 33.5 
Q 3.765625 54.25 11.421875 63.671875 
Q 18.109375 71.875 29.4375 71.875 
Q 37.890625 71.875 43.28125 67.140625 
Q 48.6875 62.40625 49.75 54.046875 
z
M 13.875 23.1875 
Q 13.875 18.65625 15.796875 14.5 
Q 17.71875 10.359375 21.1875 8.171875 
Q 24.65625 6 28.46875 6 
Q 34.03125 6 38.03125 10.484375 
Q 42.046875 14.984375 42.046875 22.703125 
Q 42.046875 30.125 38.078125 34.390625 
Q 34.125 38.671875 28.125 38.671875 
Q 22.171875 38.671875 18.015625 34.390625 
Q 13.875 30.125 13.875 23.1875 
z
" id="ArialMT-54"/>
       </defs>
       <use xlink:href="#ArialMT-48"/>
       <use x="55.615234" xlink:href="#ArialMT-46"/>
       <use x="83.398438" xlink:href="#ArialMT-54"/>
      </g>
     </g>
    </g>
    <g id="xtick_5">
     <g id="line2d_5">
      <g>
       <use style="stroke:#000000;stroke-width:0.8;" x="168.816" xlink:href="#m9767868fcf" y="174.11"/>
      </g>
     </g>
     <g id="text_5">
      <!-- 0.8 -->
      <g transform="translate(161.866 188.267812)scale(0.1 -0.1)">
       <defs>
        <path d="M 17.671875 38.8125 
Q 12.203125 40.828125 9.5625 44.53125 
Q 6.9375 48.25 6.9375 53.421875 
Q 6.9375 61.234375 12.546875 66.546875 
Q 18.171875 71.875 27.484375 71.875 
Q 36.859375 71.875 42.578125 66.421875 
Q 48.296875 60.984375 48.296875 53.171875 
Q 48.296875 48.1875 45.671875 44.5 
Q 43.0625 40.828125 37.75 38.8125 
Q 44.34375 36.671875 47.78125 31.875 
Q 51.21875 27.09375 51.21875 20.453125 
Q 51.21875 11.28125 44.71875 5.03125 
Q 38.234375 -1.21875 27.640625 -1.21875 
Q 17.046875 -1.21875 10.546875 5.046875 
Q 4.046875 11.328125 4.046875 20.703125 
Q 4.046875 27.6875 7.59375 32.390625 
Q 11.140625 37.109375 17.671875 38.8125 
z
M 15.921875 53.71875 
Q 15.921875 48.640625 19.1875 45.40625 
Q 22.46875 42.1875 27.6875 42.1875 
Q 32.765625 42.1875 36.015625 45.375 
Q 39.265625 48.578125 39.265625 53.21875 
Q 39.265625 58.0625 35.90625 61.359375 
Q 32.5625 64.65625 27.59375 64.65625 
Q 22.5625 64.65625 19.234375 61.421875 
Q 15.921875 58.203125 15.921875 53.71875 
z
M 13.09375 20.65625 
Q 13.09375 16.890625 14.875 13.375 
Q 16.65625 9.859375 20.171875 7.921875 
Q 23.6875 6 27.734375 6 
Q 34.03125 6 38.125 10.046875 
Q 42.234375 14.109375 42.234375 20.359375 
Q 42.234375 26.703125 38.015625 30.859375 
Q 33.796875 35.015625 27.4375 35.015625 
Q 21.234375 35.015625 17.15625 30.90625 
Q 13.09375 26.8125 13.09375 20.65625 
z
" id="ArialMT-56"/>
       </defs>
       <use xlink:href="#ArialMT-48"/>
       <use x="55.615234" xlink:href="#ArialMT-46"/>
       <use x="83.398438" xlink:href="#ArialMT-56"/>
      </g>
     </g>
    </g>
    <g id="xtick_6">
     <g id="line2d_6">
      <g>
       <use style="stroke:#000000;stroke-width:0.8;" x="200.36" xlink:href="#m9767868fcf" y="174.11"/>
      </g>
     </g>
     <g id="text_6">
      <!-- 1.0 -->
      <g transform="translate(193.41 188.267812)scale(0.1 -0.1)">
       <defs>
        <path d="M 37.25 0 
L 28.46875 0 
L 28.46875 56 
Q 25.296875 52.984375 20.140625 49.953125 
Q 14.984375 46.921875 10.890625 45.40625 
L 10.890625 53.90625 
Q 18.265625 57.375 23.78125 62.296875 
Q 29.296875 67.234375 31.59375 71.875 
L 37.25 71.875 
z
" id="ArialMT-49"/>
       </defs>
       <use xlink:href="#ArialMT-49"/>
       <use x="55.615234" xlink:href="#ArialMT-46"/>
       <use x="83.398438" xlink:href="#ArialMT-48"/>
      </g>
     </g>
    </g>
    <g id="text_7">
     <!-- False Positive Rate -->
     <g transform="translate(78.428125 201.413125)scale(0.1 -0.1)">
      <defs>
       <path d="M 8.203125 0 
L 8.203125 71.578125 
L 56.5 71.578125 
L 56.5 63.140625 
L 17.671875 63.140625 
L 17.671875 40.96875 
L 51.265625 40.96875 
L 51.265625 32.515625 
L 17.671875 32.515625 
L 17.671875 0 
z
" id="ArialMT-70"/>
       <path d="M 40.4375 6.390625 
Q 35.546875 2.25 31.03125 0.53125 
Q 26.515625 -1.171875 21.34375 -1.171875 
Q 12.796875 -1.171875 8.203125 3 
Q 3.609375 7.171875 3.609375 13.671875 
Q 3.609375 17.484375 5.34375 20.625 
Q 7.078125 23.78125 9.890625 25.6875 
Q 12.703125 27.59375 16.21875 28.5625 
Q 18.796875 29.25 24.03125 29.890625 
Q 34.671875 31.15625 39.703125 32.90625 
Q 39.75 34.71875 39.75 35.203125 
Q 39.75 40.578125 37.25 42.78125 
Q 33.890625 45.75 27.25 45.75 
Q 21.046875 45.75 18.09375 43.578125 
Q 15.140625 41.40625 13.71875 35.890625 
L 5.125 37.0625 
Q 6.296875 42.578125 8.984375 45.96875 
Q 11.671875 49.359375 16.75 51.1875 
Q 21.828125 53.03125 28.515625 53.03125 
Q 35.15625 53.03125 39.296875 51.46875 
Q 43.453125 49.90625 45.40625 47.53125 
Q 47.359375 45.171875 48.140625 41.546875 
Q 48.578125 39.3125 48.578125 33.453125 
L 48.578125 21.734375 
Q 48.578125 9.46875 49.140625 6.21875 
Q 49.703125 2.984375 51.375 0 
L 42.1875 0 
Q 40.828125 2.734375 40.4375 6.390625 
z
M 39.703125 26.03125 
Q 34.90625 24.078125 25.34375 22.703125 
Q 19.921875 21.921875 17.671875 20.9375 
Q 15.4375 19.96875 14.203125 18.09375 
Q 12.984375 16.21875 12.984375 13.921875 
Q 12.984375 10.40625 15.640625 8.0625 
Q 18.3125 5.71875 23.4375 5.71875 
Q 28.515625 5.71875 32.46875 7.9375 
Q 36.421875 10.15625 38.28125 14.015625 
Q 39.703125 17 39.703125 22.796875 
z
" id="ArialMT-97"/>
       <path d="M 6.390625 0 
L 6.390625 71.578125 
L 15.1875 71.578125 
L 15.1875 0 
z
" id="ArialMT-108"/>
       <path d="M 3.078125 15.484375 
L 11.765625 16.84375 
Q 12.5 11.625 15.84375 8.84375 
Q 19.1875 6.0625 25.203125 6.0625 
Q 31.25 6.0625 34.171875 8.515625 
Q 37.109375 10.984375 37.109375 14.3125 
Q 37.109375 17.28125 34.515625 19 
Q 32.71875 20.171875 25.53125 21.96875 
Q 15.875 24.421875 12.140625 26.203125 
Q 8.40625 27.984375 6.46875 31.125 
Q 4.546875 34.28125 4.546875 38.09375 
Q 4.546875 41.546875 6.125 44.5 
Q 7.71875 47.46875 10.453125 49.421875 
Q 12.5 50.921875 16.03125 51.96875 
Q 19.578125 53.03125 23.640625 53.03125 
Q 29.734375 53.03125 34.34375 51.265625 
Q 38.96875 49.515625 41.15625 46.5 
Q 43.359375 43.5 44.1875 38.484375 
L 35.59375 37.3125 
Q 35.015625 41.3125 32.203125 43.546875 
Q 29.390625 45.796875 24.265625 45.796875 
Q 18.21875 45.796875 15.625 43.796875 
Q 13.03125 41.796875 13.03125 39.109375 
Q 13.03125 37.40625 14.109375 36.03125 
Q 15.1875 34.625 17.484375 33.6875 
Q 18.796875 33.203125 25.25 31.453125 
Q 34.578125 28.953125 38.25 27.359375 
Q 41.9375 25.78125 44.03125 22.75 
Q 46.140625 19.734375 46.140625 15.234375 
Q 46.140625 10.84375 43.578125 6.953125 
Q 41.015625 3.078125 36.171875 0.953125 
Q 31.34375 -1.171875 25.25 -1.171875 
Q 15.140625 -1.171875 9.84375 3.03125 
Q 4.546875 7.234375 3.078125 15.484375 
z
" id="ArialMT-115"/>
       <path d="M 42.09375 16.703125 
L 51.171875 15.578125 
Q 49.03125 7.625 43.21875 3.21875 
Q 37.40625 -1.171875 28.375 -1.171875 
Q 17 -1.171875 10.328125 5.828125 
Q 3.65625 12.84375 3.65625 25.484375 
Q 3.65625 38.578125 10.390625 45.796875 
Q 17.140625 53.03125 27.875 53.03125 
Q 38.28125 53.03125 44.875 45.953125 
Q 51.46875 38.875 51.46875 26.03125 
Q 51.46875 25.25 51.421875 23.6875 
L 12.75 23.6875 
Q 13.234375 15.140625 17.578125 10.59375 
Q 21.921875 6.0625 28.421875 6.0625 
Q 33.25 6.0625 36.671875 8.59375 
Q 40.09375 11.140625 42.09375 16.703125 
z
M 13.234375 30.90625 
L 42.1875 30.90625 
Q 41.609375 37.453125 38.875 40.71875 
Q 34.671875 45.796875 27.984375 45.796875 
Q 21.921875 45.796875 17.796875 41.75 
Q 13.671875 37.703125 13.234375 30.90625 
z
" id="ArialMT-101"/>
       <path id="ArialMT-32"/>
       <path d="M 7.71875 0 
L 7.71875 71.578125 
L 34.71875 71.578125 
Q 41.84375 71.578125 45.609375 70.90625 
Q 50.875 70.015625 54.4375 67.546875 
Q 58.015625 65.09375 60.1875 60.640625 
Q 62.359375 56.203125 62.359375 50.875 
Q 62.359375 41.75 56.546875 35.421875 
Q 50.734375 29.109375 35.546875 29.109375 
L 17.1875 29.109375 
L 17.1875 0 
z
M 17.1875 37.546875 
L 35.6875 37.546875 
Q 44.875 37.546875 48.734375 40.96875 
Q 52.59375 44.390625 52.59375 50.59375 
Q 52.59375 55.078125 50.3125 58.265625 
Q 48.046875 61.46875 44.34375 62.5 
Q 41.9375 63.140625 35.5 63.140625 
L 17.1875 63.140625 
z
" id="ArialMT-80"/>
       <path d="M 3.328125 25.921875 
Q 3.328125 40.328125 11.328125 47.265625 
Q 18.015625 53.03125 27.640625 53.03125 
Q 38.328125 53.03125 45.109375 46.015625 
Q 51.90625 39.015625 51.90625 26.65625 
Q 51.90625 16.65625 48.90625 10.90625 
Q 45.90625 5.171875 40.15625 2 
Q 34.421875 -1.171875 27.640625 -1.171875 
Q 16.75 -1.171875 10.03125 5.8125 
Q 3.328125 12.796875 3.328125 25.921875 
z
M 12.359375 25.921875 
Q 12.359375 15.96875 16.703125 11.015625 
Q 21.046875 6.0625 27.640625 6.0625 
Q 34.1875 6.0625 38.53125 11.03125 
Q 42.875 16.015625 42.875 26.21875 
Q 42.875 35.84375 38.5 40.796875 
Q 34.125 45.75 27.640625 45.75 
Q 21.046875 45.75 16.703125 40.8125 
Q 12.359375 35.890625 12.359375 25.921875 
z
" id="ArialMT-111"/>
       <path d="M 6.640625 61.46875 
L 6.640625 71.578125 
L 15.4375 71.578125 
L 15.4375 61.46875 
z
M 6.640625 0 
L 6.640625 51.859375 
L 15.4375 51.859375 
L 15.4375 0 
z
" id="ArialMT-105"/>
       <path d="M 25.78125 7.859375 
L 27.046875 0.09375 
Q 23.34375 -0.6875 20.40625 -0.6875 
Q 15.625 -0.6875 12.984375 0.828125 
Q 10.359375 2.34375 9.28125 4.8125 
Q 8.203125 7.28125 8.203125 15.1875 
L 8.203125 45.015625 
L 1.765625 45.015625 
L 1.765625 51.859375 
L 8.203125 51.859375 
L 8.203125 64.703125 
L 16.9375 69.96875 
L 16.9375 51.859375 
L 25.78125 51.859375 
L 25.78125 45.015625 
L 16.9375 45.015625 
L 16.9375 14.703125 
Q 16.9375 10.9375 17.40625 9.859375 
Q 17.875 8.796875 18.921875 8.15625 
Q 19.96875 7.515625 21.921875 7.515625 
Q 23.390625 7.515625 25.78125 7.859375 
z
" id="ArialMT-116"/>
       <path d="M 21 0 
L 1.265625 51.859375 
L 10.546875 51.859375 
L 21.6875 20.796875 
Q 23.484375 15.765625 25 10.359375 
Q 26.171875 14.453125 28.265625 20.21875 
L 39.796875 51.859375 
L 48.828125 51.859375 
L 29.203125 0 
z
" id="ArialMT-118"/>
       <path d="M 7.859375 0 
L 7.859375 71.578125 
L 39.59375 71.578125 
Q 49.171875 71.578125 54.140625 69.640625 
Q 59.125 67.71875 62.109375 62.828125 
Q 65.09375 57.953125 65.09375 52.046875 
Q 65.09375 44.4375 60.15625 39.203125 
Q 55.21875 33.984375 44.921875 32.5625 
Q 48.6875 30.765625 50.640625 29 
Q 54.78125 25.203125 58.5 19.484375 
L 70.953125 0 
L 59.03125 0 
L 49.5625 14.890625 
Q 45.40625 21.34375 42.71875 24.75 
Q 40.046875 28.171875 37.921875 29.53125 
Q 35.796875 30.90625 33.59375 31.453125 
Q 31.984375 31.78125 28.328125 31.78125 
L 17.328125 31.78125 
L 17.328125 0 
z
M 17.328125 39.984375 
L 37.703125 39.984375 
Q 44.1875 39.984375 47.84375 41.328125 
Q 51.515625 42.671875 53.421875 45.625 
Q 55.328125 48.578125 55.328125 52.046875 
Q 55.328125 57.125 51.640625 60.390625 
Q 47.953125 63.671875 39.984375 63.671875 
L 17.328125 63.671875 
z
" id="ArialMT-82"/>
      </defs>
      <use xlink:href="#ArialMT-70"/>
      <use x="61.083984" xlink:href="#ArialMT-97"/>
      <use x="116.699219" xlink:href="#ArialMT-108"/>
      <use x="138.916016" xlink:href="#ArialMT-115"/>
      <use x="188.916016" xlink:href="#ArialMT-101"/>
      <use x="244.53125" xlink:href="#ArialMT-32"/>
      <use x="272.314453" xlink:href="#ArialMT-80"/>
      <use x="339.013672" xlink:href="#ArialMT-111"/>
      <use x="394.628906" xlink:href="#ArialMT-115"/>
      <use x="444.628906" xlink:href="#ArialMT-105"/>
      <use x="466.845703" xlink:href="#ArialMT-116"/>
      <use x="494.628906" xlink:href="#ArialMT-105"/>
      <use x="516.845703" xlink:href="#ArialMT-118"/>
      <use x="566.845703" xlink:href="#ArialMT-101"/>
      <use x="622.460938" xlink:href="#ArialMT-32"/>
      <use x="650.244141" xlink:href="#ArialMT-82"/>
      <use x="722.460938" xlink:href="#ArialMT-97"/>
      <use x="778.076172" xlink:href="#ArialMT-116"/>
      <use x="805.859375" xlink:href="#ArialMT-101"/>
     </g>
    </g>
   </g>
   <g id="matplotlib.axis_2">
    <g id="ytick_1">
     <g id="line2d_7">
      <defs>
       <path d="M 0 0 
L -3.5 0 
" id="mb94e64af9b" style="stroke:#000000;stroke-width:0.8;"/>
      </defs>
      <g>
       <use style="stroke:#000000;stroke-width:0.8;" x="42.64" xlink:href="#mb94e64af9b" y="174.11"/>
      </g>
     </g>
     <g id="text_8">
      <!-- 0.0 -->
      <g transform="translate(21.74 177.688906)scale(0.1 -0.1)">
       <use xlink:href="#ArialMT-48"/>
       <use x="55.615234" xlink:href="#ArialMT-46"/>
       <use x="83.398438" xlink:href="#ArialMT-48"/>
      </g>
     </g>
    </g>
    <g id="ytick_2">
     <g id="line2d_8">
      <g>
       <use style="stroke:#000000;stroke-width:0.8;" x="42.64" xlink:href="#mb94e64af9b" y="142.566"/>
      </g>
     </g>
     <g id="text_9">
      <!-- 0.2 -->
      <g transform="translate(21.74 146.144906)scale(0.1 -0.1)">
       <use xlink:href="#ArialMT-48"/>
       <use x="55.615234" xlink:href="#ArialMT-46"/>
       <use x="83.398438" xlink:href="#ArialMT-50"/>
      </g>
     </g>
    </g>
    <g id="ytick_3">
     <g id="line2d_9">
      <g>
       <use style="stroke:#000000;stroke-width:0.8;" x="42.64" xlink:href="#mb94e64af9b" y="111.022"/>
      </g>
     </g>
     <g id="text_10">
      <!-- 0.4 -->
      <g transform="translate(21.74 114.600906)scale(0.1 -0.1)">
       <use xlink:href="#ArialMT-48"/>
       <use x="55.615234" xlink:href="#ArialMT-46"/>
       <use x="83.398438" xlink:href="#ArialMT-52"/>
      </g>
     </g>
    </g>
    <g id="ytick_4">
     <g id="line2d_10">
      <g>
       <use style="stroke:#000000;stroke-width:0.8;" x="42.64" xlink:href="#mb94e64af9b" y="79.478"/>
      </g>
     </g>
     <g id="text_11">
      <!-- 0.6 -->
      <g transform="translate(21.74 83.056906)scale(0.1 -0.1)">
       <use xlink:href="#ArialMT-48"/>
       <use x="55.615234" xlink:href="#ArialMT-46"/>
       <use x="83.398438" xlink:href="#ArialMT-54"/>
      </g>
     </g>
    </g>
    <g id="ytick_5">
     <g id="line2d_11">
      <g>
       <use style="stroke:#000000;stroke-width:0.8;" x="42.64" xlink:href="#mb94e64af9b" y="47.934"/>
      </g>
     </g>
     <g id="text_12">
      <!-- 0.8 -->
      <g transform="translate(21.74 51.512906)scale(0.1 -0.1)">
       <use xlink:href="#ArialMT-48"/>
       <use x="55.615234" xlink:href="#ArialMT-46"/>
       <use x="83.398438" xlink:href="#ArialMT-56"/>
      </g>
     </g>
    </g>
    <g id="ytick_6">
     <g id="line2d_12">
      <g>
       <use style="stroke:#000000;stroke-width:0.8;" x="42.64" xlink:href="#mb94e64af9b" y="16.39"/>
      </g>
     </g>
     <g id="text_13">
      <!-- 1.0 -->
      <g transform="translate(21.74 19.968906)scale(0.1 -0.1)">
       <use xlink:href="#ArialMT-49"/>
       <use x="55.615234" xlink:href="#ArialMT-46"/>
       <use x="83.398438" xlink:href="#ArialMT-48"/>
      </g>
     </g>
    </g>
    <g id="text_14">
     <!-- True Positive Rate -->
     <g transform="translate(15.7525 136.188281)rotate(-90)scale(0.1 -0.1)">
      <defs>
       <path d="M 25.921875 0 
L 25.921875 63.140625 
L 2.34375 63.140625 
L 2.34375 71.578125 
L 59.078125 71.578125 
L 59.078125 63.140625 
L 35.40625 63.140625 
L 35.40625 0 
z
" id="ArialMT-84"/>
       <path d="M 6.5 0 
L 6.5 51.859375 
L 14.40625 51.859375 
L 14.40625 44 
Q 17.4375 49.515625 20 51.265625 
Q 22.5625 53.03125 25.640625 53.03125 
Q 30.078125 53.03125 34.671875 50.203125 
L 31.640625 42.046875 
Q 28.421875 43.953125 25.203125 43.953125 
Q 22.3125 43.953125 20.015625 42.21875 
Q 17.71875 40.484375 16.75 37.40625 
Q 15.28125 32.71875 15.28125 27.15625 
L 15.28125 0 
z
" id="ArialMT-114"/>
       <path d="M 40.578125 0 
L 40.578125 7.625 
Q 34.515625 -1.171875 24.125 -1.171875 
Q 19.53125 -1.171875 15.546875 0.578125 
Q 11.578125 2.34375 9.640625 5 
Q 7.71875 7.671875 6.9375 11.53125 
Q 6.390625 14.109375 6.390625 19.734375 
L 6.390625 51.859375 
L 15.1875 51.859375 
L 15.1875 23.09375 
Q 15.1875 16.21875 15.71875 13.8125 
Q 16.546875 10.359375 19.234375 8.375 
Q 21.921875 6.390625 25.875 6.390625 
Q 29.828125 6.390625 33.296875 8.421875 
Q 36.765625 10.453125 38.203125 13.9375 
Q 39.65625 17.4375 39.65625 24.078125 
L 39.65625 51.859375 
L 48.4375 51.859375 
L 48.4375 0 
z
" id="ArialMT-117"/>
      </defs>
      <use xlink:href="#ArialMT-84"/>
      <use x="57.333984" xlink:href="#ArialMT-114"/>
      <use x="90.634766" xlink:href="#ArialMT-117"/>
      <use x="146.25" xlink:href="#ArialMT-101"/>
      <use x="201.865234" xlink:href="#ArialMT-32"/>
      <use x="229.648438" xlink:href="#ArialMT-80"/>
      <use x="296.347656" xlink:href="#ArialMT-111"/>
      <use x="351.962891" xlink:href="#ArialMT-115"/>
      <use x="401.962891" xlink:href="#ArialMT-105"/>
      <use x="424.179688" xlink:href="#ArialMT-116"/>
      <use x="451.962891" xlink:href="#ArialMT-105"/>
      <use x="474.179688" xlink:href="#ArialMT-118"/>
      <use x="524.179688" xlink:href="#ArialMT-101"/>
      <use x="579.794922" xlink:href="#ArialMT-32"/>
      <use x="607.578125" xlink:href="#ArialMT-82"/>
      <use x="679.794922" xlink:href="#ArialMT-97"/>
      <use x="735.410156" xlink:href="#ArialMT-116"/>
      <use x="763.193359" xlink:href="#ArialMT-101"/>
     </g>
    </g>
   </g>
   <g id="line2d_13">
    <path clip-path="url(#p396ce4d5c2)" d="M 42.64 174.11 
L 42.647362 174.11 
L 42.750428 173.154948 
L 42.787237 173.154948 
L 42.875579 172.609204 
L 42.978645 172.609204 
L 43.066987 172.06346 
L 43.206861 172.06346 
L 43.309927 171.38128 
L 43.332013 171.38128 
L 43.44244 170.562664 
L 43.457164 170.562664 
L 43.552868 169.607612 
L 43.626486 169.607612 
L 43.655934 169.061869 
L 43.788447 169.061869 
L 43.847341 168.379689 
L 44.00194 168.379689 
L 44.097644 167.561073 
L 44.127091 167.561073 
L 44.237519 167.015329 
L 44.259604 167.015329 
L 44.259604 166.878893 
L 44.436288 166.878893 
L 44.546716 166.060277 
L 44.590887 166.060277 
L 44.605611 165.650969 
L 44.730762 165.650969 
L 44.797018 165.378097 
L 44.855913 165.378097 
L 44.958979 164.695917 
L 44.973702 164.695917 
L 45.062044 164.286609 
L 45.113577 164.286609 
L 45.209281 163.877301 
L 45.231367 163.877301 
L 45.304985 163.467993 
L 45.36388 163.467993 
L 45.437498 163.195121 
L 45.481669 163.195121 
L 45.562649 162.649377 
L 45.628906 162.649377 
L 45.658353 161.830761 
L 45.746695 161.830761 
L 45.820314 161.285017 
L 45.871847 161.285017 
L 45.893932 161.012145 
L 46.011721 161.012145 
L 46.026445 160.602837 
L 46.195767 160.602837 
L 46.284109 159.374913 
L 46.343004 159.374913 
L 46.387175 159.102042 
L 46.475517 159.102042 
L 46.482879 158.82917 
L 46.622754 158.82917 
L 46.622754 158.692734 
L 46.850971 158.692734 
L 46.939313 158.010554 
L 46.990846 158.010554 
L 47.101273 157.328374 
L 47.130721 157.328374 
L 47.174892 156.78263 
L 47.410471 156.78263 
L 47.410471 156.646194 
L 47.594516 156.646194 
L 47.631326 156.10045 
L 47.712306 156.10045 
L 47.771201 155.691142 
L 47.844819 155.691142 
L 47.918437 155.281834 
L 47.992056 155.281834 
L 48.102483 155.008962 
L 48.154016 155.008962 
L 48.183463 154.73609 
L 48.293891 154.73609 
L 48.374871 154.326782 
L 48.426404 154.326782 
L 48.536832 153.644602 
L 48.544193 153.644602 
L 48.647259 152.825986 
L 48.713516 152.825986 
L 48.713516 152.68955 
L 48.875476 152.68955 
L 48.934371 152.280242 
L 49.066884 152.280242 
L 49.103693 151.870934 
L 49.184673 151.870934 
L 49.287739 151.32519 
L 49.361357 151.32519 
L 49.361357 151.188754 
L 49.560127 151.188754 
L 49.626383 150.506574 
L 49.788344 150.506574 
L 49.89141 149.687958 
L 49.957666 149.687958 
L 50.068094 149.415087 
L 50.185883 149.415087 
L 50.288949 149.142215 
L 50.311034 149.142215 
L 50.362567 148.869343 
L 50.620232 148.869343 
L 50.723297 148.460035 
L 50.767468 148.460035 
L 50.789554 148.187163 
L 50.966238 148.187163 
L 51.05458 147.641419 
L 51.142922 147.641419 
L 51.201817 147.232111 
L 51.319606 147.232111 
L 51.422672 146.686367 
L 51.591994 146.686367 
L 51.636165 146.140623 
L 51.709783 146.140623 
L 51.790764 145.594879 
L 51.85702 145.594879 
L 51.952724 144.912699 
L 52.107323 144.912699 
L 52.180941 144.366955 
L 52.269283 144.366955 
L 52.29873 144.094083 
L 52.438605 144.094083 
L 52.475414 143.684775 
L 52.57848 143.684775 
L 52.666822 143.139031 
L 52.769888 143.139031 
L 52.872954 142.456851 
L 52.924487 142.456851 
L 53.012829 141.774671 
L 53.115894 141.774671 
L 53.189513 141.365363 
L 53.351473 141.365363 
L 53.439815 140.956055 
L 53.491348 140.956055 
L 53.535519 140.546747 
L 53.668032 140.546747 
L 53.763736 140.273875 
L 53.807907 140.273875 
L 53.829993 140.001003 
L 53.947782 140.001003 
L 53.947782 139.864567 
L 54.109742 139.864567 
L 54.109742 139.728131 
L 54.264341 139.728131 
L 54.367407 139.45526 
L 54.455749 139.45526 
L 54.455749 139.318824 
L 54.691327 139.318824 
L 54.698689 139.045952 
L 54.912183 139.045952 
L 54.912183 138.909516 
L 55.066781 138.909516 
L 55.10359 138.500208 
L 55.206656 138.500208 
L 55.236103 138.227336 
L 55.398064 138.227336 
L 55.508491 137.954464 
L 55.699899 137.954464 
L 55.699899 137.818028 
L 55.832412 137.818028 
L 55.920754 137.40872 
L 56.031182 137.40872 
L 56.134248 136.862976 
L 56.58332 136.862976 
L 56.605405 136.453668 
L 56.701109 136.453668 
L 56.811537 136.04436 
L 56.863069 136.04436 
L 56.966135 135.635052 
L 57.039754 135.635052 
L 57.039754 135.498616 
L 57.393122 135.498616 
L 57.393122 135.225744 
L 57.54772 135.225744 
L 57.577168 134.68 
L 57.66551 134.68 
L 57.724404 134.270692 
L 57.879003 134.270692 
L 57.886365 133.99782 
L 58.055687 133.99782 
L 58.166115 133.452076 
L 58.291266 133.452076 
L 58.291266 133.31564 
L 58.563654 133.31564 
L 58.571016 132.906332 
L 58.769785 132.906332 
L 58.769785 132.769896 
L 58.924384 132.769896 
L 58.968555 132.497024 
L 59.344009 132.497024 
L 59.395541 132.087716 
L 59.46916 132.087716 
L 59.564864 131.541972 
L 59.763633 131.541972 
L 59.837252 131.2691 
L 59.99185 131.2691 
L 60.058107 130.859792 
L 60.293686 130.859792 
L 60.293686 130.723356 
L 60.477732 130.723356 
L 60.521903 130.314048 
L 60.772205 130.314048 
L 60.853185 130.041176 
L 60.934165 130.041176 
L 60.934165 129.90474 
L 61.103488 129.90474 
L 61.103488 129.768304 
L 61.302257 129.768304 
L 61.397961 129.358997 
L 61.515751 129.358997 
L 61.515751 129.222561 
L 61.699796 129.222561 
L 61.743968 128.813253 
L 61.854395 128.813253 
L 61.854395 128.676817 
L 62.031079 128.676817 
L 62.112059 127.858201 
L 62.19304 127.858201 
L 62.303467 127.039585 
L 62.362362 127.039585 
L 62.458066 126.630277 
L 62.509599 126.630277 
L 62.575855 126.357405 
L 62.693645 126.357405 
L 62.737816 125.948097 
L 62.870329 125.948097 
L 62.958671 125.265917 
L 62.99548 125.265917 
L 62.99548 125.129481 
L 63.216335 125.129481 
L 63.282591 124.856609 
L 63.378295 124.856609 
L 63.378295 124.720173 
L 63.554979 124.720173 
L 63.628598 124.310865 
L 64.011413 124.310865 
L 64.011413 124.174429 
L 64.173374 124.174429 
L 64.269078 123.901557 
L 64.291163 123.901557 
L 64.394229 123.492249 
L 64.4384 123.492249 
L 64.51938 123.219377 
L 64.858025 123.219377 
L 64.858025 123.082941 
L 65.152498 123.082941 
L 65.226117 122.810069 
L 65.292373 122.810069 
L 65.388077 122.264325 
L 65.446972 122.264325 
L 65.446972 122.127889 
L 65.71936 122.127889 
L 65.822425 121.855017 
L 66.065366 121.855017 
L 66.072728 121.582145 
L 66.330392 121.582145 
L 66.433458 121.309273 
L 66.462905 121.309273 
L 66.565971 121.036401 
L 66.595418 121.036401 
L 66.632227 120.763529 
L 66.757379 120.763529 
L 66.80155 120.490657 
L 66.904615 120.490657 
L 66.978234 120.081349 
L 67.081299 120.081349 
L 67.177003 118.71699 
L 67.235898 118.71699 
L 67.302155 118.444118 
L 67.449391 118.444118 
L 67.52301 117.761938 
L 67.596628 117.761938 
L 67.670246 117.489066 
L 67.743865 117.489066 
L 67.839569 116.943322 
L 67.986805 116.943322 
L 68.030976 116.534014 
L 68.266555 116.534014 
L 68.362259 116.124706 
L 68.40643 116.124706 
L 68.480049 115.851834 
L 68.627285 115.851834 
L 68.627285 115.715398 
L 68.759798 115.715398 
L 68.796608 115.442526 
L 68.995377 115.442526 
L 69.054272 114.896782 
L 69.289851 114.896782 
L 69.370831 114.351038 
L 69.437087 114.351038 
L 69.518068 113.94173 
L 69.562239 113.94173 
L 69.562239 113.805294 
L 69.731561 113.805294 
L 69.841988 113.532422 
L 69.84935 113.532422 
L 69.84935 113.395986 
L 70.04812 113.395986 
L 70.107015 112.986678 
L 70.232166 112.986678 
L 70.232166 112.850242 
L 70.475106 112.850242 
L 70.475106 112.713806 
L 70.644429 112.713806 
L 70.681238 112.304498 
L 70.843198 112.304498 
L 70.93154 112.031626 
L 70.990435 112.031626 
L 71.093501 111.485882 
L 71.145034 111.485882 
L 71.145034 111.349446 
L 71.277547 111.349446 
L 71.343803 110.803702 
L 71.424783 110.803702 
L 71.424783 110.667266 
L 71.704533 110.667266 
L 71.785513 110.257958 
L 71.918027 110.257958 
L 71.918027 110.121522 
L 72.094711 110.121522 
L 72.102072 109.712215 
L 72.2125 109.712215 
L 72.315566 109.302907 
L 72.37446 109.302907 
L 72.381822 109.030035 
L 72.506973 109.030035 
L 72.610039 108.620727 
L 72.632125 108.620727 
L 72.632125 108.484291 
L 72.808809 108.484291 
L 72.904513 108.211419 
L 72.992855 108.211419 
L 73.066473 107.938547 
L 73.162177 107.938547 
L 73.184263 107.529239 
L 73.346223 107.529239 
L 73.37567 107.256367 
L 73.618611 107.256367 
L 73.721677 106.983495 
L 73.876275 106.983495 
L 73.964617 106.437751 
L 74.038236 106.437751 
L 74.038236 106.301315 
L 74.21492 106.301315 
L 74.310624 106.028443 
L 74.590373 106.028443 
L 74.641906 105.619135 
L 75.142511 105.619135 
L 75.230853 105.346263 
L 75.495879 105.346263 
L 75.606307 105.073391 
L 75.915504 105.073391 
L 75.915504 104.800519 
L 76.09955 104.800519 
L 76.143721 104.527647 
L 76.313043 104.527647 
L 76.313043 104.391211 
L 76.511813 104.391211 
L 76.511813 104.254775 
L 76.916714 104.254775 
L 76.916714 104.118339 
L 77.078674 104.118339 
L 77.130207 103.845467 
L 77.373148 103.845467 
L 77.373148 103.709031 
L 77.505661 103.709031 
L 77.594003 103.436159 
L 77.940009 103.436159 
L 78.028351 103.163287 
L 78.322825 103.163287 
L 78.322825 103.026851 
L 78.661469 103.026851 
L 78.720364 102.753979 
L 78.874963 102.753979 
L 78.933857 102.344671 
L 79.279864 102.344671 
L 79.375568 101.935363 
L 79.397653 101.935363 
L 79.397653 101.662491 
L 79.566975 101.662491 
L 79.566975 101.526055 
L 79.699488 101.526055 
L 79.802554 101.116747 
L 79.942429 101.116747 
L 80.045495 100.707439 
L 80.155922 100.707439 
L 80.222179 100.298131 
L 80.281074 100.298131 
L 80.369416 100.02526 
L 80.406225 100.02526 
L 80.406225 99.888824 
L 80.737507 99.888824 
L 80.737507 99.752388 
L 81.017257 99.752388 
L 81.127685 99.070208 
L 81.444244 99.070208 
L 81.532586 98.797336 
L 81.893316 98.797336 
L 81.996382 98.524464 
L 82.011105 98.524464 
L 82.018467 98.251592 
L 82.276131 98.251592 
L 82.357112 97.97872 
L 82.474901 97.97872 
L 82.474901 97.705848 
L 82.614776 97.705848 
L 82.666309 97.432976 
L 83.078572 97.432976 
L 83.188999 97.023668 
L 83.247894 97.023668 
L 83.247894 96.887232 
L 83.483473 96.887232 
L 83.483473 96.750796 
L 83.601262 96.750796 
L 83.601262 96.61436 
L 83.807394 96.61436 
L 83.851565 96.205052 
L 83.947268 96.205052 
L 83.961992 95.93218 
L 84.271189 95.93218 
L 84.307999 95.659308 
L 84.558301 95.659308 
L 84.558301 95.522872 
L 85.000011 95.522872 
L 85.088353 95.113564 
L 85.206143 95.113564 
L 85.287123 94.840692 
L 85.478531 94.840692 
L 85.478531 94.704256 
L 85.75828 94.704256 
L 85.839261 94.158512 
L 85.890794 94.158512 
L 85.927603 93.88564 
L 86.288333 93.88564 
L 86.288333 93.749204 
L 86.509188 93.749204 
L 86.612254 93.476332 
L 86.641701 93.476332 
L 86.730043 93.20346 
L 86.914089 93.20346 
L 86.914089 93.067024 
L 87.031878 93.067024 
L 87.031878 92.794152 
L 87.274819 92.794152 
L 87.385246 92.52128 
L 87.407332 92.52128 
L 87.407332 92.384844 
L 87.797509 92.384844 
L 87.87849 91.975536 
L 88.018364 91.975536 
L 88.069897 91.702664 
L 88.253943 91.702664 
L 88.253943 91.429792 
L 88.393818 91.429792 
L 88.393818 91.293356 
L 88.629397 91.293356 
L 88.739824 91.020484 
L 88.76191 91.020484 
L 88.76191 90.884048 
L 88.894423 90.884048 
L 88.894423 90.747612 
L 89.04166 90.747612 
L 89.04166 90.611176 
L 89.196258 90.611176 
L 89.218344 90.338304 
L 89.40239 90.338304 
L 89.40239 90.201869 
L 89.917718 90.201869 
L 89.917718 90.065433 
L 90.249001 90.065433 
L 90.271087 89.792561 
L 90.491942 89.792561 
L 90.521389 89.519689 
L 90.536113 89.519689 
L 90.793777 89.519689 
L 90.793777 89.383253 
L 90.992547 89.383253 
L 91.051441 89.110381 
L 91.183954 89.110381 
L 91.257573 88.837509 
L 91.331191 88.837509 
L 91.419533 88.428201 
L 91.448981 88.428201 
L 91.544684 88.155329 
L 91.64775 88.155329 
L 91.758178 87.609585 
L 91.809711 87.609585 
L 91.809711 87.473149 
L 91.949586 87.473149 
L 92.023204 86.790969 
L 92.28823 86.790969 
L 92.391296 86.518097 
L 92.406019 86.518097 
L 92.406019 86.381661 
L 92.428105 86.381661 
L 92.553256 86.381661 
L 92.597427 86.108789 
L 92.64896 86.108789 
L 92.685769 86.108789 
L 92.781473 85.835917 
L 92.81092 85.835917 
L 92.891901 85.290173 
L 93.031776 85.290173 
L 93.031776 85.153737 
L 93.311525 85.153737 
L 93.311525 85.017301 
L 93.547104 85.017301 
L 93.547104 84.880865 
L 93.760597 84.880865 
L 93.841578 84.607993 
L 94.415801 84.607993 
L 94.415801 84.471557 
L 94.599847 84.471557 
L 94.710274 84.198685 
L 95.048919 84.198685 
L 95.048919 84.062249 
L 95.129899 84.062249 
L 95.497991 84.062249 
L 95.497991 83.925813 
L 95.821912 83.925813 
L 95.910254 83.652941 
L 96.153195 83.652941 
L 96.212089 83.243633 
L 96.425583 83.243633 
L 96.484477 82.970761 
L 96.558096 82.970761 
L 96.558096 82.834325 
L 96.712694 82.834325 
L 96.712694 82.697889 
L 97.102872 82.697889 
L 97.213299 82.288581 
L 98.310213 82.288581 
L 98.310213 82.152145 
L 98.567877 82.152145 
L 98.641496 81.879273 
L 98.685667 81.879273 
L 98.788732 81.606401 
L 99.068482 81.606401 
L 99.068482 81.469965 
L 99.223081 81.469965 
L 99.304061 81.197093 
L 99.524916 81.197093 
L 99.524916 81.060657 
L 99.760495 81.060657 
L 99.775218 80.787785 
L 100.224291 80.787785 
L 100.246376 80.514913 
L 100.651277 80.514913 
L 100.651277 80.378478 
L 100.791152 80.378478 
L 100.894218 79.559862 
L 100.98256 79.559862 
L 101.048816 79.150554 
L 101.151882 79.150554 
L 101.151882 79.014118 
L 101.277033 79.014118 
L 101.387461 78.468374 
L 101.461079 78.468374 
L 101.542059 78.195502 
L 101.696658 78.195502 
L 101.696658 78.059066 
L 101.991131 78.059066 
L 102.020579 77.786194 
L 102.14573 77.786194 
L 102.234072 77.376886 
L 102.403394 77.376886 
L 102.484375 76.831142 
L 102.572717 76.831142 
L 102.572717 76.694706 
L 102.78621 76.694706 
L 102.78621 76.421834 
L 103.139578 76.421834 
L 103.139578 76.285398 
L 103.330986 76.285398 
L 103.411966 76.012526 
L 103.662268 76.012526 
L 103.662268 75.87609 
L 103.816867 75.87609 
L 103.905209 75.603218 
L 104.037722 75.603218 
L 104.037722 75.466782 
L 104.221768 75.466782 
L 104.221768 75.330346 
L 104.442623 75.330346 
L 104.486794 75.057474 
L 105.097827 75.057474 
L 105.127274 74.648166 
L 105.252425 74.648166 
L 105.274511 74.375294 
L 105.465919 74.375294 
L 105.524813 74.102422 
L 105.686774 74.102422 
L 105.694136 73.82955 
L 105.738307 73.82955 
L 105.83401 73.82955 
L 105.83401 73.693114 
L 105.944438 73.693114 
L 106.003333 73.693114 
L 106.003333 73.420242 
L 106.305168 73.420242 
L 106.305168 73.283806 
L 106.430319 73.283806 
L 106.430319 73.14737 
L 106.621727 73.14737 
L 106.621727 73.010934 
L 106.791049 73.010934 
L 106.849944 72.601626 
L 106.938286 72.601626 
L 107.048714 72.328754 
L 107.512509 72.328754 
L 107.608213 71.78301 
L 107.689193 71.78301 
L 107.703917 71.510138 
L 107.887963 71.510138 
L 107.887963 71.373702 
L 108.241331 71.373702 
L 108.241331 71.237266 
L 108.579976 71.237266 
L 108.653594 70.827958 
L 109.11739 70.827958 
L 109.154199 70.555087 
L 109.27935 70.555087 
L 109.36033 70.282215 
L 109.728422 70.282215 
L 109.728422 70.145779 
L 109.846212 70.145779 
L 109.91983 69.736471 
L 109.964001 69.736471 
L 109.964001 69.600035 
L 110.067067 69.600035 
L 110.155409 69.600035 
L 110.155409 69.463599 
L 110.898954 69.463599 
L 110.898954 69.327163 
L 111.053553 69.327163 
L 111.053553 69.190727 
L 111.20079 69.190727 
L 111.244961 68.917855 
L 111.44373 68.917855 
L 111.44373 68.781419 
L 111.583605 68.781419 
L 111.583605 68.644983 
L 111.730842 68.644983 
L 111.730842 68.508547 
L 111.92225 68.508547 
L 111.92225 68.372111 
L 112.143105 68.372111 
L 112.16519 68.099239 
L 112.341875 68.099239 
L 112.371322 67.826367 
L 112.680519 67.826367 
L 112.680519 67.689931 
L 112.945545 67.689931 
L 112.997078 67.417059 
L 113.070696 67.417059 
L 113.070696 67.280623 
L 113.188486 67.280623 
L 113.225295 67.007751 
L 113.313637 67.007751 
L 113.313637 66.871315 
L 113.586025 66.871315 
L 113.652282 66.598443 
L 113.792156 66.598443 
L 113.880499 66.189135 
L 114.388465 66.189135 
L 114.403189 65.916263 
L 114.513617 65.916263 
L 114.60932 65.506955 
L 114.72711 65.506955 
L 114.793366 64.961211 
L 115.065754 64.961211 
L 115.065754 64.824775 
L 115.161458 64.824775 
L 115.235077 64.824775 
L 115.235077 64.688339 
L 115.566359 64.688339 
L 115.566359 64.551903 
L 115.816662 64.551903 
L 115.816662 64.279031 
L 116.008069 64.279031 
L 116.008069 64.142595 
L 116.295181 64.142595 
L 116.295181 64.006159 
L 116.700082 64.006159 
L 116.722168 63.733287 
L 117.046088 63.733287 
L 117.134431 63.460415 
L 117.281667 63.460415 
L 117.281667 63.323979 
L 117.627674 63.323979 
L 117.716016 63.051107 
L 118.091469 63.051107 
L 118.091469 62.914671 
L 118.886548 62.914671 
L 118.908633 62.641799 
L 119.158936 62.641799 
L 119.269363 62.232491 
L 119.453409 62.232491 
L 119.453409 62.096055 
L 119.983462 62.096055 
L 120.093889 61.686747 
L 120.226402 61.686747 
L 120.226402 61.550311 
L 121.117184 61.550311 
L 121.198165 61.277439 
L 121.345401 61.277439 
L 121.345401 61.141003 
L 121.470553 61.141003 
L 121.470553 61.004567 
L 121.610428 61.004567 
L 121.691408 60.731696 
L 122.177289 60.731696 
L 122.192013 60.458824 
L 122.405506 60.458824 
L 122.471763 60.049516 
L 122.817769 60.049516 
L 122.920835 59.776644 
L 123.038624 59.776644 
L 123.045986 59.640208 
L 123.185861 59.640208 
L 123.185861 59.503772 
L 123.38463 59.503772 
L 123.38463 59.367336 
L 123.399354 59.367336 
L 123.811617 59.367336 
L 123.885235 59.094464 
L 124.577248 59.094464 
L 124.577248 58.958028 
L 124.768656 58.958028 
L 124.776018 58.685156 
L 125.063129 58.685156 
L 125.129386 58.412284 
L 126.218938 58.412284 
L 126.218938 58.275848 
L 126.513411 58.275848 
L 126.601753 58.002976 
L 126.66801 58.002976 
L 126.741628 57.730104 
L 126.822608 57.730104 
L 126.91095 57.457232 
L 127.050825 57.457232 
L 127.094996 57.047924 
L 127.374746 57.047924 
L 127.374746 56.775052 
L 127.676581 56.775052 
L 127.728114 56.50218 
L 127.875351 56.50218 
L 127.875351 56.365744 
L 128.052035 56.365744 
L 128.052035 56.092872 
L 128.258167 56.092872 
L 128.258167 55.956436 
L 128.434851 55.956436 
L 128.434851 55.82 
L 128.692515 55.82 
L 128.692515 55.683564 
L 128.817666 55.683564 
L 128.817666 55.547128 
L 129.509679 55.547128 
L 129.561212 55.274256 
L 129.686363 55.274256 
L 129.686363 55.13782 
L 129.921942 55.13782 
L 129.921942 55.001384 
L 130.083902 55.001384 
L 130.150159 54.728512 
L 130.55506 54.728512 
L 130.577145 54.45564 
L 130.805362 54.45564 
L 130.820086 54.182768 
L 131.099836 54.182768 
L 131.099836 54.046332 
L 131.372224 54.046332 
L 131.372224 53.909896 
L 131.674059 53.909896 
L 131.674059 53.77346 
L 131.961171 53.77346 
L 132.056875 53.364152 
L 132.395519 53.364152 
L 132.395519 53.227716 
L 132.550118 53.227716 
L 132.616374 52.954844 
L 132.726802 52.954844 
L 132.726802 52.818408 
L 132.962381 52.818408 
L 133.028637 52.545536 
L 133.367282 52.545536 
L 133.367282 52.4091 
L 133.507156 52.4091 
L 133.507156 52.272664 
L 133.88261 52.272664 
L 133.904696 51.863356 
L 134.022485 51.863356 
L 134.022485 51.72692 
L 134.177084 51.72692 
L 134.177084 51.590484 
L 134.420024 51.590484 
L 134.420024 51.454048 
L 134.567261 51.454048 
L 134.567261 51.317612 
L 134.876458 51.317612 
L 134.876458 51.181176 
L 135.141484 51.181176 
L 135.251912 50.908304 
L 135.708346 50.908304 
L 135.708346 50.771869 
L 136.032267 50.771869 
L 136.083799 50.362561 
L 136.746365 50.362561 
L 136.746365 50.226125 
L 137.040838 50.226125 
L 137.151266 49.953253 
L 137.173351 49.953253 
L 137.173351 49.816817 
L 137.217522 49.816817 
L 137.342674 49.816817 
L 137.342674 49.680381 
L 137.592976 49.680381 
L 137.592976 49.543945 
L 138.226094 49.543945 
L 138.226094 49.407509 
L 138.623633 49.407509 
L 138.623633 49.271073 
L 138.748785 49.271073 
L 138.748785 48.998201 
L 139.403988 48.998201 
L 139.403988 48.861765 
L 140.125448 48.861765 
L 140.125448 48.725329 
L 140.324218 48.725329 
L 140.324218 48.588893 
L 140.751204 48.588893 
L 140.751204 48.452457 
L 141.7745 48.452457 
L 141.781861 48.179585 
L 142.068973 48.179585 
L 142.068973 48.043149 
L 142.194124 48.043149 
L 142.253019 47.633841 
L 142.311914 47.633841 
L 142.326637 47.360969 
L 142.473874 47.360969 
L 142.547493 46.951661 
L 142.731538 46.951661 
L 142.819881 46.678789 
L 143.143801 46.678789 
L 143.143801 46.542353 
L 143.327847 46.542353 
L 143.327847 46.405917 
L 143.622321 46.405917 
L 143.681215 46.133045 
L 144.122926 46.133045 
L 144.122926 45.996609 
L 145.205116 45.996609 
L 145.271372 45.723737 
L 145.403885 45.723737 
L 145.403885 45.587301 
L 145.698359 45.587301 
L 145.771977 45.177993 
L 145.830872 45.177993 
L 145.911852 44.905121 
L 145.941299 44.905121 
L 146.508161 44.905121 
L 146.508161 44.768685 
L 146.758463 44.768685 
L 146.758463 44.632249 
L 146.890976 44.632249 
L 146.890976 44.495813 
L 147.18545 44.495813 
L 147.207535 44.222941 
L 147.406305 44.222941 
L 147.406305 44.086505 
L 147.538818 44.086505 
L 147.538818 43.950069 
L 147.656608 43.950069 
L 147.678693 43.677197 
L 147.759673 43.677197 
L 148.341258 43.677197 
L 148.341258 43.540761 
L 148.510581 43.540761 
L 148.510581 43.404325 
L 148.952291 43.404325 
L 149.055357 43.131453 
L 149.843073 43.131453 
L 149.843073 42.995017 
L 149.982948 42.995017 
L 150.041843 42.722145 
L 150.166994 42.722145 
L 150.166994 42.585709 
L 150.292145 42.585709 
L 150.292145 42.449273 
L 150.483553 42.449273 
L 150.483553 42.312837 
L 150.638152 42.312837 
L 150.682323 42.039965 
L 151.028329 42.039965 
L 151.057776 41.767093 
L 151.219737 41.767093 
L 151.322802 41.494221 
L 151.411145 41.494221 
L 151.425868 41.221349 
L 151.764513 41.221349 
L 151.771875 40.948478 
L 152.044263 40.948478 
L 152.044263 40.812042 
L 152.265118 40.812042 
L 152.265118 40.675606 
L 152.382907 40.675606 
L 152.441802 40.402734 
L 152.478611 40.402734 
L 152.625848 40.402734 
L 152.625848 40.266298 
L 152.802532 40.266298 
L 152.802532 40.129862 
L 152.883512 40.129862 
L 153.097005 40.129862 
L 153.185347 39.85699 
L 153.273689 39.85699 
L 153.273689 39.720554 
L 154.105577 39.720554 
L 154.105577 39.584118 
L 154.385327 39.584118 
L 154.385327 39.447682 
L 154.871208 39.447682 
L 154.871208 39.17481 
L 154.915379 39.17481 
L 155.327642 39.17481 
L 155.438069 38.901938 
L 155.644201 38.901938 
L 155.695734 38.629066 
L 156.350937 38.629066 
L 156.350937 38.49263 
L 156.490812 38.49263 
L 156.490812 38.356194 
L 156.623325 38.356194 
L 156.704305 37.946886 
L 157.109206 37.946886 
L 157.109206 37.81045 
L 157.263805 37.81045 
L 157.374233 37.264706 
L 157.712877 37.264706 
L 157.712877 37.12827 
L 157.84539 37.12827 
L 157.904285 36.855398 
L 158.022074 36.855398 
L 158.022074 36.718962 
L 158.309186 36.718962 
L 158.412252 36.44609 
L 158.426975 36.44609 
L 158.426975 36.309654 
L 159.133712 36.309654 
L 159.141074 36.036782 
L 159.266225 36.036782 
L 159.266225 35.900346 
L 159.413462 35.900346 
L 159.413462 35.76391 
L 159.759468 35.76391 
L 159.759468 35.627474 
L 159.936152 35.627474 
L 159.936152 35.491038 
L 160.142283 35.491038 
L 160.142283 35.354602 
L 160.871105 35.354602 
L 160.871105 35.218166 
L 161.437967 35.218166 
L 161.437967 35.08173 
L 161.916486 35.08173 
L 162.019552 34.535986 
L 162.152065 34.535986 
L 162.152065 34.39955 
L 162.483348 34.39955 
L 162.527519 34.126678 
L 163.366768 34.126678 
L 163.462472 33.853806 
L 163.668603 33.853806 
L 163.705413 33.580934 
L 164.147123 33.580934 
L 164.147123 33.444498 
L 164.264912 33.444498 
L 164.309083 33.171626 
L 164.890668 33.171626 
L 164.890668 33.03519 
L 165.295569 33.03519 
L 165.295569 32.898754 
L 165.383912 32.898754 
L 165.420721 32.898754 
L 165.420721 32.762318 
L 165.472254 32.762318 
L 165.648938 32.762318 
L 165.715194 32.489446 
L 165.788813 32.489446 
L 165.840345 32.216574 
L 167.040325 32.216574 
L 167.077134 31.943702 
L 167.246456 31.943702 
L 167.349522 31.67083 
L 167.371608 31.67083 
L 167.467311 31.397958 
L 167.489397 31.397958 
L 167.555653 30.988651 
L 167.614548 30.988651 
L 167.614548 30.852215 
L 167.953193 30.852215 
L 167.953193 30.715779 
L 168.601034 30.715779 
L 168.630482 30.442907 
L 168.682015 30.442907 
L 169.153172 30.442907 
L 169.153172 30.306471 
L 169.565435 30.306471 
L 169.639053 30.033599 
L 169.749481 30.033599 
L 169.801014 29.760727 
L 170.942099 29.760727 
L 170.942099 29.624291 
L 171.693006 29.624291 
L 171.693006 29.487855 
L 171.781348 29.487855 
L 171.818157 29.487855 
L 171.818157 29.351419 
L 171.906499 29.351419 
L 171.980118 29.351419 
L 171.980118 29.214983 
L 172.090545 29.214983 
L 172.134716 29.214983 
L 172.134716 29.078547 
L 172.171525 29.078547 
L 172.620597 29.078547 
L 172.701578 28.942111 
L 173.386229 28.942111 
L 173.400952 28.669239 
L 173.489294 28.669239 
L 173.533465 28.669239 
L 173.533465 28.532803 
L 173.636531 28.532803 
L 174.122412 28.532803 
L 174.247563 28.396367 
L 174.784978 28.396367 
L 174.784978 28.259931 
L 174.865958 28.259931 
L 175.094175 28.259931 
L 175.410734 27.987059 
L 175.815635 27.987059 
L 175.815635 27.850623 
L 176.23526 27.850623 
L 176.23526 27.714187 
L 176.816845 27.714187 
L 176.816845 27.577751 
L 177.229108 27.577751 
L 177.229108 27.441315 
L 177.553028 27.441315 
L 177.553028 27.304879 
L 177.700265 27.304879 
L 177.700265 27.168443 
L 177.950568 27.168443 
L 178.060995 26.759135 
L 178.318659 26.759135 
L 178.318659 26.622699 
L 178.436449 26.622699 
L 178.532153 26.349827 
L 178.826626 26.349827 
L 178.826626 26.213391 
L 178.959139 26.213391 
L 179.032758 25.940519 
L 179.297784 25.940519 
L 179.40085 25.667647 
L 179.805751 25.667647 
L 179.805751 25.531211 
L 179.938264 25.531211 
L 180.00452 25.121903 
L 180.858493 25.121903 
L 180.858493 24.985467 
L 181.248671 24.985467 
L 181.248671 24.849031 
L 181.351736 24.849031 
L 181.462164 24.849031 
L 181.513697 24.439723 
L 181.535782 24.439723 
L 181.756637 24.439723 
L 181.844979 24.303287 
L 182.080558 24.303287 
L 182.095282 24.030415 
L 182.132091 24.030415 
L 182.625334 24.030415 
L 182.625334 23.893979 
L 182.7284 23.893979 
L 183.457222 23.893979 
L 183.457222 23.757543 
L 183.898932 23.757543 
L 183.913656 23.484671 
L 184.576221 23.484671 
L 184.576221 23.348235 
L 184.657201 23.348235 
L 184.988484 23.348235 
L 185.003208 23.211799 
L 185.53326 23.211799 
L 185.53326 23.075363 
L 185.673135 23.075363 
L 185.673135 22.938927 
L 185.916075 22.938927 
L 185.916075 22.802491 
L 186.313615 22.802491 
L 186.313615 22.666055 
L 186.792134 22.666055 
L 186.792134 22.529619 
L 187.071884 22.529619 
L 187.071884 22.393183 
L 187.233844 22.393183 
L 187.233844 22.256747 
L 187.41789 22.256747 
L 187.41789 22.120311 
L 187.682916 22.120311 
L 187.682916 21.983875 
L 187.992114 21.983875 
L 187.992114 21.847439 
L 189.05958 21.847439 
L 189.05958 21.711003 
L 189.280435 21.711003 
L 189.280435 21.574567 
L 189.523376 21.574567 
L 189.523376 21.438131 
L 189.884106 21.438131 
L 189.884106 21.301696 
L 190.333178 21.301696 
L 190.428882 20.892388 
L 190.598204 20.892388 
L 190.598204 20.755952 
L 190.649737 20.755952 
L 190.951572 20.755952 
L 190.973658 20.48308 
L 191.069361 20.48308 
L 191.113532 20.210208 
L 191.327026 20.210208 
L 191.327026 20.073772 
L 191.606776 20.073772 
L 191.606776 19.937336 
L 191.739289 19.937336 
L 191.739289 19.8009 
L 192.004315 19.8009 
L 192.004315 19.664464 
L 192.320874 19.664464 
L 192.320874 19.528028 
L 192.652156 19.528028 
L 192.652156 19.391592 
L 193.174847 19.391592 
L 193.174847 19.255156 
L 193.211656 19.255156 
L 193.30736 19.255156 
L 193.395702 18.982284 
L 193.837412 18.982284 
L 193.837412 18.709412 
L 194.050906 18.709412 
L 194.050906 18.572976 
L 194.860708 18.572976 
L 194.860708 18.43654 
L 195.03003 18.43654 
L 195.03003 18.300104 
L 195.530635 18.300104 
L 195.530635 18.163668 
L 195.788299 18.163668 
L 195.788299 18.027232 
L 196.288904 18.027232 
L 196.288904 17.890796 
L 196.436141 17.890796 
L 196.502397 17.617924 
L 196.583378 17.617924 
L 196.583378 17.481488 
L 197.010364 17.481488 
L 197.010364 17.345052 
L 197.025088 17.345052 
L 197.99685 17.345052 
L 197.99685 17.208616 
L 198.342857 17.208616 
L 198.342857 17.07218 
L 198.652054 17.07218 
L 198.740396 16.799308 
L 198.909718 16.799308 
L 198.946527 16.526436 
L 199.91829 16.526436 
L 199.91829 16.39 
L 200.36 16.39 
L 200.36 16.39 
" style="fill:none;stroke:#800080;stroke-linecap:square;stroke-opacity:0.7;stroke-width:1.5;"/>
   </g>
   <g id="line2d_14">
    <path clip-path="url(#p396ce4d5c2)" d="M 42.64 174.11 
L 44.233131 169.121406 
L 45.826263 164.159542 
L 47.419394 159.629285 
L 49.012525 155.551121 
L 50.605657 152.134972 
L 52.198788 148.378903 
L 53.791919 144.232463 
L 55.385051 142.141319 
L 56.978182 139.965006 
L 58.571313 137.270335 
L 60.164444 135.207728 
L 61.757576 133.249589 
L 63.350707 129.327668 
L 64.943838 127.441404 
L 66.53697 125.563234 
L 68.130101 121.403299 
L 69.723232 118.498342 
L 71.316364 116.04122 
L 72.909495 113.149282 
L 74.502626 110.811687 
L 76.095758 109.486459 
L 77.688889 108.235791 
L 79.28202 106.823962 
L 80.875152 104.43257 
L 82.468283 102.589272 
L 84.061414 100.802125 
L 85.654545 99.259887 
L 87.247677 97.426657 
L 88.840808 95.649689 
L 90.433939 94.359252 
L 92.027071 92.21383 
L 93.620202 89.550412 
L 95.213333 88.601276 
L 96.806465 87.428471 
L 98.399596 86.599613 
L 99.992727 85.354453 
L 101.585859 83.19181 
L 103.17899 80.855934 
L 104.772121 79.522415 
L 106.365253 77.811181 
L 107.958384 76.095358 
L 109.551515 74.747061 
L 111.144646 73.570599 
L 112.737778 72.15799 
L 114.330909 70.42439 
L 115.92404 68.702728 
L 117.517172 67.649004 
L 119.110303 66.830857 
L 120.703434 65.769262 
L 122.296566 64.683246 
L 123.889697 63.432787 
L 125.482828 62.630859 
L 127.07596 61.665511 
L 128.669091 59.952536 
L 130.262222 58.9159 
L 131.855354 57.774077 
L 133.448485 56.511697 
L 135.041616 55.220143 
L 136.634747 54.262981 
L 138.227879 53.337666 
L 139.82101 52.694807 
L 141.414141 52.200712 
L 143.007273 50.612751 
L 144.600404 49.62076 
L 146.193535 48.660678 
L 147.786667 47.454208 
L 149.379798 46.636119 
L 150.972929 45.453735 
L 152.566061 43.865807 
L 154.159192 42.902415 
L 155.752323 42.024306 
L 157.345455 40.81337 
L 158.938586 39.30141 
L 160.531717 38.361515 
L 162.124848 37.647839 
L 163.71798 36.650394 
L 165.311111 35.717508 
L 166.904242 34.822504 
L 168.497374 33.320316 
L 170.090505 32.468512 
L 171.683636 32.011894 
L 173.276768 31.309095 
L 174.869899 30.717781 
L 176.46303 30.11695 
L 178.056162 29.226379 
L 179.649293 27.751702 
L 181.242424 26.867655 
L 182.835556 25.82598 
L 184.428687 25.278938 
L 186.021818 24.647094 
L 187.614949 23.800168 
L 189.208081 23.31548 
L 190.801212 22.222793 
L 192.394343 20.803996 
L 193.987475 19.842542 
L 195.580606 19.161719 
L 197.173737 18.058163 
L 198.766869 17.390072 
L 200.36 16.39 
" style="fill:none;stroke:#ff00ff;stroke-dasharray:5.55,2.4;stroke-dashoffset:0;stroke-opacity:0.7;stroke-width:1.5;"/>
   </g>
   <g id="line2d_15">
    <path clip-path="url(#p396ce4d5c2)" d="M 42.64 174.11 
L 44.233131 165.244998 
L 45.826263 158.899598 
L 47.419394 153.923446 
L 49.012525 149.153551 
L 50.605657 145.494175 
L 52.198788 141.002361 
L 53.791919 136.64982 
L 55.385051 134.588859 
L 56.978182 132.069369 
L 58.571313 129.336123 
L 60.164444 127.071687 
L 61.757576 124.770031 
L 63.350707 120.911619 
L 64.943838 118.998433 
L 66.53697 116.648289 
L 68.130101 112.269239 
L 69.723232 109.43254 
L 71.316364 106.706818 
L 72.909495 103.769483 
L 74.502626 101.571056 
L 76.095758 100.349706 
L 77.688889 99.167318 
L 79.28202 97.572334 
L 80.875152 95.213356 
L 82.468283 93.549251 
L 84.061414 91.783476 
L 85.654545 90.212592 
L 87.247677 88.452023 
L 88.840808 86.622067 
L 90.433939 85.428574 
L 92.027071 82.56586 
L 93.620202 80.600958 
L 95.213333 79.749946 
L 96.806465 78.394738 
L 98.399596 77.600394 
L 99.992727 76.380465 
L 101.585859 73.841324 
L 103.17899 71.938438 
L 104.772121 70.581911 
L 106.365253 68.838564 
L 107.958384 67.210287 
L 109.551515 65.910114 
L 111.144646 64.742579 
L 112.737778 63.28982 
L 114.330909 61.551509 
L 115.92404 60.139545 
L 117.517172 59.16978 
L 119.110303 58.35939 
L 120.703434 57.43525 
L 122.296566 56.292983 
L 123.889697 55.220123 
L 125.482828 54.48165 
L 127.07596 53.157073 
L 128.669091 51.823803 
L 130.262222 50.786386 
L 131.855354 49.67009 
L 133.448485 48.409179 
L 135.041616 47.318424 
L 136.634747 46.494485 
L 138.227879 45.735838 
L 139.82101 45.179986 
L 141.414141 44.70978 
L 143.007273 43.129179 
L 144.600404 42.528232 
L 146.193535 41.510172 
L 147.786667 40.450423 
L 149.379798 39.763707 
L 150.972929 38.462402 
L 152.566061 37.112514 
L 154.159192 36.399123 
L 155.752323 35.628119 
L 157.345455 34.363234 
L 158.938586 33.221785 
L 160.531717 32.494566 
L 162.124848 31.752253 
L 163.71798 30.95621 
L 165.311111 30.15209 
L 166.904242 29.352525 
L 168.497374 28.060972 
L 170.090505 27.37024 
L 171.683636 27.018391 
L 173.276768 26.437763 
L 174.869899 25.96831 
L 176.46303 25.496143 
L 178.056162 24.686774 
L 179.649293 23.551902 
L 181.242424 22.839141 
L 182.835556 22.080424 
L 184.428687 21.649338 
L 186.021818 21.109694 
L 187.614949 20.432147 
L 189.208081 20.034646 
L 190.801212 19.129897 
L 192.394343 18.291701 
L 193.987475 17.584785 
L 195.580606 17.223711 
L 197.173737 16.667707 
L 198.766869 16.39 
L 200.36 16.39 
" style="fill:none;stroke:#ff00ff;stroke-dasharray:5.55,2.4;stroke-dashoffset:0;stroke-opacity:0.7;stroke-width:1.5;"/>
   </g>
   <g id="line2d_16">
    <path clip-path="url(#p396ce4d5c2)" d="M 42.64 174.11 
L 42.728342 173.42782 
L 42.772513 173.42782 
L 42.875579 173.154948 
L 42.890302 173.154948 
L 42.934473 172.609204 
L 43.008092 172.609204 
L 43.096434 171.927024 
L 43.133243 171.927024 
L 43.221585 171.517716 
L 43.251032 171.517716 
L 43.36146 170.562664 
L 43.376184 170.562664 
L 43.486611 169.744048 
L 43.538144 169.744048 
L 43.626486 169.061869 
L 43.700105 169.061869 
L 43.729552 168.788997 
L 43.832618 168.788997 
L 43.935683 168.243253 
L 43.950407 168.243253 
L 44.024025 167.561073 
L 44.127091 167.561073 
L 44.141815 167.288201 
L 44.259604 167.288201 
L 44.266966 166.878893 
L 44.384755 166.878893 
L 44.451012 166.333149 
L 44.531992 166.333149 
L 44.576163 165.923841 
L 44.649782 165.923841 
L 44.760209 164.423045 
L 44.855913 164.423045 
L 44.855913 164.286609 
L 44.981064 164.286609 
L 45.039959 164.013737 
L 45.150386 164.013737 
L 45.194558 163.740865 
L 45.304985 163.740865 
L 45.393327 162.922249 
L 45.547926 162.922249 
L 45.584735 162.103633 
L 45.665715 162.103633 
L 45.731972 161.285017 
L 45.783504 161.285017 
L 45.827676 160.739273 
L 45.923379 160.739273 
L 45.923379 160.602837 
L 46.08534 160.602837 
L 46.114787 159.920657 
L 46.262024 159.920657 
L 46.357728 159.238478 
L 46.401899 159.238478 
L 46.504965 158.82917 
L 46.549136 158.82917 
L 46.637478 158.556298 
L 46.666925 158.556298 
L 46.747905 157.737682 
L 46.799438 157.737682 
L 46.909866 157.191938 
L 46.917227 157.191938 
L 46.931951 156.919066 
L 47.042379 156.919066 
L 47.138083 156.236886 
L 47.160168 156.236886 
L 47.24851 155.827578 
L 47.32949 155.827578 
L 47.373661 155.41827 
L 47.631326 155.41827 
L 47.69022 155.008962 
L 47.800648 155.008962 
L 47.896352 154.326782 
L 47.933161 154.326782 
L 47.999417 153.917474 
L 48.065674 153.917474 
L 48.124569 153.098858 
L 48.212911 153.098858 
L 48.293891 152.553114 
L 48.360147 152.553114 
L 48.455851 152.00737 
L 48.544193 152.00737 
L 48.581003 151.734498 
L 48.823943 151.734498 
L 48.823943 151.598062 
L 48.97118 151.598062 
L 49.015351 151.188754 
L 49.103693 151.188754 
L 49.103693 151.052318 
L 49.353996 151.052318 
L 49.427614 150.506574 
L 49.574851 150.506574 
L 49.633745 149.824394 
L 49.722087 149.824394 
L 49.803068 149.005779 
L 49.839877 149.005779 
L 49.928219 148.596471 
L 49.987114 148.596471 
L 50.060732 147.914291 
L 50.119627 147.914291 
L 50.149074 147.368547 
L 50.244778 147.368547 
L 50.347844 146.822803 
L 50.458271 146.822803 
L 50.568699 146.004187 
L 50.583422 146.004187 
L 50.686488 145.594879 
L 50.892619 145.594879 
L 50.988323 145.049135 
L 51.032494 145.049135 
L 51.032494 144.912699 
L 51.187093 144.912699 
L 51.187093 144.776263 
L 51.312244 144.776263 
L 51.312244 144.639827 
L 51.452119 144.639827 
L 51.547823 144.094083 
L 51.569909 144.094083 
L 51.569909 143.821211 
L 51.724507 143.821211 
L 51.805487 143.548339 
L 51.952724 143.548339 
L 52.048428 143.139031 
L 52.077875 143.139031 
L 52.129408 142.729723 
L 52.21775 142.729723 
L 52.21775 142.593287 
L 52.342901 142.593287 
L 52.453329 141.774671 
L 52.475414 141.774671 
L 52.526947 141.501799 
L 52.630013 141.501799 
L 52.630013 141.365363 
L 52.762526 141.365363 
L 52.872954 140.956055 
L 53.174789 140.956055 
L 53.174789 140.819619 
L 53.535519 140.819619 
L 53.535519 140.683183 
L 53.675394 140.683183 
L 53.726927 140.001003 
L 53.852078 140.001003 
L 53.94042 139.591696 
L 54.036124 139.591696 
L 54.131828 138.909516 
L 54.249617 138.909516 
L 54.360045 138.0909 
L 54.529367 138.0909 
L 54.617709 137.818028 
L 54.720775 137.818028 
L 54.809117 137.40872 
L 54.985801 137.40872 
L 55.096229 136.999412 
L 55.169847 136.999412 
L 55.265551 136.590104 
L 55.390702 136.590104 
L 55.449597 136.317232 
L 55.508491 136.317232 
L 55.508491 136.180796 
L 55.655728 136.180796 
L 55.677814 135.907924 
L 55.994373 135.907924 
L 56.1048 135.498616 
L 56.141609 135.498616 
L 56.237313 135.225744 
L 56.266761 135.225744 
L 56.333017 134.952872 
L 56.517063 134.952872 
L 56.590681 134.68 
L 56.693747 134.68 
L 56.693747 134.407128 
L 56.811537 134.407128 
L 56.90724 134.134256 
L 57.047115 134.134256 
L 57.047115 133.99782 
L 57.18699 133.99782 
L 57.216438 133.724948 
L 57.30478 133.724948 
L 57.415207 133.452076 
L 57.422569 133.452076 
L 57.444655 133.179204 
L 57.702319 133.179204 
L 57.775937 132.63346 
L 57.82747 132.63346 
L 57.82747 132.497024 
L 57.974707 132.497024 
L 58.048325 132.224152 
L 58.099858 132.224152 
L 58.1882 131.678408 
L 58.247095 131.678408 
L 58.350161 131.2691 
L 58.431141 131.2691 
L 58.431141 131.132664 
L 58.615187 131.132664 
L 58.62991 130.859792 
L 58.777147 130.859792 
L 58.821318 130.58692 
L 58.931746 130.58692 
L 58.998002 130.041176 
L 59.056897 130.041176 
L 59.078982 129.631869 
L 59.211496 129.631869 
L 59.321923 128.813253 
L 59.395541 128.813253 
L 59.395541 128.676817 
L 59.638482 128.676817 
L 59.734186 127.994637 
L 59.807804 127.994637 
L 59.888785 127.448893 
L 59.940317 127.448893 
L 59.940317 127.312457 
L 60.102278 127.312457 
L 60.212705 126.903149 
L 60.242153 126.903149 
L 60.35258 126.493841 
L 60.838462 126.493841 
L 60.882633 126.220969 
L 61.081402 126.220969 
L 61.081402 126.084533 
L 61.243363 126.084533 
L 61.243363 125.948097 
L 61.574645 125.948097 
L 61.626178 125.538789 
L 61.810224 125.538789 
L 61.920652 124.856609 
L 62.038441 124.856609 
L 62.097336 124.583737 
L 62.259296 124.583737 
L 62.310829 124.310865 
L 62.384447 124.310865 
L 62.428618 124.037993 
L 62.730454 124.037993 
L 62.730454 123.901557 
L 63.216335 123.901557 
L 63.297315 123.492249 
L 63.407743 123.492249 
L 63.459276 123.219377 
L 63.59915 123.219377 
L 63.672769 122.673633 
L 63.900986 122.673633 
L 63.900986 122.537197 
L 64.018775 122.537197 
L 64.018775 122.400761 
L 64.210183 122.400761 
L 64.298525 122.127889 
L 64.497295 122.127889 
L 64.497295 121.991453 
L 64.644531 121.991453 
L 64.659255 121.718581 
L 64.821215 121.718581 
L 64.865386 121.172837 
L 64.9979 121.172837 
L 65.012623 120.627093 
L 65.115689 120.627093 
L 65.152498 120.354221 
L 65.262926 120.354221 
L 65.336544 119.944913 
L 65.52059 119.944913 
L 65.52059 119.808478 
L 65.68255 119.808478 
L 65.792978 119.535606 
L 65.969662 119.535606 
L 66.08009 119.262734 
L 66.116899 119.262734 
L 66.116899 119.126298 
L 66.300945 119.126298 
L 66.300945 118.989862 
L 66.418734 118.989862 
L 66.418734 118.71699 
L 66.588056 118.71699 
L 66.588056 118.580554 
L 66.735293 118.580554 
L 66.779464 118.307682 
L 66.860444 118.307682 
L 66.948786 117.761938 
L 67.154918 117.761938 
L 67.221174 117.216194 
L 67.390497 117.216194 
L 67.471477 116.943322 
L 67.545095 116.943322 
L 67.589266 116.534014 
L 67.699694 116.534014 
L 67.714417 116.261142 
L 67.876378 116.261142 
L 67.949996 115.98827 
L 68.296003 115.98827 
L 68.362259 115.715398 
L 68.472687 115.715398 
L 68.52422 115.169654 
L 68.649371 115.169654 
L 68.649371 115.033218 
L 68.774522 115.033218 
L 68.870226 114.760346 
L 68.899673 114.760346 
L 68.936482 114.351038 
L 69.024824 114.351038 
L 69.135252 114.078166 
L 69.223594 114.078166 
L 69.223594 113.94173 
L 69.532791 113.94173 
L 69.5696 113.532422 
L 70.092291 113.532422 
L 70.136462 113.25955 
L 70.254251 113.25955 
L 70.349955 112.850242 
L 70.460383 112.850242 
L 70.460383 112.713806 
L 70.710685 112.713806 
L 70.776942 112.304498 
L 70.902093 112.304498 
L 70.946264 112.031626 
L 71.041968 112.031626 
L 71.064053 111.622318 
L 71.189205 111.622318 
L 71.29227 111.349446 
L 71.365889 111.349446 
L 71.365889 111.21301 
L 71.608829 111.21301 
L 71.630915 110.803702 
L 71.733981 110.803702 
L 71.733981 110.667266 
L 72.028454 110.667266 
L 72.028454 110.53083 
L 72.264033 110.53083 
L 72.345013 110.257958 
L 72.448079 110.257958 
L 72.551145 109.848651 
L 72.580592 109.848651 
L 72.646848 109.575779 
L 72.73519 109.575779 
L 72.779361 109.302907 
L 72.911875 109.302907 
L 72.978131 108.757163 
L 73.110644 108.757163 
L 73.110644 108.620727 
L 73.552354 108.620727 
L 73.552354 108.484291 
L 73.846828 108.484291 
L 73.846828 108.211419 
L 74.421051 108.211419 
L 74.421051 108.074983 
L 74.627183 108.074983 
L 74.627183 107.938547 
L 74.81859 107.938547 
L 74.921656 107.529239 
L 75.09834 107.529239 
L 75.113064 107.256367 
L 75.341281 107.256367 
L 75.407537 106.983495 
L 75.473794 106.983495 
L 75.510603 106.710623 
L 75.598945 106.710623 
L 75.672563 106.437751 
L 75.753544 106.437751 
L 75.753544 106.301315 
L 75.996484 106.301315 
L 76.084826 106.028443 
L 76.121636 106.028443 
L 76.209978 105.755571 
L 76.268872 105.755571 
L 76.268872 105.619135 
L 76.607517 105.619135 
L 76.607517 105.482699 
L 76.725306 105.482699 
L 76.725306 105.346263 
L 76.894628 105.346263 
L 76.975609 105.073391 
L 77.034503 105.073391 
L 77.137569 104.664083 
L 77.196464 104.664083 
L 77.247997 104.391211 
L 77.38051 104.391211 
L 77.468852 104.118339 
L 77.505661 104.118339 
L 77.564556 103.845467 
L 77.652898 103.845467 
L 77.652898 103.709031 
L 77.770687 103.709031 
L 77.807496 103.299723 
L 77.917924 103.299723 
L 77.917924 103.026851 
L 78.234483 103.026851 
L 78.315463 102.481107 
L 78.366996 102.481107 
L 78.447976 102.208235 
L 78.617298 102.208235 
L 78.617298 102.071799 
L 78.74245 102.071799 
L 78.74245 101.935363 
L 78.874963 101.935363 
L 78.874963 101.798927 
L 79.000114 101.798927 
L 79.000114 101.662491 
L 79.228331 101.662491 
L 79.257778 101.389619 
L 79.62587 101.389619 
L 79.728936 100.980311 
L 79.751021 100.980311 
L 79.751021 100.843875 
L 79.883534 100.843875 
L 79.883534 100.707439 
L 80.097028 100.707439 
L 80.104389 100.298131 
L 80.443034 100.298131 
L 80.443034 100.161696 
L 80.90683 100.161696 
L 80.90683 100.02526 
L 81.34854 100.02526 
L 81.363264 99.752388 
L 81.635652 99.752388 
L 81.70927 99.479516 
L 81.90804 99.479516 
L 81.90804 99.34308 
L 82.033191 99.34308 
L 82.121533 98.524464 
L 82.246684 98.524464 
L 82.283493 98.251592 
L 82.371835 98.251592 
L 82.467539 97.842284 
L 82.496987 97.842284 
L 82.555881 97.432976 
L 82.651585 97.432976 
L 82.651585 97.29654 
L 82.923973 97.29654 
L 82.923973 97.160104 
L 83.417216 97.160104 
L 83.417216 97.023668 
L 83.836841 97.023668 
L 83.888374 96.750796 
L 84.146038 96.750796 
L 84.146038 96.61436 
L 84.337446 96.61436 
L 84.366893 96.341488 
L 85.309208 96.341488 
L 85.390189 96.068616 
L 85.537425 96.068616 
L 85.537425 95.795744 
L 85.787728 95.795744 
L 85.787728 95.659308 
L 85.934965 95.659308 
L 86.023307 95.386436 
L 86.133734 95.386436 
L 86.229438 94.977128 
L 86.465017 94.977128 
L 86.531273 94.56782 
L 86.590168 94.56782 
L 86.590168 94.431384 
L 86.781576 94.431384 
L 86.869918 93.612768 
L 86.906727 93.612768 
L 87.017155 93.067024 
L 87.105497 93.067024 
L 87.164391 92.794152 
L 87.230648 92.794152 
L 87.230648 92.657716 
L 87.348437 92.657716 
L 87.348437 92.52128 
L 87.709167 92.52128 
L 87.819595 91.975536 
L 87.87849 91.975536 
L 87.981555 91.293356 
L 88.018364 91.293356 
L 88.018364 91.020484 
L 88.40118 91.020484 
L 88.504246 90.747612 
L 88.651482 90.747612 
L 88.76191 90.338304 
L 88.769272 90.338304 
L 88.769272 90.201869 
L 89.056383 90.201869 
L 89.12264 89.928997 
L 89.218344 89.928997 
L 89.218344 89.656125 
L 89.468646 89.656125 
L 89.527541 89.383253 
L 89.807291 89.383253 
L 89.814653 89.110381 
L 90.226916 89.110381 
L 90.337343 88.701073 
L 90.359429 88.701073 
L 90.374152 88.428201 
L 90.587646 88.428201 
L 90.587646 88.291765 
L 90.933652 88.291765 
L 90.992547 87.882457 
L 91.132422 87.882457 
L 91.132422 87.746021 
L 91.257573 87.746021 
L 91.353277 87.336713 
L 91.390086 87.336713 
L 91.426895 86.927405 
L 91.809711 86.927405 
L 91.809711 86.790969 
L 92.096822 86.790969 
L 92.155717 86.245225 
L 92.244059 86.245225 
L 92.244059 86.108789 
L 92.487 86.108789 
L 92.487 85.972353 
L 92.803559 85.972353 
L 92.803559 85.835917 
L 93.17165 85.835917 
L 93.215822 85.563045 
L 93.348335 85.563045 
L 93.348335 85.426609 
L 93.819492 85.426609 
L 93.907834 85.153737 
L 93.988814 85.153737 
L 93.996176 84.880865 
L 94.121327 84.880865 
L 94.121327 84.744429 
L 94.305373 84.744429 
L 94.305373 84.607993 
L 94.717636 84.607993 
L 94.73236 84.335121 
L 95.269774 84.335121 
L 95.269774 84.198685 
L 95.417011 84.198685 
L 95.417011 84.062249 
L 95.542162 84.062249 
L 95.564248 83.789377 
L 96.226813 83.789377 
L 96.293069 83.516505 
L 96.351964 83.516505 
L 96.351964 83.380069 
L 96.484477 83.380069 
L 96.484477 83.243633 
L 96.653799 83.243633 
L 96.668523 82.970761 
L 97.021891 82.970761 
L 97.021891 82.697889 
L 97.161766 82.697889 
L 97.161766 82.561453 
L 97.389983 82.561453 
L 97.389983 82.425017 
L 97.574029 82.425017 
L 97.684457 82.015709 
L 97.868503 82.015709 
L 97.920035 81.742837 
L 98.472173 81.742837 
L 98.472173 81.469965 
L 98.722476 81.469965 
L 98.722476 81.333529 
L 99.105291 81.333529 
L 99.208357 80.924221 
L 99.650067 80.924221 
L 99.650067 80.787785 
L 99.775218 80.787785 
L 99.834113 80.378478 
L 100.003435 80.378478 
L 100.047606 80.105606 
L 100.356804 80.105606 
L 100.356804 79.96917 
L 100.761705 79.96917 
L 100.827961 79.559862 
L 100.945751 79.559862 
L 100.945751 79.423426 
L 101.321204 79.423426 
L 101.321204 79.28699 
L 101.534698 79.28699 
L 101.645125 79.014118 
L 101.917513 79.014118 
L 101.991131 78.60481 
L 102.06475 78.60481 
L 102.108921 78.331938 
L 102.815657 78.331938 
L 102.815657 78.195502 
L 103.007065 78.195502 
L 103.007065 78.059066 
L 103.176387 78.059066 
L 103.242644 77.649758 
L 103.345709 77.649758 
L 103.411966 77.376886 
L 103.522394 77.376886 
L 103.522394 77.24045 
L 103.875762 77.24045 
L 103.971466 76.967578 
L 104.31011 76.967578 
L 104.31011 76.831142 
L 104.4279 76.831142 
L 104.4279 76.694706 
L 104.619307 76.694706 
L 104.648755 76.421834 
L 104.891695 76.421834 
L 104.891695 76.285398 
L 105.068379 76.285398 
L 105.068379 76.148962 
L 105.355491 76.148962 
L 105.399662 75.87609 
L 105.664688 75.87609 
L 105.745668 75.603218 
L 105.804563 75.603218 
L 105.914991 75.330346 
L 106.11376 75.330346 
L 106.135846 75.057474 
L 106.400872 75.057474 
L 106.47449 74.648166 
L 106.540747 74.648166 
L 106.540747 74.51173 
L 106.761602 74.51173 
L 106.783687 74.238858 
L 107.03399 74.238858 
L 107.03399 74.102422 
L 107.483062 74.102422 
L 107.483062 73.965986 
L 107.858516 73.965986 
L 107.902687 73.693114 
L 108.027838 73.693114 
L 108.027838 73.420242 
L 108.270779 73.420242 
L 108.366482 73.14737 
L 108.418015 73.14737 
L 108.418015 73.010934 
L 108.741936 73.010934 
L 108.741936 72.874498 
L 109.029048 72.874498 
L 109.080581 72.601626 
L 109.227817 72.601626 
L 109.294074 72.328754 
L 109.433949 72.328754 
L 109.537015 72.055882 
L 109.566462 72.055882 
L 109.647442 71.510138 
L 109.824126 71.510138 
L 109.824126 71.373702 
L 110.162771 71.373702 
L 110.265836 71.10083 
L 110.36154 71.10083 
L 110.471968 70.827958 
L 110.619205 70.827958 
L 110.619205 70.691522 
L 110.84006 70.691522 
L 110.869507 70.418651 
L 111.163981 70.418651 
L 111.163981 70.282215 
L 111.576243 70.282215 
L 111.657224 69.736471 
L 111.701395 69.736471 
L 111.701395 69.600035 
L 111.995868 69.600035 
L 111.995868 69.463599 
L 112.92346 69.463599 
L 112.967631 68.781419 
L 113.36517 68.781419 
L 113.36517 68.644983 
L 113.711176 68.644983 
L 113.747985 68.235675 
L 114.344294 68.235675 
L 114.410551 67.826367 
L 114.594597 67.826367 
L 114.697662 67.144187 
L 114.88907 67.144187 
L 114.918518 66.871315 
L 115.095202 66.871315 
L 115.16882 66.598443 
L 115.293971 66.598443 
L 115.33078 66.325571 
L 115.69151 66.325571 
L 115.757767 66.052699 
L 115.824024 66.052699 
L 115.824024 65.916263 
L 115.956537 65.916263 
L 115.956537 65.779827 
L 116.096412 65.779827 
L 116.155306 65.506955 
L 116.243648 65.506955 
L 116.243648 65.370519 
L 116.368799 65.370519 
L 116.420332 65.097647 
L 116.545484 65.097647 
L 116.545484 64.961211 
L 116.648549 64.961211 
L 116.663273 64.961211 
L 116.663273 64.824775 
L 117.281667 64.824775 
L 117.392095 64.415467 
L 117.406819 64.415467 
L 117.406819 64.279031 
L 117.620312 64.279031 
L 117.620312 64.142595 
L 117.789634 64.142595 
L 117.900062 63.869723 
L 117.936871 63.869723 
L 118.025213 63.460415 
L 118.393305 63.460415 
L 118.474285 63.187543 
L 118.61416 63.187543 
L 118.61416 63.051107 
L 119.100041 63.051107 
L 119.100041 62.914671 
L 119.423962 62.914671 
L 119.431324 62.641799 
L 120.049718 62.641799 
L 120.086527 62.368927 
L 120.292659 62.368927 
L 120.292659 62.232491 
L 120.454619 62.232491 
L 120.454619 62.096055 
L 120.653389 62.096055 
L 120.653389 61.959619 
L 121.102461 61.959619 
L 121.168717 61.550311 
L 121.234974 61.550311 
L 121.234974 61.413875 
L 121.492638 61.413875 
L 121.566257 61.141003 
L 121.904901 61.141003 
L 121.949072 60.868131 
L 122.02269 60.868131 
L 122.074223 60.59526 
L 122.390782 60.59526 
L 122.390782 60.458824 
L 123.038624 60.458824 
L 123.038624 60.322388 
L 123.200584 60.322388 
L 123.296288 60.049516 
L 123.362545 60.049516 
L 123.362545 59.91308 
L 123.458249 59.91308 
L 123.561314 59.91308 
L 123.561314 59.776644 
L 124.22388 59.776644 
L 124.22388 59.640208 
L 125.203004 59.640208 
L 125.298708 59.367336 
L 125.328155 59.367336 
L 125.328155 59.2309 
L 125.806675 59.2309 
L 125.806675 59.094464 
L 126.012806 59.094464 
L 126.093786 58.821592 
L 126.152681 58.821592 
L 126.152681 58.685156 
L 126.277832 58.685156 
L 126.30728 58.412284 
L 126.984569 58.412284 
L 126.984569 58.275848 
L 127.66922 58.275848 
L 127.66922 58.139412 
L 127.801733 58.139412 
L 127.801733 58.002976 
L 127.934246 58.002976 
L 128.022588 57.593668 
L 128.405403 57.593668 
L 128.434851 57.320796 
L 128.604173 57.320796 
L 128.604173 57.18436 
L 129.134225 57.18436 
L 129.134225 57.047924 
L 129.458146 57.047924 
L 129.494955 56.775052 
L 129.590659 56.775052 
L 129.679001 56.50218 
L 129.767343 56.50218 
L 129.870409 56.092872 
L 129.921942 56.092872 
L 129.988198 55.82 
L 130.157521 55.82 
L 130.157521 55.683564 
L 130.606593 55.683564 
L 130.606593 55.547128 
L 130.775915 55.547128 
L 130.812724 55.274256 
L 131.151369 55.274256 
L 131.151369 55.13782 
L 131.350138 55.13782 
L 131.350138 55.001384 
L 131.887552 55.001384 
L 131.887552 54.864948 
L 132.204111 54.864948 
L 132.204111 54.728512 
L 132.380795 54.728512 
L 132.424966 54.45564 
L 132.550118 54.45564 
L 132.564841 54.182768 
L 132.667907 54.182768 
L 132.712078 53.77346 
L 133.146426 53.77346 
L 133.227407 52.954844 
L 133.264216 52.954844 
L 133.264216 52.818408 
L 133.499795 52.818408 
L 133.499795 52.681972 
L 133.63967 52.681972 
L 133.63967 52.545536 
L 133.779544 52.545536 
L 133.816354 52.272664 
L 134.066656 52.272664 
L 134.066656 52.136228 
L 134.493643 52.136228 
L 134.493643 51.999792 
L 134.655603 51.999792 
L 134.766031 51.590484 
L 134.795478 51.590484 
L 134.854373 51.181176 
L 134.9648 51.181176 
L 134.9648 51.04474 
L 135.237188 51.04474 
L 135.237188 50.908304 
L 135.362339 50.908304 
L 135.362339 50.771869 
L 135.715708 50.771869 
L 135.715708 50.635433 
L 136.157418 50.635433 
L 136.157418 50.498997 
L 136.304655 50.498997 
L 136.356187 50.226125 
L 136.473977 50.226125 
L 136.473977 50.089689 
L 136.871516 50.089689 
L 136.871516 49.953253 
L 137.107095 49.953253 
L 137.136542 49.680381 
L 137.313226 49.680381 
L 137.423654 49.407509 
L 137.556167 49.407509 
L 137.556167 49.271073 
L 137.76966 49.271073 
L 137.76966 49.134637 
L 137.953706 49.134637 
L 137.953706 48.998201 
L 138.24818 48.998201 
L 138.24818 48.861765 
L 138.454311 48.861765 
L 138.454311 48.725329 
L 138.859212 48.725329 
L 138.947554 48.316021 
L 139.116876 48.316021 
L 139.116876 48.179585 
L 139.381903 48.179585 
L 139.381903 48.043149 
L 139.565948 48.043149 
L 139.565948 47.906713 
L 139.779442 47.906713 
L 139.779442 47.770277 
L 139.978211 47.770277 
L 139.978211 47.633841 
L 140.110724 47.633841 
L 140.110724 47.497405 
L 140.257961 47.497405 
L 140.257961 47.360969 
L 140.633415 47.360969 
L 140.721757 47.088097 
L 140.93525 47.088097 
L 140.93525 46.951661 
L 141.237086 46.951661 
L 141.237086 46.815225 
L 141.399046 46.815225 
L 141.406408 46.542353 
L 141.715605 46.542353 
L 141.745052 46.269481 
L 141.995355 46.269481 
L 141.995355 46.133045 
L 142.13523 46.133045 
L 142.13523 45.996609 
L 142.827242 45.996609 
L 142.922946 45.587301 
L 143.372018 45.587301 
L 143.372018 45.450865 
L 143.828452 45.450865 
L 143.828452 45.314429 
L 144.203906 45.314429 
L 144.203906 45.177993 
L 144.373228 45.177993 
L 144.373228 45.041557 
L 144.814938 45.041557 
L 144.925366 44.632249 
L 145.006346 44.632249 
L 145.006346 44.495813 
L 145.62474 44.495813 
L 145.683635 44.086505 
L 145.749892 44.086505 
L 145.749892 43.950069 
L 145.875043 43.950069 
L 145.875043 43.813633 
L 146.213687 43.813633 
L 146.309391 43.540761 
L 146.390372 43.540761 
L 146.390372 43.404325 
L 146.883615 43.404325 
L 146.883615 43.267889 
L 147.060299 43.267889 
L 147.060299 43.131453 
L 147.479923 43.131453 
L 147.479923 42.995017 
L 147.693417 42.995017 
L 147.693417 42.858581 
L 147.848015 42.858581 
L 147.892186 42.585709 
L 148.613646 42.585709 
L 148.613646 42.449273 
L 149.173146 42.449273 
L 149.173146 42.312837 
L 149.555962 42.312837 
L 149.614856 42.039965 
L 150.07129 42.039965 
L 150.166994 41.767093 
L 150.255336 41.767093 
L 150.255336 41.630657 
L 150.976796 41.630657 
L 150.976796 41.494221 
L 151.654085 41.494221 
L 151.727704 41.084913 
L 151.757151 41.084913 
L 152.449164 41.084913 
L 152.449164 40.948478 
L 152.721552 40.948478 
L 152.721552 40.812042 
L 152.854065 40.812042 
L 152.854065 40.675606 
L 153.281051 40.675606 
L 153.376755 40.402734 
L 153.457735 40.402734 
L 153.457735 40.129862 
L 153.619696 40.129862 
L 153.722761 39.584118 
L 153.950978 39.584118 
L 153.95834 39.447682 
L 154.304347 39.447682 
L 154.377965 39.17481 
L 155.114149 39.17481 
L 155.128872 38.901938 
L 155.2393 38.901938 
L 155.2393 38.765502 
L 155.364451 38.765502 
L 155.364451 38.629066 
L 155.68101 38.629066 
L 155.769352 38.219758 
L 156.203701 38.219758 
L 156.203701 38.083322 
L 156.60124 38.083322 
L 156.60124 37.946886 
L 156.836819 37.946886 
L 156.836819 37.674014 
L 157.528831 37.674014 
L 157.528831 37.537578 
L 157.676068 37.537578 
L 157.676068 37.401142 
L 157.76441 37.401142 
L 157.801219 37.401142 
L 157.801219 37.264706 
L 157.919009 37.264706 
L 157.919009 37.12827 
L 159.023284 37.12827 
L 159.067455 36.855398 
L 159.626955 36.855398 
L 159.626955 36.718962 
L 159.774192 36.718962 
L 159.774192 36.582526 
L 160.002409 36.582526 
L 160.098112 36.309654 
L 160.392586 36.309654 
L 160.473566 36.036782 
L 160.628165 36.036782 
L 160.628165 35.900346 
L 160.981533 35.900346 
L 161.077237 35.491038 
L 161.239197 35.491038 
L 161.334901 35.218166 
L 161.680907 35.218166 
L 161.717717 34.945294 
L 162.306664 34.945294 
L 162.409729 34.672422 
L 162.637946 34.672422 
L 162.637946 34.535986 
L 163.182722 34.535986 
L 163.182722 34.39955 
L 163.602347 34.39955 
L 163.609709 34.126678 
L 163.749584 34.126678 
L 163.81584 33.853806 
L 164.036695 33.853806 
L 164.036695 33.71737 
L 164.220741 33.71737 
L 164.228103 33.580934 
L 164.485767 33.580934 
L 164.485767 33.444498 
L 164.529938 33.444498 
L 165.01582 33.444498 
L 165.01582 33.308062 
L 165.391273 33.308062 
L 165.391273 33.171626 
L 166.252608 33.171626 
L 166.252608 33.03519 
L 166.863641 33.03519 
L 166.922535 32.762318 
L 167.356884 32.762318 
L 167.356884 32.625882 
L 167.482035 32.625882 
L 167.548292 32.216574 
L 167.791232 32.216574 
L 167.791232 31.943702 
L 167.909022 31.943702 
L 168.019449 31.397958 
L 168.277114 31.397958 
L 168.284475 31.125087 
L 168.895508 31.125087 
L 168.969126 30.852215 
L 169.337218 30.852215 
L 169.388751 30.579343 
L 169.668501 30.579343 
L 169.668501 30.442907 
L 170.102849 30.442907 
L 170.176468 30.033599 
L 170.316342 30.033599 
L 170.316342 29.897163 
L 170.728605 29.897163 
L 170.772776 29.624291 
L 170.897928 29.624291 
L 170.897928 29.487855 
L 171.037802 29.487855 
L 171.037802 29.351419 
L 171.192401 29.351419 
L 171.214487 29.078547 
L 171.773986 29.078547 
L 171.86969 28.805675 
L 171.987479 28.805675 
L 171.994841 28.532803 
L 172.164164 28.532803 
L 172.252506 28.259931 
L 172.627959 28.259931 
L 172.627959 28.123495 
L 173.165373 28.123495 
L 173.268439 27.850623 
L 173.327334 27.850623 
L 173.327334 27.714187 
L 173.79113 27.714187 
L 173.79113 27.577751 
L 174.461057 27.577751 
L 174.461057 27.441315 
L 174.9543 27.441315 
L 174.9543 27.304879 
L 175.543247 27.304879 
L 175.543247 27.168443 
L 176.750588 27.168443 
L 176.750588 27.032007 
L 177.052423 27.032007 
L 177.111318 26.759135 
L 177.288002 26.759135 
L 177.31745 26.486263 
L 177.781245 26.486263 
L 177.854864 26.213391 
L 177.994739 26.213391 
L 177.994739 26.076955 
L 178.267127 26.076955 
L 178.267127 25.940519 
L 178.495344 25.940519 
L 178.495344 25.804083 
L 178.730922 25.804083 
L 178.730922 25.667647 
L 178.870797 25.667647 
L 178.944416 25.258339 
L 179.938264 25.258339 
L 179.938264 25.121903 
L 180.056053 25.121903 
L 180.056053 24.985467 
L 180.328441 24.985467 
L 180.328441 24.849031 
L 180.48304 24.849031 
L 180.48304 24.712595 
L 181.2045 24.712595 
L 181.278118 24.439723 
L 181.88915 24.439723 
L 181.88915 24.303287 
L 181.977493 24.303287 
L 182.146815 24.303287 
L 182.146815 24.166851 
L 182.456012 24.166851 
L 182.478097 23.893979 
L 183.64863 23.893979 
L 183.64863 23.757543 
L 183.862123 23.757543 
L 183.862123 23.621107 
L 184.414261 23.621107 
L 184.458432 23.348235 
L 184.642478 23.348235 
L 184.73082 23.075363 
L 184.951675 23.075363 
L 184.951675 22.938927 
L 185.209339 22.938927 
L 185.209339 22.802491 
L 185.636326 22.802491 
L 185.636326 22.666055 
L 186.09276 22.666055 
L 186.159016 22.120311 
L 187.344272 22.120311 
L 187.344272 21.983875 
L 187.476785 21.983875 
L 187.476785 21.847439 
L 187.543041 21.847439 
L 187.660831 21.847439 
L 187.734449 21.574567 
L 187.785982 21.574567 
L 187.785982 21.438131 
L 188.021561 21.438131 
L 188.021561 21.301696 
L 188.77983 21.301696 
L 188.77983 21.16526 
L 189.015409 21.16526 
L 189.015409 21.028824 
L 189.412948 21.028824 
L 189.523376 20.755952 
L 190.730717 20.755952 
L 190.804335 20.48308 
L 191.010467 20.48308 
L 191.084085 20.073772 
L 191.606776 20.073772 
L 191.606776 19.937336 
L 192.409216 19.937336 
L 192.409216 19.8009 
L 192.902459 19.8009 
L 193.005525 19.528028 
L 193.30736 19.528028 
L 193.344169 19.11872 
L 193.410426 19.11872 
L 194.220228 19.11872 
L 194.257037 18.845848 
L 194.367465 18.845848 
L 194.367465 18.709412 
L 194.558872 18.709412 
L 194.558872 18.572976 
L 195.346589 18.572976 
L 195.346589 18.43654 
L 195.854556 18.43654 
L 195.891365 18.027232 
L 196.642272 18.027232 
L 196.642272 17.890796 
L 196.980917 17.890796 
L 197.054535 17.617924 
L 197.429989 17.617924 
L 197.429989 17.481488 
L 197.584587 17.481488 
L 197.584587 17.345052 
L 197.768633 17.345052 
L 197.768633 17.208616 
L 197.967403 17.208616 
L 197.967403 17.07218 
L 198.283962 17.07218 
L 198.283962 16.935744 
L 198.652054 16.935744 
L 198.652054 16.799308 
L 199.63854 16.799308 
L 199.63854 16.662872 
L 199.859395 16.662872 
L 199.859395 16.526436 
L 200.102336 16.526436 
L 200.102336 16.39 
L 200.36 16.39 
L 200.36 16.39 
" style="fill:none;stroke:#ff4500;stroke-linecap:square;stroke-opacity:0.7;stroke-width:1.5;"/>
   </g>
   <g id="line2d_17">
    <path clip-path="url(#p396ce4d5c2)" d="M 42.64 174.11 
L 44.233131 169.118966 
L 45.826263 163.948292 
L 47.419394 158.730706 
L 49.012525 154.681796 
L 50.605657 149.840611 
L 52.198788 146.586035 
L 53.791919 143.944584 
L 55.385051 140.600802 
L 56.978182 138.239069 
L 58.571313 135.382281 
L 60.164444 131.655816 
L 61.757576 129.809485 
L 63.350707 127.89688 
L 64.943838 125.801642 
L 66.53697 123.313275 
L 68.130101 120.6413 
L 69.723232 118.28926 
L 71.316364 116.25613 
L 72.909495 114.132279 
L 74.502626 112.703565 
L 76.095758 110.876813 
L 77.688889 108.656392 
L 79.28202 106.291574 
L 80.875152 104.826427 
L 82.468283 103.042945 
L 84.061414 101.443109 
L 85.654545 100.565073 
L 87.247677 98.024225 
L 88.840808 95.159676 
L 90.433939 93.311108 
L 92.027071 91.269506 
L 93.620202 89.927695 
L 95.213333 88.726799 
L 96.806465 87.626339 
L 98.399596 86.106205 
L 99.992727 84.88207 
L 101.585859 83.54759 
L 103.17899 82.287736 
L 104.772121 80.901929 
L 106.365253 79.469802 
L 107.958384 78.059506 
L 109.551515 76.504464 
L 111.144646 74.758018 
L 112.737778 73.589791 
L 114.330909 72.331581 
L 115.92404 70.340875 
L 117.517172 68.722336 
L 119.110303 67.215762 
L 120.703434 66.306887 
L 122.296566 64.983231 
L 123.889697 64.058119 
L 125.482828 63.492094 
L 127.07596 62.468929 
L 128.669091 61.458127 
L 130.262222 59.951566 
L 131.855354 58.891564 
L 133.448485 57.01374 
L 135.041616 55.217905 
L 136.634747 53.965328 
L 138.227879 52.677885 
L 139.82101 51.5142 
L 141.414141 50.334024 
L 143.007273 49.266092 
L 144.600404 48.482296 
L 146.193535 47.27851 
L 147.786667 46.269282 
L 149.379798 45.630412 
L 150.972929 44.882149 
L 152.566061 44.243017 
L 154.159192 42.851412 
L 155.752323 41.698861 
L 157.345455 40.716272 
L 158.938586 40.039613 
L 160.531717 39.127292 
L 162.124848 37.849773 
L 163.71798 37.030327 
L 165.311111 36.092863 
L 166.904242 35.634202 
L 168.497374 33.95665 
L 170.090505 32.863269 
L 171.683636 31.45814 
L 173.276768 30.281431 
L 174.869899 29.70371 
L 176.46303 29.418334 
L 178.056162 28.353808 
L 179.649293 27.31855 
L 181.242424 26.612122 
L 182.835556 25.845593 
L 184.428687 25.337943 
L 186.021818 24.236546 
L 187.614949 23.401011 
L 189.208081 22.480374 
L 190.801212 21.975964 
L 192.394343 21.164009 
L 193.987475 20.221143 
L 195.580606 19.421463 
L 197.173737 18.447945 
L 198.766869 17.30433 
L 200.36 16.39 
" style="fill:none;stroke:#ff7f50;stroke-dasharray:5.55,2.4;stroke-dashoffset:0;stroke-opacity:0.7;stroke-width:1.5;"/>
   </g>
   <g id="line2d_18">
    <path clip-path="url(#p396ce4d5c2)" d="M 42.64 174.11 
L 44.233131 165.208231 
L 45.826263 158.386493 
L 47.419394 152.632646 
L 49.012525 148.224249 
L 50.605657 142.632512 
L 52.198788 139.150233 
L 53.791919 136.385799 
L 55.385051 132.793496 
L 56.978182 130.30033 
L 58.571313 126.961601 
L 60.164444 123.036462 
L 61.757576 121.252352 
L 63.350707 119.363455 
L 64.943838 116.759592 
L 66.53697 114.452539 
L 68.130101 111.718831 
L 69.723232 109.461809 
L 71.316364 107.177577 
L 72.909495 104.831248 
L 74.502626 103.667519 
L 76.095758 101.602614 
L 77.688889 99.153133 
L 79.28202 97.104366 
L 80.875152 95.739804 
L 82.468283 93.40791 
L 84.061414 92.313782 
L 85.654545 91.306424 
L 87.247677 88.215496 
L 88.840808 85.854844 
L 90.433939 84.124366 
L 92.027071 82.124988 
L 93.620202 80.931969 
L 95.213333 79.861625 
L 96.806465 78.563055 
L 98.399596 77.322326 
L 99.992727 76.083328 
L 101.585859 74.774635 
L 103.17899 73.456388 
L 104.772121 72.124431 
L 106.365253 70.485823 
L 107.958384 69.304416 
L 109.551515 67.559485 
L 111.144646 66.090898 
L 112.737778 64.99911 
L 114.330909 63.523607 
L 115.92404 61.524561 
L 117.517172 60.003627 
L 119.110303 58.895375 
L 120.703434 57.924979 
L 122.296566 56.670367 
L 123.889697 55.861837 
L 125.482828 55.28992 
L 127.07596 54.384775 
L 128.669091 53.380246 
L 130.262222 51.906932 
L 131.855354 50.95664 
L 133.448485 49.085908 
L 135.041616 47.546385 
L 136.634747 46.521657 
L 138.227879 45.387658 
L 139.82101 44.250443 
L 141.414141 43.155618 
L 143.007273 42.305084 
L 144.600404 41.560269 
L 146.193535 40.386904 
L 147.786667 39.586388 
L 149.379798 39.018645 
L 150.972929 38.372105 
L 152.566061 37.736207 
L 154.159192 36.364371 
L 155.752323 35.367802 
L 157.345455 34.61963 
L 158.938586 34.081128 
L 160.531717 33.124006 
L 162.124848 32.071211 
L 163.71798 31.250437 
L 165.311111 30.614777 
L 166.904242 30.191452 
L 168.497374 28.599978 
L 170.090505 27.681338 
L 171.683636 26.502286 
L 173.276768 25.594113 
L 174.869899 25.14566 
L 176.46303 24.884309 
L 178.056162 23.983531 
L 179.649293 23.124611 
L 181.242424 22.566579 
L 182.835556 22.00697 
L 184.428687 21.502651 
L 186.021818 20.676899 
L 187.614949 20.064848 
L 189.208081 19.51941 
L 190.801212 19.066068 
L 192.394343 18.539707 
L 193.987475 17.927717 
L 195.580606 17.408735 
L 197.173737 16.848085 
L 198.766869 16.39 
L 200.36 16.39 
" style="fill:none;stroke:#ff7f50;stroke-dasharray:5.55,2.4;stroke-dashoffset:0;stroke-opacity:0.7;stroke-width:1.5;"/>
   </g>
   <g id="line2d_19">
    <path clip-path="url(#p396ce4d5c2)" d="M 42.64 174.11 
L 121.5 95.25 
L 200.36 16.39 
" style="fill:none;stroke:#000000;stroke-dasharray:5.55,2.4;stroke-dashoffset:0;stroke-width:1.5;"/>
   </g>
   <g id="patch_3">
    <path d="M 42.64 174.11 
L 42.64 16.39 
" style="fill:none;stroke:#000000;stroke-linecap:square;stroke-linejoin:miter;stroke-width:0.8;"/>
   </g>
   <g id="patch_4">
    <path d="M 200.36 174.11 
L 200.36 16.39 
" style="fill:none;stroke:#000000;stroke-linecap:square;stroke-linejoin:miter;stroke-width:0.8;"/>
   </g>
   <g id="patch_5">
    <path d="M 42.64 174.11 
L 200.36 174.11 
" style="fill:none;stroke:#000000;stroke-linecap:square;stroke-linejoin:miter;stroke-width:0.8;"/>
   </g>
   <g id="patch_6">
    <path d="M 42.64 16.39 
L 200.36 16.39 
" style="fill:none;stroke:#000000;stroke-linecap:square;stroke-linejoin:miter;stroke-width:0.8;"/>
   </g>
   <g id="legend_1">
    <g id="patch_7">
     <path d="M 125.981875 169.11 
L 193.36 169.11 
Q 195.36 169.11 195.36 167.11 
L 195.36 125.556875 
Q 195.36 123.556875 193.36 123.556875 
L 125.981875 123.556875 
Q 123.981875 123.556875 123.981875 125.556875 
L 123.981875 167.11 
Q 123.981875 169.11 125.981875 169.11 
z
" style="fill:#ffffff;opacity:0.8;stroke:#cccccc;stroke-linejoin:miter;"/>
    </g>
    <g id="text_15">
     <!-- prolonged use -->
     <g transform="translate(127.981875 134.714687)scale(0.1 -0.1)">
      <defs>
       <path d="M 6.59375 -19.875 
L 6.59375 51.859375 
L 14.59375 51.859375 
L 14.59375 45.125 
Q 17.4375 49.078125 21 51.046875 
Q 24.5625 53.03125 29.640625 53.03125 
Q 36.28125 53.03125 41.359375 49.609375 
Q 46.4375 46.1875 49.015625 39.953125 
Q 51.609375 33.734375 51.609375 26.3125 
Q 51.609375 18.359375 48.75 11.984375 
Q 45.90625 5.609375 40.453125 2.21875 
Q 35.015625 -1.171875 29 -1.171875 
Q 24.609375 -1.171875 21.109375 0.6875 
Q 17.625 2.546875 15.375 5.375 
L 15.375 -19.875 
z
M 14.546875 25.640625 
Q 14.546875 15.625 18.59375 10.84375 
Q 22.65625 6.0625 28.421875 6.0625 
Q 34.28125 6.0625 38.453125 11.015625 
Q 42.625 15.96875 42.625 26.375 
Q 42.625 36.28125 38.546875 41.203125 
Q 34.46875 46.140625 28.8125 46.140625 
Q 23.1875 46.140625 18.859375 40.890625 
Q 14.546875 35.640625 14.546875 25.640625 
z
" id="ArialMT-112"/>
       <path d="M 6.59375 0 
L 6.59375 51.859375 
L 14.5 51.859375 
L 14.5 44.484375 
Q 20.21875 53.03125 31 53.03125 
Q 35.6875 53.03125 39.625 51.34375 
Q 43.5625 49.65625 45.515625 46.921875 
Q 47.46875 44.1875 48.25 40.4375 
Q 48.734375 37.984375 48.734375 31.890625 
L 48.734375 0 
L 39.9375 0 
L 39.9375 31.546875 
Q 39.9375 36.921875 38.90625 39.578125 
Q 37.890625 42.234375 35.28125 43.8125 
Q 32.671875 45.40625 29.15625 45.40625 
Q 23.53125 45.40625 19.453125 41.84375 
Q 15.375 38.28125 15.375 28.328125 
L 15.375 0 
z
" id="ArialMT-110"/>
       <path d="M 4.984375 -4.296875 
L 13.53125 -5.5625 
Q 14.0625 -9.515625 16.5 -11.328125 
Q 19.78125 -13.765625 25.4375 -13.765625 
Q 31.546875 -13.765625 34.859375 -11.328125 
Q 38.1875 -8.890625 39.359375 -4.5 
Q 40.046875 -1.8125 39.984375 6.78125 
Q 34.234375 0 25.640625 0 
Q 14.9375 0 9.078125 7.71875 
Q 3.21875 15.4375 3.21875 26.21875 
Q 3.21875 33.640625 5.90625 39.90625 
Q 8.59375 46.1875 13.6875 49.609375 
Q 18.796875 53.03125 25.6875 53.03125 
Q 34.859375 53.03125 40.828125 45.609375 
L 40.828125 51.859375 
L 48.921875 51.859375 
L 48.921875 7.03125 
Q 48.921875 -5.078125 46.453125 -10.125 
Q 44 -15.1875 38.640625 -18.109375 
Q 33.296875 -21.046875 25.484375 -21.046875 
Q 16.21875 -21.046875 10.5 -16.875 
Q 4.78125 -12.703125 4.984375 -4.296875 
z
M 12.25 26.859375 
Q 12.25 16.65625 16.296875 11.96875 
Q 20.359375 7.28125 26.46875 7.28125 
Q 32.515625 7.28125 36.609375 11.9375 
Q 40.71875 16.609375 40.71875 26.5625 
Q 40.71875 36.078125 36.5 40.90625 
Q 32.28125 45.75 26.3125 45.75 
Q 20.453125 45.75 16.34375 40.984375 
Q 12.25 36.234375 12.25 26.859375 
z
" id="ArialMT-103"/>
       <path d="M 40.234375 0 
L 40.234375 6.546875 
Q 35.296875 -1.171875 25.734375 -1.171875 
Q 19.53125 -1.171875 14.328125 2.25 
Q 9.125 5.671875 6.265625 11.796875 
Q 3.421875 17.921875 3.421875 25.875 
Q 3.421875 33.640625 6 39.96875 
Q 8.59375 46.296875 13.765625 49.65625 
Q 18.953125 53.03125 25.34375 53.03125 
Q 30.03125 53.03125 33.6875 51.046875 
Q 37.359375 49.078125 39.65625 45.90625 
L 39.65625 71.578125 
L 48.390625 71.578125 
L 48.390625 0 
z
M 12.453125 25.875 
Q 12.453125 15.921875 16.640625 10.984375 
Q 20.84375 6.0625 26.5625 6.0625 
Q 32.328125 6.0625 36.34375 10.765625 
Q 40.375 15.484375 40.375 25.140625 
Q 40.375 35.796875 36.265625 40.765625 
Q 32.171875 45.75 26.171875 45.75 
Q 20.3125 45.75 16.375 40.96875 
Q 12.453125 36.1875 12.453125 25.875 
z
" id="ArialMT-100"/>
      </defs>
      <use xlink:href="#ArialMT-112"/>
      <use x="55.615234" xlink:href="#ArialMT-114"/>
      <use x="88.916016" xlink:href="#ArialMT-111"/>
      <use x="144.53125" xlink:href="#ArialMT-108"/>
      <use x="166.748047" xlink:href="#ArialMT-111"/>
      <use x="222.363281" xlink:href="#ArialMT-110"/>
      <use x="277.978516" xlink:href="#ArialMT-103"/>
      <use x="333.59375" xlink:href="#ArialMT-101"/>
      <use x="389.208984" xlink:href="#ArialMT-100"/>
      <use x="444.824219" xlink:href="#ArialMT-32"/>
      <use x="472.607422" xlink:href="#ArialMT-117"/>
      <use x="528.222656" xlink:href="#ArialMT-115"/>
      <use x="578.222656" xlink:href="#ArialMT-101"/>
     </g>
    </g>
    <g id="patch_8">
     <path d="M 134.835781 148.977188 
L 154.835781 148.977188 
L 154.835781 141.977188 
L 134.835781 141.977188 
z
" style="fill:#ff4500;stroke:#ff4500;stroke-linejoin:miter;"/>
    </g>
    <g id="text_16">
     <!-- SVM -->
     <g transform="translate(162.835781 148.977188)scale(0.1 -0.1)">
      <defs>
       <path d="M 4.5 23 
L 13.421875 23.78125 
Q 14.0625 18.40625 16.375 14.96875 
Q 18.703125 11.53125 23.578125 9.40625 
Q 28.46875 7.28125 34.578125 7.28125 
Q 39.984375 7.28125 44.140625 8.890625 
Q 48.296875 10.5 50.3125 13.296875 
Q 52.34375 16.109375 52.34375 19.4375 
Q 52.34375 22.796875 50.390625 25.3125 
Q 48.4375 27.828125 43.953125 29.546875 
Q 41.0625 30.671875 31.203125 33.03125 
Q 21.34375 35.40625 17.390625 37.5 
Q 12.25 40.1875 9.734375 44.15625 
Q 7.234375 48.140625 7.234375 53.078125 
Q 7.234375 58.5 10.296875 63.203125 
Q 13.375 67.921875 19.28125 70.359375 
Q 25.203125 72.796875 32.421875 72.796875 
Q 40.375 72.796875 46.453125 70.234375 
Q 52.546875 67.671875 55.8125 62.6875 
Q 59.078125 57.71875 59.328125 51.421875 
L 50.25 50.734375 
Q 49.515625 57.515625 45.28125 60.984375 
Q 41.0625 64.453125 32.8125 64.453125 
Q 24.21875 64.453125 20.28125 61.296875 
Q 16.359375 58.15625 16.359375 53.71875 
Q 16.359375 49.859375 19.140625 47.359375 
Q 21.875 44.875 33.421875 42.265625 
Q 44.96875 39.65625 49.265625 37.703125 
Q 55.515625 34.8125 58.484375 30.390625 
Q 61.46875 25.984375 61.46875 20.21875 
Q 61.46875 14.5 58.203125 9.4375 
Q 54.9375 4.390625 48.796875 1.578125 
Q 42.671875 -1.21875 35.015625 -1.21875 
Q 25.296875 -1.21875 18.71875 1.609375 
Q 12.15625 4.4375 8.421875 10.125 
Q 4.6875 15.828125 4.5 23 
z
" id="ArialMT-83"/>
       <path d="M 28.171875 0 
L 0.4375 71.578125 
L 10.6875 71.578125 
L 29.296875 19.578125 
Q 31.546875 13.328125 33.0625 7.859375 
Q 34.71875 13.71875 36.921875 19.578125 
L 56.25 71.578125 
L 65.921875 71.578125 
L 37.890625 0 
z
" id="ArialMT-86"/>
       <path d="M 7.421875 0 
L 7.421875 71.578125 
L 21.6875 71.578125 
L 38.625 20.90625 
Q 40.96875 13.8125 42.046875 10.296875 
Q 43.265625 14.203125 45.84375 21.78125 
L 62.984375 71.578125 
L 75.734375 71.578125 
L 75.734375 0 
L 66.609375 0 
L 66.609375 59.90625 
L 45.796875 0 
L 37.25 0 
L 16.546875 60.9375 
L 16.546875 0 
z
" id="ArialMT-77"/>
      </defs>
      <use xlink:href="#ArialMT-83"/>
      <use x="66.699219" xlink:href="#ArialMT-86"/>
      <use x="133.398438" xlink:href="#ArialMT-77"/>
     </g>
    </g>
    <g id="patch_9">
     <path d="M 134.835781 163.1225 
L 154.835781 163.1225 
L 154.835781 156.1225 
L 134.835781 156.1225 
z
" style="fill:#800080;stroke:#800080;stroke-linejoin:miter;"/>
    </g>
    <g id="text_17">
     <!-- XGB -->
     <g transform="translate(162.835781 163.1225)scale(0.1 -0.1)">
      <defs>
       <path d="M 0.4375 0 
L 28.125 37.3125 
L 3.71875 71.578125 
L 14.984375 71.578125 
L 27.984375 53.21875 
Q 32.03125 47.515625 33.734375 44.4375 
Q 36.140625 48.34375 39.40625 52.59375 
L 53.8125 71.578125 
L 64.109375 71.578125 
L 38.96875 37.84375 
L 66.0625 0 
L 54.34375 0 
L 36.328125 25.53125 
Q 34.8125 27.734375 33.203125 30.328125 
Q 30.8125 26.421875 29.78125 24.953125 
L 11.8125 0 
z
" id="ArialMT-88"/>
       <path d="M 41.21875 28.078125 
L 41.21875 36.46875 
L 71.53125 36.53125 
L 71.53125 9.96875 
Q 64.546875 4.390625 57.125 1.578125 
Q 49.703125 -1.21875 41.890625 -1.21875 
Q 31.34375 -1.21875 22.71875 3.296875 
Q 14.109375 7.8125 9.71875 16.359375 
Q 5.328125 24.90625 5.328125 35.453125 
Q 5.328125 45.90625 9.6875 54.953125 
Q 14.0625 64.015625 22.265625 68.40625 
Q 30.46875 72.796875 41.15625 72.796875 
Q 48.921875 72.796875 55.1875 70.28125 
Q 61.46875 67.78125 65.03125 63.28125 
Q 68.609375 58.796875 70.453125 51.5625 
L 61.921875 49.21875 
Q 60.296875 54.6875 57.90625 57.8125 
Q 55.515625 60.9375 51.0625 62.8125 
Q 46.625 64.703125 41.21875 64.703125 
Q 34.71875 64.703125 29.984375 62.71875 
Q 25.25 60.75 22.34375 57.515625 
Q 19.4375 54.296875 17.828125 50.4375 
Q 15.09375 43.796875 15.09375 36.03125 
Q 15.09375 26.46875 18.390625 20.015625 
Q 21.6875 13.578125 27.984375 10.453125 
Q 34.28125 7.328125 41.359375 7.328125 
Q 47.515625 7.328125 53.375 9.6875 
Q 59.234375 12.0625 62.25 14.75 
L 62.25 28.078125 
z
" id="ArialMT-71"/>
       <path d="M 7.328125 0 
L 7.328125 71.578125 
L 34.1875 71.578125 
Q 42.390625 71.578125 47.34375 69.40625 
Q 52.296875 67.234375 55.09375 62.71875 
Q 57.90625 58.203125 57.90625 53.265625 
Q 57.90625 48.6875 55.421875 44.625 
Q 52.9375 40.578125 47.90625 38.09375 
Q 54.390625 36.1875 57.875 31.59375 
Q 61.375 27 61.375 20.75 
Q 61.375 15.71875 59.25 11.390625 
Q 57.125 7.078125 54 4.734375 
Q 50.875 2.390625 46.15625 1.1875 
Q 41.453125 0 34.625 0 
z
M 16.796875 41.5 
L 32.28125 41.5 
Q 38.578125 41.5 41.3125 42.328125 
Q 44.921875 43.40625 46.75 45.890625 
Q 48.578125 48.390625 48.578125 52.15625 
Q 48.578125 55.71875 46.875 58.421875 
Q 45.171875 61.140625 41.984375 62.140625 
Q 38.8125 63.140625 31.109375 63.140625 
L 16.796875 63.140625 
z
M 16.796875 8.453125 
L 34.625 8.453125 
Q 39.203125 8.453125 41.0625 8.796875 
Q 44.34375 9.375 46.53125 10.734375 
Q 48.734375 12.109375 50.140625 14.71875 
Q 51.5625 17.328125 51.5625 20.75 
Q 51.5625 24.75 49.515625 27.703125 
Q 47.46875 30.671875 43.828125 31.859375 
Q 40.1875 33.0625 33.34375 33.0625 
L 16.796875 33.0625 
z
" id="ArialMT-66"/>
      </defs>
      <use xlink:href="#ArialMT-88"/>
      <use x="66.699219" xlink:href="#ArialMT-71"/>
      <use x="144.482422" xlink:href="#ArialMT-66"/>
     </g>
    </g>
   </g>
  </g>
 </g>
 <defs>
  <clipPath id="p396ce4d5c2">
   <rect height="157.72" width="157.72" x="42.64" y="16.39"/>
  </clipPath>
 </defs>
</svg>
