<?xml version="1.0" encoding="utf-8" standalone="no"?>
<!DOCTYPE svg PUBLIC "-//W3C//DTD SVG 1.1//EN"
  "http://www.w3.org/Graphics/SVG/1.1/DTD/svg11.dtd">
<!-- Created with matplotlib (https://matplotlib.org/) -->
<svg height="216pt" version="1.1" viewBox="0 0 216 216" width="216pt" xmlns="http://www.w3.org/2000/svg" xmlns:xlink="http://www.w3.org/1999/xlink">
 <metadata>
  <rdf:RDF xmlns:cc="http://creativecommons.org/ns#" xmlns:dc="http://purl.org/dc/elements/1.1/" xmlns:rdf="http://www.w3.org/1999/02/22-rdf-syntax-ns#">
   <cc:Work>
    <dc:type rdf:resource="http://purl.org/dc/dcmitype/StillImage"/>
    <dc:date>2020-11-12T11:39:19.903395</dc:date>
    <dc:format>image/svg+xml</dc:format>
    <dc:creator>
     <cc:Agent>
      <dc:title>Matplotlib v3.3.2, https://matplotlib.org/</dc:title>
     </cc:Agent>
    </dc:creator>
   </cc:Work>
  </rdf:RDF>
 </metadata>
 <defs>
  <style type="text/css">*{stroke-linecap:butt;stroke-linejoin:round;}</style>
 </defs>
 <g id="figure_1">
  <g id="patch_1">
   <path d="M 0 216 
L 216 216 
L 216 0 
L 0 0 
z
" style="fill:none;"/>
  </g>
  <g id="axes_1">
   <g id="patch_2">
    <path d="M 42.64 174.11 
L 200.36 174.11 
L 200.36 16.39 
L 42.64 16.39 
z
" style="fill:#ffffff;"/>
   </g>
   <g id="matplotlib.axis_1">
    <g id="xtick_1">
     <g id="line2d_1">
      <defs>
       <path d="M 0 0 
L 0 3.5 
" id="mbcda910ecc" style="stroke:#000000;stroke-width:0.8;"/>
      </defs>
      <g>
       <use style="stroke:#000000;stroke-width:0.8;" x="42.64" xlink:href="#mbcda910ecc" y="174.11"/>
      </g>
     </g>
     <g id="text_1">
      <!-- 0.0 -->
      <g transform="translate(35.69 188.267812)scale(0.1 -0.1)">
       <defs>
        <path d="M 4.15625 35.296875 
Q 4.15625 48 6.765625 55.734375 
Q 9.375 63.484375 14.515625 67.671875 
Q 19.671875 71.875 27.484375 71.875 
Q 33.25 71.875 37.59375 69.546875 
Q 41.9375 67.234375 44.765625 62.859375 
Q 47.609375 58.5 49.21875 52.21875 
Q 50.828125 45.953125 50.828125 35.296875 
Q 50.828125 22.703125 48.234375 14.96875 
Q 45.65625 7.234375 40.5 3 
Q 35.359375 -1.21875 27.484375 -1.21875 
Q 17.140625 -1.21875 11.234375 6.203125 
Q 4.15625 15.140625 4.15625 35.296875 
z
M 13.1875 35.296875 
Q 13.1875 17.671875 17.3125 11.828125 
Q 21.4375 6 27.484375 6 
Q 33.546875 6 37.671875 11.859375 
Q 41.796875 17.71875 41.796875 35.296875 
Q 41.796875 52.984375 37.671875 58.78125 
Q 33.546875 64.59375 27.390625 64.59375 
Q 21.34375 64.59375 17.71875 59.46875 
Q 13.1875 52.9375 13.1875 35.296875 
z
" id="ArialMT-48"/>
        <path d="M 9.078125 0 
L 9.078125 10.015625 
L 19.09375 10.015625 
L 19.09375 0 
z
" id="ArialMT-46"/>
       </defs>
       <use xlink:href="#ArialMT-48"/>
       <use x="55.615234" xlink:href="#ArialMT-46"/>
       <use x="83.398438" xlink:href="#ArialMT-48"/>
      </g>
     </g>
    </g>
    <g id="xtick_2">
     <g id="line2d_2">
      <g>
       <use style="stroke:#000000;stroke-width:0.8;" x="74.184" xlink:href="#mbcda910ecc" y="174.11"/>
      </g>
     </g>
     <g id="text_2">
      <!-- 0.2 -->
      <g transform="translate(67.234 188.267812)scale(0.1 -0.1)">
       <defs>
        <path d="M 50.34375 8.453125 
L 50.34375 0 
L 3.03125 0 
Q 2.9375 3.171875 4.046875 6.109375 
Q 5.859375 10.9375 9.828125 15.625 
Q 13.8125 20.3125 21.34375 26.46875 
Q 33.015625 36.03125 37.109375 41.625 
Q 41.21875 47.21875 41.21875 52.203125 
Q 41.21875 57.421875 37.46875 61 
Q 33.734375 64.59375 27.734375 64.59375 
Q 21.390625 64.59375 17.578125 60.78125 
Q 13.765625 56.984375 13.71875 50.25 
L 4.6875 51.171875 
Q 5.609375 61.28125 11.65625 66.578125 
Q 17.71875 71.875 27.9375 71.875 
Q 38.234375 71.875 44.234375 66.15625 
Q 50.25 60.453125 50.25 52 
Q 50.25 47.703125 48.484375 43.546875 
Q 46.734375 39.40625 42.65625 34.8125 
Q 38.578125 30.21875 29.109375 22.21875 
Q 21.1875 15.578125 18.9375 13.203125 
Q 16.703125 10.84375 15.234375 8.453125 
z
" id="ArialMT-50"/>
       </defs>
       <use xlink:href="#ArialMT-48"/>
       <use x="55.615234" xlink:href="#ArialMT-46"/>
       <use x="83.398438" xlink:href="#ArialMT-50"/>
      </g>
     </g>
    </g>
    <g id="xtick_3">
     <g id="line2d_3">
      <g>
       <use style="stroke:#000000;stroke-width:0.8;" x="105.728" xlink:href="#mbcda910ecc" y="174.11"/>
      </g>
     </g>
     <g id="text_3">
      <!-- 0.4 -->
      <g transform="translate(98.778 188.267812)scale(0.1 -0.1)">
       <defs>
        <path d="M 32.328125 0 
L 32.328125 17.140625 
L 1.265625 17.140625 
L 1.265625 25.203125 
L 33.9375 71.578125 
L 41.109375 71.578125 
L 41.109375 25.203125 
L 50.78125 25.203125 
L 50.78125 17.140625 
L 41.109375 17.140625 
L 41.109375 0 
z
M 32.328125 25.203125 
L 32.328125 57.46875 
L 9.90625 25.203125 
z
" id="ArialMT-52"/>
       </defs>
       <use xlink:href="#ArialMT-48"/>
       <use x="55.615234" xlink:href="#ArialMT-46"/>
       <use x="83.398438" xlink:href="#ArialMT-52"/>
      </g>
     </g>
    </g>
    <g id="xtick_4">
     <g id="line2d_4">
      <g>
       <use style="stroke:#000000;stroke-width:0.8;" x="137.272" xlink:href="#mbcda910ecc" y="174.11"/>
      </g>
     </g>
     <g id="text_4">
      <!-- 0.6 -->
      <g transform="translate(130.322 188.267812)scale(0.1 -0.1)">
       <defs>
        <path d="M 49.75 54.046875 
L 41.015625 53.375 
Q 39.84375 58.546875 37.703125 60.890625 
Q 34.125 64.65625 28.90625 64.65625 
Q 24.703125 64.65625 21.53125 62.3125 
Q 17.390625 59.28125 14.984375 53.46875 
Q 12.59375 47.65625 12.5 36.921875 
Q 15.671875 41.75 20.265625 44.09375 
Q 24.859375 46.4375 29.890625 46.4375 
Q 38.671875 46.4375 44.84375 39.96875 
Q 51.03125 33.5 51.03125 23.25 
Q 51.03125 16.5 48.125 10.71875 
Q 45.21875 4.9375 40.140625 1.859375 
Q 35.0625 -1.21875 28.609375 -1.21875 
Q 17.625 -1.21875 10.6875 6.859375 
Q 3.765625 14.9375 3.765625 33.5 
Q 3.765625 54.25 11.421875 63.671875 
Q 18.109375 71.875 29.4375 71.875 
Q 37.890625 71.875 43.28125 67.140625 
Q 48.6875 62.40625 49.75 54.046875 
z
M 13.875 23.1875 
Q 13.875 18.65625 15.796875 14.5 
Q 17.71875 10.359375 21.1875 8.171875 
Q 24.65625 6 28.46875 6 
Q 34.03125 6 38.03125 10.484375 
Q 42.046875 14.984375 42.046875 22.703125 
Q 42.046875 30.125 38.078125 34.390625 
Q 34.125 38.671875 28.125 38.671875 
Q 22.171875 38.671875 18.015625 34.390625 
Q 13.875 30.125 13.875 23.1875 
z
" id="ArialMT-54"/>
       </defs>
       <use xlink:href="#ArialMT-48"/>
       <use x="55.615234" xlink:href="#ArialMT-46"/>
       <use x="83.398438" xlink:href="#ArialMT-54"/>
      </g>
     </g>
    </g>
    <g id="xtick_5">
     <g id="line2d_5">
      <g>
       <use style="stroke:#000000;stroke-width:0.8;" x="168.816" xlink:href="#mbcda910ecc" y="174.11"/>
      </g>
     </g>
     <g id="text_5">
      <!-- 0.8 -->
      <g transform="translate(161.866 188.267812)scale(0.1 -0.1)">
       <defs>
        <path d="M 17.671875 38.8125 
Q 12.203125 40.828125 9.5625 44.53125 
Q 6.9375 48.25 6.9375 53.421875 
Q 6.9375 61.234375 12.546875 66.546875 
Q 18.171875 71.875 27.484375 71.875 
Q 36.859375 71.875 42.578125 66.421875 
Q 48.296875 60.984375 48.296875 53.171875 
Q 48.296875 48.1875 45.671875 44.5 
Q 43.0625 40.828125 37.75 38.8125 
Q 44.34375 36.671875 47.78125 31.875 
Q 51.21875 27.09375 51.21875 20.453125 
Q 51.21875 11.28125 44.71875 5.03125 
Q 38.234375 -1.21875 27.640625 -1.21875 
Q 17.046875 -1.21875 10.546875 5.046875 
Q 4.046875 11.328125 4.046875 20.703125 
Q 4.046875 27.6875 7.59375 32.390625 
Q 11.140625 37.109375 17.671875 38.8125 
z
M 15.921875 53.71875 
Q 15.921875 48.640625 19.1875 45.40625 
Q 22.46875 42.1875 27.6875 42.1875 
Q 32.765625 42.1875 36.015625 45.375 
Q 39.265625 48.578125 39.265625 53.21875 
Q 39.265625 58.0625 35.90625 61.359375 
Q 32.5625 64.65625 27.59375 64.65625 
Q 22.5625 64.65625 19.234375 61.421875 
Q 15.921875 58.203125 15.921875 53.71875 
z
M 13.09375 20.65625 
Q 13.09375 16.890625 14.875 13.375 
Q 16.65625 9.859375 20.171875 7.921875 
Q 23.6875 6 27.734375 6 
Q 34.03125 6 38.125 10.046875 
Q 42.234375 14.109375 42.234375 20.359375 
Q 42.234375 26.703125 38.015625 30.859375 
Q 33.796875 35.015625 27.4375 35.015625 
Q 21.234375 35.015625 17.15625 30.90625 
Q 13.09375 26.8125 13.09375 20.65625 
z
" id="ArialMT-56"/>
       </defs>
       <use xlink:href="#ArialMT-48"/>
       <use x="55.615234" xlink:href="#ArialMT-46"/>
       <use x="83.398438" xlink:href="#ArialMT-56"/>
      </g>
     </g>
    </g>
    <g id="xtick_6">
     <g id="line2d_6">
      <g>
       <use style="stroke:#000000;stroke-width:0.8;" x="200.36" xlink:href="#mbcda910ecc" y="174.11"/>
      </g>
     </g>
     <g id="text_6">
      <!-- 1.0 -->
      <g transform="translate(193.41 188.267812)scale(0.1 -0.1)">
       <defs>
        <path d="M 37.25 0 
L 28.46875 0 
L 28.46875 56 
Q 25.296875 52.984375 20.140625 49.953125 
Q 14.984375 46.921875 10.890625 45.40625 
L 10.890625 53.90625 
Q 18.265625 57.375 23.78125 62.296875 
Q 29.296875 67.234375 31.59375 71.875 
L 37.25 71.875 
z
" id="ArialMT-49"/>
       </defs>
       <use xlink:href="#ArialMT-49"/>
       <use x="55.615234" xlink:href="#ArialMT-46"/>
       <use x="83.398438" xlink:href="#ArialMT-48"/>
      </g>
     </g>
    </g>
    <g id="text_7">
     <!-- False Positive Rate -->
     <g transform="translate(78.428125 201.413125)scale(0.1 -0.1)">
      <defs>
       <path d="M 8.203125 0 
L 8.203125 71.578125 
L 56.5 71.578125 
L 56.5 63.140625 
L 17.671875 63.140625 
L 17.671875 40.96875 
L 51.265625 40.96875 
L 51.265625 32.515625 
L 17.671875 32.515625 
L 17.671875 0 
z
" id="ArialMT-70"/>
       <path d="M 40.4375 6.390625 
Q 35.546875 2.25 31.03125 0.53125 
Q 26.515625 -1.171875 21.34375 -1.171875 
Q 12.796875 -1.171875 8.203125 3 
Q 3.609375 7.171875 3.609375 13.671875 
Q 3.609375 17.484375 5.34375 20.625 
Q 7.078125 23.78125 9.890625 25.6875 
Q 12.703125 27.59375 16.21875 28.5625 
Q 18.796875 29.25 24.03125 29.890625 
Q 34.671875 31.15625 39.703125 32.90625 
Q 39.75 34.71875 39.75 35.203125 
Q 39.75 40.578125 37.25 42.78125 
Q 33.890625 45.75 27.25 45.75 
Q 21.046875 45.75 18.09375 43.578125 
Q 15.140625 41.40625 13.71875 35.890625 
L 5.125 37.0625 
Q 6.296875 42.578125 8.984375 45.96875 
Q 11.671875 49.359375 16.75 51.1875 
Q 21.828125 53.03125 28.515625 53.03125 
Q 35.15625 53.03125 39.296875 51.46875 
Q 43.453125 49.90625 45.40625 47.53125 
Q 47.359375 45.171875 48.140625 41.546875 
Q 48.578125 39.3125 48.578125 33.453125 
L 48.578125 21.734375 
Q 48.578125 9.46875 49.140625 6.21875 
Q 49.703125 2.984375 51.375 0 
L 42.1875 0 
Q 40.828125 2.734375 40.4375 6.390625 
z
M 39.703125 26.03125 
Q 34.90625 24.078125 25.34375 22.703125 
Q 19.921875 21.921875 17.671875 20.9375 
Q 15.4375 19.96875 14.203125 18.09375 
Q 12.984375 16.21875 12.984375 13.921875 
Q 12.984375 10.40625 15.640625 8.0625 
Q 18.3125 5.71875 23.4375 5.71875 
Q 28.515625 5.71875 32.46875 7.9375 
Q 36.421875 10.15625 38.28125 14.015625 
Q 39.703125 17 39.703125 22.796875 
z
" id="ArialMT-97"/>
       <path d="M 6.390625 0 
L 6.390625 71.578125 
L 15.1875 71.578125 
L 15.1875 0 
z
" id="ArialMT-108"/>
       <path d="M 3.078125 15.484375 
L 11.765625 16.84375 
Q 12.5 11.625 15.84375 8.84375 
Q 19.1875 6.0625 25.203125 6.0625 
Q 31.25 6.0625 34.171875 8.515625 
Q 37.109375 10.984375 37.109375 14.3125 
Q 37.109375 17.28125 34.515625 19 
Q 32.71875 20.171875 25.53125 21.96875 
Q 15.875 24.421875 12.140625 26.203125 
Q 8.40625 27.984375 6.46875 31.125 
Q 4.546875 34.28125 4.546875 38.09375 
Q 4.546875 41.546875 6.125 44.5 
Q 7.71875 47.46875 10.453125 49.421875 
Q 12.5 50.921875 16.03125 51.96875 
Q 19.578125 53.03125 23.640625 53.03125 
Q 29.734375 53.03125 34.34375 51.265625 
Q 38.96875 49.515625 41.15625 46.5 
Q 43.359375 43.5 44.1875 38.484375 
L 35.59375 37.3125 
Q 35.015625 41.3125 32.203125 43.546875 
Q 29.390625 45.796875 24.265625 45.796875 
Q 18.21875 45.796875 15.625 43.796875 
Q 13.03125 41.796875 13.03125 39.109375 
Q 13.03125 37.40625 14.109375 36.03125 
Q 15.1875 34.625 17.484375 33.6875 
Q 18.796875 33.203125 25.25 31.453125 
Q 34.578125 28.953125 38.25 27.359375 
Q 41.9375 25.78125 44.03125 22.75 
Q 46.140625 19.734375 46.140625 15.234375 
Q 46.140625 10.84375 43.578125 6.953125 
Q 41.015625 3.078125 36.171875 0.953125 
Q 31.34375 -1.171875 25.25 -1.171875 
Q 15.140625 -1.171875 9.84375 3.03125 
Q 4.546875 7.234375 3.078125 15.484375 
z
" id="ArialMT-115"/>
       <path d="M 42.09375 16.703125 
L 51.171875 15.578125 
Q 49.03125 7.625 43.21875 3.21875 
Q 37.40625 -1.171875 28.375 -1.171875 
Q 17 -1.171875 10.328125 5.828125 
Q 3.65625 12.84375 3.65625 25.484375 
Q 3.65625 38.578125 10.390625 45.796875 
Q 17.140625 53.03125 27.875 53.03125 
Q 38.28125 53.03125 44.875 45.953125 
Q 51.46875 38.875 51.46875 26.03125 
Q 51.46875 25.25 51.421875 23.6875 
L 12.75 23.6875 
Q 13.234375 15.140625 17.578125 10.59375 
Q 21.921875 6.0625 28.421875 6.0625 
Q 33.25 6.0625 36.671875 8.59375 
Q 40.09375 11.140625 42.09375 16.703125 
z
M 13.234375 30.90625 
L 42.1875 30.90625 
Q 41.609375 37.453125 38.875 40.71875 
Q 34.671875 45.796875 27.984375 45.796875 
Q 21.921875 45.796875 17.796875 41.75 
Q 13.671875 37.703125 13.234375 30.90625 
z
" id="ArialMT-101"/>
       <path id="ArialMT-32"/>
       <path d="M 7.71875 0 
L 7.71875 71.578125 
L 34.71875 71.578125 
Q 41.84375 71.578125 45.609375 70.90625 
Q 50.875 70.015625 54.4375 67.546875 
Q 58.015625 65.09375 60.1875 60.640625 
Q 62.359375 56.203125 62.359375 50.875 
Q 62.359375 41.75 56.546875 35.421875 
Q 50.734375 29.109375 35.546875 29.109375 
L 17.1875 29.109375 
L 17.1875 0 
z
M 17.1875 37.546875 
L 35.6875 37.546875 
Q 44.875 37.546875 48.734375 40.96875 
Q 52.59375 44.390625 52.59375 50.59375 
Q 52.59375 55.078125 50.3125 58.265625 
Q 48.046875 61.46875 44.34375 62.5 
Q 41.9375 63.140625 35.5 63.140625 
L 17.1875 63.140625 
z
" id="ArialMT-80"/>
       <path d="M 3.328125 25.921875 
Q 3.328125 40.328125 11.328125 47.265625 
Q 18.015625 53.03125 27.640625 53.03125 
Q 38.328125 53.03125 45.109375 46.015625 
Q 51.90625 39.015625 51.90625 26.65625 
Q 51.90625 16.65625 48.90625 10.90625 
Q 45.90625 5.171875 40.15625 2 
Q 34.421875 -1.171875 27.640625 -1.171875 
Q 16.75 -1.171875 10.03125 5.8125 
Q 3.328125 12.796875 3.328125 25.921875 
z
M 12.359375 25.921875 
Q 12.359375 15.96875 16.703125 11.015625 
Q 21.046875 6.0625 27.640625 6.0625 
Q 34.1875 6.0625 38.53125 11.03125 
Q 42.875 16.015625 42.875 26.21875 
Q 42.875 35.84375 38.5 40.796875 
Q 34.125 45.75 27.640625 45.75 
Q 21.046875 45.75 16.703125 40.8125 
Q 12.359375 35.890625 12.359375 25.921875 
z
" id="ArialMT-111"/>
       <path d="M 6.640625 61.46875 
L 6.640625 71.578125 
L 15.4375 71.578125 
L 15.4375 61.46875 
z
M 6.640625 0 
L 6.640625 51.859375 
L 15.4375 51.859375 
L 15.4375 0 
z
" id="ArialMT-105"/>
       <path d="M 25.78125 7.859375 
L 27.046875 0.09375 
Q 23.34375 -0.6875 20.40625 -0.6875 
Q 15.625 -0.6875 12.984375 0.828125 
Q 10.359375 2.34375 9.28125 4.8125 
Q 8.203125 7.28125 8.203125 15.1875 
L 8.203125 45.015625 
L 1.765625 45.015625 
L 1.765625 51.859375 
L 8.203125 51.859375 
L 8.203125 64.703125 
L 16.9375 69.96875 
L 16.9375 51.859375 
L 25.78125 51.859375 
L 25.78125 45.015625 
L 16.9375 45.015625 
L 16.9375 14.703125 
Q 16.9375 10.9375 17.40625 9.859375 
Q 17.875 8.796875 18.921875 8.15625 
Q 19.96875 7.515625 21.921875 7.515625 
Q 23.390625 7.515625 25.78125 7.859375 
z
" id="ArialMT-116"/>
       <path d="M 21 0 
L 1.265625 51.859375 
L 10.546875 51.859375 
L 21.6875 20.796875 
Q 23.484375 15.765625 25 10.359375 
Q 26.171875 14.453125 28.265625 20.21875 
L 39.796875 51.859375 
L 48.828125 51.859375 
L 29.203125 0 
z
" id="ArialMT-118"/>
       <path d="M 7.859375 0 
L 7.859375 71.578125 
L 39.59375 71.578125 
Q 49.171875 71.578125 54.140625 69.640625 
Q 59.125 67.71875 62.109375 62.828125 
Q 65.09375 57.953125 65.09375 52.046875 
Q 65.09375 44.4375 60.15625 39.203125 
Q 55.21875 33.984375 44.921875 32.5625 
Q 48.6875 30.765625 50.640625 29 
Q 54.78125 25.203125 58.5 19.484375 
L 70.953125 0 
L 59.03125 0 
L 49.5625 14.890625 
Q 45.40625 21.34375 42.71875 24.75 
Q 40.046875 28.171875 37.921875 29.53125 
Q 35.796875 30.90625 33.59375 31.453125 
Q 31.984375 31.78125 28.328125 31.78125 
L 17.328125 31.78125 
L 17.328125 0 
z
M 17.328125 39.984375 
L 37.703125 39.984375 
Q 44.1875 39.984375 47.84375 41.328125 
Q 51.515625 42.671875 53.421875 45.625 
Q 55.328125 48.578125 55.328125 52.046875 
Q 55.328125 57.125 51.640625 60.390625 
Q 47.953125 63.671875 39.984375 63.671875 
L 17.328125 63.671875 
z
" id="ArialMT-82"/>
      </defs>
      <use xlink:href="#ArialMT-70"/>
      <use x="61.083984" xlink:href="#ArialMT-97"/>
      <use x="116.699219" xlink:href="#ArialMT-108"/>
      <use x="138.916016" xlink:href="#ArialMT-115"/>
      <use x="188.916016" xlink:href="#ArialMT-101"/>
      <use x="244.53125" xlink:href="#ArialMT-32"/>
      <use x="272.314453" xlink:href="#ArialMT-80"/>
      <use x="339.013672" xlink:href="#ArialMT-111"/>
      <use x="394.628906" xlink:href="#ArialMT-115"/>
      <use x="444.628906" xlink:href="#ArialMT-105"/>
      <use x="466.845703" xlink:href="#ArialMT-116"/>
      <use x="494.628906" xlink:href="#ArialMT-105"/>
      <use x="516.845703" xlink:href="#ArialMT-118"/>
      <use x="566.845703" xlink:href="#ArialMT-101"/>
      <use x="622.460938" xlink:href="#ArialMT-32"/>
      <use x="650.244141" xlink:href="#ArialMT-82"/>
      <use x="722.460938" xlink:href="#ArialMT-97"/>
      <use x="778.076172" xlink:href="#ArialMT-116"/>
      <use x="805.859375" xlink:href="#ArialMT-101"/>
     </g>
    </g>
   </g>
   <g id="matplotlib.axis_2">
    <g id="ytick_1">
     <g id="line2d_7">
      <defs>
       <path d="M 0 0 
L -3.5 0 
" id="m3559fd83c6" style="stroke:#000000;stroke-width:0.8;"/>
      </defs>
      <g>
       <use style="stroke:#000000;stroke-width:0.8;" x="42.64" xlink:href="#m3559fd83c6" y="174.11"/>
      </g>
     </g>
     <g id="text_8">
      <!-- 0.0 -->
      <g transform="translate(21.74 177.688906)scale(0.1 -0.1)">
       <use xlink:href="#ArialMT-48"/>
       <use x="55.615234" xlink:href="#ArialMT-46"/>
       <use x="83.398438" xlink:href="#ArialMT-48"/>
      </g>
     </g>
    </g>
    <g id="ytick_2">
     <g id="line2d_8">
      <g>
       <use style="stroke:#000000;stroke-width:0.8;" x="42.64" xlink:href="#m3559fd83c6" y="142.566"/>
      </g>
     </g>
     <g id="text_9">
      <!-- 0.2 -->
      <g transform="translate(21.74 146.144906)scale(0.1 -0.1)">
       <use xlink:href="#ArialMT-48"/>
       <use x="55.615234" xlink:href="#ArialMT-46"/>
       <use x="83.398438" xlink:href="#ArialMT-50"/>
      </g>
     </g>
    </g>
    <g id="ytick_3">
     <g id="line2d_9">
      <g>
       <use style="stroke:#000000;stroke-width:0.8;" x="42.64" xlink:href="#m3559fd83c6" y="111.022"/>
      </g>
     </g>
     <g id="text_10">
      <!-- 0.4 -->
      <g transform="translate(21.74 114.600906)scale(0.1 -0.1)">
       <use xlink:href="#ArialMT-48"/>
       <use x="55.615234" xlink:href="#ArialMT-46"/>
       <use x="83.398438" xlink:href="#ArialMT-52"/>
      </g>
     </g>
    </g>
    <g id="ytick_4">
     <g id="line2d_10">
      <g>
       <use style="stroke:#000000;stroke-width:0.8;" x="42.64" xlink:href="#m3559fd83c6" y="79.478"/>
      </g>
     </g>
     <g id="text_11">
      <!-- 0.6 -->
      <g transform="translate(21.74 83.056906)scale(0.1 -0.1)">
       <use xlink:href="#ArialMT-48"/>
       <use x="55.615234" xlink:href="#ArialMT-46"/>
       <use x="83.398438" xlink:href="#ArialMT-54"/>
      </g>
     </g>
    </g>
    <g id="ytick_5">
     <g id="line2d_11">
      <g>
       <use style="stroke:#000000;stroke-width:0.8;" x="42.64" xlink:href="#m3559fd83c6" y="47.934"/>
      </g>
     </g>
     <g id="text_12">
      <!-- 0.8 -->
      <g transform="translate(21.74 51.512906)scale(0.1 -0.1)">
       <use xlink:href="#ArialMT-48"/>
       <use x="55.615234" xlink:href="#ArialMT-46"/>
       <use x="83.398438" xlink:href="#ArialMT-56"/>
      </g>
     </g>
    </g>
    <g id="ytick_6">
     <g id="line2d_12">
      <g>
       <use style="stroke:#000000;stroke-width:0.8;" x="42.64" xlink:href="#m3559fd83c6" y="16.39"/>
      </g>
     </g>
     <g id="text_13">
      <!-- 1.0 -->
      <g transform="translate(21.74 19.968906)scale(0.1 -0.1)">
       <use xlink:href="#ArialMT-49"/>
       <use x="55.615234" xlink:href="#ArialMT-46"/>
       <use x="83.398438" xlink:href="#ArialMT-48"/>
      </g>
     </g>
    </g>
    <g id="text_14">
     <!-- True Positive Rate -->
     <g transform="translate(15.7525 136.188281)rotate(-90)scale(0.1 -0.1)">
      <defs>
       <path d="M 25.921875 0 
L 25.921875 63.140625 
L 2.34375 63.140625 
L 2.34375 71.578125 
L 59.078125 71.578125 
L 59.078125 63.140625 
L 35.40625 63.140625 
L 35.40625 0 
z
" id="ArialMT-84"/>
       <path d="M 6.5 0 
L 6.5 51.859375 
L 14.40625 51.859375 
L 14.40625 44 
Q 17.4375 49.515625 20 51.265625 
Q 22.5625 53.03125 25.640625 53.03125 
Q 30.078125 53.03125 34.671875 50.203125 
L 31.640625 42.046875 
Q 28.421875 43.953125 25.203125 43.953125 
Q 22.3125 43.953125 20.015625 42.21875 
Q 17.71875 40.484375 16.75 37.40625 
Q 15.28125 32.71875 15.28125 27.15625 
L 15.28125 0 
z
" id="ArialMT-114"/>
       <path d="M 40.578125 0 
L 40.578125 7.625 
Q 34.515625 -1.171875 24.125 -1.171875 
Q 19.53125 -1.171875 15.546875 0.578125 
Q 11.578125 2.34375 9.640625 5 
Q 7.71875 7.671875 6.9375 11.53125 
Q 6.390625 14.109375 6.390625 19.734375 
L 6.390625 51.859375 
L 15.1875 51.859375 
L 15.1875 23.09375 
Q 15.1875 16.21875 15.71875 13.8125 
Q 16.546875 10.359375 19.234375 8.375 
Q 21.921875 6.390625 25.875 6.390625 
Q 29.828125 6.390625 33.296875 8.421875 
Q 36.765625 10.453125 38.203125 13.9375 
Q 39.65625 17.4375 39.65625 24.078125 
L 39.65625 51.859375 
L 48.4375 51.859375 
L 48.4375 0 
z
" id="ArialMT-117"/>
      </defs>
      <use xlink:href="#ArialMT-84"/>
      <use x="57.333984" xlink:href="#ArialMT-114"/>
      <use x="90.634766" xlink:href="#ArialMT-117"/>
      <use x="146.25" xlink:href="#ArialMT-101"/>
      <use x="201.865234" xlink:href="#ArialMT-32"/>
      <use x="229.648438" xlink:href="#ArialMT-80"/>
      <use x="296.347656" xlink:href="#ArialMT-111"/>
      <use x="351.962891" xlink:href="#ArialMT-115"/>
      <use x="401.962891" xlink:href="#ArialMT-105"/>
      <use x="424.179688" xlink:href="#ArialMT-116"/>
      <use x="451.962891" xlink:href="#ArialMT-105"/>
      <use x="474.179688" xlink:href="#ArialMT-118"/>
      <use x="524.179688" xlink:href="#ArialMT-101"/>
      <use x="579.794922" xlink:href="#ArialMT-32"/>
      <use x="607.578125" xlink:href="#ArialMT-82"/>
      <use x="679.794922" xlink:href="#ArialMT-97"/>
      <use x="735.410156" xlink:href="#ArialMT-116"/>
      <use x="763.193359" xlink:href="#ArialMT-101"/>
     </g>
    </g>
   </g>
   <g id="line2d_13">
    <path clip-path="url(#pe75ae75bb3)" d="M 42.64 174.11 
L 42.741372 172.903985 
L 42.764766 172.836984 
L 42.850543 172.434979 
L 42.912926 172.367978 
L 42.983107 171.965973 
L 43.107873 171.898972 
L 43.217043 171.027961 
L 43.295022 170.96096 
L 43.404193 170.759958 
L 43.513363 170.692957 
L 43.614735 170.290952 
L 43.731704 170.223951 
L 43.833076 170.022948 
L 43.848672 170.022948 
L 43.934449 169.084936 
L 43.981236 169.084936 
L 44.012428 168.682931 
L 44.098204 168.682931 
L 44.199577 168.280926 
L 44.215173 168.280926 
L 44.308747 167.744919 
L 44.378928 167.677918 
L 44.449109 167.476916 
L 44.495896 167.476916 
L 44.558279 167.074911 
L 44.690843 167.00791 
L 44.800014 166.672906 
L 44.831205 166.672906 
L 44.940376 165.600892 
L 44.979365 165.533891 
L 45.080738 164.863883 
L 45.111929 164.796882 
L 45.189908 164.193874 
L 45.291281 164.126873 
L 45.392653 163.456865 
L 45.423845 163.456865 
L 45.470632 163.05486 
L 45.572004 162.987859 
L 45.673377 162.451852 
L 45.69677 162.451852 
L 45.805941 161.647842 
L 45.837132 161.580841 
L 45.946303 161.178836 
L 45.969696 161.111835 
L 46.078867 160.642829 
L 46.125654 160.575828 
L 46.234824 159.972821 
L 46.25042 159.90582 
L 46.343995 159.637816 
L 46.375186 159.637816 
L 46.460963 158.833806 
L 46.593527 158.766805 
L 46.6949 158.163798 
L 46.733889 158.163798 
L 46.827464 157.828794 
L 46.889847 157.761793 
L 46.991219 157.024783 
L 47.030209 156.957782 
L 47.108187 156.555777 
L 47.178368 156.488777 
L 47.287539 156.086771 
L 47.443496 156.019771 
L 47.552667 155.349762 
L 47.560465 155.349762 
L 47.654039 154.813755 
L 47.693029 154.813755 
L 47.778805 154.143747 
L 47.864582 154.076746 
L 47.919167 153.942744 
L 48.067327 153.875743 
L 48.12971 153.473738 
L 48.192093 153.473738 
L 48.301264 153.138734 
L 48.309062 153.138734 
L 48.418232 152.535726 
L 48.441626 152.535726 
L 48.542998 151.865718 
L 48.581988 151.798717 
L 48.675562 151.664715 
L 48.83152 151.597715 
L 48.901701 151.26271 
L 49.003073 151.195709 
L 49.049861 150.860705 
L 49.127839 150.793704 
L 49.229212 150.257698 
L 49.252606 150.257698 
L 49.260403 150.056695 
L 49.400765 149.989694 
L 49.49434 149.65469 
L 49.595712 149.587689 
L 49.673691 149.386686 
L 49.806255 149.319686 
L 49.892032 148.85068 
L 50.016798 148.783679 
L 50.102575 148.381674 
L 50.164958 148.314673 
L 50.250735 147.979669 
L 50.352107 147.912668 
L 50.406692 147.510663 
L 50.586044 147.443662 
L 50.640629 147.175658 
L 50.71081 147.108658 
L 50.796587 146.639652 
L 50.835576 146.639652 
L 50.897959 146.304647 
L 50.991534 146.237647 
L 51.100704 145.835641 
L 51.124098 145.835641 
L 51.124098 145.70164 
L 51.303449 145.634639 
L 51.412619 145.098632 
L 51.467205 145.031631 
L 51.52179 144.89763 
L 51.662152 144.89763 
L 51.771322 144.428624 
L 51.880492 144.361623 
L 51.942876 144.026619 
L 52.020854 143.959618 
L 52.122227 143.624613 
L 52.176812 143.557613 
L 52.270387 143.289609 
L 52.340568 143.222608 
L 52.395153 142.887604 
L 52.457536 142.887604 
L 52.558908 142.418598 
L 52.652483 142.351597 
L 52.722664 142.217596 
L 52.886419 142.150595 
L 52.979994 141.614588 
L 53.096962 141.547587 
L 53.190537 141.212583 
L 53.346495 141.145582 
L 53.346495 141.078581 
L 53.51025 141.01158 
L 53.518048 140.743577 
L 53.712995 140.676576 
L 53.783176 140.408573 
L 53.923538 140.341572 
L 53.993719 140.140569 
L 54.056102 140.073568 
L 54.141879 139.805565 
L 54.235453 139.738564 
L 54.282241 139.604562 
L 54.57856 139.537562 
L 54.57856 139.470561 
L 54.695529 139.470561 
L 54.796901 138.934554 
L 54.929465 138.867553 
L 54.991848 138.532549 
L 55.101018 138.465548 
L 55.194593 138.197545 
L 55.264774 138.130544 
L 55.327157 137.728539 
L 55.444125 137.728539 
L 55.514306 137.393534 
L 55.662466 137.326534 
L 55.724849 136.991529 
L 55.779434 136.991529 
L 55.873009 136.388522 
L 56.021169 136.321521 
L 56.083552 136.053517 
L 56.20052 135.986517 
L 56.270701 135.785514 
L 56.340882 135.785514 
L 56.434457 135.517511 
L 56.489042 135.45051 
L 56.574819 135.316508 
L 56.886734 135.249507 
L 56.964713 134.7135 
L 57.042692 134.7135 
L 57.066085 134.512498 
L 57.183053 134.445497 
L 57.292224 133.976491 
L 57.370203 133.90949 
L 57.479373 133.507485 
L 57.67432 133.507485 
L 57.736703 133.172481 
L 57.799086 133.10548 
L 57.900459 132.770476 
L 57.97064 132.703475 
L 58.048619 132.30147 
L 58.111002 132.234469 
L 58.220172 131.765463 
L 58.243566 131.698462 
L 58.290353 131.430459 
L 58.37613 131.363458 
L 58.454109 131.229456 
L 58.555481 131.162455 
L 58.664651 130.894452 
L 58.719237 130.827451 
L 58.820609 130.090442 
L 58.929779 130.023441 
L 59.023354 129.688437 
L 59.171514 129.621436 
L 59.171514 129.487434 
L 59.304078 129.420433 
L 59.40545 129.219431 
L 59.522419 129.15243 
L 59.631589 128.683424 
L 59.686174 128.683424 
L 59.764153 128.34842 
L 59.857728 128.281419 
L 59.912313 128.080416 
L 60.130654 128.013415 
L 60.200835 127.812413 
L 60.325601 127.745412 
L 60.434771 127.410408 
L 60.473761 127.343407 
L 60.582931 127.142404 
L 60.606325 127.075404 
L 60.606325 127.008403 
L 60.793474 126.941402 
L 60.87925 126.405395 
L 61.004017 126.338394 
L 61.019612 126.137392 
L 61.167772 126.137392 
L 61.222357 125.735387 
L 61.47189 125.668386 
L 61.549868 125.333381 
L 61.659039 125.266381 
L 61.72922 124.931376 
L 61.783805 124.931376 
L 61.869582 124.596372 
L 61.931965 124.529371 
L 62.041135 124.127366 
L 62.09572 124.060365 
L 62.181497 123.725361 
L 62.337455 123.65836 
L 62.415434 123.256355 
L 62.470019 123.189354 
L 62.547998 122.988352 
L 62.711753 122.921351 
L 62.805328 122.787349 
L 62.930094 122.720348 
L 63.039264 122.318343 
L 63.086052 122.251342 
L 63.179626 121.983339 
L 63.234211 121.983339 
L 63.343382 121.648335 
L 63.382371 121.581334 
L 63.468148 121.24633 
L 63.514935 121.179329 
L 63.60851 120.911325 
L 63.748872 120.844325 
L 63.803457 120.643322 
L 64.014 120.576321 
L 64.12317 120.107315 
L 64.146564 120.040314 
L 64.240138 119.772311 
L 64.396096 119.70531 
L 64.505266 119.437307 
L 64.708011 119.370306 
L 64.801586 118.968301 
L 64.926352 118.9013 
L 65.035523 118.633297 
L 65.058916 118.566296 
L 65.168087 118.365293 
L 65.300651 118.298292 
L 65.363034 118.164291 
L 65.542385 118.09729 
L 65.651555 117.896287 
L 65.737332 117.829286 
L 65.846503 117.427281 
L 65.955673 117.36028 
L 66.025854 117.092277 
L 66.251992 117.025276 
L 66.290982 116.891274 
L 66.439142 116.824274 
L 66.524918 116.623271 
L 66.657482 116.55627 
L 66.743259 116.355268 
L 66.797844 116.288267 
L 66.860227 116.087264 
L 66.930408 116.087264 
L 67.031781 115.819261 
L 67.187739 115.75226 
L 67.250122 115.618258 
L 67.398281 115.551257 
L 67.507452 115.283254 
L 67.632218 115.216253 
L 67.632218 115.149252 
L 67.842761 115.082251 
L 67.928538 114.747247 
L 68.084495 114.680246 
L 68.185868 114.412243 
L 68.271644 114.412243 
L 68.380815 114.010238 
L 68.458794 113.943237 
L 68.497783 113.608233 
L 68.614751 113.541232 
L 68.723922 113.139227 
L 68.942262 113.072226 
L 69.051433 112.804223 
L 69.152805 112.737222 
L 69.254178 112.60322 
L 69.347752 112.60322 
L 69.449125 112.335217 
L 69.527104 112.268216 
L 69.597285 112.000212 
L 69.854615 111.933212 
L 69.916998 111.732209 
L 70.174328 111.665208 
L 70.20552 111.531206 
L 70.392669 111.464206 
L 70.439456 111.129201 
L 70.556424 111.062201 
L 70.556424 110.9952 
L 70.696786 110.928199 
L 70.782563 110.727196 
L 70.837148 110.660195 
L 70.930723 110.526194 
L 71.032095 110.459193 
L 71.094478 110.325191 
L 71.27383 110.25819 
L 71.367404 110.057188 
L 71.406394 110.057188 
L 71.49217 109.789184 
L 71.601341 109.722184 
L 71.64033 109.588182 
L 71.804086 109.521181 
L 71.905458 109.387179 
L 71.999033 109.320178 
L 72.100405 109.186177 
L 72.240767 109.186177 
L 72.30315 108.918173 
L 72.544885 108.851172 
L 72.607268 108.717171 
L 72.661853 108.717171 
L 72.755428 108.315166 
L 72.825609 108.248165 
L 72.89579 107.980161 
L 73.059545 107.913161 
L 73.098535 107.779159 
L 73.215503 107.712158 
L 73.285684 107.511155 
L 73.363663 107.444155 
L 73.457237 107.04215 
L 73.543014 106.975149 
L 73.613195 106.640144 
L 73.675578 106.573144 
L 73.77695 106.372141 
L 73.81594 106.30514 
L 73.901717 106.037137 
L 73.9641 105.970136 
L 74.065472 105.434129 
L 74.088866 105.434129 
L 74.198036 104.965123 
L 74.252621 104.898122 
L 74.338398 104.295115 
L 74.377388 104.295115 
L 74.463164 103.89311 
L 74.658111 103.826109 
L 74.73609 103.424104 
L 74.806271 103.357103 
L 74.88425 103.022099 
L 74.946633 102.955098 
L 75.055803 102.687094 
L 75.274144 102.620093 
L 75.383315 102.35209 
L 75.476889 102.285089 
L 75.562666 102.017086 
L 75.687432 102.017086 
L 75.710826 101.816083 
L 75.975954 101.749082 
L 76.077326 101.414078 
L 76.498412 101.347077 
L 76.576391 100.945072 
L 76.779136 100.878071 
L 76.857115 100.74407 
L 76.942891 100.74407 
L 77.036466 100.543067 
L 77.106647 100.476066 
L 77.176828 100.342065 
L 77.441956 100.275064 
L 77.551126 100.00706 
L 77.761669 99.940059 
L 77.761669 99.806058 
L 77.948818 99.739057 
L 78.018999 99.605055 
L 78.260734 99.538054 
L 78.34651 99.069048 
L 78.424489 99.002048 
L 78.424489 98.935047 
L 78.658426 98.935047 
L 78.658426 98.801045 
L 78.907958 98.734044 
L 78.970341 98.533042 
L 79.056118 98.466041 
L 79.110703 98.265038 
L 79.297852 98.198037 
L 79.407023 97.930034 
L 79.539587 97.863033 
L 79.633161 97.662031 
L 79.726736 97.59503 
L 79.781321 97.193025 
L 79.890491 97.193025 
L 79.999662 96.85802 
L 80.124428 96.79102 
L 80.2258 96.590017 
L 80.334971 96.523016 
L 80.389556 96.322014 
L 80.529918 96.255013 
L 80.600099 96.121011 
L 80.717067 96.05401 
L 80.787248 95.719006 
L 80.912014 95.652005 
L 80.912014 95.585004 
L 81.028982 95.585004 
L 81.067972 95.317001 
L 81.22393 95.25 
L 81.309706 95.048997 
L 81.48126 94.981997 
L 81.574834 94.713993 
L 81.598228 94.713993 
L 81.676207 94.378989 
L 81.800973 94.311988 
L 81.878952 94.043985 
L 81.949133 93.976984 
L 82.058303 93.775981 
L 82.183069 93.70898 
L 82.183069 93.64198 
L 82.432602 93.64198 
L 82.502783 93.440977 
L 82.767911 93.440977 
L 82.822496 93.239975 
L 83.040837 93.172974 
L 83.040837 93.105973 
L 83.329358 93.038972 
L 83.430731 92.770969 
L 83.610082 92.703968 
L 83.641274 92.502965 
L 83.87521 92.435964 
L 83.984381 92.167961 
L 84.085753 92.10096 
L 84.155934 91.832957 
L 84.413264 91.765956 
L 84.444456 91.564953 
L 84.506839 91.564953 
L 84.717382 91.497952 
L 84.787563 91.29695 
L 84.865541 91.229949 
L 84.94352 91.028946 
L 85.09168 90.961946 
L 85.09168 90.894945 
L 85.34901 90.827944 
L 85.388 90.559941 
L 85.489372 90.49294 
L 85.520564 90.358938 
L 85.676521 90.291937 
L 85.762298 90.157935 
L 85.926054 90.090935 
L 85.988437 89.889932 
L 86.30815 89.822931 
L 86.409522 89.554928 
L 86.542086 89.487927 
L 86.588874 89.286924 
L 86.721438 89.286924 
L 86.783821 88.95192 
L 87.002162 88.884919 
L 87.002162 88.817918 
L 87.111332 88.817918 
L 87.204907 88.750918 
L 87.290683 88.482914 
L 87.431045 88.415913 
L 87.509024 88.013908 
L 87.548013 88.013908 
L 87.610397 87.678904 
L 87.750758 87.611903 
L 87.836535 87.276899 
L 88.093865 87.209898 
L 88.093865 87.142897 
L 88.327802 87.075896 
L 88.374589 86.941895 
L 88.538345 86.941895 
L 88.538345 86.673891 
L 88.803473 86.60689 
L 88.889249 86.204885 
L 88.982824 86.137884 
L 89.076399 85.869881 
L 89.247952 85.80288 
L 89.349325 85.601878 
L 89.606655 85.534877 
L 89.715825 85.132872 
L 89.778208 85.065871 
L 89.824996 84.931869 
L 89.980953 84.864868 
L 89.980953 84.797867 
L 90.121315 84.730867 
L 90.121315 84.663866 
L 90.32406 84.596865 
L 90.417635 84.328862 
L 90.557997 84.261861 
L 90.557997 84.19486 
L 90.760742 84.127859 
L 90.854316 83.993857 
L 91.080455 83.926856 
L 91.174029 83.524851 
L 91.290998 83.45785 
L 91.400168 83.122846 
L 91.509338 83.055845 
L 91.509338 82.988845 
L 91.883637 82.921844 
L 91.938222 82.787842 
L 92.117573 82.720841 
L 92.211148 82.385837 
L 92.343712 82.318836 
L 92.343712 82.251835 
L 92.476276 82.184834 
L 92.569851 81.916831 
L 92.725808 81.84983 
L 92.834979 81.514826 
L 92.912958 81.447825 
L 92.975341 81.313823 
L 93.131298 81.246822 
L 93.16249 80.911818 
L 93.427618 80.844817 
L 93.474405 80.643815 
L 93.669352 80.576814 
L 93.770725 80.375811 
L 94.012459 80.308811 
L 94.012459 80.24181 
L 94.176215 80.174809 
L 94.277587 79.973806 
L 94.511524 79.906805 
L 94.511524 79.839805 
L 94.729865 79.772804 
L 94.729865 79.705803 
L 94.885822 79.638802 
L 94.885822 79.571801 
L 95.15095 79.5048 
L 95.205535 79.370799 
L 95.392685 79.303798 
L 95.462866 78.968794 
L 95.727994 78.901793 
L 95.805973 78.566788 
L 95.938537 78.499788 
L 95.96193 78.231784 
L 96.203665 78.164783 
L 96.250452 78.030782 
L 96.51558 77.963781 
L 96.51558 77.89678 
L 96.679336 77.829779 
L 96.726123 77.628777 
L 96.843091 77.628777 
L 96.905474 77.427774 
L 96.999049 77.360773 
L 97.108219 77.226771 
L 97.1784 77.159771 
L 97.271975 77.025769 
L 97.420134 76.958768 
L 97.420134 76.891767 
L 97.630677 76.824766 
L 97.700858 76.489762 
L 97.794433 76.489762 
L 97.794433 76.35576 
L 98.106348 76.28876 
L 98.153136 76.020756 
L 98.270104 75.953755 
L 98.324689 75.685752 
L 98.558626 75.618751 
L 98.667796 75.350748 
L 98.761371 75.283747 
L 98.839349 75.149745 
L 99.034296 75.082744 
L 99.143467 74.881742 
L 99.595744 74.814741 
L 99.704914 74.345735 
L 99.775095 74.278734 
L 99.775095 74.211733 
L 100.009032 74.144732 
L 100.040223 74.010731 
L 100.110404 74.010731 
L 100.141596 73.94373 
L 100.250766 73.742727 
L 100.703044 73.675726 
L 100.812214 73.340722 
L 101.147523 73.273721 
L 101.147523 73.20672 
L 101.311279 73.13972 
L 101.326874 73.005718 
L 101.763556 73.005718 
L 101.849333 72.670714 
L 101.997492 72.603713 
L 102.04428 72.40271 
L 102.286014 72.335709 
L 102.387387 72.134707 
L 102.590132 72.067706 
L 102.66811 71.866703 
L 103.081398 71.799703 
L 103.174973 71.531699 
L 103.315335 71.464698 
L 103.424505 71.196695 
L 103.596059 71.129694 
L 103.681835 70.928692 
L 103.829995 70.861691 
L 103.92357 70.727689 
L 104.165304 70.660688 
L 104.165304 70.593687 
L 104.570794 70.526686 
L 104.58639 70.392685 
L 104.796933 70.325684 
L 104.796933 70.258683 
L 104.99188 70.191682 
L 104.99188 70.124681 
L 105.264806 70.057681 
L 105.319391 69.923679 
L 105.50654 69.923679 
L 105.50654 69.789677 
L 105.685891 69.722676 
L 105.685891 69.655675 
L 105.849647 69.588675 
L 105.935424 69.454673 
L 106.044594 69.387672 
L 106.044594 69.320671 
L 106.442286 69.25367 
L 106.442286 69.186669 
L 106.598244 69.119669 
L 106.668425 68.985667 
L 106.949149 68.918666 
L 107.034925 68.717664 
L 107.136298 68.717664 
L 107.245468 68.44966 
L 107.362436 68.382659 
L 107.432617 67.980654 
L 107.64316 67.913653 
L 107.736735 67.64565 
L 107.861501 67.578649 
L 107.955076 67.377647 
L 108.181214 67.310646 
L 108.181214 67.243645 
L 108.438544 67.176644 
L 108.45414 67.042642 
L 108.625694 66.975641 
L 108.664683 66.774639 
L 108.875226 66.707638 
L 108.906417 66.506636 
L 109.109162 66.439635 
L 109.218333 66.171631 
L 109.491259 66.10463 
L 109.592631 65.970629 
L 109.764185 65.903628 
L 109.849961 65.769626 
L 110.419207 65.702625 
L 110.419207 65.635624 
L 110.582963 65.568624 
L 110.62975 65.434622 
L 110.855888 65.367621 
L 110.855888 65.30062 
L 111.105421 65.233619 
L 111.105421 65.166619 
L 111.526506 65.099618 
L 111.565496 64.831614 
L 112.048965 64.764613 
L 112.080156 64.630612 
L 112.329689 64.563611 
L 112.438859 64.161606 
L 112.501242 64.094605 
L 112.501242 63.960603 
L 112.711785 63.893602 
L 112.711785 63.826602 
L 113.132871 63.759601 
L 113.17186 63.424596 
L 113.491573 63.357596 
L 113.585148 62.88859 
L 113.811286 62.821589 
L 113.87367 62.687587 
L 114.107606 62.620586 
L 114.177787 62.352583 
L 114.583277 62.285582 
L 114.583277 62.218581 
L 114.817213 62.15158 
L 114.817213 62.084579 
L 115.214906 62.017579 
L 115.238299 61.883577 
L 115.394257 61.816576 
L 115.487832 61.615573 
L 115.6048 61.548573 
L 115.6048 61.481572 
L 115.846534 61.414571 
L 115.947907 61.213568 
L 116.400184 61.146568 
L 116.470365 60.878564 
L 116.618525 60.811563 
L 116.618525 60.744562 
L 116.883653 60.677562 
L 116.985025 60.342557 
L 117.140983 60.275556 
L 117.242355 60.074554 
L 117.421707 60.007553 
L 117.421707 59.940552 
L 117.640047 59.873551 
L 117.640047 59.806551 
L 117.780409 59.806551 
L 117.780409 59.605548 
L 118.068931 59.538547 
L 118.162506 59.337545 
L 118.271676 59.270544 
L 118.373049 59.069541 
L 118.474421 59.00254 
L 118.583591 58.801538 
L 118.801932 58.734537 
L 118.856517 58.600535 
L 118.965688 58.533534 
L 118.965688 58.399533 
L 119.121645 58.399533 
L 119.121645 58.265531 
L 119.339986 58.265531 
L 119.339986 58.131529 
L 119.519337 58.064528 
L 119.605114 57.595523 
L 119.761072 57.595523 
L 119.862444 57.39452 
L 120.127572 57.327519 
L 120.127572 57.260518 
L 120.3927 57.193517 
L 120.3927 57.126517 
L 120.57985 57.059516 
L 120.642233 56.925514 
L 121.211478 56.858513 
L 121.305053 56.657511 
L 121.632564 56.59051 
L 121.632564 56.523509 
L 121.843107 56.456508 
L 121.90549 56.322506 
L 122.427948 56.255506 
L 122.451342 56.121504 
L 122.71647 56.054503 
L 122.794449 55.920501 
L 123.433875 55.8535 
L 123.441673 55.719499 
L 123.753588 55.652498 
L 123.800376 55.518496 
L 123.971929 55.451495 
L 123.995323 55.04949 
L 124.291642 54.982489 
L 124.291642 54.915489 
L 124.525579 54.848488 
L 124.525579 54.781487 
L 124.798505 54.714486 
L 124.798505 54.647485 
L 125.016846 54.580484 
L 125.11042 54.24548 
L 125.289772 54.178479 
L 125.297569 54.044477 
L 125.796634 53.977477 
L 125.796634 53.843475 
L 126.007177 53.776474 
L 126.007177 53.709473 
L 126.350284 53.642472 
L 126.443858 53.44147 
L 126.740178 53.374469 
L 126.802561 53.240467 
L 127.161264 53.173466 
L 127.184657 53.039465 
L 127.590147 52.972464 
L 127.668126 52.63746 
L 127.972244 52.570459 
L 128.034627 52.369456 
L 128.229574 52.302455 
L 128.299755 52.101453 
L 128.705245 52.034452 
L 128.705245 51.967451 
L 129.032756 51.90045 
L 129.032756 51.833449 
L 129.492831 51.766449 
L 129.492831 51.699448 
L 129.750161 51.632447 
L 129.796948 51.431444 
L 129.890523 51.364444 
L 129.906119 51.230442 
L 130.194641 51.163441 
L 130.241428 51.029439 
L 130.3428 50.962438 
L 130.3428 50.895438 
L 130.654716 50.828437 
L 130.670311 50.694435 
L 130.990025 50.627434 
L 130.990025 50.560433 
L 131.286344 50.493432 
L 131.286344 50.426432 
L 131.465696 50.359431 
L 131.567068 50.024427 
L 132.034941 49.957426 
L 132.042739 49.823424 
L 132.385846 49.823424 
L 132.385846 49.689422 
L 132.689963 49.622421 
L 132.689963 49.555421 
L 132.830325 49.48842 
L 132.853719 49.354418 
L 133.07206 49.287417 
L 133.095453 49.153415 
L 133.305996 49.086415 
L 133.383975 48.885412 
L 133.407369 48.885412 
L 133.906433 48.818411 
L 133.984412 48.617409 
L 134.046795 48.550408 
L 134.062391 48.416406 
L 134.343115 48.349405 
L 134.343115 48.282404 
L 134.725211 48.215404 
L 134.779796 48.014401 
L 135.333446 47.9474 
L 135.333446 47.880399 
L 135.645361 47.813398 
L 135.731138 47.612396 
L 136.191213 47.545395 
L 136.300384 47.210391 
L 136.339373 47.14339 
L 136.409554 47.009388 
L 136.729267 46.942387 
L 136.729267 46.875387 
L 136.986597 46.808386 
L 137.080172 46.473381 
L 137.220534 46.406381 
L 137.282917 46.205378 
L 137.438875 46.138377 
L 137.548045 45.937375 
L 137.618226 45.937375 
L 137.618226 45.803373 
L 137.906748 45.736372 
L 137.984727 45.53537 
L 138.26545 45.468369 
L 138.26545 45.334367 
L 138.507185 45.267366 
L 138.592962 45.066364 
L 138.748919 44.999363 
L 138.842494 44.865361 
L 138.928271 44.79836 
L 138.928271 44.731359 
L 139.107622 44.664359 
L 139.107622 44.597358 
L 139.450729 44.530357 
L 139.513112 44.396355 
L 139.754846 44.329354 
L 139.825027 44.195353 
L 139.957591 44.128352 
L 140.051166 43.860348 
L 140.370879 43.793347 
L 140.370879 43.726347 
L 140.480049 43.726347 
L 140.799763 43.659346 
L 140.901135 43.458343 
L 141.220848 43.391342 
L 141.236444 43.257341 
L 141.595147 43.19034 
L 141.595147 43.056338 
L 141.813488 42.989337 
L 141.899264 42.788335 
L 142.078616 42.721334 
L 142.078616 42.654333 
L 142.819415 42.587332 
L 142.819415 42.520331 
L 143.224905 42.453331 
L 143.224905 42.38633 
L 143.692778 42.319329 
L 143.692778 42.252328 
L 144.012491 42.185327 
L 144.012491 42.118326 
L 144.839067 42.051325 
L 144.917045 41.783322 
L 145.143184 41.716321 
L 145.228961 41.582319 
L 145.486291 41.515319 
L 145.587663 41.314316 
L 145.883983 41.314316 
L 145.883983 41.180314 
L 146.102324 41.113314 
L 146.195898 40.912311 
L 146.328462 40.84531 
L 146.406441 40.577307 
L 146.59359 40.510306 
L 146.694963 40.376304 
L 147.14724 40.309303 
L 147.18623 40.175302 
L 147.40457 40.108301 
L 147.474751 39.840297 
L 147.70089 39.773297 
L 147.70089 39.706296 
L 147.927029 39.639295 
L 147.927029 39.572294 
L 148.160965 39.505293 
L 148.176561 39.371291 
L 148.722413 39.304291 
L 148.792594 39.103288 
L 149.151296 39.036287 
L 149.182488 38.902285 
L 149.463212 38.835285 
L 149.463212 38.768284 
L 149.494403 38.768284 
L 149.658159 38.701283 
L 149.767329 38.50028 
L 150.087042 38.43328 
L 150.087042 38.366279 
L 150.274192 38.299278 
L 150.274192 38.232277 
L 150.508128 38.165276 
L 150.508128 38.098275 
L 151.124161 38.031274 
L 151.147555 37.897273 
L 151.342502 37.897273 
L 151.420481 37.69627 
L 151.529651 37.629269 
L 151.537449 37.562268 
L 151.872758 37.495268 
L 151.872758 37.428267 
L 152.16128 37.361266 
L 152.254854 37.160263 
L 152.847493 37.093263 
L 152.902079 36.959261 
L 153.073632 36.89226 
L 153.112621 36.758258 
L 153.369952 36.691257 
L 153.377749 36.490255 
L 153.697463 36.423254 
L 153.697463 36.356253 
L 153.861218 36.289252 
L 153.954793 36.155251 
L 154.14974 36.08825 
L 154.251112 35.954248 
L 154.461655 35.887247 
L 154.55523 35.753246 
L 154.757975 35.686245 
L 154.843752 35.485242 
L 155.210252 35.418241 
L 155.210252 35.35124 
L 155.47538 35.28424 
L 155.561157 35.150238 
L 155.73271 35.083237 
L 155.73271 35.016236 
L 156.184988 34.949235 
L 156.294158 34.748233 
L 156.333147 34.681232 
L 156.333147 34.614231 
L 156.520297 34.54723 
L 156.58268 34.346228 
L 156.629467 34.346228 
L 156.910191 34.279227 
L 156.910191 34.145225 
L 157.011563 34.145225 
L 157.136329 34.145225 
L 157.144127 33.944223 
L 157.76016 33.877222 
L 157.830341 33.74322 
L 157.869331 33.74322 
L 157.900522 33.676219 
L 157.978501 33.475217 
L 158.040884 33.475217 
L 158.040884 33.341215 
L 158.508757 33.274214 
L 158.57114 33.140212 
L 158.594534 33.140212 
L 158.805077 33.073212 
L 158.805077 33.006211 
L 158.851864 33.006211 
L 159.132588 32.93921 
L 159.155981 32.805208 
L 159.483493 32.738207 
L 159.483493 32.671206 
L 159.795408 32.604206 
L 159.888982 32.403203 
L 160.177504 32.336202 
L 160.177504 32.269201 
L 160.380249 32.202201 
L 160.458228 31.934197 
L 160.660973 31.867196 
L 160.660973 31.800195 
L 161.167835 31.733195 
L 161.277006 31.465191 
L 161.620113 31.39819 
L 161.643506 31.197188 
L 161.893039 31.197188 
L 161.994411 30.929184 
L 162.32972 30.862184 
L 162.32972 30.795183 
L 162.470082 30.795183 
L 162.548061 30.527179 
L 162.672827 30.527179 
L 162.727412 30.259176 
L 162.797593 30.259176 
L 162.88337 29.924172 
L 163.132902 29.857171 
L 163.218679 29.723169 
L 163.476009 29.656168 
L 163.476009 29.589167 
L 163.748935 29.522167 
L 163.748935 29.455166 
L 163.936084 29.388165 
L 163.967276 29.120161 
L 164.09984 29.120161 
L 164.09984 28.98616 
L 164.427351 28.919159 
L 164.427351 28.852158 
L 164.676883 28.785157 
L 164.786054 28.517154 
L 164.926416 28.450153 
L 164.957607 28.316151 
L 165.183746 28.24915 
L 165.285118 27.981147 
L 165.487863 27.914146 
L 165.487863 27.847145 
L 165.791981 27.780144 
L 165.862162 27.646143 
L 166.439205 27.579142 
L 166.439205 27.512141 
L 166.673142 27.44514 
L 166.673142 27.378139 
L 166.907078 27.311138 
L 166.977259 27.110136 
L 167.187802 27.043135 
L 167.187802 26.976134 
L 167.335962 26.976134 
L 167.335962 26.842133 
L 167.889611 26.775132 
L 167.96759 26.507128 
L 168.341889 26.440127 
L 168.341889 26.373127 
L 168.716187 26.306126 
L 168.716187 26.239125 
L 169.051496 26.172124 
L 169.051496 26.105123 
L 169.48038 26.038122 
L 169.48038 25.971121 
L 170.166593 25.971121 
L 170.244572 25.770119 
L 170.540892 25.703118 
L 170.540892 25.636117 
L 170.969776 25.569116 
L 170.969776 25.502116 
L 171.336276 25.435115 
L 171.336276 25.368114 
L 172.084873 25.301113 
L 172.084873 25.234112 
L 172.186245 25.234112 
L 172.381193 25.167111 
L 172.381193 25.10011 
L 172.802278 25.03311 
L 172.888055 24.899108 
L 173.223364 24.832107 
L 173.316939 24.698105 
L 173.60546 24.631105 
L 173.60546 24.564104 
L 173.925174 24.497103 
L 173.925174 24.430102 
L 174.463228 24.363101 
L 174.463228 24.2961 
L 174.743951 24.229099 
L 174.767345 24.095098 
L 174.954494 24.028097 
L 174.954494 23.961096 
L 175.157239 23.961096 
L 175.157239 23.827094 
L 176.155368 23.760093 
L 176.18656 23.626092 
L 176.568656 23.559091 
L 176.568656 23.49209 
L 176.763603 23.425089 
L 176.872774 23.224087 
L 177.340647 23.157086 
L 177.426423 22.956083 
L 177.66036 22.889082 
L 177.746137 22.68808 
L 178.447946 22.621079 
L 178.447946 22.554078 
L 178.814447 22.487077 
L 178.814447 22.420076 
L 179.453873 22.353076 
L 179.524054 22.219074 
L 179.703406 22.219074 
L 179.703406 22.085072 
L 180.116693 22.018071 
L 180.116693 21.951071 
L 180.818503 21.88407 
L 180.818503 21.750068 
L 181.699664 21.683067 
L 181.808834 21.549065 
L 182.089558 21.482065 
L 182.089558 21.415064 
L 182.463856 21.348063 
L 182.463856 21.281062 
L 182.799165 21.214061 
L 182.799165 21.14706 
L 182.962921 21.080059 
L 183.009708 20.879057 
L 183.391805 20.812056 
L 183.391805 20.745055 
L 183.867476 20.678054 
L 183.914263 20.544053 
L 184.311955 20.477052 
L 184.421125 20.209048 
L 184.935786 20.142048 
L 184.935786 20.075047 
L 185.660989 20.008046 
L 185.660989 19.941045 
L 186.604533 19.874044 
L 186.604533 19.807043 
L 187.041214 19.740042 
L 187.088002 19.53904 
L 187.594864 19.472039 
L 187.594864 19.405038 
L 188.078333 19.338037 
L 188.078333 19.271037 
L 188.897111 19.204036 
L 188.897111 19.137035 
L 189.575527 19.070034 
L 189.575527 19.003033 
L 190.96355 18.936032 
L 190.96355 18.869031 
L 191.462614 18.802031 
L 191.462614 18.73503 
L 191.977275 18.668029 
L 191.977275 18.601028 
L 192.148828 18.534027 
L 192.219009 18.333025 
L 192.84284 18.266024 
L 192.84284 18.199023 
L 193.349702 18.132022 
L 193.349702 18.065021 
L 194.02032 17.99802 
L 194.02032 17.93102 
L 194.885885 17.864019 
L 194.885885 17.797018 
L 195.12762 17.730017 
L 195.12762 17.663016 
L 195.49412 17.596015 
L 195.49412 17.529014 
L 196.180334 17.462014 
L 196.180334 17.395013 
L 196.539037 17.328012 
L 196.554633 17.19401 
L 197.287634 17.127009 
L 197.287634 17.060008 
L 197.466985 16.993008 
L 197.466985 16.926007 
L 197.708719 16.859006 
L 197.708719 16.792005 
L 198.215582 16.725004 
L 198.215582 16.658003 
L 198.948583 16.591003 
L 198.948583 16.524002 
L 199.2527 16.457001 
L 199.2527 16.39 
L 200.36 16.39 
L 200.36 16.39 
" style="fill:none;stroke:#228b22;stroke-linecap:square;stroke-opacity:0.7;stroke-width:1.5;"/>
   </g>
   <g id="line2d_14">
    <path clip-path="url(#pe75ae75bb3)" d="M 42.64 174.11 
L 44.233131 169.517643 
L 45.826263 163.837629 
L 47.419394 158.132895 
L 49.012525 153.473939 
L 50.605657 149.806106 
L 52.198788 146.189479 
L 53.791919 143.120323 
L 55.385051 140.675116 
L 56.978182 137.731062 
L 58.571313 134.284983 
L 60.164444 130.969833 
L 61.757576 128.235537 
L 63.350707 125.055264 
L 64.943838 122.059033 
L 66.53697 119.779707 
L 68.130101 117.758789 
L 69.723232 115.196916 
L 71.316364 113.325321 
L 72.909495 111.49279 
L 74.502626 108.085117 
L 76.095758 104.838833 
L 77.688889 103.205398 
L 79.28202 101.513337 
L 80.875152 99.13017 
L 82.468283 96.827345 
L 84.061414 95.434455 
L 85.654545 93.663861 
L 87.247677 91.910494 
L 88.840808 89.751817 
L 90.433939 87.730984 
L 92.027071 85.946272 
L 93.620202 83.958645 
L 95.213333 82.577071 
L 96.806465 80.881205 
L 98.399596 79.109888 
L 99.992727 77.418213 
L 101.585859 76.068752 
L 103.17899 74.705783 
L 104.772121 73.399861 
L 106.365253 72.320709 
L 107.958384 70.728831 
L 109.551515 69.08849 
L 111.144646 68.163155 
L 112.737778 67.010934 
L 114.330909 65.424615 
L 115.92404 64.313106 
L 117.517172 62.924906 
L 119.110303 61.323794 
L 120.703434 59.765508 
L 122.296566 58.976834 
L 123.889697 58.18217 
L 125.482828 56.884593 
L 127.07596 55.924514 
L 128.669091 54.824464 
L 130.262222 53.888329 
L 131.855354 52.77907 
L 133.448485 51.749507 
L 135.041616 50.705818 
L 136.634747 49.760483 
L 138.227879 48.23679 
L 139.82101 46.900867 
L 141.414141 45.834027 
L 143.007273 45.061077 
L 144.600404 44.562696 
L 146.193535 43.524434 
L 147.786667 42.272211 
L 149.379798 41.294054 
L 150.972929 40.383873 
L 152.566061 39.468199 
L 154.159192 38.408097 
L 155.752323 37.353288 
L 157.345455 36.171395 
L 158.938586 35.095615 
L 160.531717 34.095545 
L 162.124848 32.982693 
L 163.71798 31.392167 
L 165.311111 29.921818 
L 166.904242 28.923853 
L 168.497374 27.976115 
L 170.090505 27.400156 
L 171.683636 26.802403 
L 173.276768 26.229251 
L 174.869899 25.516826 
L 176.46303 24.896217 
L 178.056162 23.983851 
L 179.649293 23.453091 
L 181.242424 22.873914 
L 182.835556 22.28512 
L 184.428687 21.438922 
L 186.021818 20.870409 
L 187.614949 20.365005 
L 189.208081 19.99141 
L 190.801212 19.78339 
L 192.394343 19.091658 
L 193.987475 18.618522 
L 195.580606 18.095805 
L 197.173737 17.601113 
L 198.766869 16.836552 
L 200.36 16.39 
" style="fill:none;stroke:#32cd32;stroke-dasharray:5.55,2.4;stroke-dashoffset:0;stroke-opacity:0.7;stroke-width:1.5;"/>
   </g>
   <g id="line2d_15">
    <path clip-path="url(#pe75ae75bb3)" d="M 42.64 174.11 
L 44.233131 166.76784 
L 45.826263 159.454972 
L 47.419394 153.376506 
L 49.012525 148.369625 
L 50.605657 144.446613 
L 52.198788 140.53894 
L 53.791919 137.669926 
L 55.385051 134.689605 
L 56.978182 131.60484 
L 58.571313 127.569547 
L 60.164444 124.549864 
L 61.757576 121.31659 
L 63.350707 118.085547 
L 64.943838 115.369045 
L 66.53697 113.191802 
L 68.130101 110.920306 
L 69.723232 108.634337 
L 71.316364 106.670034 
L 72.909495 104.392467 
L 74.502626 100.064442 
L 76.095758 98.02156 
L 77.688889 96.419966 
L 79.28202 94.446042 
L 80.875152 92.065961 
L 82.468283 90.155761 
L 84.061414 88.596474 
L 85.654545 86.876356 
L 87.247677 84.839959 
L 88.840808 82.796153 
L 90.433939 80.949352 
L 92.027071 79.16383 
L 93.620202 77.235022 
L 95.213333 75.869007 
L 96.806465 74.13072 
L 98.399596 72.33464 
L 99.992727 70.81254 
L 101.585859 69.639449 
L 103.17899 68.227406 
L 104.772121 67.128459 
L 106.365253 66.002551 
L 107.958384 64.28875 
L 109.551515 62.970662 
L 111.144646 62.120537 
L 112.737778 60.689282 
L 114.330909 59.323841 
L 115.92404 58.237713 
L 117.517172 56.792796 
L 119.110303 55.186626 
L 120.703434 54.089749 
L 122.296566 53.332812 
L 123.889697 52.379343 
L 125.482828 51.175273 
L 127.07596 50.25183 
L 128.669091 49.205873 
L 130.262222 48.21069 
L 131.855354 47.20903 
L 133.448485 46.158823 
L 135.041616 45.256115 
L 136.634747 44.08042 
L 138.227879 42.582593 
L 139.82101 41.417137 
L 141.414141 40.507255 
L 143.007273 39.904874 
L 144.600404 39.373939 
L 146.193535 38.234359 
L 147.786667 37.204581 
L 149.379798 36.331063 
L 150.972929 35.56476 
L 152.566061 34.725988 
L 154.159192 33.663434 
L 155.752323 32.752753 
L 157.345455 31.711584 
L 158.938586 30.833998 
L 160.531717 29.841649 
L 162.124848 28.72192 
L 163.71798 27.406114 
L 165.311111 26.184653 
L 166.904242 25.468369 
L 168.497374 24.714294 
L 170.090505 24.291724 
L 171.683636 23.799844 
L 173.276768 23.236775 
L 174.869899 22.610771 
L 176.46303 22.142642 
L 178.056162 21.381204 
L 179.649293 20.91592 
L 181.242424 20.511532 
L 182.835556 19.905694 
L 184.428687 19.248819 
L 186.021818 18.952617 
L 187.614949 18.521161 
L 189.208081 18.279139 
L 190.801212 18.134794 
L 192.394343 17.597647 
L 193.987475 17.34799 
L 195.580606 17.023837 
L 197.173737 16.695856 
L 198.766869 16.39 
L 200.36 16.39 
" style="fill:none;stroke:#32cd32;stroke-dasharray:5.55,2.4;stroke-dashoffset:0;stroke-opacity:0.7;stroke-width:1.5;"/>
   </g>
   <g id="line2d_16">
    <path clip-path="url(#pe75ae75bb3)" d="M 42.64 174.11 
L 42.686787 174.042999 
L 42.795958 172.769983 
L 42.819351 172.702982 
L 42.920724 172.099975 
L 42.944117 172.099975 
L 42.998703 171.496967 
L 43.092277 171.429966 
L 43.146862 170.96096 
L 43.248235 170.893959 
L 43.318416 170.558955 
L 43.373001 170.558955 
L 43.482171 169.821946 
L 43.489969 169.821946 
L 43.521161 169.486941 
L 43.645927 169.419941 
L 43.731704 169.017935 
L 43.794087 168.950935 
L 43.895459 168.414928 
L 43.942247 168.347927 
L 44.012428 167.744919 
L 44.082609 167.677918 
L 44.160587 167.476916 
L 44.207375 167.476916 
L 44.293151 167.074911 
L 44.378928 167.00791 
L 44.480301 166.404902 
L 44.51929 166.404902 
L 44.612865 165.868895 
L 44.644056 165.801895 
L 44.722035 165.600892 
L 44.800014 165.533891 
L 44.885791 165.198887 
L 45.018355 165.131886 
L 45.088536 164.796882 
L 45.166514 164.729881 
L 45.275685 164.461878 
L 45.291281 164.461878 
L 45.400451 163.590867 
L 45.431642 163.523866 
L 45.447238 163.389864 
L 45.603196 163.322863 
L 45.688973 162.987859 
L 45.774749 162.920858 
L 45.813739 162.518853 
L 45.985292 162.518853 
L 46.071069 161.982846 
L 46.149048 161.915845 
L 46.25042 161.312838 
L 46.328399 161.245837 
L 46.382984 161.111835 
L 46.460963 161.111835 
L 46.570133 160.642829 
L 46.616921 160.575828 
L 46.726091 159.972821 
L 46.780676 159.90582 
L 46.889847 159.369813 
L 46.944432 159.302812 
L 47.022411 159.168811 
L 47.069198 159.168811 
L 47.154975 158.632804 
L 47.264145 158.565803 
L 47.295337 158.431801 
L 47.412305 158.3648 
L 47.474688 158.163798 
L 47.544869 158.096797 
L 47.654039 157.962795 
L 47.669635 157.895794 
L 47.76321 157.158785 
L 47.833391 157.158785 
L 47.895774 156.689779 
L 48.02054 156.622778 
L 48.12971 156.019771 
L 48.207689 155.95277 
L 48.316859 155.483764 
L 48.402636 155.416763 
L 48.496211 155.081759 
L 48.5352 155.081759 
L 48.620977 154.545752 
L 48.698956 154.545752 
L 48.800328 153.942744 
L 48.987478 153.875743 
L 49.081052 153.071733 
L 49.23701 153.004732 
L 49.299393 152.669728 
L 49.439755 152.602727 
L 49.541127 152.200722 
L 49.580117 152.133721 
L 49.689287 151.865718 
L 49.75167 151.798717 
L 49.775064 151.530714 
L 50.040192 151.463713 
L 50.141564 150.994707 
L 50.19615 150.927706 
L 50.297522 150.525701 
L 50.336511 150.525701 
L 50.41449 150.257698 
L 50.469075 150.257698 
L 50.578246 150.056695 
L 50.687416 149.989694 
L 50.742001 149.855692 
L 51.022725 149.788692 
L 51.1163 149.252685 
L 51.209874 149.252685 
L 51.311247 148.85068 
L 51.397024 148.783679 
L 51.443811 148.649677 
L 51.537386 148.649677 
L 51.576375 148.448675 
L 51.693343 148.381674 
L 51.802514 147.979669 
L 51.942876 147.912668 
L 52.052046 147.443662 
L 52.098833 147.376661 
L 52.200206 146.907655 
L 52.285982 146.840654 
L 52.395153 146.304647 
L 52.410749 146.304647 
L 52.504323 145.500637 
L 52.574504 145.500637 
L 52.574504 145.366636 
L 52.714866 145.299635 
L 52.800643 144.96463 
L 52.839632 144.96463 
L 52.933207 144.696627 
L 52.9566 144.696627 
L 53.050175 144.093619 
L 53.112558 144.093619 
L 53.213931 143.758615 
L 53.25292 143.691614 
L 53.36209 143.490612 
L 53.40108 143.423611 
L 53.502452 142.954605 
L 53.557037 142.954605 
L 53.611623 142.686602 
L 53.775378 142.619601 
L 53.884549 142.150595 
L 53.907942 142.083594 
L 54.009315 141.882591 
L 54.149677 141.81559 
L 54.258847 141.413585 
L 54.313432 141.346585 
L 54.422603 141.01158 
L 54.500581 140.944579 
L 54.500581 140.877579 
L 54.648741 140.877579 
L 54.679933 140.609575 
L 54.83589 140.542574 
L 54.929465 140.341572 
L 55.015242 140.274571 
L 55.015242 140.20757 
L 55.13221 140.20757 
L 55.217987 139.939567 
L 55.311561 139.872566 
L 55.420732 139.537562 
L 55.506508 139.470561 
L 55.592285 139.269558 
L 55.865211 139.202557 
L 55.94319 139.068556 
L 56.021169 139.001555 
L 56.067956 138.800552 
L 56.161531 138.800552 
L 56.223914 138.59955 
L 56.379871 138.532549 
L 56.411063 138.398547 
L 56.49684 138.398547 
L 56.598212 138.130544 
L 56.637202 138.130544 
L 56.683989 137.661538 
L 56.871138 137.594537 
L 56.949117 137.393534 
L 57.027096 137.326534 
L 57.097277 137.192532 
L 57.151862 137.192532 
L 57.261032 136.857528 
L 57.346809 136.790527 
L 57.440384 136.321521 
L 57.533958 136.25452 
L 57.533958 136.120518 
L 57.689916 136.053517 
L 57.783491 135.785514 
L 57.861469 135.718513 
L 57.877065 135.584511 
L 58.017427 135.584511 
L 58.056416 135.316508 
L 58.212374 135.249507 
L 58.282555 134.914503 
L 58.383928 134.847502 
L 58.461906 134.7135 
L 58.571077 134.6465 
L 58.610066 134.512498 
L 58.78162 134.445497 
L 58.859599 134.177494 
L 58.906386 134.177494 
L 58.906386 134.043492 
L 59.054546 133.976491 
L 59.140322 133.641487 
L 59.171514 133.641487 
L 59.265088 133.172481 
L 59.366461 133.10548 
L 59.366461 133.038479 
L 59.499025 133.038479 
L 59.608195 132.703475 
L 59.631589 132.636474 
L 59.662781 132.502472 
L 60.076068 132.435472 
L 60.177441 132.033466 
L 60.224228 131.966466 
L 60.317803 131.698462 
L 60.348994 131.631461 
L 60.458165 131.229456 
L 60.51275 131.162455 
L 60.520548 131.028454 
L 60.871453 130.961453 
L 60.972825 130.626449 
L 61.105389 130.559448 
L 61.128783 130.291444 
L 61.261347 130.224444 
L 61.300336 130.090442 
L 61.47189 130.023441 
L 61.565464 129.755438 
L 61.604454 129.688437 
L 61.713624 129.487434 
L 61.744816 129.420433 
L 61.814997 129.085429 
L 61.939763 129.018428 
L 62.002146 128.750425 
L 62.220487 128.683424 
L 62.259476 128.549422 
L 62.337455 128.549422 
L 62.415434 128.281419 
L 62.555796 128.214418 
L 62.664966 127.879414 
L 62.719551 127.812413 
L 62.828721 127.61141 
L 62.875509 127.54441 
L 62.9067 127.410408 
L 63.05486 127.343407 
L 63.086052 127.142404 
L 63.226414 127.075404 
L 63.31219 126.941402 
L 63.374573 126.874401 
L 63.483744 126.740399 
L 63.530531 126.740399 
L 63.585116 126.472396 
L 63.764468 126.405395 
L 63.803457 126.204393 
L 63.920425 126.137392 
L 63.998404 125.735387 
L 64.107574 125.668386 
L 64.193351 125.266381 
L 64.279128 125.19938 
L 64.357107 124.931376 
L 64.411692 124.864376 
L 64.497469 124.663373 
L 64.747001 124.596372 
L 64.832778 124.328369 
L 64.97314 124.261368 
L 64.97314 124.194367 
L 65.183682 124.127366 
L 65.238268 123.926364 
L 65.417619 123.859363 
L 65.495598 123.591359 
L 65.604768 123.524359 
L 65.674949 123.390357 
L 65.737332 123.323356 
L 65.784119 123.189354 
L 65.994662 123.122353 
L 66.080439 122.787349 
L 66.158418 122.720348 
L 66.228599 122.586347 
L 66.353365 122.519346 
L 66.353365 122.385344 
L 66.81344 122.318343 
L 66.922611 121.782336 
L 66.938206 121.782336 
L 67.047377 121.24633 
L 67.125355 121.179329 
L 67.211132 120.911325 
L 67.304707 120.844325 
L 67.398281 120.442319 
L 67.671207 120.375319 
L 67.780378 120.174316 
L 67.803771 120.107315 
L 67.905144 119.839312 
L 67.975325 119.772311 
L 68.061102 119.504308 
L 68.123485 119.437307 
L 68.162474 119.035302 
L 68.302836 119.035302 
L 68.357421 118.700297 
L 68.505581 118.633297 
L 68.599156 118.365293 
L 68.684932 118.298292 
L 68.794103 117.896287 
L 68.895475 117.829286 
L 69.004646 117.561283 
L 69.020241 117.494282 
L 69.028039 117.36028 
L 69.183997 117.29328 
L 69.183997 117.226279 
L 69.39454 117.159278 
L 69.495912 116.891274 
L 69.519306 116.824274 
L 69.581689 116.489269 
L 69.683061 116.489269 
L 69.792232 116.087264 
L 69.893604 116.020263 
L 70.002775 115.484257 
L 70.158732 115.417256 
L 70.260105 115.082251 
L 70.509637 115.015251 
L 70.548627 114.680246 
L 70.844946 114.613246 
L 70.860542 114.479244 
L 71.039893 114.479244 
L 71.117872 114.077239 
L 71.297223 114.010238 
L 71.359606 113.675234 
L 71.445383 113.675234 
L 71.484373 113.474231 
L 71.570149 113.40723 
L 71.648128 113.273229 
L 71.741703 113.206228 
L 71.843075 112.871223 
L 71.882065 112.804223 
L 71.975639 112.60322 
L 72.061416 112.536219 
L 72.147193 112.335217 
L 72.295353 112.268216 
L 72.396725 112.000212 
L 72.466906 111.933212 
L 72.4903 111.79921 
L 72.630662 111.732209 
L 72.630662 111.665208 
L 72.89579 111.598207 
L 72.973768 111.397205 
L 73.215503 111.397205 
L 73.30128 111.129201 
L 73.51962 111.062201 
L 73.51962 110.9952 
L 73.745759 110.928199 
L 73.784748 110.794197 
L 74.034281 110.727196 
L 74.034281 110.660195 
L 74.252621 110.593195 
L 74.346196 110.325191 
L 74.517749 110.25819 
L 74.595728 109.856185 
L 74.798473 109.789184 
L 74.876452 109.387179 
L 75.048006 109.320178 
L 75.133782 108.985174 
L 75.430102 108.918173 
L 75.445698 108.784172 
L 75.664038 108.717171 
L 75.69523 108.583169 
L 76.053933 108.516168 
L 76.139709 108.248165 
L 76.20989 108.181164 
L 76.233284 108.047162 
L 76.607582 107.980161 
L 76.685561 107.511155 
L 76.880508 107.444155 
L 76.974083 107.176151 
L 77.098849 107.10915 
L 77.161232 106.975149 
L 77.332786 106.908148 
L 77.410764 106.774146 
L 77.652499 106.707145 
L 77.753871 106.439142 
L 77.792861 106.372141 
L 77.87084 106.037137 
L 77.933223 106.037137 
L 78.011201 105.635132 
L 78.167159 105.635132 
L 78.252936 105.367128 
L 78.315319 105.367128 
L 78.408894 104.898122 
L 78.49467 104.831121 
L 78.603841 104.496117 
L 78.650628 104.429116 
L 78.650628 104.362116 
L 78.822181 104.295115 
L 78.915756 103.826109 
L 79.056118 103.759108 
L 79.141895 103.223101 
L 79.19648 103.1561 
L 79.212076 102.888097 
L 79.539587 102.821096 
L 79.60197 102.620093 
L 79.695544 102.553093 
L 79.765725 102.419091 
L 80.124428 102.35209 
L 80.2258 102.017086 
L 80.272588 101.950085 
L 80.381758 101.682082 
L 80.52212 101.615081 
L 80.623493 101.280076 
L 80.685876 101.213076 
L 80.787248 100.945072 
L 80.849631 100.878071 
L 80.951004 100.275064 
L 81.208334 100.208063 
L 81.262919 100.074061 
L 81.294111 100.074061 
L 81.348696 100.00706 
L 81.457866 99.806058 
L 81.543643 99.739057 
L 81.613824 99.538054 
L 81.777579 99.471054 
L 81.777579 99.404053 
L 81.956931 99.404053 
L 81.972526 99.069048 
L 82.159676 99.002048 
L 82.268846 98.667043 
L 82.339027 98.600042 
L 82.424804 98.332039 
L 82.471591 98.265038 
L 82.526176 98.064036 
L 82.728921 97.997035 
L 82.728921 97.863033 
L 82.947262 97.796032 
L 83.056432 97.394027 
L 83.220188 97.327026 
L 83.251379 97.193025 
L 83.477518 97.126024 
L 83.578891 96.925021 
L 83.695859 96.85802 
L 83.734848 96.590017 
L 83.87521 96.523016 
L 83.9142 96.389014 
L 84.116945 96.322014 
L 84.163732 96.188012 
L 84.257306 96.188012 
L 84.257306 96.05401 
L 84.397668 95.987009 
L 84.506839 95.786007 
L 84.623807 95.719006 
L 84.623807 95.652005 
L 84.764169 95.585004 
L 84.865541 95.317001 
L 85.052691 95.25 
L 85.107276 95.048997 
L 85.403595 94.981997 
L 85.481574 94.646992 
L 85.582947 94.579992 
L 85.668723 94.378989 
L 85.879266 94.311988 
L 85.941649 93.976984 
L 86.167788 93.909983 
L 86.276958 93.64198 
L 86.409522 93.574979 
L 86.518693 93.306975 
L 86.596672 93.239975 
L 86.698044 92.90497 
L 86.783821 92.90497 
L 86.8618 92.435964 
L 86.955374 92.368963 
L 87.041151 92.167961 
L 87.337471 92.10096 
L 87.438843 91.899958 
L 87.548013 91.832957 
L 87.618194 91.631954 
L 87.696173 91.564953 
L 87.805344 91.363951 
L 87.914514 91.29695 
L 87.953503 91.028946 
L 88.203036 90.961946 
L 88.281015 90.760943 
L 88.546143 90.693942 
L 88.647515 90.425939 
L 88.811271 90.358938 
L 88.897047 90.157935 
L 88.990622 90.090935 
L 88.990622 90.023934 
L 89.130984 90.023934 
L 89.130984 89.889932 
L 89.40391 89.822931 
L 89.489687 89.420926 
L 89.754815 89.353925 
L 89.856187 89.152923 
L 89.95756 89.085922 
L 90.058932 88.817918 
L 90.300666 88.750918 
L 90.402039 88.348912 
L 90.62038 88.281912 
L 90.651571 88.14791 
L 90.784135 88.080909 
L 90.862114 87.879907 
L 91.103849 87.812906 
L 91.213019 87.544902 
L 91.329987 87.477901 
L 91.329987 87.410901 
L 91.532732 87.3439 
L 91.532732 87.276899 
L 91.844647 87.209898 
L 91.922626 86.941895 
L 91.969414 86.941895 
L 92.070786 86.405888 
L 92.101978 86.338887 
L 92.101978 86.271886 
L 92.234542 86.271886 
L 92.250137 86.070884 
L 92.577649 86.003883 
L 92.64783 85.869881 
L 92.897362 85.80288 
L 92.951947 85.601878 
L 93.1235 85.534877 
L 93.232671 85.333874 
L 93.263862 85.266873 
L 93.373033 85.065871 
L 93.443214 84.99887 
L 93.451012 84.864868 
L 93.599171 84.797867 
L 93.684948 84.462863 
L 93.887693 84.395862 
L 93.911087 84.19486 
L 94.059247 84.19486 
L 94.059247 84.060858 
L 94.386758 83.993857 
L 94.48813 83.658853 
L 94.651886 83.591852 
L 94.761056 83.256848 
L 94.901418 83.189847 
L 94.924812 83.055845 
L 95.314706 82.988845 
L 95.384887 82.720841 
L 95.478461 82.65384 
L 95.587632 82.452838 
L 95.603228 82.385837 
L 95.7046 82.117833 
L 95.837164 82.050833 
L 95.922941 81.84983 
L 96.289441 81.782829 
L 96.398612 81.648828 
L 96.531176 81.581827 
L 96.585761 81.380824 
L 96.726123 81.313823 
L 96.726123 81.246822 
L 96.874283 81.179822 
L 96.913272 81.04582 
L 97.139411 80.978819 
L 97.170602 80.844817 
L 97.404539 80.777816 
L 97.459124 80.643815 
L 97.630677 80.643815 
L 97.661869 80.308811 
L 97.817827 80.24181 
L 97.817827 80.174809 
L 97.950391 80.107808 
L 98.051763 79.772804 
L 98.192125 79.705803 
L 98.207721 79.571801 
L 98.402668 79.5048 
L 98.496242 79.303798 
L 98.628806 79.236797 
L 98.628806 79.169796 
L 98.878339 79.102795 
L 98.964115 78.968794 
L 99.05769 78.901793 
L 99.143467 78.767791 
L 99.392999 78.70079 
L 99.400797 78.566788 
L 99.595744 78.499788 
L 99.665925 78.298785 
L 99.7595 78.231784 
L 99.821883 77.963781 
L 99.985638 77.89678 
L 99.985638 77.829779 
L 100.126 77.762778 
L 100.16499 77.561776 
L 100.250766 77.561776 
L 100.328745 77.360773 
L 100.601671 77.293772 
L 100.695246 77.09277 
L 100.859001 77.025769 
L 100.944778 76.757766 
L 100.991565 76.757766 
L 100.991565 76.556763 
L 101.217704 76.489762 
L 101.2333 76.28876 
L 101.514024 76.221759 
L 101.584204 76.020756 
L 101.802545 75.953755 
L 101.810343 75.819754 
L 102.059875 75.752753 
L 102.059875 75.685752 
L 102.223631 75.618751 
L 102.317206 75.283747 
L 102.543344 75.216746 
L 102.636919 74.948743 
L 102.738291 74.881742 
L 102.792876 74.680739 
L 103.019015 74.613738 
L 103.026813 74.479737 
L 103.213962 74.412736 
L 103.245154 74.211733 
L 103.525878 74.144732 
L 103.525878 74.077732 
L 103.642846 74.077732 
L 103.642846 73.94373 
L 103.861187 73.876729 
L 103.954761 73.675726 
L 104.102921 73.608726 
L 104.165304 73.474724 
L 104.297868 73.407723 
L 104.368049 73.273721 
L 104.446028 73.273721 
L 104.485017 73.005718 
L 104.609783 72.938717 
L 104.687762 72.737715 
L 105.023071 72.670714 
L 105.108848 72.536712 
L 105.179029 72.469711 
L 105.272604 72.201708 
L 105.490944 72.134707 
L 105.514338 72.000705 
L 105.662498 71.933704 
L 105.756072 71.5987 
L 105.795062 71.5987 
L 105.795062 71.464698 
L 106.028998 71.397698 
L 106.122573 71.263696 
L 106.216148 71.196695 
L 106.309722 70.995692 
L 106.528063 70.928692 
L 106.629435 70.660688 
L 106.824382 70.593687 
L 106.824382 70.526686 
L 107.175287 70.459686 
L 107.175287 70.325684 
L 107.331245 70.258683 
L 107.331245 70.191682 
L 107.518394 70.124681 
L 107.588575 69.99068 
L 107.68215 69.923679 
L 107.767926 69.722676 
L 107.861501 69.655675 
L 107.947278 69.454673 
L 107.994065 69.387672 
L 108.079842 69.119669 
L 108.251395 69.052668 
L 108.251395 68.985667 
L 108.610098 68.918666 
L 108.672481 68.717664 
L 108.734864 68.717664 
L 108.734864 68.583662 
L 109.046779 68.516661 
L 109.046779 68.44966 
L 109.296312 68.382659 
L 109.382088 68.181657 
L 109.577035 68.114656 
L 109.577035 68.047655 
L 109.888951 67.980654 
L 109.951334 67.779652 
L 110.146281 67.712651 
L 110.247654 67.578649 
L 110.489388 67.511648 
L 110.489388 67.444647 
L 110.832495 67.377647 
L 110.855888 67.243645 
L 110.980655 67.176644 
L 110.980655 67.109643 
L 111.269176 67.042642 
L 111.362751 66.707638 
L 111.393942 66.640637 
L 111.503113 66.171631 
L 111.612283 66.10463 
L 111.682464 65.970629 
L 111.752645 65.970629 
L 111.861815 65.635624 
L 112.009975 65.568624 
L 112.072358 65.434622 
L 112.228316 65.367621 
L 112.306295 65.233619 
L 112.587019 65.166619 
L 112.6572 64.965616 
L 112.820955 64.898615 
L 112.906732 64.764613 
L 113.125073 64.697613 
L 113.226445 64.429609 
L 113.359009 64.362608 
L 113.359009 64.295607 
L 113.68652 64.228607 
L 113.72551 64.027604 
L 114.084212 63.960603 
L 114.154393 63.759601 
L 114.481904 63.759601 
L 114.489702 63.558598 
L 115.136927 63.491597 
L 115.230501 63.357596 
L 115.277289 63.290595 
L 115.324076 63.156593 
L 115.519023 63.089592 
L 115.589204 62.95559 
L 115.830938 62.88859 
L 115.893321 62.620586 
L 115.9713 62.553585 
L 116.080471 62.419584 
L 116.220833 62.352583 
L 116.259822 62.218581 
L 116.517152 62.15158 
L 116.556142 62.017579 
L 116.844663 61.950578 
L 116.852461 61.816576 
L 117.008419 61.749575 
L 117.094196 61.414571 
L 117.577664 61.34757 
L 117.577664 61.280569 
L 117.624452 61.280569 
L 117.85059 61.213568 
L 117.936367 60.945565 
L 118.193697 60.878564 
L 118.240485 60.610561 
L 118.614783 60.54356 
L 118.684964 60.342557 
L 118.926698 60.342557 
L 118.989081 60.074554 
L 119.121645 60.007553 
L 119.137241 59.873551 
L 119.636306 59.806551 
L 119.72988 59.538547 
L 119.800061 59.471546 
L 119.800061 59.404545 
L 119.940423 59.337545 
L 120.010604 58.93554 
L 120.306924 58.93554 
L 120.361509 58.734537 
L 120.611041 58.667536 
L 120.611041 58.600535 
L 120.844978 58.533534 
L 120.844978 58.466534 
L 121.164691 58.399533 
L 121.250468 58.19853 
L 121.320649 58.131529 
L 121.39083 57.863526 
L 121.936681 57.796525 
L 121.967873 57.662523 
L 122.435746 57.595523 
L 122.544916 57.39452 
L 122.700874 57.327519 
L 122.810044 57.193517 
L 123.153151 57.126517 
L 123.184343 56.925514 
L 123.418279 56.858513 
L 123.496258 56.59051 
L 123.652216 56.523509 
L 123.753588 56.389507 
L 123.948536 56.322506 
L 123.995323 56.188505 
L 124.377419 56.121504 
L 124.48659 55.920501 
L 124.681537 55.8535 
L 124.736122 55.652498 
L 125.087027 55.585497 
L 125.087027 55.518496 
L 125.203995 55.518496 
L 125.227389 55.250493 
L 125.36775 55.183492 
L 125.36775 55.116491 
L 125.617283 55.04949 
L 125.703059 54.848488 
L 125.944794 54.781487 
L 125.983783 54.647485 
L 126.311294 54.580484 
L 126.311294 54.513483 
L 126.779167 54.446483 
L 126.779167 54.379482 
L 127.020902 54.312481 
L 127.067689 54.178479 
L 127.262636 54.111478 
L 127.317221 53.910476 
L 127.504371 53.843475 
L 127.504371 53.776474 
L 127.94885 53.709473 
L 128.05802 53.44147 
L 128.408925 53.374469 
L 128.424521 53.240467 
L 128.580479 53.173466 
L 128.689649 52.972464 
L 129.001564 52.905463 
L 129.102937 52.70446 
L 129.344671 52.63746 
L 129.352469 52.436457 
L 129.586406 52.369456 
L 129.687778 52.101453 
L 129.851534 52.034452 
L 129.851534 51.967451 
L 130.140055 51.90045 
L 130.218034 51.565446 
L 130.23363 51.565446 
L 130.303811 51.498445 
L 130.397386 51.364444 
L 130.592333 51.297443 
L 130.592333 51.230442 
L 130.78728 51.230442 
L 130.802876 51.029439 
L 131.106993 50.962438 
L 131.130387 50.828437 
L 131.496887 50.761436 
L 131.543674 50.560433 
L 131.762015 50.493432 
L 131.871186 50.359431 
L 132.136314 50.359431 
L 132.151909 50.158428 
L 132.315665 50.091427 
L 132.401442 49.957426 
L 132.572995 49.890425 
L 132.62758 49.756423 
L 132.838123 49.689422 
L 132.853719 49.555421 
L 133.142241 49.48842 
L 133.243613 49.287417 
L 133.274805 49.220416 
L 133.2904 49.086415 
L 133.469752 49.086415 
L 133.578922 48.75141 
L 133.711486 48.68441 
L 133.711486 48.617409 
L 134.241742 48.550408 
L 134.241742 48.483407 
L 134.483477 48.416406 
L 134.530264 48.282404 
L 134.686222 48.215404 
L 134.686222 48.148403 
L 135.068318 48.081402 
L 135.068318 48.014401 
L 135.271063 47.9474 
L 135.271063 47.880399 
L 135.793521 47.813398 
L 135.887096 47.679397 
L 136.347171 47.612396 
L 136.401756 47.411393 
L 136.57331 47.344393 
L 136.651288 47.210391 
L 136.815044 47.14339 
L 136.900821 46.875387 
L 137.064576 46.808386 
L 137.165949 46.674384 
L 137.282917 46.607383 
L 137.282917 46.540382 
L 138.031514 46.473381 
L 138.039312 46.406381 
L 138.702132 46.33938 
L 138.733323 46.138377 
L 138.756717 46.138377 
L 138.897079 46.071376 
L 138.897079 46.004376 
L 139.232388 45.937375 
L 139.302569 45.669371 
L 139.466325 45.60237 
L 139.466325 45.53537 
L 139.77824 45.468369 
L 139.793836 45.334367 
L 140.105751 45.267366 
L 140.129145 45.133364 
L 140.33189 45.066364 
L 140.33189 44.999363 
L 140.659401 44.932362 
L 140.690592 44.79836 
L 140.854348 44.731359 
L 140.854348 44.664359 
L 141.166263 44.597358 
L 141.166263 44.530357 
L 141.7667 44.463356 
L 141.7667 44.396355 
L 142.117605 44.329354 
L 142.17219 44.061351 
L 142.484106 43.99435 
L 142.484106 43.927349 
L 142.741436 43.860348 
L 142.757032 43.726347 
L 143.006564 43.659346 
L 143.053351 43.525344 
L 143.653788 43.458343 
L 143.653788 43.391342 
L 143.848735 43.324342 
L 143.895523 43.123339 
L 144.191842 43.056338 
L 144.293215 42.654333 
L 144.7143 42.587332 
L 144.722098 42.453331 
L 144.987226 42.38633 
L 144.987226 42.319329 
L 145.236759 42.252328 
L 145.236759 42.185327 
L 145.252354 42.185327 
L 145.798206 42.118326 
L 145.844994 41.984325 
L 145.96976 41.917324 
L 145.96976 41.850323 
L 146.258281 41.783322 
L 146.258281 41.64932 
L 146.406441 41.64932 
L 146.414239 41.448318 
L 146.921102 41.381317 
L 146.991283 41.180314 
L 147.061463 41.113314 
L 147.162836 40.979312 
L 147.537134 40.912311 
L 147.599517 40.711308 
L 148.059593 40.644308 
L 148.114178 40.510306 
L 148.527466 40.443305 
L 148.566455 40.309303 
L 148.940753 40.242302 
L 149.034328 39.907298 
L 149.354041 39.840297 
L 149.377435 39.706296 
L 149.486605 39.706296 
L 149.502201 39.505293 
L 149.736138 39.438292 
L 149.83751 39.23729 
L 150.157223 39.170289 
L 150.157223 39.103288 
L 150.437947 39.036287 
L 150.469139 38.902285 
L 150.718671 38.835285 
L 150.718671 38.768284 
L 151.155353 38.701283 
L 151.233331 38.43328 
L 151.475066 38.366279 
L 151.475066 38.299278 
L 151.763587 38.232277 
L 151.763587 38.165276 
L 152.106694 38.098275 
L 152.106694 38.031274 
L 152.605759 37.964274 
L 152.605759 37.897273 
L 152.941068 37.830272 
L 152.941068 37.69627 
L 153.861218 37.629269 
L 153.861218 37.562268 
L 154.102953 37.495268 
L 154.102953 37.428267 
L 154.594219 37.361266 
L 154.594219 37.227264 
L 155.023103 37.160263 
L 155.023103 37.093263 
L 155.210252 37.093263 
L 155.303827 36.758258 
L 155.600146 36.691257 
L 155.600146 36.624257 
L 155.779498 36.624257 
L 155.841881 36.423254 
L 156.005636 36.356253 
L 156.044626 36.222251 
L 156.356541 36.155251 
L 156.426722 36.021249 
L 156.793223 35.954248 
L 156.894595 35.686245 
L 157.175319 35.619244 
L 157.222106 35.485242 
L 157.775756 35.418241 
L 157.79915 35.28424 
L 158.376193 35.217239 
L 158.376193 35.150238 
L 158.586736 35.083237 
L 158.586736 35.016236 
L 159.163779 34.949235 
L 159.194971 34.815234 
L 159.538078 34.748233 
L 159.538078 34.681232 
L 159.943568 34.614231 
L 159.943568 34.54723 
L 160.582994 34.480229 
L 160.582994 34.413229 
L 160.918303 34.346228 
L 160.918303 34.279227 
L 161.245814 34.212226 
L 161.245814 34.145225 
L 161.448559 34.078224 
L 161.448559 34.011223 
L 161.721485 33.944223 
L 161.822858 33.810221 
L 162.236146 33.74322 
L 162.32972 33.609218 
L 162.594848 33.542218 
L 162.594848 33.475217 
L 162.844381 33.408216 
L 162.953551 33.207213 
L 163.171892 33.140212 
L 163.187487 33.006211 
L 163.561786 32.93921 
L 163.670956 32.671206 
L 164.325978 32.604206 
L 164.325978 32.537205 
L 164.528723 32.470204 
L 164.528723 32.403203 
L 164.926416 32.336202 
L 164.926416 32.269201 
L 165.589236 32.202201 
L 165.698406 32.068199 
L 165.714002 32.001198 
L 165.714002 31.934197 
L 166.181875 31.934197 
L 166.189673 31.733195 
L 166.478194 31.666194 
L 166.556173 31.331189 
L 166.673142 31.264189 
L 166.758918 31.130187 
L 167.070834 31.063186 
L 167.070834 30.996185 
L 167.507515 30.929184 
L 167.530909 30.795183 
L 167.920803 30.728182 
L 168.022175 30.527179 
L 168.22492 30.460178 
L 168.295101 30.259176 
L 168.466655 30.192175 
L 168.560229 30.058173 
L 168.833155 29.991172 
L 168.833155 29.924172 
L 169.168464 29.857171 
L 169.176262 29.723169 
L 169.371209 29.656168 
L 169.410199 29.522167 
L 169.659731 29.455166 
L 169.659731 29.388165 
L 169.776699 29.388165 
L 169.776699 29.254163 
L 170.486307 29.187162 
L 170.494105 29.053161 
L 170.665658 28.98616 
L 170.665658 28.919159 
L 170.946382 28.852158 
L 170.946382 28.785157 
L 171.086744 28.718156 
L 171.149127 28.584155 
L 171.250499 28.517154 
L 171.266095 28.383152 
L 171.406457 28.316151 
L 171.500032 28.18215 
L 171.718372 28.115149 
L 171.819745 27.914146 
L 171.858734 27.847145 
L 171.858734 27.780144 
L 172.240831 27.713144 
L 172.240831 27.646143 
L 173.340332 27.579142 
L 173.449503 27.44514 
L 173.527481 27.378139 
L 173.527481 27.311138 
L 173.675641 27.311138 
L 173.730226 27.043135 
L 173.784812 27.043135 
L 174.174706 26.976134 
L 174.174706 26.909133 
L 174.377451 26.842133 
L 174.486621 26.708131 
L 174.626983 26.64113 
L 174.665973 26.373127 
L 174.962292 26.306126 
L 175.001282 26.172124 
L 175.609516 26.105123 
L 175.640708 25.971121 
L 175.921432 25.904121 
L 175.991613 25.770119 
L 176.178762 25.703118 
L 176.225549 25.569116 
L 176.529667 25.502116 
L 176.529667 25.435115 
L 176.864976 25.435115 
L 176.927359 25.234112 
L 177.200285 25.167111 
L 177.200285 25.10011 
L 177.722743 25.03311 
L 177.831913 24.899108 
L 178.081446 24.832107 
L 178.081446 24.765106 
L 178.447946 24.698105 
L 178.541521 24.497103 
L 178.970404 24.430102 
L 178.970404 24.363101 
L 179.313511 24.2961 
L 179.313511 24.229099 
L 179.633225 24.162099 
L 179.641022 24.028097 
L 179.828172 23.961096 
L 179.90615 23.760093 
L 180.381821 23.693093 
L 180.381821 23.626092 
L 180.420811 23.626092 
L 180.600162 23.559091 
L 180.709333 23.425089 
L 181.12262 23.358088 
L 181.12262 23.291088 
L 181.457929 23.224087 
L 181.465727 23.090085 
L 181.707462 23.023084 
L 181.723057 22.889082 
L 182.253314 22.822082 
L 182.307899 22.68808 
L 182.627612 22.621079 
L 182.666601 22.420076 
L 182.89274 22.353076 
L 182.900538 22.219074 
L 183.204655 22.152073 
L 183.267038 22.018071 
L 183.391805 21.951071 
L 183.391805 21.88407 
L 183.539964 21.817069 
L 183.539964 21.750068 
L 184.078018 21.683067 
L 184.078018 21.616066 
L 184.343146 21.549065 
L 184.343146 21.482065 
L 184.678455 21.415064 
L 184.678455 21.348063 
L 185.310084 21.281062 
L 185.310084 21.214061 
L 185.699978 21.14706 
L 185.73117 21.013059 
L 186.588937 20.946058 
L 186.627926 20.745055 
L 187.16598 20.678054 
L 187.212768 20.544053 
L 187.493492 20.477052 
L 187.555875 20.34305 
L 187.953567 20.276049 
L 187.953567 20.209048 
L 188.366855 20.142048 
L 188.398046 20.008046 
L 188.967292 19.941045 
L 189.053068 19.807043 
L 189.255813 19.740042 
L 189.318196 19.606041 
L 189.59892 19.53904 
L 189.684697 19.405038 
L 190.160368 19.338037 
L 190.230549 19.137035 
L 190.721815 19.070034 
L 190.830986 18.802031 
L 191.119508 18.73503 
L 191.142901 18.601028 
L 191.751136 18.534027 
L 191.805721 18.400025 
L 192.234605 18.333025 
L 192.234605 18.266024 
L 192.920819 18.199023 
L 192.920819 18.132022 
L 193.256128 18.065021 
L 193.256128 17.99802 
L 193.404288 17.93102 
L 193.404288 17.864019 
L 194.839098 17.797018 
L 194.839098 17.730017 
L 195.213397 17.663016 
L 195.314769 17.395013 
L 195.64228 17.328012 
L 195.64228 17.261011 
L 197.318825 17.19401 
L 197.318825 17.127009 
L 198.083018 17.060008 
L 198.083018 16.993008 
L 198.519699 16.926007 
L 198.519699 16.859006 
L 198.964179 16.792005 
L 198.964179 16.725004 
L 199.190317 16.658003 
L 199.244903 16.524002 
L 199.642595 16.457001 
L 199.642595 16.39 
L 200.36 16.39 
L 200.36 16.39 
" style="fill:none;stroke:#0000ff;stroke-linecap:square;stroke-opacity:0.7;stroke-width:1.5;"/>
   </g>
   <g id="line2d_17">
    <path clip-path="url(#pe75ae75bb3)" d="M 42.64 174.11 
L 44.233131 168.697147 
L 45.826263 164.481673 
L 47.419394 160.3315 
L 49.012525 156.063501 
L 50.605657 152.53198 
L 52.198788 149.963579 
L 53.791919 145.317563 
L 55.385051 142.516486 
L 56.978182 140.330601 
L 58.571313 137.532249 
L 60.164444 135.016691 
L 61.757576 132.490767 
L 63.350707 129.960236 
L 64.943838 127.381392 
L 66.53697 125.501671 
L 68.130101 122.842709 
L 69.723232 119.772416 
L 71.316364 117.207491 
L 72.909495 114.808037 
L 74.502626 113.458736 
L 76.095758 111.564238 
L 77.688889 109.833222 
L 79.28202 106.813417 
L 80.875152 104.382655 
L 82.468283 101.795914 
L 84.061414 99.616545 
L 85.654545 97.817634 
L 87.247677 95.532708 
L 88.840808 93.545275 
L 90.433939 91.811107 
L 92.027071 90.038319 
L 93.620202 88.163911 
L 95.213333 86.237119 
L 96.806465 84.487654 
L 98.399596 82.807227 
L 99.992727 81.179107 
L 101.585859 79.376389 
L 103.17899 77.675276 
L 104.772121 76.030527 
L 106.365253 74.252668 
L 107.958384 72.705121 
L 109.551515 71.210513 
L 111.144646 70.065415 
L 112.737778 67.993293 
L 114.330909 66.733884 
L 115.92404 65.710066 
L 117.517172 64.338998 
L 119.110303 63.070023 
L 120.703434 61.602335 
L 122.296566 60.478123 
L 123.889697 59.362801 
L 125.482828 58.082077 
L 127.07596 57.044851 
L 128.669091 55.942222 
L 130.262222 54.527041 
L 131.855354 53.182337 
L 133.448485 51.847265 
L 135.041616 50.732034 
L 136.634747 49.925267 
L 138.227879 48.958185 
L 139.82101 48.046058 
L 141.414141 47.046275 
L 143.007273 46.225017 
L 144.600404 45.179967 
L 146.193535 44.240133 
L 147.786667 43.134526 
L 149.379798 42.167952 
L 150.972929 41.020594 
L 152.566061 40.188519 
L 154.159192 39.692449 
L 155.752323 38.785014 
L 157.345455 37.67499 
L 158.938586 37.055384 
L 160.531717 36.468532 
L 162.124848 35.738869 
L 163.71798 34.786369 
L 165.311111 34.120071 
L 166.904242 33.106335 
L 168.497374 32.069741 
L 170.090505 31.008032 
L 171.683636 29.890927 
L 173.276768 29.182123 
L 174.869899 28.06071 
L 176.46303 27.119146 
L 178.056162 26.295942 
L 179.649293 25.513923 
L 181.242424 24.583504 
L 182.835556 23.664915 
L 184.428687 22.633035 
L 186.021818 22.070107 
L 187.614949 21.405954 
L 189.208081 20.688652 
L 190.801212 19.739077 
L 192.394343 18.979298 
L 193.987475 18.410696 
L 195.580606 17.841226 
L 197.173737 17.618454 
L 198.766869 17.141916 
L 200.36 16.39 
" style="fill:none;stroke:#87ceeb;stroke-dasharray:5.55,2.4;stroke-dashoffset:0;stroke-opacity:0.7;stroke-width:1.5;"/>
   </g>
   <g id="line2d_18">
    <path clip-path="url(#pe75ae75bb3)" d="M 42.64 174.11 
L 44.233131 165.874023 
L 45.826263 160.826141 
L 47.419394 156.173067 
L 49.012525 151.032875 
L 50.605657 147.591762 
L 52.198788 143.875195 
L 53.791919 139.511933 
L 55.385051 136.81512 
L 56.978182 134.329869 
L 58.571313 131.600204 
L 60.164444 128.824947 
L 61.757576 126.168417 
L 63.350707 123.70963 
L 64.943838 121.14847 
L 66.53697 119.009272 
L 68.130101 115.771703 
L 69.723232 112.724201 
L 71.316364 110.328526 
L 72.909495 108.173674 
L 74.502626 106.565935 
L 76.095758 104.886211 
L 77.688889 102.680103 
L 79.28202 99.461434 
L 80.875152 97.078739 
L 82.468283 94.778651 
L 84.061414 92.917277 
L 85.654545 90.946557 
L 87.247677 88.551153 
L 88.840808 86.833978 
L 90.433939 84.970976 
L 92.027071 83.123898 
L 93.620202 81.185424 
L 95.213333 79.400236 
L 96.806465 77.842126 
L 98.399596 76.111815 
L 99.992727 74.475315 
L 101.585859 72.786681 
L 103.17899 71.112822 
L 104.772121 69.488136 
L 106.365253 67.789435 
L 107.958384 66.155613 
L 109.551515 64.937182 
L 111.144646 63.535855 
L 112.737778 61.841772 
L 114.330909 60.747119 
L 115.92404 59.546404 
L 117.517172 58.245513 
L 119.110303 56.957604 
L 120.703434 55.554655 
L 122.296566 54.605391 
L 123.889697 53.40247 
L 125.482828 52.189947 
L 127.07596 51.276464 
L 128.669091 50.15223 
L 130.262222 48.708825 
L 131.855354 47.613069 
L 133.448485 46.236388 
L 135.041616 45.387694 
L 136.634747 44.43332 
L 138.227879 43.721187 
L 139.82101 42.732895 
L 141.414141 41.905053 
L 143.007273 41.039666 
L 144.600404 40.040931 
L 146.193535 39.17846 
L 147.786667 38.243994 
L 149.379798 37.183307 
L 150.972929 36.267608 
L 152.566061 35.599773 
L 154.159192 35.126585 
L 155.752323 34.199031 
L 157.345455 33.330776 
L 158.938586 32.805538 
L 160.531717 32.303823 
L 162.124848 31.594757 
L 163.71798 30.720624 
L 165.311111 30.1528 
L 166.904242 29.166067 
L 168.497374 28.256045 
L 170.090505 27.430474 
L 171.683636 26.230172 
L 173.276768 25.695555 
L 174.869899 24.685386 
L 176.46303 23.908636 
L 178.056162 23.283125 
L 179.649293 22.55347 
L 181.242424 21.876417 
L 182.835556 21.024241 
L 184.428687 20.332793 
L 186.021818 19.891704 
L 187.614949 19.330609 
L 189.208081 18.795984 
L 190.801212 18.042201 
L 192.394343 17.600414 
L 193.987475 17.218061 
L 195.580606 16.828079 
L 197.173737 16.728778 
L 198.766869 16.477754 
L 200.36 16.39 
" style="fill:none;stroke:#87ceeb;stroke-dasharray:5.55,2.4;stroke-dashoffset:0;stroke-opacity:0.7;stroke-width:1.5;"/>
   </g>
   <g id="line2d_19">
    <path clip-path="url(#pe75ae75bb3)" d="M 42.64 174.11 
L 121.5 95.25 
L 200.36 16.39 
" style="fill:none;stroke:#000000;stroke-dasharray:5.55,2.4;stroke-dashoffset:0;stroke-width:1.5;"/>
   </g>
   <g id="patch_3">
    <path d="M 42.64 174.11 
L 42.64 16.39 
" style="fill:none;stroke:#000000;stroke-linecap:square;stroke-linejoin:miter;stroke-width:0.8;"/>
   </g>
   <g id="patch_4">
    <path d="M 200.36 174.11 
L 200.36 16.39 
" style="fill:none;stroke:#000000;stroke-linecap:square;stroke-linejoin:miter;stroke-width:0.8;"/>
   </g>
   <g id="patch_5">
    <path d="M 42.64 174.11 
L 200.36 174.11 
" style="fill:none;stroke:#000000;stroke-linecap:square;stroke-linejoin:miter;stroke-width:0.8;"/>
   </g>
   <g id="patch_6">
    <path d="M 42.64 16.39 
L 200.36 16.39 
" style="fill:none;stroke:#000000;stroke-linecap:square;stroke-linejoin:miter;stroke-width:0.8;"/>
   </g>
   <g id="legend_1">
    <g id="patch_7">
     <path d="M 139.689687 169.11 
L 193.36 169.11 
Q 195.36 169.11 195.36 167.11 
L 195.36 125.674062 
Q 195.36 123.674062 193.36 123.674062 
L 139.689687 123.674062 
Q 137.689687 123.674062 137.689687 125.674062 
L 137.689687 167.11 
Q 137.689687 169.11 139.689687 169.11 
z
" style="fill:#ffffff;opacity:0.8;stroke:#cccccc;stroke-linejoin:miter;"/>
    </g>
    <g id="text_15">
     <!-- refill -->
     <g transform="translate(157.357656 134.831875)scale(0.1 -0.1)">
      <defs>
       <path d="M 8.6875 0 
L 8.6875 45.015625 
L 0.921875 45.015625 
L 0.921875 51.859375 
L 8.6875 51.859375 
L 8.6875 57.375 
Q 8.6875 62.59375 9.625 65.140625 
Q 10.890625 68.5625 14.078125 70.671875 
Q 17.28125 72.796875 23.046875 72.796875 
Q 26.765625 72.796875 31.25 71.921875 
L 29.9375 64.265625 
Q 27.203125 64.75 24.75 64.75 
Q 20.75 64.75 19.09375 63.03125 
Q 17.4375 61.328125 17.4375 56.640625 
L 17.4375 51.859375 
L 27.546875 51.859375 
L 27.546875 45.015625 
L 17.4375 45.015625 
L 17.4375 0 
z
" id="ArialMT-102"/>
      </defs>
      <use xlink:href="#ArialMT-114"/>
      <use x="33.300781" xlink:href="#ArialMT-101"/>
      <use x="88.916016" xlink:href="#ArialMT-102"/>
      <use x="116.699219" xlink:href="#ArialMT-105"/>
      <use x="138.916016" xlink:href="#ArialMT-108"/>
      <use x="161.132812" xlink:href="#ArialMT-108"/>
     </g>
    </g>
    <g id="patch_8">
     <path d="M 141.689687 148.977188 
L 161.689687 148.977188 
L 161.689687 141.977188 
L 141.689687 141.977188 
z
" style="fill:#0000ff;stroke:#0000ff;stroke-linejoin:miter;"/>
    </g>
    <g id="text_16">
     <!-- SVM -->
     <g transform="translate(169.689687 148.977188)scale(0.1 -0.1)">
      <defs>
       <path d="M 4.5 23 
L 13.421875 23.78125 
Q 14.0625 18.40625 16.375 14.96875 
Q 18.703125 11.53125 23.578125 9.40625 
Q 28.46875 7.28125 34.578125 7.28125 
Q 39.984375 7.28125 44.140625 8.890625 
Q 48.296875 10.5 50.3125 13.296875 
Q 52.34375 16.109375 52.34375 19.4375 
Q 52.34375 22.796875 50.390625 25.3125 
Q 48.4375 27.828125 43.953125 29.546875 
Q 41.0625 30.671875 31.203125 33.03125 
Q 21.34375 35.40625 17.390625 37.5 
Q 12.25 40.1875 9.734375 44.15625 
Q 7.234375 48.140625 7.234375 53.078125 
Q 7.234375 58.5 10.296875 63.203125 
Q 13.375 67.921875 19.28125 70.359375 
Q 25.203125 72.796875 32.421875 72.796875 
Q 40.375 72.796875 46.453125 70.234375 
Q 52.546875 67.671875 55.8125 62.6875 
Q 59.078125 57.71875 59.328125 51.421875 
L 50.25 50.734375 
Q 49.515625 57.515625 45.28125 60.984375 
Q 41.0625 64.453125 32.8125 64.453125 
Q 24.21875 64.453125 20.28125 61.296875 
Q 16.359375 58.15625 16.359375 53.71875 
Q 16.359375 49.859375 19.140625 47.359375 
Q 21.875 44.875 33.421875 42.265625 
Q 44.96875 39.65625 49.265625 37.703125 
Q 55.515625 34.8125 58.484375 30.390625 
Q 61.46875 25.984375 61.46875 20.21875 
Q 61.46875 14.5 58.203125 9.4375 
Q 54.9375 4.390625 48.796875 1.578125 
Q 42.671875 -1.21875 35.015625 -1.21875 
Q 25.296875 -1.21875 18.71875 1.609375 
Q 12.15625 4.4375 8.421875 10.125 
Q 4.6875 15.828125 4.5 23 
z
" id="ArialMT-83"/>
       <path d="M 28.171875 0 
L 0.4375 71.578125 
L 10.6875 71.578125 
L 29.296875 19.578125 
Q 31.546875 13.328125 33.0625 7.859375 
Q 34.71875 13.71875 36.921875 19.578125 
L 56.25 71.578125 
L 65.921875 71.578125 
L 37.890625 0 
z
" id="ArialMT-86"/>
       <path d="M 7.421875 0 
L 7.421875 71.578125 
L 21.6875 71.578125 
L 38.625 20.90625 
Q 40.96875 13.8125 42.046875 10.296875 
Q 43.265625 14.203125 45.84375 21.78125 
L 62.984375 71.578125 
L 75.734375 71.578125 
L 75.734375 0 
L 66.609375 0 
L 66.609375 59.90625 
L 45.796875 0 
L 37.25 0 
L 16.546875 60.9375 
L 16.546875 0 
z
" id="ArialMT-77"/>
      </defs>
      <use xlink:href="#ArialMT-83"/>
      <use x="66.699219" xlink:href="#ArialMT-86"/>
      <use x="133.398438" xlink:href="#ArialMT-77"/>
     </g>
    </g>
    <g id="patch_9">
     <path d="M 141.689687 163.1225 
L 161.689687 163.1225 
L 161.689687 156.1225 
L 141.689687 156.1225 
z
" style="fill:#228b22;stroke:#228b22;stroke-linejoin:miter;"/>
    </g>
    <g id="text_17">
     <!-- XGB -->
     <g transform="translate(169.689687 163.1225)scale(0.1 -0.1)">
      <defs>
       <path d="M 0.4375 0 
L 28.125 37.3125 
L 3.71875 71.578125 
L 14.984375 71.578125 
L 27.984375 53.21875 
Q 32.03125 47.515625 33.734375 44.4375 
Q 36.140625 48.34375 39.40625 52.59375 
L 53.8125 71.578125 
L 64.109375 71.578125 
L 38.96875 37.84375 
L 66.0625 0 
L 54.34375 0 
L 36.328125 25.53125 
Q 34.8125 27.734375 33.203125 30.328125 
Q 30.8125 26.421875 29.78125 24.953125 
L 11.8125 0 
z
" id="ArialMT-88"/>
       <path d="M 41.21875 28.078125 
L 41.21875 36.46875 
L 71.53125 36.53125 
L 71.53125 9.96875 
Q 64.546875 4.390625 57.125 1.578125 
Q 49.703125 -1.21875 41.890625 -1.21875 
Q 31.34375 -1.21875 22.71875 3.296875 
Q 14.109375 7.8125 9.71875 16.359375 
Q 5.328125 24.90625 5.328125 35.453125 
Q 5.328125 45.90625 9.6875 54.953125 
Q 14.0625 64.015625 22.265625 68.40625 
Q 30.46875 72.796875 41.15625 72.796875 
Q 48.921875 72.796875 55.1875 70.28125 
Q 61.46875 67.78125 65.03125 63.28125 
Q 68.609375 58.796875 70.453125 51.5625 
L 61.921875 49.21875 
Q 60.296875 54.6875 57.90625 57.8125 
Q 55.515625 60.9375 51.0625 62.8125 
Q 46.625 64.703125 41.21875 64.703125 
Q 34.71875 64.703125 29.984375 62.71875 
Q 25.25 60.75 22.34375 57.515625 
Q 19.4375 54.296875 17.828125 50.4375 
Q 15.09375 43.796875 15.09375 36.03125 
Q 15.09375 26.46875 18.390625 20.015625 
Q 21.6875 13.578125 27.984375 10.453125 
Q 34.28125 7.328125 41.359375 7.328125 
Q 47.515625 7.328125 53.375 9.6875 
Q 59.234375 12.0625 62.25 14.75 
L 62.25 28.078125 
z
" id="ArialMT-71"/>
       <path d="M 7.328125 0 
L 7.328125 71.578125 
L 34.1875 71.578125 
Q 42.390625 71.578125 47.34375 69.40625 
Q 52.296875 67.234375 55.09375 62.71875 
Q 57.90625 58.203125 57.90625 53.265625 
Q 57.90625 48.6875 55.421875 44.625 
Q 52.9375 40.578125 47.90625 38.09375 
Q 54.390625 36.1875 57.875 31.59375 
Q 61.375 27 61.375 20.75 
Q 61.375 15.71875 59.25 11.390625 
Q 57.125 7.078125 54 4.734375 
Q 50.875 2.390625 46.15625 1.1875 
Q 41.453125 0 34.625 0 
z
M 16.796875 41.5 
L 32.28125 41.5 
Q 38.578125 41.5 41.3125 42.328125 
Q 44.921875 43.40625 46.75 45.890625 
Q 48.578125 48.390625 48.578125 52.15625 
Q 48.578125 55.71875 46.875 58.421875 
Q 45.171875 61.140625 41.984375 62.140625 
Q 38.8125 63.140625 31.109375 63.140625 
L 16.796875 63.140625 
z
M 16.796875 8.453125 
L 34.625 8.453125 
Q 39.203125 8.453125 41.0625 8.796875 
Q 44.34375 9.375 46.53125 10.734375 
Q 48.734375 12.109375 50.140625 14.71875 
Q 51.5625 17.328125 51.5625 20.75 
Q 51.5625 24.75 49.515625 27.703125 
Q 47.46875 30.671875 43.828125 31.859375 
Q 40.1875 33.0625 33.34375 33.0625 
L 16.796875 33.0625 
z
" id="ArialMT-66"/>
      </defs>
      <use xlink:href="#ArialMT-88"/>
      <use x="66.699219" xlink:href="#ArialMT-71"/>
      <use x="144.482422" xlink:href="#ArialMT-66"/>
     </g>
    </g>
   </g>
  </g>
 </g>
 <defs>
  <clipPath id="pe75ae75bb3">
   <rect height="157.72" width="157.72" x="42.64" y="16.39"/>
  </clipPath>
 </defs>
</svg>
